<?xml version="1.0" encoding="utf-8"?>
<!-- Generator: Adobe Illustrator 26.0.3, SVG Export Plug-In . SVG Version: 6.00 Build 0)  -->
<svg version="1.1" id="Layer_1" xmlns="http://www.w3.org/2000/svg" xmlns:xlink="http://www.w3.org/1999/xlink" x="0px" y="0px"
	 viewBox="0 0 649.1 418.1" style="enable-background:new 0 0 649.1 418.1;" xml:space="preserve">
<style type="text/css">
	.st0{fill:none;stroke:#FF00FF;stroke-width:2.834646e-02;stroke-miterlimit:10;}
</style>
<g id="Layer_2_00000071559034429139610160000005743488961474149538_">
</g>
<g>
	<polygon class="st0" points="66.9,224 69.4,219.8 74.3,219.8 76.8,224 74.3,228.3 69.4,228.3 	"/>
	<polygon class="st0" points="77.2,218.1 79.7,213.8 84.6,213.8 87.1,218.1 84.6,222.3 79.7,222.3 	"/>
	<polygon class="st0" points="77.2,230 79.7,225.7 84.6,225.7 87.1,230 84.6,234.2 79.7,234.2 	"/>
	<polygon class="st0" points="87.6,224 90,219.8 94.9,219.8 97.4,224 94.9,228.3 90,228.3 	"/>
	<polygon class="st0" points="87.6,235.9 90,231.7 94.9,231.7 97.4,235.9 94.9,240.2 90,240.2 	"/>
	<polygon class="st0" points="97.9,218.1 100.3,213.8 105.2,213.8 107.7,218.1 105.2,222.3 100.3,222.3 	"/>
	<polygon class="st0" points="97.9,230 100.3,225.7 105.2,225.7 107.7,230 105.2,234.2 100.3,234.2 	"/>
	<polygon class="st0" points="108.2,212.1 110.6,207.9 115.5,207.9 118,212.1 115.5,216.4 110.6,216.4 	"/>
	<polygon class="st0" points="108.2,224 110.6,219.8 115.5,219.8 118,224 115.5,228.3 110.6,228.3 	"/>
	<polygon class="st0" points="118.5,206.2 121,201.9 125.9,201.9 128.3,206.2 125.9,210.4 121,210.4 	"/>
	<polygon class="st0" points="118.5,218.1 121,213.8 125.9,213.8 128.3,218.1 125.9,222.3 121,222.3 	"/>
	<polygon class="st0" points="118.5,230 121,225.7 125.9,225.7 128.3,230 125.9,234.2 121,234.2 	"/>
	<polygon class="st0" points="128.8,212.1 131.3,207.9 136.2,207.9 138.6,212.1 136.2,216.4 131.3,216.4 	"/>
	<polygon class="st0" points="128.8,224 131.3,219.8 136.2,219.8 138.6,224 136.2,228.3 131.3,228.3 	"/>
	<polygon class="st0" points="139.1,194.3 141.6,190 146.5,190 148.9,194.3 146.5,198.5 141.6,198.5 	"/>
	<polygon class="st0" points="139.1,206.2 141.6,201.9 146.5,201.9 148.9,206.2 146.5,210.4 141.6,210.4 	"/>
	<polygon class="st0" points="139.1,218.1 141.6,213.8 146.5,213.8 148.9,218.1 146.5,222.3 141.6,222.3 	"/>
	<polygon class="st0" points="139.1,230 141.6,225.7 146.5,225.7 148.9,230 146.5,234.2 141.6,234.2 	"/>
	<polygon class="st0" points="149.4,188.3 151.9,184.1 156.8,184.1 159.3,188.3 156.8,192.6 151.9,192.6 	"/>
	<polygon class="st0" points="149.4,200.2 151.9,196 156.8,196 159.3,200.2 156.8,204.5 151.9,204.5 	"/>
	<polygon class="st0" points="149.4,212.1 151.9,207.9 156.8,207.9 159.3,212.1 156.8,216.4 151.9,216.4 	"/>
	<polygon class="st0" points="149.4,224 151.9,219.8 156.8,219.8 159.3,224 156.8,228.3 151.9,228.3 	"/>
	<polygon class="st0" points="159.7,194.3 162.2,190 167.1,190 169.6,194.3 167.1,198.5 162.2,198.5 	"/>
	<polygon class="st0" points="159.7,206.2 162.2,201.9 167.1,201.9 169.6,206.2 167.1,210.4 162.2,210.4 	"/>
	<polygon class="st0" points="159.7,218.1 162.2,213.8 167.1,213.8 169.6,218.1 167.1,222.3 162.2,222.3 	"/>
	<polygon class="st0" points="159.7,230 162.2,225.7 167.1,225.7 169.6,230 167.1,234.2 162.2,234.2 	"/>
	<polygon class="st0" points="170.1,212.1 172.5,207.9 177.4,207.9 179.9,212.1 177.4,216.4 172.5,216.4 	"/>
	<polygon class="st0" points="170.1,224 172.5,219.8 177.4,219.8 179.9,224 177.4,228.3 172.5,228.3 	"/>
	<polygon class="st0" points="180.4,206.2 182.8,201.9 187.7,201.9 190.2,206.2 187.7,210.4 182.8,210.4 	"/>
	<polygon class="st0" points="180.4,218.1 182.8,213.8 187.7,213.8 190.2,218.1 187.7,222.3 182.8,222.3 	"/>
	<polygon class="st0" points="180.4,230 182.8,225.7 187.7,225.7 190.2,230 187.7,234.2 182.8,234.2 	"/>
	<polygon class="st0" points="190.7,200.2 193.1,196 198,196 200.5,200.2 198,204.5 193.1,204.5 	"/>
	<polygon class="st0" points="190.7,212.1 193.1,207.9 198,207.9 200.5,212.1 198,216.4 193.1,216.4 	"/>
	<polygon class="st0" points="190.7,224 193.1,219.8 198,219.8 200.5,224 198,228.3 193.1,228.3 	"/>
	<polygon class="st0" points="190.7,343.1 193.1,338.8 198,338.8 200.5,343.1 198,347.3 193.1,347.3 	"/>
	<polygon class="st0" points="201,206.2 203.4,201.9 208.4,201.9 210.8,206.2 208.4,210.4 203.4,210.4 	"/>
	<polygon class="st0" points="201,218.1 203.4,213.8 208.4,213.8 210.8,218.1 208.4,222.3 203.4,222.3 	"/>
	<polygon class="st0" points="201,230 203.4,225.7 208.4,225.7 210.8,230 208.4,234.2 203.4,234.2 	"/>
	<polygon class="st0" points="211.3,212.1 213.8,207.9 218.7,207.9 221.1,212.1 218.7,216.4 213.8,216.4 	"/>
	<polygon class="st0" points="211.3,224 213.8,219.8 218.7,219.8 221.1,224 218.7,228.3 213.8,228.3 	"/>
	<polygon class="st0" points="221.6,218.1 224.1,213.8 229,213.8 231.4,218.1 229,222.3 224.1,222.3 	"/>
	<polygon class="st0" points="221.6,230 224.1,225.7 229,225.7 231.4,230 229,234.2 224.1,234.2 	"/>
	<polygon class="st0" points="231.9,212.1 234.4,207.9 239.3,207.9 241.8,212.1 239.3,216.4 234.4,216.4 	"/>
	<polygon class="st0" points="231.9,224 234.4,219.8 239.3,219.8 241.8,224 239.3,228.3 234.4,228.3 	"/>
	<polygon class="st0" points="262.9,206.2 265.3,201.9 270.2,201.9 272.7,206.2 270.2,210.4 265.3,210.4 	"/>
	<polygon class="st0" points="262.9,218.1 265.3,213.8 270.2,213.8 272.7,218.1 270.2,222.3 265.3,222.3 	"/>
	<polygon class="st0" points="273.2,212.1 275.6,207.9 280.5,207.9 283,212.1 280.5,216.4 275.6,216.4 	"/>
	<polygon class="st0" points="304.1,206.2 306.6,201.9 311.5,201.9 313.9,206.2 311.5,210.4 306.6,210.4 	"/>
	<polygon class="st0" points="304.1,218.1 306.6,213.8 311.5,213.8 313.9,218.1 311.5,222.3 306.6,222.3 	"/>
	<polygon class="st0" points="314.4,200.2 316.9,196 321.8,196 324.2,200.2 321.8,204.5 316.9,204.5 	"/>
	<polygon class="st0" points="314.4,212.1 316.9,207.9 321.8,207.9 324.2,212.1 321.8,216.4 316.9,216.4 	"/>
	<polygon class="st0" points="314.4,224 316.9,219.8 321.8,219.8 324.2,224 321.8,228.3 316.9,228.3 	"/>
	<polygon class="st0" points="345.4,194.3 347.8,190 352.7,190 355.2,194.3 352.7,198.5 347.8,198.5 	"/>
	<polygon class="st0" points="345.4,206.2 347.8,201.9 352.7,201.9 355.2,206.2 352.7,210.4 347.8,210.4 	"/>
	<polygon class="st0" points="345.4,218.1 347.8,213.8 352.7,213.8 355.2,218.1 352.7,222.3 347.8,222.3 	"/>
	<polygon class="st0" points="345.4,230 347.8,225.7 352.7,225.7 355.2,230 352.7,234.2 347.8,234.2 	"/>
	<polygon class="st0" points="355.7,200.2 358.1,196 363,196 365.5,200.2 363,204.5 358.1,204.5 	"/>
	<polygon class="st0" points="355.7,212.1 358.1,207.9 363,207.9 365.5,212.1 363,216.4 358.1,216.4 	"/>
	<polygon class="st0" points="386.6,194.3 389.1,190 394,190 396.4,194.3 394,198.5 389.1,198.5 	"/>
	<polygon class="st0" points="386.6,206.2 389.1,201.9 394,201.9 396.4,206.2 394,210.4 389.1,210.4 	"/>
	<polygon class="st0" points="386.6,218.1 389.1,213.8 394,213.8 396.4,218.1 394,222.3 389.1,222.3 	"/>
	<polygon class="st0" points="396.9,188.3 399.4,184.1 404.3,184.1 406.7,188.3 404.3,192.6 399.4,192.6 	"/>
	<polygon class="st0" points="396.9,200.2 399.4,196 404.3,196 406.7,200.2 404.3,204.5 399.4,204.5 	"/>
	<polygon class="st0" points="396.9,212.1 399.4,207.9 404.3,207.9 406.7,212.1 404.3,216.4 399.4,216.4 	"/>
	<polygon class="st0" points="242.2,206.2 244.7,201.9 249.6,201.9 252.1,206.2 249.6,210.4 244.7,210.4 	"/>
	<polygon class="st0" points="242.2,218.1 244.7,213.8 249.6,213.8 252.1,218.1 249.6,222.3 244.7,222.3 	"/>
	<polygon class="st0" points="242.2,230 244.7,225.7 249.6,225.7 252.1,230 249.6,234.2 244.7,234.2 	"/>
	<polygon class="st0" points="252.6,212.1 255,207.9 259.9,207.9 262.4,212.1 259.9,216.4 255,216.4 	"/>
	<polygon class="st0" points="252.6,224 255,219.8 259.9,219.8 262.4,224 259.9,228.3 255,228.3 	"/>
	<polygon class="st0" points="283.5,206.2 285.9,201.9 290.9,201.9 293.3,206.2 290.9,210.4 285.9,210.4 	"/>
	<polygon class="st0" points="283.5,218.1 285.9,213.8 290.9,213.8 293.3,218.1 290.9,222.3 285.9,222.3 	"/>
	<polygon class="st0" points="283.5,301.4 285.9,297.2 290.9,297.2 293.3,301.4 290.9,305.7 285.9,305.7 	"/>
	<polygon class="st0" points="283.5,325.2 285.9,321 290.9,321 293.3,325.2 290.9,329.5 285.9,329.5 	"/>
	<polygon class="st0" points="293.8,200.2 296.3,196 301.2,196 303.6,200.2 301.2,204.5 296.3,204.5 	"/>
	<polygon class="st0" points="293.8,212.1 296.3,207.9 301.2,207.9 303.6,212.1 301.2,216.4 296.3,216.4 	"/>
	<polygon class="st0" points="293.8,224 296.3,219.8 301.2,219.8 303.6,224 301.2,228.3 296.3,228.3 	"/>
	<polygon class="st0" points="324.7,206.2 327.2,201.9 332.1,201.9 334.6,206.2 332.1,210.4 327.2,210.4 	"/>
	<polygon class="st0" points="324.7,218.1 327.2,213.8 332.1,213.8 334.6,218.1 332.1,222.3 327.2,222.3 	"/>
	<polygon class="st0" points="324.7,230 327.2,225.7 332.1,225.7 334.6,230 332.1,234.2 327.2,234.2 	"/>
	<polygon class="st0" points="335.1,200.2 337.5,196 342.4,196 344.9,200.2 342.4,204.5 337.5,204.5 	"/>
	<polygon class="st0" points="335.1,212.1 337.5,207.9 342.4,207.9 344.9,212.1 342.4,216.4 337.5,216.4 	"/>
	<polygon class="st0" points="335.1,224 337.5,219.8 342.4,219.8 344.9,224 342.4,228.3 337.5,228.3 	"/>
	<polygon class="st0" points="366,206.2 368.4,201.9 373.4,201.9 375.8,206.2 373.4,210.4 368.4,210.4 	"/>
	<polygon class="st0" points="366,218.1 368.4,213.8 373.4,213.8 375.8,218.1 373.4,222.3 368.4,222.3 	"/>
	<polygon class="st0" points="376.3,200.2 378.8,196 383.7,196 386.1,200.2 383.7,204.5 378.8,204.5 	"/>
	<polygon class="st0" points="376.3,212.1 378.8,207.9 383.7,207.9 386.1,212.1 383.7,216.4 378.8,216.4 	"/>
	<polygon class="st0" points="376.3,224 378.8,219.8 383.7,219.8 386.1,224 383.7,228.3 378.8,228.3 	"/>
	<polygon class="st0" points="407.2,194.3 409.7,190 414.6,190 417.1,194.3 414.6,198.5 409.7,198.5 	"/>
	<polygon class="st0" points="407.2,206.2 409.7,201.9 414.6,201.9 417.1,206.2 414.6,210.4 409.7,210.4 	"/>
	<polygon class="st0" points="417.5,188.3 420,184.1 424.9,184.1 427.4,188.3 424.9,192.6 420,192.6 	"/>
	<polygon class="st0" points="417.5,200.2 420,196 424.9,196 427.4,200.2 424.9,204.5 420,204.5 	"/>
	<polygon class="st0" points="427.9,170.5 430.3,166.2 435.2,166.2 437.7,170.5 435.2,174.7 430.3,174.7 	"/>
	<polygon class="st0" points="427.9,182.4 430.3,178.1 435.2,178.1 437.7,182.4 435.2,186.6 430.3,186.6 	"/>
	<polygon class="st0" points="427.9,194.3 430.3,190 435.2,190 437.7,194.3 435.2,198.5 430.3,198.5 	"/>
	<polygon class="st0" points="427.9,206.2 430.3,201.9 435.2,201.9 437.7,206.2 435.2,210.4 430.3,210.4 	"/>
	<polygon class="st0" points="438.2,176.4 440.6,172.2 445.5,172.2 448,176.4 445.5,180.7 440.6,180.7 	"/>
	<polygon class="st0" points="438.2,188.3 440.6,184.1 445.5,184.1 448,188.3 445.5,192.6 440.6,192.6 	"/>
	<polygon class="st0" points="438.2,200.2 440.6,196 445.5,196 448,200.2 445.5,204.5 440.6,204.5 	"/>
	<polygon class="st0" points="438.2,212.1 440.6,207.9 445.5,207.9 448,212.1 445.5,216.4 440.6,216.4 	"/>
	<polygon class="st0" points="489.7,170.5 492.2,166.2 497.1,166.2 499.6,170.5 497.1,174.7 492.2,174.7 	"/>
	<polygon class="st0" points="489.7,182.4 492.2,178.1 497.1,178.1 499.6,182.4 497.1,186.6 492.2,186.6 	"/>
	<polygon class="st0" points="489.7,194.3 492.2,190 497.1,190 499.6,194.3 497.1,198.5 492.2,198.5 	"/>
	<polygon class="st0" points="500,176.4 502.5,172.2 507.4,172.2 509.9,176.4 507.4,180.7 502.5,180.7 	"/>
	<polygon class="st0" points="500,188.3 502.5,184.1 507.4,184.1 509.9,188.3 507.4,192.6 502.5,192.6 	"/>
	<polygon class="st0" points="510.4,158.6 512.8,154.3 517.7,154.3 520.2,158.6 517.7,162.8 512.8,162.8 	"/>
	<polygon class="st0" points="510.4,170.5 512.8,166.2 517.7,166.2 520.2,170.5 517.7,174.7 512.8,174.7 	"/>
	<polygon class="st0" points="510.4,182.4 512.8,178.1 517.7,178.1 520.2,182.4 517.7,186.6 512.8,186.6 	"/>
	<polygon class="st0" points="520.7,152.6 523.1,148.4 528,148.4 530.5,152.6 528,156.9 523.1,156.9 	"/>
	<polygon class="st0" points="520.7,164.5 523.1,160.3 528,160.3 530.5,164.5 528,168.8 523.1,168.8 	"/>
	<polygon class="st0" points="520.7,176.4 523.1,172.2 528,172.2 530.5,176.4 528,180.7 523.1,180.7 	"/>
	<polygon class="st0" points="448.5,170.5 450.9,166.2 455.9,166.2 458.3,170.5 455.9,174.7 450.9,174.7 	"/>
	<polygon class="st0" points="448.5,182.4 450.9,178.1 455.9,178.1 458.3,182.4 455.9,186.6 450.9,186.6 	"/>
	<polygon class="st0" points="448.5,194.3 450.9,190 455.9,190 458.3,194.3 455.9,198.5 450.9,198.5 	"/>
	<polygon class="st0" points="448.5,206.2 450.9,201.9 455.9,201.9 458.3,206.2 455.9,210.4 450.9,210.4 	"/>
	<polygon class="st0" points="458.8,176.4 461.3,172.2 466.2,172.2 468.6,176.4 466.2,180.7 461.3,180.7 	"/>
	<polygon class="st0" points="458.8,188.3 461.3,184.1 466.2,184.1 468.6,188.3 466.2,192.6 461.3,192.6 	"/>
	<polygon class="st0" points="458.8,200.2 461.3,196 466.2,196 468.6,200.2 466.2,204.5 461.3,204.5 	"/>
	<polygon class="st0" points="458.8,212.1 461.3,207.9 466.2,207.9 468.6,212.1 466.2,216.4 461.3,216.4 	"/>
	<polygon class="st0" points="469.1,170.5 471.6,166.2 476.5,166.2 478.9,170.5 476.5,174.7 471.6,174.7 	"/>
	<polygon class="st0" points="469.1,182.4 471.6,178.1 476.5,178.1 478.9,182.4 476.5,186.6 471.6,186.6 	"/>
	<polygon class="st0" points="469.1,194.3 471.6,190 476.5,190 478.9,194.3 476.5,198.5 471.6,198.5 	"/>
	<polygon class="st0" points="479.4,164.5 481.9,160.3 486.8,160.3 489.2,164.5 486.8,168.8 481.9,168.8 	"/>
	<polygon class="st0" points="479.4,176.4 481.9,172.2 486.8,172.2 489.2,176.4 486.8,180.7 481.9,180.7 	"/>
	<polygon class="st0" points="479.4,188.3 481.9,184.1 486.8,184.1 489.2,188.3 486.8,192.6 481.9,192.6 	"/>
	<polygon class="st0" points="479.4,200.2 481.9,196 486.8,196 489.2,200.2 486.8,204.5 481.9,204.5 	"/>
	<polygon class="st0" points="531,122.9 533.4,118.6 538.3,118.6 540.8,122.9 538.3,127.1 533.4,127.1 	"/>
	<polygon class="st0" points="531,134.8 533.4,130.5 538.3,130.5 540.8,134.8 538.3,139 533.4,139 	"/>
	<polygon class="st0" points="531,146.7 533.4,142.4 538.3,142.4 540.8,146.7 538.3,150.9 533.4,150.9 	"/>
	<polygon class="st0" points="531,158.6 533.4,154.3 538.3,154.3 540.8,158.6 538.3,162.8 533.4,162.8 	"/>
	<polygon class="st0" points="531,170.5 533.4,166.2 538.3,166.2 540.8,170.5 538.3,174.7 533.4,174.7 	"/>
	<polygon class="st0" points="531,111 533.4,106.7 538.3,106.7 540.8,111 538.3,115.2 533.4,115.2 	"/>
	<polygon class="st0" points="572.3,75.2 574.8,71 579.7,71 582.2,75.2 579.7,79.5 574.8,79.5 	"/>
	<polygon class="st0" points="572.3,87.2 574.8,82.9 579.7,82.9 582.2,87.2 579.7,91.4 574.8,91.4 	"/>
	<polygon class="st0" points="572.3,99.1 574.8,94.8 579.7,94.8 582.2,99.1 579.7,103.3 574.8,103.3 	"/>
	<polygon class="st0" points="572.3,111 574.8,106.7 579.7,106.7 582.2,111 579.7,115.2 574.8,115.2 	"/>
	<polygon class="st0" points="541.4,116.9 543.9,112.7 548.8,112.7 551.2,116.9 548.8,121.2 543.9,121.2 	"/>
	<polygon class="st0" points="541.4,128.8 543.9,124.6 548.8,124.6 551.2,128.8 548.8,133.1 543.9,133.1 	"/>
	<polygon class="st0" points="541.4,140.7 543.9,136.5 548.8,136.5 551.2,140.7 548.8,145 543.9,145 	"/>
	<polygon class="st0" points="541.4,152.6 543.9,148.4 548.8,148.4 551.2,152.6 548.8,156.9 543.9,156.9 	"/>
	<polygon class="st0" points="541.4,164.5 543.9,160.3 548.8,160.3 551.2,164.5 548.8,168.8 543.9,168.8 	"/>
	<polygon class="st0" points="541.4,105 543.9,100.8 548.8,100.8 551.2,105 548.8,109.3 543.9,109.3 	"/>
	<polygon class="st0" points="551.7,122.9 554.2,118.6 559.1,118.6 561.5,122.9 559.1,127.1 554.2,127.1 	"/>
	<polygon class="st0" points="551.7,134.8 554.2,130.5 559.1,130.5 561.5,134.8 559.1,139 554.2,139 	"/>
	<polygon class="st0" points="551.7,146.7 554.2,142.4 559.1,142.4 561.5,146.7 559.1,150.9 554.2,150.9 	"/>
	<polygon class="st0" points="551.7,99.1 554.2,94.8 559.1,94.8 561.5,99.1 559.1,103.3 554.2,103.3 	"/>
	<polygon class="st0" points="551.7,111 554.2,106.7 559.1,106.7 561.5,111 559.1,115.2 554.2,115.2 	"/>
	<polygon class="st0" points="562,116.9 564.5,112.7 569.4,112.7 571.9,116.9 569.4,121.2 564.5,121.2 	"/>
	<polygon class="st0" points="562,128.8 564.5,124.6 569.4,124.6 571.9,128.8 569.4,133.1 564.5,133.1 	"/>
	<polygon class="st0" points="562,105 564.5,100.8 569.4,100.8 571.9,105 569.4,109.3 564.5,109.3 	"/>
</g>
</svg>
