<?xml version="1.0" encoding="utf-8"?>
<!-- Generator: Adobe Illustrator 26.0.3, SVG Export Plug-In . SVG Version: 6.00 Build 0)  -->
<svg version="1.1" xmlns="http://www.w3.org/2000/svg" xmlns:xlink="http://www.w3.org/1999/xlink" x="0px" y="0px"
	 viewBox="0 0 649.1 418.1" style="enable-background:new 0 0 649.1 418.1;" xml:space="preserve">
<style type="text/css">
	.st0{fill:none;stroke:#FF00FF;stroke-width:2.834646e-02;stroke-miterlimit:10;}
</style>
<g id="Layer_1">
	<g>
		<polygon class="st0" points="92.8,191.2 95.2,186.9 100.2,186.9 102.6,191.2 100.2,195.5 95.2,195.5 		"/>
		<polygon class="st0" points="92.8,203.1 95.2,198.9 100.2,198.9 102.6,203.1 100.2,207.4 95.2,207.4 		"/>
		<polygon class="st0" points="103.1,185.2 105.6,181 110.5,181 112.9,185.2 110.5,189.5 105.6,189.5 		"/>
		<polygon class="st0" points="103.1,197.2 105.6,192.9 110.5,192.9 112.9,197.2 110.5,201.4 105.6,201.4 		"/>
		<polygon class="st0" points="103.1,209.1 105.6,204.8 110.5,204.8 112.9,209.1 110.5,213.3 105.6,213.3 		"/>
		<polygon class="st0" points="103.1,221 105.6,216.7 110.5,216.7 112.9,221 110.5,225.2 105.6,225.2 		"/>
		<polygon class="st0" points="113.4,191.2 115.9,186.9 120.8,186.9 123.2,191.2 120.8,195.5 115.9,195.5 		"/>
		<polygon class="st0" points="113.4,203.1 115.9,198.9 120.8,198.9 123.2,203.1 120.8,207.4 115.9,207.4 		"/>
		<polygon class="st0" points="113.4,215 115.9,210.8 120.8,210.8 123.2,215 120.8,219.3 115.9,219.3 		"/>
		<polygon class="st0" points="113.4,226.9 115.9,222.7 120.8,222.7 123.2,226.9 120.8,231.2 115.9,231.2 		"/>
		<polygon class="st0" points="123.7,185.2 126.2,181 131.1,181 133.5,185.2 131.1,189.5 126.2,189.5 		"/>
		<polygon class="st0" points="123.7,197.2 126.2,192.9 131.1,192.9 133.5,197.2 131.1,201.4 126.2,201.4 		"/>
		<polygon class="st0" points="123.7,209.1 126.2,204.8 131.1,204.8 133.5,209.1 131.1,213.3 126.2,213.3 		"/>
		<polygon class="st0" points="123.7,221 126.2,216.7 131.1,216.7 133.5,221 131.1,225.2 126.2,225.2 		"/>
		<polygon class="st0" points="123.7,232.9 126.2,228.6 131.1,228.6 133.5,232.9 131.1,237.1 126.2,237.1 		"/>
		<polygon class="st0" points="134,179.3 136.5,175 141.4,175 143.9,179.3 141.4,183.6 136.5,183.6 		"/>
		<polygon class="st0" points="134,191.2 136.5,186.9 141.4,186.9 143.9,191.2 141.4,195.5 136.5,195.5 		"/>
		<polygon class="st0" points="134,203.1 136.5,198.9 141.4,198.9 143.9,203.1 141.4,207.4 136.5,207.4 		"/>
		<polygon class="st0" points="134,215 136.5,210.8 141.4,210.8 143.9,215 141.4,219.3 136.5,219.3 		"/>
		<polygon class="st0" points="134,226.9 136.5,222.7 141.4,222.7 143.9,226.9 141.4,231.2 136.5,231.2 		"/>
		<polygon class="st0" points="134,250.7 136.5,246.5 141.4,246.5 143.9,250.7 141.4,255 136.5,255 		"/>
		<polygon class="st0" points="134,274.5 136.5,270.3 141.4,270.3 143.9,274.5 141.4,278.8 136.5,278.8 		"/>
		<polygon class="st0" points="144.4,137.6 146.8,133.4 151.7,133.4 154.2,137.6 151.7,141.9 146.8,141.9 		"/>
		<polygon class="st0" points="144.4,173.3 146.8,169.1 151.7,169.1 154.2,173.3 151.7,177.6 146.8,177.6 		"/>
		<polygon class="st0" points="144.4,185.2 146.8,181 151.7,181 154.2,185.2 151.7,189.5 146.8,189.5 		"/>
		<polygon class="st0" points="144.4,197.2 146.8,192.9 151.7,192.9 154.2,197.2 151.7,201.4 146.8,201.4 		"/>
		<polygon class="st0" points="144.4,209.1 146.8,204.8 151.7,204.8 154.2,209.1 151.7,213.3 146.8,213.3 		"/>
		<polygon class="st0" points="144.4,221 146.8,216.7 151.7,216.7 154.2,221 151.7,225.2 146.8,225.2 		"/>
		<polygon class="st0" points="144.4,232.9 146.8,228.6 151.7,228.6 154.2,232.9 151.7,237.1 146.8,237.1 		"/>
		<polygon class="st0" points="144.4,244.8 146.8,240.5 151.7,240.5 154.2,244.8 151.7,249 146.8,249 		"/>
		<polygon class="st0" points="144.4,256.7 146.8,252.4 151.7,252.4 154.2,256.7 151.7,260.9 146.8,260.9 		"/>
		<polygon class="st0" points="144.4,268.6 146.8,264.3 151.7,264.3 154.2,268.6 151.7,272.8 146.8,272.8 		"/>
		<polygon class="st0" points="144.4,280.5 146.8,276.2 151.7,276.2 154.2,280.5 151.7,284.7 146.8,284.7 		"/>
		<polygon class="st0" points="154.7,143.6 157.1,139.3 162,139.3 164.5,143.6 162,147.8 157.1,147.8 		"/>
		<polygon class="st0" points="154.7,155.5 157.1,151.2 162,151.2 164.5,155.5 162,159.7 157.1,159.7 		"/>
		<polygon class="st0" points="154.7,167.4 157.1,163.1 162,163.1 164.5,167.4 162,171.6 157.1,171.6 		"/>
		<polygon class="st0" points="154.7,179.3 157.1,175 162,175 164.5,179.3 162,183.6 157.1,183.6 		"/>
		<polygon class="st0" points="154.7,191.2 157.1,186.9 162,186.9 164.5,191.2 162,195.5 157.1,195.5 		"/>
		<polygon class="st0" points="154.7,203.1 157.1,198.9 162,198.9 164.5,203.1 162,207.4 157.1,207.4 		"/>
		<polygon class="st0" points="154.7,215 157.1,210.8 162,210.8 164.5,215 162,219.3 157.1,219.3 		"/>
		<polygon class="st0" points="154.7,226.9 157.1,222.7 162,222.7 164.5,226.9 162,231.2 157.1,231.2 		"/>
		<polygon class="st0" points="154.7,238.8 157.1,234.6 162,234.6 164.5,238.8 162,243.1 157.1,243.1 		"/>
		<polygon class="st0" points="154.7,250.7 157.1,246.5 162,246.5 164.5,250.7 162,255 157.1,255 		"/>
		<polygon class="st0" points="154.7,262.6 157.1,258.4 162,258.4 164.5,262.6 162,266.9 157.1,266.9 		"/>
		<polygon class="st0" points="154.7,274.5 157.1,270.3 162,270.3 164.5,274.5 162,278.8 157.1,278.8 		"/>
		<polygon class="st0" points="165,137.6 167.4,133.4 172.3,133.4 174.8,137.6 172.3,141.9 167.4,141.9 		"/>
		<polygon class="st0" points="165,149.5 167.4,145.3 172.3,145.3 174.8,149.5 172.3,153.8 167.4,153.8 		"/>
		<polygon class="st0" points="165,161.4 167.4,157.2 172.3,157.2 174.8,161.4 172.3,165.7 167.4,165.7 		"/>
		<polygon class="st0" points="165,173.3 167.4,169.1 172.3,169.1 174.8,173.3 172.3,177.6 167.4,177.6 		"/>
		<polygon class="st0" points="165,185.2 167.4,181 172.3,181 174.8,185.2 172.3,189.5 167.4,189.5 		"/>
		<polygon class="st0" points="165,197.2 167.4,192.9 172.3,192.9 174.8,197.2 172.3,201.4 167.4,201.4 		"/>
		<polygon class="st0" points="165,209.1 167.4,204.8 172.3,204.8 174.8,209.1 172.3,213.3 167.4,213.3 		"/>
		<polygon class="st0" points="165,221 167.4,216.7 172.3,216.7 174.8,221 172.3,225.2 167.4,225.2 		"/>
		<polygon class="st0" points="165,232.9 167.4,228.6 172.3,228.6 174.8,232.9 172.3,237.1 167.4,237.1 		"/>
		<polygon class="st0" points="165,244.8 167.4,240.5 172.3,240.5 174.8,244.8 172.3,249 167.4,249 		"/>
		<polygon class="st0" points="165,256.7 167.4,252.4 172.3,252.4 174.8,256.7 172.3,260.9 167.4,260.9 		"/>
		<polygon class="st0" points="165,268.6 167.4,264.3 172.3,264.3 174.8,268.6 172.3,272.8 167.4,272.8 		"/>
		<polygon class="st0" points="165,280.5 167.4,276.2 172.3,276.2 174.8,280.5 172.3,284.7 167.4,284.7 		"/>
		<polygon class="st0" points="165,113.8 167.4,109.6 172.3,109.6 174.8,113.8 172.3,118.1 167.4,118.1 		"/>
		<polygon class="st0" points="165,125.7 167.4,121.5 172.3,121.5 174.8,125.7 172.3,130 167.4,130 		"/>
		<polygon class="st0" points="175.3,131.7 177.7,127.4 182.7,127.4 185.1,131.7 182.7,135.9 177.7,135.9 		"/>
		<polygon class="st0" points="175.3,143.6 177.7,139.3 182.7,139.3 185.1,143.6 182.7,147.8 177.7,147.8 		"/>
		<polygon class="st0" points="175.3,155.5 177.7,151.2 182.7,151.2 185.1,155.5 182.7,159.7 177.7,159.7 		"/>
		<polygon class="st0" points="175.3,167.4 177.7,163.1 182.7,163.1 185.1,167.4 182.7,171.6 177.7,171.6 		"/>
		<polygon class="st0" points="175.3,179.3 177.7,175 182.7,175 185.1,179.3 182.7,183.6 177.7,183.6 		"/>
		<polygon class="st0" points="175.3,191.2 177.7,186.9 182.7,186.9 185.1,191.2 182.7,195.5 177.7,195.5 		"/>
		<polygon class="st0" points="175.3,203.1 177.7,198.9 182.7,198.9 185.1,203.1 182.7,207.4 177.7,207.4 		"/>
		<polygon class="st0" points="175.3,215 177.7,210.8 182.7,210.8 185.1,215 182.7,219.3 177.7,219.3 		"/>
		<polygon class="st0" points="175.3,226.9 177.7,222.7 182.7,222.7 185.1,226.9 182.7,231.2 177.7,231.2 		"/>
		<polygon class="st0" points="175.3,238.8 177.7,234.6 182.7,234.6 185.1,238.8 182.7,243.1 177.7,243.1 		"/>
		<polygon class="st0" points="175.3,250.7 177.7,246.5 182.7,246.5 185.1,250.7 182.7,255 177.7,255 		"/>
		<polygon class="st0" points="175.3,262.6 177.7,258.4 182.7,258.4 185.1,262.6 182.7,266.9 177.7,266.9 		"/>
		<polygon class="st0" points="175.3,274.5 177.7,270.3 182.7,270.3 185.1,274.5 182.7,278.8 177.7,278.8 		"/>
		<polygon class="st0" points="175.3,286.4 177.7,282.2 182.7,282.2 185.1,286.4 182.7,290.7 177.7,290.7 		"/>
		<polygon class="st0" points="175.3,119.8 177.7,115.5 182.7,115.5 185.1,119.8 182.7,124 177.7,124 		"/>
		<polygon class="st0" points="185.6,137.6 188.1,133.4 193,133.4 195.4,137.6 193,141.9 188.1,141.9 		"/>
		<polygon class="st0" points="185.6,149.5 188.1,145.3 193,145.3 195.4,149.5 193,153.8 188.1,153.8 		"/>
		<polygon class="st0" points="185.6,161.4 188.1,157.2 193,157.2 195.4,161.4 193,165.7 188.1,165.7 		"/>
		<polygon class="st0" points="185.6,173.3 188.1,169.1 193,169.1 195.4,173.3 193,177.6 188.1,177.6 		"/>
		<polygon class="st0" points="185.6,185.2 188.1,181 193,181 195.4,185.2 193,189.5 188.1,189.5 		"/>
		<polygon class="st0" points="185.6,197.2 188.1,192.9 193,192.9 195.4,197.2 193,201.4 188.1,201.4 		"/>
		<polygon class="st0" points="185.6,209.1 188.1,204.8 193,204.8 195.4,209.1 193,213.3 188.1,213.3 		"/>
		<polygon class="st0" points="185.6,221 188.1,216.7 193,216.7 195.4,221 193,225.2 188.1,225.2 		"/>
		<polygon class="st0" points="185.6,232.9 188.1,228.6 193,228.6 195.4,232.9 193,237.1 188.1,237.1 		"/>
		<polygon class="st0" points="185.6,244.8 188.1,240.5 193,240.5 195.4,244.8 193,249 188.1,249 		"/>
		<polygon class="st0" points="185.6,256.7 188.1,252.4 193,252.4 195.4,256.7 193,260.9 188.1,260.9 		"/>
		<polygon class="st0" points="185.6,268.6 188.1,264.3 193,264.3 195.4,268.6 193,272.8 188.1,272.8 		"/>
		<polygon class="st0" points="185.6,280.5 188.1,276.2 193,276.2 195.4,280.5 193,284.7 188.1,284.7 		"/>
		<polygon class="st0" points="185.6,292.4 188.1,288.1 193,288.1 195.4,292.4 193,296.6 188.1,296.6 		"/>
		<polygon class="st0" points="185.6,101.9 188.1,97.7 193,97.7 195.4,101.9 193,106.2 188.1,106.2 		"/>
		<polygon class="st0" points="185.6,113.8 188.1,109.6 193,109.6 195.4,113.8 193,118.1 188.1,118.1 		"/>
		<polygon class="st0" points="185.6,125.7 188.1,121.5 193,121.5 195.4,125.7 193,130 188.1,130 		"/>
		<polygon class="st0" points="195.9,131.7 198.4,127.4 203.3,127.4 205.7,131.7 203.3,135.9 198.4,135.9 		"/>
		<polygon class="st0" points="195.9,143.6 198.4,139.3 203.3,139.3 205.7,143.6 203.3,147.8 198.4,147.8 		"/>
		<polygon class="st0" points="195.9,155.5 198.4,151.2 203.3,151.2 205.7,155.5 203.3,159.7 198.4,159.7 		"/>
		<polygon class="st0" points="195.9,167.4 198.4,163.1 203.3,163.1 205.7,167.4 203.3,171.6 198.4,171.6 		"/>
		<polygon class="st0" points="195.9,179.3 198.4,175 203.3,175 205.7,179.3 203.3,183.6 198.4,183.6 		"/>
		<polygon class="st0" points="195.9,191.2 198.4,186.9 203.3,186.9 205.7,191.2 203.3,195.5 198.4,195.5 		"/>
		<polygon class="st0" points="195.9,203.1 198.4,198.9 203.3,198.9 205.7,203.1 203.3,207.4 198.4,207.4 		"/>
		<polygon class="st0" points="195.9,215 198.4,210.8 203.3,210.8 205.7,215 203.3,219.3 198.4,219.3 		"/>
		<polygon class="st0" points="195.9,226.9 198.4,222.7 203.3,222.7 205.7,226.9 203.3,231.2 198.4,231.2 		"/>
		<polygon class="st0" points="195.9,238.8 198.4,234.6 203.3,234.6 205.7,238.8 203.3,243.1 198.4,243.1 		"/>
		<polygon class="st0" points="195.9,250.7 198.4,246.5 203.3,246.5 205.7,250.7 203.3,255 198.4,255 		"/>
		<polygon class="st0" points="195.9,262.6 198.4,258.4 203.3,258.4 205.7,262.6 203.3,266.9 198.4,266.9 		"/>
		<polygon class="st0" points="195.9,274.5 198.4,270.3 203.3,270.3 205.7,274.5 203.3,278.8 198.4,278.8 		"/>
		<polygon class="st0" points="195.9,286.4 198.4,282.2 203.3,282.2 205.7,286.4 203.3,290.7 198.4,290.7 		"/>
		<polygon class="st0" points="195.9,298.3 198.4,294.1 203.3,294.1 205.7,298.3 203.3,302.6 198.4,302.6 		"/>
		<polygon class="st0" points="195.9,96 198.4,91.7 203.3,91.7 205.7,96 203.3,100.2 198.4,100.2 		"/>
		<polygon class="st0" points="195.9,107.9 198.4,103.6 203.3,103.6 205.7,107.9 203.3,112.1 198.4,112.1 		"/>
		<polygon class="st0" points="195.9,119.8 198.4,115.5 203.3,115.5 205.7,119.8 203.3,124 198.4,124 		"/>
		<polygon class="st0" points="206.2,137.6 208.7,133.4 213.6,133.4 216,137.6 213.6,141.9 208.7,141.9 		"/>
		<polygon class="st0" points="206.2,149.5 208.7,145.3 213.6,145.3 216,149.5 213.6,153.8 208.7,153.8 		"/>
		<polygon class="st0" points="206.2,161.4 208.7,157.2 213.6,157.2 216,161.4 213.6,165.7 208.7,165.7 		"/>
		<polygon class="st0" points="206.2,173.3 208.7,169.1 213.6,169.1 216,173.3 213.6,177.6 208.7,177.6 		"/>
		<polygon class="st0" points="206.2,185.2 208.7,181 213.6,181 216,185.2 213.6,189.5 208.7,189.5 		"/>
		<polygon class="st0" points="206.2,197.2 208.7,192.9 213.6,192.9 216,197.2 213.6,201.4 208.7,201.4 		"/>
		<polygon class="st0" points="206.2,209.1 208.7,204.8 213.6,204.8 216,209.1 213.6,213.3 208.7,213.3 		"/>
		<polygon class="st0" points="206.2,221 208.7,216.7 213.6,216.7 216,221 213.6,225.2 208.7,225.2 		"/>
		<polygon class="st0" points="206.2,232.9 208.7,228.6 213.6,228.6 216,232.9 213.6,237.1 208.7,237.1 		"/>
		<polygon class="st0" points="206.2,244.8 208.7,240.5 213.6,240.5 216,244.8 213.6,249 208.7,249 		"/>
		<polygon class="st0" points="206.2,256.7 208.7,252.4 213.6,252.4 216,256.7 213.6,260.9 208.7,260.9 		"/>
		<polygon class="st0" points="206.2,268.6 208.7,264.3 213.6,264.3 216,268.6 213.6,272.8 208.7,272.8 		"/>
		<polygon class="st0" points="206.2,280.5 208.7,276.2 213.6,276.2 216,280.5 213.6,284.7 208.7,284.7 		"/>
		<polygon class="st0" points="206.2,292.4 208.7,288.1 213.6,288.1 216,292.4 213.6,296.6 208.7,296.6 		"/>
		<polygon class="st0" points="206.2,304.3 208.7,300 213.6,300 216,304.3 213.6,308.5 208.7,308.5 		"/>
		<polygon class="st0" points="206.2,101.9 208.7,97.7 213.6,97.7 216,101.9 213.6,106.2 208.7,106.2 		"/>
		<polygon class="st0" points="206.2,113.8 208.7,109.6 213.6,109.6 216,113.8 213.6,118.1 208.7,118.1 		"/>
		<polygon class="st0" points="206.2,125.7 208.7,121.5 213.6,121.5 216,125.7 213.6,130 208.7,130 		"/>
		<polygon class="st0" points="216.5,131.7 219,127.4 223.9,127.4 226.4,131.7 223.9,135.9 219,135.9 		"/>
		<polygon class="st0" points="216.5,143.6 219,139.3 223.9,139.3 226.4,143.6 223.9,147.8 219,147.8 		"/>
		<polygon class="st0" points="216.5,155.5 219,151.2 223.9,151.2 226.4,155.5 223.9,159.7 219,159.7 		"/>
		<polygon class="st0" points="216.5,167.4 219,163.1 223.9,163.1 226.4,167.4 223.9,171.6 219,171.6 		"/>
		<polygon class="st0" points="216.5,179.3 219,175 223.9,175 226.4,179.3 223.9,183.6 219,183.6 		"/>
		<polygon class="st0" points="216.5,191.2 219,186.9 223.9,186.9 226.4,191.2 223.9,195.5 219,195.5 		"/>
		<polygon class="st0" points="216.5,203.1 219,198.9 223.9,198.9 226.4,203.1 223.9,207.4 219,207.4 		"/>
		<polygon class="st0" points="216.5,215 219,210.8 223.9,210.8 226.4,215 223.9,219.3 219,219.3 		"/>
		<polygon class="st0" points="216.5,226.9 219,222.7 223.9,222.7 226.4,226.9 223.9,231.2 219,231.2 		"/>
		<polygon class="st0" points="216.5,238.8 219,234.6 223.9,234.6 226.4,238.8 223.9,243.1 219,243.1 		"/>
		<polygon class="st0" points="216.5,250.7 219,246.5 223.9,246.5 226.4,250.7 223.9,255 219,255 		"/>
		<polygon class="st0" points="216.5,262.6 219,258.4 223.9,258.4 226.4,262.6 223.9,266.9 219,266.9 		"/>
		<polygon class="st0" points="216.5,274.5 219,270.3 223.9,270.3 226.4,274.5 223.9,278.8 219,278.8 		"/>
		<polygon class="st0" points="216.5,286.4 219,282.2 223.9,282.2 226.4,286.4 223.9,290.7 219,290.7 		"/>
		<polygon class="st0" points="216.5,298.3 219,294.1 223.9,294.1 226.4,298.3 223.9,302.6 219,302.6 		"/>
		<polygon class="st0" points="216.5,107.9 219,103.6 223.9,103.6 226.4,107.9 223.9,112.1 219,112.1 		"/>
		<polygon class="st0" points="216.5,119.8 219,115.5 223.9,115.5 226.4,119.8 223.9,124 219,124 		"/>
		<polygon class="st0" points="226.8,137.6 229.3,133.4 234.2,133.4 236.7,137.6 234.2,141.9 229.3,141.9 		"/>
		<polygon class="st0" points="226.8,149.5 229.3,145.3 234.2,145.3 236.7,149.5 234.2,153.8 229.3,153.8 		"/>
		<polygon class="st0" points="226.8,161.4 229.3,157.2 234.2,157.2 236.7,161.4 234.2,165.7 229.3,165.7 		"/>
		<polygon class="st0" points="226.8,173.3 229.3,169.1 234.2,169.1 236.7,173.3 234.2,177.6 229.3,177.6 		"/>
		<polygon class="st0" points="226.8,185.2 229.3,181 234.2,181 236.7,185.2 234.2,189.5 229.3,189.5 		"/>
		<polygon class="st0" points="226.8,197.2 229.3,192.9 234.2,192.9 236.7,197.2 234.2,201.4 229.3,201.4 		"/>
		<polygon class="st0" points="226.8,209.1 229.3,204.8 234.2,204.8 236.7,209.1 234.2,213.3 229.3,213.3 		"/>
		<polygon class="st0" points="226.8,221 229.3,216.7 234.2,216.7 236.7,221 234.2,225.2 229.3,225.2 		"/>
		<polygon class="st0" points="226.8,232.9 229.3,228.6 234.2,228.6 236.7,232.9 234.2,237.1 229.3,237.1 		"/>
		<polygon class="st0" points="226.8,244.8 229.3,240.5 234.2,240.5 236.7,244.8 234.2,249 229.3,249 		"/>
		<polygon class="st0" points="226.8,256.7 229.3,252.4 234.2,252.4 236.7,256.7 234.2,260.9 229.3,260.9 		"/>
		<polygon class="st0" points="226.8,268.6 229.3,264.3 234.2,264.3 236.7,268.6 234.2,272.8 229.3,272.8 		"/>
		<polygon class="st0" points="226.8,280.5 229.3,276.2 234.2,276.2 236.7,280.5 234.2,284.7 229.3,284.7 		"/>
		<polygon class="st0" points="226.8,292.4 229.3,288.1 234.2,288.1 236.7,292.4 234.2,296.6 229.3,296.6 		"/>
		<polygon class="st0" points="226.8,304.3 229.3,300 234.2,300 236.7,304.3 234.2,308.5 229.3,308.5 		"/>
		<polygon class="st0" points="226.8,113.8 229.3,109.6 234.2,109.6 236.7,113.8 234.2,118.1 229.3,118.1 		"/>
		<polygon class="st0" points="237.2,143.6 239.6,139.3 244.5,139.3 247,143.6 244.5,147.8 239.6,147.8 		"/>
		<polygon class="st0" points="237.2,155.5 239.6,151.2 244.5,151.2 247,155.5 244.5,159.7 239.6,159.7 		"/>
		<polygon class="st0" points="237.2,167.4 239.6,163.1 244.5,163.1 247,167.4 244.5,171.6 239.6,171.6 		"/>
		<polygon class="st0" points="237.2,179.3 239.6,175 244.5,175 247,179.3 244.5,183.6 239.6,183.6 		"/>
		<polygon class="st0" points="237.2,191.2 239.6,186.9 244.5,186.9 247,191.2 244.5,195.5 239.6,195.5 		"/>
		<polygon class="st0" points="237.2,203.1 239.6,198.9 244.5,198.9 247,203.1 244.5,207.4 239.6,207.4 		"/>
		<polygon class="st0" points="237.2,215 239.6,210.8 244.5,210.8 247,215 244.5,219.3 239.6,219.3 		"/>
		<polygon class="st0" points="237.2,226.9 239.6,222.7 244.5,222.7 247,226.9 244.5,231.2 239.6,231.2 		"/>
		<polygon class="st0" points="237.2,238.8 239.6,234.6 244.5,234.6 247,238.8 244.5,243.1 239.6,243.1 		"/>
		<polygon class="st0" points="237.2,250.7 239.6,246.5 244.5,246.5 247,250.7 244.5,255 239.6,255 		"/>
		<polygon class="st0" points="237.2,262.6 239.6,258.4 244.5,258.4 247,262.6 244.5,266.9 239.6,266.9 		"/>
		<polygon class="st0" points="237.2,274.5 239.6,270.3 244.5,270.3 247,274.5 244.5,278.8 239.6,278.8 		"/>
		<polygon class="st0" points="237.2,286.4 239.6,282.2 244.5,282.2 247,286.4 244.5,290.7 239.6,290.7 		"/>
		<polygon class="st0" points="237.2,298.3 239.6,294.1 244.5,294.1 247,298.3 244.5,302.6 239.6,302.6 		"/>
		<polygon class="st0" points="247.5,137.6 249.9,133.4 254.8,133.4 257.3,137.6 254.8,141.9 249.9,141.9 		"/>
		<polygon class="st0" points="247.5,149.5 249.9,145.3 254.8,145.3 257.3,149.5 254.8,153.8 249.9,153.8 		"/>
		<polygon class="st0" points="247.5,161.4 249.9,157.2 254.8,157.2 257.3,161.4 254.8,165.7 249.9,165.7 		"/>
		<polygon class="st0" points="247.5,173.3 249.9,169.1 254.8,169.1 257.3,173.3 254.8,177.6 249.9,177.6 		"/>
		<polygon class="st0" points="247.5,185.2 249.9,181 254.8,181 257.3,185.2 254.8,189.5 249.9,189.5 		"/>
		<polygon class="st0" points="247.5,197.2 249.9,192.9 254.8,192.9 257.3,197.2 254.8,201.4 249.9,201.4 		"/>
		<polygon class="st0" points="247.5,209.1 249.9,204.8 254.8,204.8 257.3,209.1 254.8,213.3 249.9,213.3 		"/>
		<polygon class="st0" points="247.5,221 249.9,216.7 254.8,216.7 257.3,221 254.8,225.2 249.9,225.2 		"/>
		<polygon class="st0" points="247.5,232.9 249.9,228.6 254.8,228.6 257.3,232.9 254.8,237.1 249.9,237.1 		"/>
		<polygon class="st0" points="247.5,244.8 249.9,240.5 254.8,240.5 257.3,244.8 254.8,249 249.9,249 		"/>
		<polygon class="st0" points="247.5,256.7 249.9,252.4 254.8,252.4 257.3,256.7 254.8,260.9 249.9,260.9 		"/>
		<polygon class="st0" points="247.5,268.6 249.9,264.3 254.8,264.3 257.3,268.6 254.8,272.8 249.9,272.8 		"/>
		<polygon class="st0" points="247.5,280.5 249.9,276.2 254.8,276.2 257.3,280.5 254.8,284.7 249.9,284.7 		"/>
		<polygon class="st0" points="247.5,292.4 249.9,288.1 254.8,288.1 257.3,292.4 254.8,296.6 249.9,296.6 		"/>
		<polygon class="st0" points="257.8,155.5 260.2,151.2 265.1,151.2 267.6,155.5 265.1,159.7 260.2,159.7 		"/>
		<polygon class="st0" points="257.8,167.4 260.2,163.1 265.1,163.1 267.6,167.4 265.1,171.6 260.2,171.6 		"/>
		<polygon class="st0" points="257.8,179.3 260.2,175 265.1,175 267.6,179.3 265.1,183.6 260.2,183.6 		"/>
		<polygon class="st0" points="257.8,191.2 260.2,186.9 265.1,186.9 267.6,191.2 265.1,195.5 260.2,195.5 		"/>
		<polygon class="st0" points="257.8,203.1 260.2,198.9 265.1,198.9 267.6,203.1 265.1,207.4 260.2,207.4 		"/>
		<polygon class="st0" points="257.8,215 260.2,210.8 265.1,210.8 267.6,215 265.1,219.3 260.2,219.3 		"/>
		<polygon class="st0" points="257.8,226.9 260.2,222.7 265.1,222.7 267.6,226.9 265.1,231.2 260.2,231.2 		"/>
		<polygon class="st0" points="257.8,238.8 260.2,234.6 265.1,234.6 267.6,238.8 265.1,243.1 260.2,243.1 		"/>
		<polygon class="st0" points="257.8,250.7 260.2,246.5 265.1,246.5 267.6,250.7 265.1,255 260.2,255 		"/>
		<polygon class="st0" points="257.8,262.6 260.2,258.4 265.1,258.4 267.6,262.6 265.1,266.9 260.2,266.9 		"/>
		<polygon class="st0" points="257.8,274.5 260.2,270.3 265.1,270.3 267.6,274.5 265.1,278.8 260.2,278.8 		"/>
		<polygon class="st0" points="257.8,286.4 260.2,282.2 265.1,282.2 267.6,286.4 265.1,290.7 260.2,290.7 		"/>
		<polygon class="st0" points="288.7,161.4 291.2,157.2 296.1,157.2 298.5,161.4 296.1,165.7 291.2,165.7 		"/>
		<polygon class="st0" points="288.7,173.3 291.2,169.1 296.1,169.1 298.5,173.3 296.1,177.6 291.2,177.6 		"/>
		<polygon class="st0" points="288.7,185.2 291.2,181 296.1,181 298.5,185.2 296.1,189.5 291.2,189.5 		"/>
		<polygon class="st0" points="288.7,197.2 291.2,192.9 296.1,192.9 298.5,197.2 296.1,201.4 291.2,201.4 		"/>
		<polygon class="st0" points="288.7,209.1 291.2,204.8 296.1,204.8 298.5,209.1 296.1,213.3 291.2,213.3 		"/>
		<polygon class="st0" points="288.7,221 291.2,216.7 296.1,216.7 298.5,221 296.1,225.2 291.2,225.2 		"/>
		<polygon class="st0" points="288.7,232.9 291.2,228.6 296.1,228.6 298.5,232.9 296.1,237.1 291.2,237.1 		"/>
		<polygon class="st0" points="288.7,244.8 291.2,240.5 296.1,240.5 298.5,244.8 296.1,249 291.2,249 		"/>
		<polygon class="st0" points="288.7,256.7 291.2,252.4 296.1,252.4 298.5,256.7 296.1,260.9 291.2,260.9 		"/>
		<polygon class="st0" points="288.7,268.6 291.2,264.3 296.1,264.3 298.5,268.6 296.1,272.8 291.2,272.8 		"/>
		<polygon class="st0" points="288.7,280.5 291.2,276.2 296.1,276.2 298.5,280.5 296.1,284.7 291.2,284.7 		"/>
		<polygon class="st0" points="288.7,292.4 291.2,288.1 296.1,288.1 298.5,292.4 296.1,296.6 291.2,296.6 		"/>
		<polygon class="st0" points="288.7,304.3 291.2,300 296.1,300 298.5,304.3 296.1,308.5 291.2,308.5 		"/>
		<polygon class="st0" points="288.7,316.2 291.2,311.9 296.1,311.9 298.5,316.2 296.1,320.4 291.2,320.4 		"/>
		<polygon class="st0" points="288.7,328.1 291.2,323.8 296.1,323.8 298.5,328.1 296.1,332.3 291.2,332.3 		"/>
		<polygon class="st0" points="288.7,340 291.2,335.7 296.1,335.7 298.5,340 296.1,344.2 291.2,344.2 		"/>
		<polygon class="st0" points="288.7,351.9 291.2,347.6 296.1,347.6 298.5,351.9 296.1,356.1 291.2,356.1 		"/>
		<polygon class="st0" points="299,167.4 301.5,163.1 306.4,163.1 308.9,167.4 306.4,171.6 301.5,171.6 		"/>
		<polygon class="st0" points="299,179.3 301.5,175 306.4,175 308.9,179.3 306.4,183.6 301.5,183.6 		"/>
		<polygon class="st0" points="299,191.2 301.5,186.9 306.4,186.9 308.9,191.2 306.4,195.5 301.5,195.5 		"/>
		<polygon class="st0" points="299,203.1 301.5,198.9 306.4,198.9 308.9,203.1 306.4,207.4 301.5,207.4 		"/>
		<polygon class="st0" points="299,215 301.5,210.8 306.4,210.8 308.9,215 306.4,219.3 301.5,219.3 		"/>
		<polygon class="st0" points="299,226.9 301.5,222.7 306.4,222.7 308.9,226.9 306.4,231.2 301.5,231.2 		"/>
		<polygon class="st0" points="299,238.8 301.5,234.6 306.4,234.6 308.9,238.8 306.4,243.1 301.5,243.1 		"/>
		<polygon class="st0" points="299,250.7 301.5,246.5 306.4,246.5 308.9,250.7 306.4,255 301.5,255 		"/>
		<polygon class="st0" points="299,262.6 301.5,258.4 306.4,258.4 308.9,262.6 306.4,266.9 301.5,266.9 		"/>
		<polygon class="st0" points="299,274.5 301.5,270.3 306.4,270.3 308.9,274.5 306.4,278.8 301.5,278.8 		"/>
		<polygon class="st0" points="299,286.4 301.5,282.2 306.4,282.2 308.9,286.4 306.4,290.7 301.5,290.7 		"/>
		<polygon class="st0" points="299,298.3 301.5,294.1 306.4,294.1 308.9,298.3 306.4,302.6 301.5,302.6 		"/>
		<polygon class="st0" points="299,310.2 301.5,306 306.4,306 308.9,310.2 306.4,314.5 301.5,314.5 		"/>
		<polygon class="st0" points="299,322.1 301.5,317.9 306.4,317.9 308.9,322.1 306.4,326.4 301.5,326.4 		"/>
		<polygon class="st0" points="299,334 301.5,329.8 306.4,329.8 308.9,334 306.4,338.3 301.5,338.3 		"/>
		<polygon class="st0" points="299,345.9 301.5,341.7 306.4,341.7 308.9,345.9 306.4,350.2 301.5,350.2 		"/>
		<polygon class="st0" points="299,357.8 301.5,353.6 306.4,353.6 308.9,357.8 306.4,362.1 301.5,362.1 		"/>
		<polygon class="st0" points="330,173.3 332.4,169.1 337.3,169.1 339.8,173.3 337.3,177.6 332.4,177.6 		"/>
		<polygon class="st0" points="330,185.2 332.4,181 337.3,181 339.8,185.2 337.3,189.5 332.4,189.5 		"/>
		<polygon class="st0" points="330,197.2 332.4,192.9 337.3,192.9 339.8,197.2 337.3,201.4 332.4,201.4 		"/>
		<polygon class="st0" points="330,209.1 332.4,204.8 337.3,204.8 339.8,209.1 337.3,213.3 332.4,213.3 		"/>
		<polygon class="st0" points="330,221 332.4,216.7 337.3,216.7 339.8,221 337.3,225.2 332.4,225.2 		"/>
		<polygon class="st0" points="330,232.9 332.4,228.6 337.3,228.6 339.8,232.9 337.3,237.1 332.4,237.1 		"/>
		<polygon class="st0" points="330,244.8 332.4,240.5 337.3,240.5 339.8,244.8 337.3,249 332.4,249 		"/>
		<polygon class="st0" points="330,256.7 332.4,252.4 337.3,252.4 339.8,256.7 337.3,260.9 332.4,260.9 		"/>
		<polygon class="st0" points="330,268.6 332.4,264.3 337.3,264.3 339.8,268.6 337.3,272.8 332.4,272.8 		"/>
		<polygon class="st0" points="330,280.5 332.4,276.2 337.3,276.2 339.8,280.5 337.3,284.7 332.4,284.7 		"/>
		<polygon class="st0" points="330,292.4 332.4,288.1 337.3,288.1 339.8,292.4 337.3,296.6 332.4,296.6 		"/>
		<polygon class="st0" points="330,304.3 332.4,300 337.3,300 339.8,304.3 337.3,308.5 332.4,308.5 		"/>
		<polygon class="st0" points="330,316.2 332.4,311.9 337.3,311.9 339.8,316.2 337.3,320.4 332.4,320.4 		"/>
		<polygon class="st0" points="330,328.1 332.4,323.8 337.3,323.8 339.8,328.1 337.3,332.3 332.4,332.3 		"/>
		<polygon class="st0" points="330,340 332.4,335.7 337.3,335.7 339.8,340 337.3,344.2 332.4,344.2 		"/>
		<polygon class="st0" points="340.3,167.4 342.7,163.1 347.6,163.1 350.1,167.4 347.6,171.6 342.7,171.6 		"/>
		<polygon class="st0" points="340.3,179.3 342.7,175 347.6,175 350.1,179.3 347.6,183.6 342.7,183.6 		"/>
		<polygon class="st0" points="340.3,191.2 342.7,186.9 347.6,186.9 350.1,191.2 347.6,195.5 342.7,195.5 		"/>
		<polygon class="st0" points="340.3,203.1 342.7,198.9 347.6,198.9 350.1,203.1 347.6,207.4 342.7,207.4 		"/>
		<polygon class="st0" points="340.3,215 342.7,210.8 347.6,210.8 350.1,215 347.6,219.3 342.7,219.3 		"/>
		<polygon class="st0" points="340.3,226.9 342.7,222.7 347.6,222.7 350.1,226.9 347.6,231.2 342.7,231.2 		"/>
		<polygon class="st0" points="340.3,238.8 342.7,234.6 347.6,234.6 350.1,238.8 347.6,243.1 342.7,243.1 		"/>
		<polygon class="st0" points="340.3,250.7 342.7,246.5 347.6,246.5 350.1,250.7 347.6,255 342.7,255 		"/>
		<polygon class="st0" points="340.3,262.6 342.7,258.4 347.6,258.4 350.1,262.6 347.6,266.9 342.7,266.9 		"/>
		<polygon class="st0" points="340.3,274.5 342.7,270.3 347.6,270.3 350.1,274.5 347.6,278.8 342.7,278.8 		"/>
		<polygon class="st0" points="340.3,286.4 342.7,282.2 347.6,282.2 350.1,286.4 347.6,290.7 342.7,290.7 		"/>
		<polygon class="st0" points="340.3,298.3 342.7,294.1 347.6,294.1 350.1,298.3 347.6,302.6 342.7,302.6 		"/>
		<polygon class="st0" points="340.3,310.2 342.7,306 347.6,306 350.1,310.2 347.6,314.5 342.7,314.5 		"/>
		<polygon class="st0" points="340.3,322.1 342.7,317.9 347.6,317.9 350.1,322.1 347.6,326.4 342.7,326.4 		"/>
		<polygon class="st0" points="340.3,334 342.7,329.8 347.6,329.8 350.1,334 347.6,338.3 342.7,338.3 		"/>
		<polygon class="st0" points="340.3,345.9 342.7,341.7 347.6,341.7 350.1,345.9 347.6,350.2 342.7,350.2 		"/>
		<polygon class="st0" points="371.2,161.4 373.7,157.2 378.6,157.2 381,161.4 378.6,165.7 373.7,165.7 		"/>
		<polygon class="st0" points="371.2,173.3 373.7,169.1 378.6,169.1 381,173.3 378.6,177.6 373.7,177.6 		"/>
		<polygon class="st0" points="371.2,185.2 373.7,181 378.6,181 381,185.2 378.6,189.5 373.7,189.5 		"/>
		<polygon class="st0" points="371.2,197.2 373.7,192.9 378.6,192.9 381,197.2 378.6,201.4 373.7,201.4 		"/>
		<polygon class="st0" points="371.2,209.1 373.7,204.8 378.6,204.8 381,209.1 378.6,213.3 373.7,213.3 		"/>
		<polygon class="st0" points="371.2,221 373.7,216.7 378.6,216.7 381,221 378.6,225.2 373.7,225.2 		"/>
		<polygon class="st0" points="371.2,232.9 373.7,228.6 378.6,228.6 381,232.9 378.6,237.1 373.7,237.1 		"/>
		<polygon class="st0" points="371.2,244.8 373.7,240.5 378.6,240.5 381,244.8 378.6,249 373.7,249 		"/>
		<polygon class="st0" points="371.2,256.7 373.7,252.4 378.6,252.4 381,256.7 378.6,260.9 373.7,260.9 		"/>
		<polygon class="st0" points="371.2,268.6 373.7,264.3 378.6,264.3 381,268.6 378.6,272.8 373.7,272.8 		"/>
		<polygon class="st0" points="371.2,280.5 373.7,276.2 378.6,276.2 381,280.5 378.6,284.7 373.7,284.7 		"/>
		<polygon class="st0" points="371.2,292.4 373.7,288.1 378.6,288.1 381,292.4 378.6,296.6 373.7,296.6 		"/>
		<polygon class="st0" points="371.2,304.3 373.7,300 378.6,300 381,304.3 378.6,308.5 373.7,308.5 		"/>
		<polygon class="st0" points="371.2,316.2 373.7,311.9 378.6,311.9 381,316.2 378.6,320.4 373.7,320.4 		"/>
		<polygon class="st0" points="371.2,328.1 373.7,323.8 378.6,323.8 381,328.1 378.6,332.3 373.7,332.3 		"/>
		<polygon class="st0" points="371.2,340 373.7,335.7 378.6,335.7 381,340 378.6,344.2 373.7,344.2 		"/>
		<polygon class="st0" points="371.2,351.9 373.7,347.6 378.6,347.6 381,351.9 378.6,356.1 373.7,356.1 		"/>
		<polygon class="st0" points="371.2,375.7 373.7,371.4 378.6,371.4 381,375.7 378.6,379.9 373.7,379.9 		"/>
		<polygon class="st0" points="381.5,143.6 384,139.3 388.9,139.3 391.4,143.6 388.9,147.8 384,147.8 		"/>
		<polygon class="st0" points="381.5,155.5 384,151.2 388.9,151.2 391.4,155.5 388.9,159.7 384,159.7 		"/>
		<polygon class="st0" points="381.5,167.4 384,163.1 388.9,163.1 391.4,167.4 388.9,171.6 384,171.6 		"/>
		<polygon class="st0" points="381.5,179.3 384,175 388.9,175 391.4,179.3 388.9,183.6 384,183.6 		"/>
		<polygon class="st0" points="381.5,191.2 384,186.9 388.9,186.9 391.4,191.2 388.9,195.5 384,195.5 		"/>
		<polygon class="st0" points="381.5,203.1 384,198.9 388.9,198.9 391.4,203.1 388.9,207.4 384,207.4 		"/>
		<polygon class="st0" points="381.5,215 384,210.8 388.9,210.8 391.4,215 388.9,219.3 384,219.3 		"/>
		<polygon class="st0" points="381.5,226.9 384,222.7 388.9,222.7 391.4,226.9 388.9,231.2 384,231.2 		"/>
		<polygon class="st0" points="381.5,238.8 384,234.6 388.9,234.6 391.4,238.8 388.9,243.1 384,243.1 		"/>
		<polygon class="st0" points="381.5,250.7 384,246.5 388.9,246.5 391.4,250.7 388.9,255 384,255 		"/>
		<polygon class="st0" points="381.5,262.6 384,258.4 388.9,258.4 391.4,262.6 388.9,266.9 384,266.9 		"/>
		<polygon class="st0" points="381.5,274.5 384,270.3 388.9,270.3 391.4,274.5 388.9,278.8 384,278.8 		"/>
		<polygon class="st0" points="381.5,286.4 384,282.2 388.9,282.2 391.4,286.4 388.9,290.7 384,290.7 		"/>
		<polygon class="st0" points="381.5,298.3 384,294.1 388.9,294.1 391.4,298.3 388.9,302.6 384,302.6 		"/>
		<polygon class="st0" points="381.5,310.2 384,306 388.9,306 391.4,310.2 388.9,314.5 384,314.5 		"/>
		<polygon class="st0" points="381.5,322.1 384,317.9 388.9,317.9 391.4,322.1 388.9,326.4 384,326.4 		"/>
		<polygon class="st0" points="381.5,334 384,329.8 388.9,329.8 391.4,334 388.9,338.3 384,338.3 		"/>
		<polygon class="st0" points="381.5,345.9 384,341.7 388.9,341.7 391.4,345.9 388.9,350.2 384,350.2 		"/>
		<polygon class="st0" points="381.5,357.8 384,353.6 388.9,353.6 391.4,357.8 388.9,362.1 384,362.1 		"/>
		<polygon class="st0" points="412.5,137.6 414.9,133.4 419.8,133.4 422.3,137.6 419.8,141.9 414.9,141.9 		"/>
		<polygon class="st0" points="412.5,149.5 414.9,145.3 419.8,145.3 422.3,149.5 419.8,153.8 414.9,153.8 		"/>
		<polygon class="st0" points="412.5,161.4 414.9,157.2 419.8,157.2 422.3,161.4 419.8,165.7 414.9,165.7 		"/>
		<polygon class="st0" points="412.5,173.3 414.9,169.1 419.8,169.1 422.3,173.3 419.8,177.6 414.9,177.6 		"/>
		<polygon class="st0" points="412.5,185.2 414.9,181 419.8,181 422.3,185.2 419.8,189.5 414.9,189.5 		"/>
		<polygon class="st0" points="412.5,197.2 414.9,192.9 419.8,192.9 422.3,197.2 419.8,201.4 414.9,201.4 		"/>
		<polygon class="st0" points="412.5,209.1 414.9,204.8 419.8,204.8 422.3,209.1 419.8,213.3 414.9,213.3 		"/>
		<polygon class="st0" points="412.5,221 414.9,216.7 419.8,216.7 422.3,221 419.8,225.2 414.9,225.2 		"/>
		<polygon class="st0" points="412.5,232.9 414.9,228.6 419.8,228.6 422.3,232.9 419.8,237.1 414.9,237.1 		"/>
		<polygon class="st0" points="412.5,244.8 414.9,240.5 419.8,240.5 422.3,244.8 419.8,249 414.9,249 		"/>
		<polygon class="st0" points="412.5,256.7 414.9,252.4 419.8,252.4 422.3,256.7 419.8,260.9 414.9,260.9 		"/>
		<polygon class="st0" points="412.5,268.6 414.9,264.3 419.8,264.3 422.3,268.6 419.8,272.8 414.9,272.8 		"/>
		<polygon class="st0" points="412.5,280.5 414.9,276.2 419.8,276.2 422.3,280.5 419.8,284.7 414.9,284.7 		"/>
		<polygon class="st0" points="412.5,292.4 414.9,288.1 419.8,288.1 422.3,292.4 419.8,296.6 414.9,296.6 		"/>
		<polygon class="st0" points="412.5,304.3 414.9,300 419.8,300 422.3,304.3 419.8,308.5 414.9,308.5 		"/>
		<polygon class="st0" points="412.5,316.2 414.9,311.9 419.8,311.9 422.3,316.2 419.8,320.4 414.9,320.4 		"/>
		<polygon class="st0" points="412.5,328.1 414.9,323.8 419.8,323.8 422.3,328.1 419.8,332.3 414.9,332.3 		"/>
		<polygon class="st0" points="412.5,340 414.9,335.7 419.8,335.7 422.3,340 419.8,344.2 414.9,344.2 		"/>
		<polygon class="st0" points="412.5,90 414.9,85.8 419.8,85.8 422.3,90 419.8,94.3 414.9,94.3 		"/>
		<polygon class="st0" points="412.5,101.9 414.9,97.7 419.8,97.7 422.3,101.9 419.8,106.2 414.9,106.2 		"/>
		<polygon class="st0" points="412.5,125.7 414.9,121.5 419.8,121.5 422.3,125.7 419.8,130 414.9,130 		"/>
		<polygon class="st0" points="422.8,131.7 425.2,127.4 430.1,127.4 432.6,131.7 430.1,135.9 425.2,135.9 		"/>
		<polygon class="st0" points="422.8,143.6 425.2,139.3 430.1,139.3 432.6,143.6 430.1,147.8 425.2,147.8 		"/>
		<polygon class="st0" points="422.8,155.5 425.2,151.2 430.1,151.2 432.6,155.5 430.1,159.7 425.2,159.7 		"/>
		<polygon class="st0" points="422.8,167.4 425.2,163.1 430.1,163.1 432.6,167.4 430.1,171.6 425.2,171.6 		"/>
		<polygon class="st0" points="422.8,179.3 425.2,175 430.1,175 432.6,179.3 430.1,183.6 425.2,183.6 		"/>
		<polygon class="st0" points="422.8,191.2 425.2,186.9 430.1,186.9 432.6,191.2 430.1,195.5 425.2,195.5 		"/>
		<polygon class="st0" points="422.8,203.1 425.2,198.9 430.1,198.9 432.6,203.1 430.1,207.4 425.2,207.4 		"/>
		<polygon class="st0" points="422.8,215 425.2,210.8 430.1,210.8 432.6,215 430.1,219.3 425.2,219.3 		"/>
		<polygon class="st0" points="422.8,226.9 425.2,222.7 430.1,222.7 432.6,226.9 430.1,231.2 425.2,231.2 		"/>
		<polygon class="st0" points="422.8,238.8 425.2,234.6 430.1,234.6 432.6,238.8 430.1,243.1 425.2,243.1 		"/>
		<polygon class="st0" points="422.8,250.7 425.2,246.5 430.1,246.5 432.6,250.7 430.1,255 425.2,255 		"/>
		<polygon class="st0" points="422.8,262.6 425.2,258.4 430.1,258.4 432.6,262.6 430.1,266.9 425.2,266.9 		"/>
		<polygon class="st0" points="422.8,274.5 425.2,270.3 430.1,270.3 432.6,274.5 430.1,278.8 425.2,278.8 		"/>
		<polygon class="st0" points="422.8,286.4 425.2,282.2 430.1,282.2 432.6,286.4 430.1,290.7 425.2,290.7 		"/>
		<polygon class="st0" points="422.8,298.3 425.2,294.1 430.1,294.1 432.6,298.3 430.1,302.6 425.2,302.6 		"/>
		<polygon class="st0" points="422.8,310.2 425.2,306 430.1,306 432.6,310.2 430.1,314.5 425.2,314.5 		"/>
		<polygon class="st0" points="422.8,322.1 425.2,317.9 430.1,317.9 432.6,322.1 430.1,326.4 425.2,326.4 		"/>
		<polygon class="st0" points="422.8,334 425.2,329.8 430.1,329.8 432.6,334 430.1,338.3 425.2,338.3 		"/>
		<polygon class="st0" points="422.8,84.1 425.2,79.8 430.1,79.8 432.6,84.1 430.1,88.3 425.2,88.3 		"/>
		<polygon class="st0" points="422.8,96 425.2,91.7 430.1,91.7 432.6,96 430.1,100.2 425.2,100.2 		"/>
		<polygon class="st0" points="268.1,161.4 270.6,157.2 275.5,157.2 277.9,161.4 275.5,165.7 270.6,165.7 		"/>
		<polygon class="st0" points="268.1,173.3 270.6,169.1 275.5,169.1 277.9,173.3 275.5,177.6 270.6,177.6 		"/>
		<polygon class="st0" points="268.1,185.2 270.6,181 275.5,181 277.9,185.2 275.5,189.5 270.6,189.5 		"/>
		<polygon class="st0" points="268.1,197.2 270.6,192.9 275.5,192.9 277.9,197.2 275.5,201.4 270.6,201.4 		"/>
		<polygon class="st0" points="268.1,209.1 270.6,204.8 275.5,204.8 277.9,209.1 275.5,213.3 270.6,213.3 		"/>
		<polygon class="st0" points="268.1,221 270.6,216.7 275.5,216.7 277.9,221 275.5,225.2 270.6,225.2 		"/>
		<polygon class="st0" points="268.1,232.9 270.6,228.6 275.5,228.6 277.9,232.9 275.5,237.1 270.6,237.1 		"/>
		<polygon class="st0" points="268.1,244.8 270.6,240.5 275.5,240.5 277.9,244.8 275.5,249 270.6,249 		"/>
		<polygon class="st0" points="268.1,256.7 270.6,252.4 275.5,252.4 277.9,256.7 275.5,260.9 270.6,260.9 		"/>
		<polygon class="st0" points="268.1,268.6 270.6,264.3 275.5,264.3 277.9,268.6 275.5,272.8 270.6,272.8 		"/>
		<polygon class="st0" points="268.1,280.5 270.6,276.2 275.5,276.2 277.9,280.5 275.5,284.7 270.6,284.7 		"/>
		<polygon class="st0" points="268.1,292.4 270.6,288.1 275.5,288.1 277.9,292.4 275.5,296.6 270.6,296.6 		"/>
		<polygon class="st0" points="278.4,167.4 280.9,163.1 285.8,163.1 288.2,167.4 285.8,171.6 280.9,171.6 		"/>
		<polygon class="st0" points="278.4,179.3 280.9,175 285.8,175 288.2,179.3 285.8,183.6 280.9,183.6 		"/>
		<polygon class="st0" points="278.4,191.2 280.9,186.9 285.8,186.9 288.2,191.2 285.8,195.5 280.9,195.5 		"/>
		<polygon class="st0" points="278.4,203.1 280.9,198.9 285.8,198.9 288.2,203.1 285.8,207.4 280.9,207.4 		"/>
		<polygon class="st0" points="278.4,215 280.9,210.8 285.8,210.8 288.2,215 285.8,219.3 280.9,219.3 		"/>
		<polygon class="st0" points="278.4,226.9 280.9,222.7 285.8,222.7 288.2,226.9 285.8,231.2 280.9,231.2 		"/>
		<polygon class="st0" points="278.4,238.8 280.9,234.6 285.8,234.6 288.2,238.8 285.8,243.1 280.9,243.1 		"/>
		<polygon class="st0" points="278.4,250.7 280.9,246.5 285.8,246.5 288.2,250.7 285.8,255 280.9,255 		"/>
		<polygon class="st0" points="278.4,262.6 280.9,258.4 285.8,258.4 288.2,262.6 285.8,266.9 280.9,266.9 		"/>
		<polygon class="st0" points="278.4,274.5 280.9,270.3 285.8,270.3 288.2,274.5 285.8,278.8 280.9,278.8 		"/>
		<polygon class="st0" points="278.4,286.4 280.9,282.2 285.8,282.2 288.2,286.4 285.8,290.7 280.9,290.7 		"/>
		<polygon class="st0" points="278.4,298.3 280.9,294.1 285.8,294.1 288.2,298.3 285.8,302.6 280.9,302.6 		"/>
		<polygon class="st0" points="278.4,334 280.9,329.8 285.8,329.8 288.2,334 285.8,338.3 280.9,338.3 		"/>
		<polygon class="st0" points="309.3,173.3 311.8,169.1 316.7,169.1 319.2,173.3 316.7,177.6 311.8,177.6 		"/>
		<polygon class="st0" points="309.3,185.2 311.8,181 316.7,181 319.2,185.2 316.7,189.5 311.8,189.5 		"/>
		<polygon class="st0" points="309.3,197.2 311.8,192.9 316.7,192.9 319.2,197.2 316.7,201.4 311.8,201.4 		"/>
		<polygon class="st0" points="309.3,209.1 311.8,204.8 316.7,204.8 319.2,209.1 316.7,213.3 311.8,213.3 		"/>
		<polygon class="st0" points="309.3,221 311.8,216.7 316.7,216.7 319.2,221 316.7,225.2 311.8,225.2 		"/>
		<polygon class="st0" points="309.3,232.9 311.8,228.6 316.7,228.6 319.2,232.9 316.7,237.1 311.8,237.1 		"/>
		<polygon class="st0" points="309.3,244.8 311.8,240.5 316.7,240.5 319.2,244.8 316.7,249 311.8,249 		"/>
		<polygon class="st0" points="309.3,256.7 311.8,252.4 316.7,252.4 319.2,256.7 316.7,260.9 311.8,260.9 		"/>
		<polygon class="st0" points="309.3,268.6 311.8,264.3 316.7,264.3 319.2,268.6 316.7,272.8 311.8,272.8 		"/>
		<polygon class="st0" points="309.3,280.5 311.8,276.2 316.7,276.2 319.2,280.5 316.7,284.7 311.8,284.7 		"/>
		<polygon class="st0" points="309.3,292.4 311.8,288.1 316.7,288.1 319.2,292.4 316.7,296.6 311.8,296.6 		"/>
		<polygon class="st0" points="309.3,304.3 311.8,300 316.7,300 319.2,304.3 316.7,308.5 311.8,308.5 		"/>
		<polygon class="st0" points="309.3,316.2 311.8,311.9 316.7,311.9 319.2,316.2 316.7,320.4 311.8,320.4 		"/>
		<polygon class="st0" points="309.3,328.1 311.8,323.8 316.7,323.8 319.2,328.1 316.7,332.3 311.8,332.3 		"/>
		<polygon class="st0" points="309.3,340 311.8,335.7 316.7,335.7 319.2,340 316.7,344.2 311.8,344.2 		"/>
		<polygon class="st0" points="309.3,351.9 311.8,347.6 316.7,347.6 319.2,351.9 316.7,356.1 311.8,356.1 		"/>
		<polygon class="st0" points="319.7,179.3 322.1,175 327,175 329.5,179.3 327,183.6 322.1,183.6 		"/>
		<polygon class="st0" points="319.7,191.2 322.1,186.9 327,186.9 329.5,191.2 327,195.5 322.1,195.5 		"/>
		<polygon class="st0" points="319.7,203.1 322.1,198.9 327,198.9 329.5,203.1 327,207.4 322.1,207.4 		"/>
		<polygon class="st0" points="319.7,215 322.1,210.8 327,210.8 329.5,215 327,219.3 322.1,219.3 		"/>
		<polygon class="st0" points="319.7,226.9 322.1,222.7 327,222.7 329.5,226.9 327,231.2 322.1,231.2 		"/>
		<polygon class="st0" points="319.7,238.8 322.1,234.6 327,234.6 329.5,238.8 327,243.1 322.1,243.1 		"/>
		<polygon class="st0" points="319.7,250.7 322.1,246.5 327,246.5 329.5,250.7 327,255 322.1,255 		"/>
		<polygon class="st0" points="319.7,262.6 322.1,258.4 327,258.4 329.5,262.6 327,266.9 322.1,266.9 		"/>
		<polygon class="st0" points="319.7,274.5 322.1,270.3 327,270.3 329.5,274.5 327,278.8 322.1,278.8 		"/>
		<polygon class="st0" points="319.7,286.4 322.1,282.2 327,282.2 329.5,286.4 327,290.7 322.1,290.7 		"/>
		<polygon class="st0" points="319.7,298.3 322.1,294.1 327,294.1 329.5,298.3 327,302.6 322.1,302.6 		"/>
		<polygon class="st0" points="319.7,310.2 322.1,306 327,306 329.5,310.2 327,314.5 322.1,314.5 		"/>
		<polygon class="st0" points="319.7,322.1 322.1,317.9 327,317.9 329.5,322.1 327,326.4 322.1,326.4 		"/>
		<polygon class="st0" points="319.7,334 322.1,329.8 327,329.8 329.5,334 327,338.3 322.1,338.3 		"/>
		<polygon class="st0" points="319.7,345.9 322.1,341.7 327,341.7 329.5,345.9 327,350.2 322.1,350.2 		"/>
		<polygon class="st0" points="350.6,173.3 353,169.1 358,169.1 360.4,173.3 358,177.6 353,177.6 		"/>
		<polygon class="st0" points="350.6,185.2 353,181 358,181 360.4,185.2 358,189.5 353,189.5 		"/>
		<polygon class="st0" points="350.6,197.2 353,192.9 358,192.9 360.4,197.2 358,201.4 353,201.4 		"/>
		<polygon class="st0" points="350.6,209.1 353,204.8 358,204.8 360.4,209.1 358,213.3 353,213.3 		"/>
		<polygon class="st0" points="350.6,221 353,216.7 358,216.7 360.4,221 358,225.2 353,225.2 		"/>
		<polygon class="st0" points="350.6,232.9 353,228.6 358,228.6 360.4,232.9 358,237.1 353,237.1 		"/>
		<polygon class="st0" points="350.6,244.8 353,240.5 358,240.5 360.4,244.8 358,249 353,249 		"/>
		<polygon class="st0" points="350.6,256.7 353,252.4 358,252.4 360.4,256.7 358,260.9 353,260.9 		"/>
		<polygon class="st0" points="350.6,268.6 353,264.3 358,264.3 360.4,268.6 358,272.8 353,272.8 		"/>
		<polygon class="st0" points="350.6,280.5 353,276.2 358,276.2 360.4,280.5 358,284.7 353,284.7 		"/>
		<polygon class="st0" points="350.6,292.4 353,288.1 358,288.1 360.4,292.4 358,296.6 353,296.6 		"/>
		<polygon class="st0" points="350.6,304.3 353,300 358,300 360.4,304.3 358,308.5 353,308.5 		"/>
		<polygon class="st0" points="350.6,316.2 353,311.9 358,311.9 360.4,316.2 358,320.4 353,320.4 		"/>
		<polygon class="st0" points="350.6,328.1 353,323.8 358,323.8 360.4,328.1 358,332.3 353,332.3 		"/>
		<polygon class="st0" points="350.6,340 353,335.7 358,335.7 360.4,340 358,344.2 353,344.2 		"/>
		<polygon class="st0" points="350.6,351.9 353,347.6 358,347.6 360.4,351.9 358,356.1 353,356.1 		"/>
		<polygon class="st0" points="360.9,167.4 363.4,163.1 368.3,163.1 370.7,167.4 368.3,171.6 363.4,171.6 		"/>
		<polygon class="st0" points="360.9,179.3 363.4,175 368.3,175 370.7,179.3 368.3,183.6 363.4,183.6 		"/>
		<polygon class="st0" points="360.9,191.2 363.4,186.9 368.3,186.9 370.7,191.2 368.3,195.5 363.4,195.5 		"/>
		<polygon class="st0" points="360.9,203.1 363.4,198.9 368.3,198.9 370.7,203.1 368.3,207.4 363.4,207.4 		"/>
		<polygon class="st0" points="360.9,215 363.4,210.8 368.3,210.8 370.7,215 368.3,219.3 363.4,219.3 		"/>
		<polygon class="st0" points="360.9,226.9 363.4,222.7 368.3,222.7 370.7,226.9 368.3,231.2 363.4,231.2 		"/>
		<polygon class="st0" points="360.9,238.8 363.4,234.6 368.3,234.6 370.7,238.8 368.3,243.1 363.4,243.1 		"/>
		<polygon class="st0" points="360.9,250.7 363.4,246.5 368.3,246.5 370.7,250.7 368.3,255 363.4,255 		"/>
		<polygon class="st0" points="360.9,262.6 363.4,258.4 368.3,258.4 370.7,262.6 368.3,266.9 363.4,266.9 		"/>
		<polygon class="st0" points="360.9,274.5 363.4,270.3 368.3,270.3 370.7,274.5 368.3,278.8 363.4,278.8 		"/>
		<polygon class="st0" points="360.9,286.4 363.4,282.2 368.3,282.2 370.7,286.4 368.3,290.7 363.4,290.7 		"/>
		<polygon class="st0" points="360.9,298.3 363.4,294.1 368.3,294.1 370.7,298.3 368.3,302.6 363.4,302.6 		"/>
		<polygon class="st0" points="360.9,310.2 363.4,306 368.3,306 370.7,310.2 368.3,314.5 363.4,314.5 		"/>
		<polygon class="st0" points="360.9,322.1 363.4,317.9 368.3,317.9 370.7,322.1 368.3,326.4 363.4,326.4 		"/>
		<polygon class="st0" points="360.9,334 363.4,329.8 368.3,329.8 370.7,334 368.3,338.3 363.4,338.3 		"/>
		<polygon class="st0" points="360.9,345.9 363.4,341.7 368.3,341.7 370.7,345.9 368.3,350.2 363.4,350.2 		"/>
		<polygon class="st0" points="360.9,357.8 363.4,353.6 368.3,353.6 370.7,357.8 368.3,362.1 363.4,362.1 		"/>
		<polygon class="st0" points="360.9,381.6 363.4,377.4 368.3,377.4 370.7,381.6 368.3,385.9 363.4,385.9 		"/>
		<polygon class="st0" points="391.8,149.5 394.3,145.3 399.2,145.3 401.7,149.5 399.2,153.8 394.3,153.8 		"/>
		<polygon class="st0" points="391.8,161.4 394.3,157.2 399.2,157.2 401.7,161.4 399.2,165.7 394.3,165.7 		"/>
		<polygon class="st0" points="391.8,173.3 394.3,169.1 399.2,169.1 401.7,173.3 399.2,177.6 394.3,177.6 		"/>
		<polygon class="st0" points="391.8,185.2 394.3,181 399.2,181 401.7,185.2 399.2,189.5 394.3,189.5 		"/>
		<polygon class="st0" points="391.8,197.2 394.3,192.9 399.2,192.9 401.7,197.2 399.2,201.4 394.3,201.4 		"/>
		<polygon class="st0" points="391.8,209.1 394.3,204.8 399.2,204.8 401.7,209.1 399.2,213.3 394.3,213.3 		"/>
		<polygon class="st0" points="391.8,221 394.3,216.7 399.2,216.7 401.7,221 399.2,225.2 394.3,225.2 		"/>
		<polygon class="st0" points="391.8,232.9 394.3,228.6 399.2,228.6 401.7,232.9 399.2,237.1 394.3,237.1 		"/>
		<polygon class="st0" points="391.8,244.8 394.3,240.5 399.2,240.5 401.7,244.8 399.2,249 394.3,249 		"/>
		<polygon class="st0" points="391.8,256.7 394.3,252.4 399.2,252.4 401.7,256.7 399.2,260.9 394.3,260.9 		"/>
		<polygon class="st0" points="391.8,268.6 394.3,264.3 399.2,264.3 401.7,268.6 399.2,272.8 394.3,272.8 		"/>
		<polygon class="st0" points="391.8,280.5 394.3,276.2 399.2,276.2 401.7,280.5 399.2,284.7 394.3,284.7 		"/>
		<polygon class="st0" points="391.8,292.4 394.3,288.1 399.2,288.1 401.7,292.4 399.2,296.6 394.3,296.6 		"/>
		<polygon class="st0" points="391.8,304.3 394.3,300 399.2,300 401.7,304.3 399.2,308.5 394.3,308.5 		"/>
		<polygon class="st0" points="391.8,316.2 394.3,311.9 399.2,311.9 401.7,316.2 399.2,320.4 394.3,320.4 		"/>
		<polygon class="st0" points="391.8,328.1 394.3,323.8 399.2,323.8 401.7,328.1 399.2,332.3 394.3,332.3 		"/>
		<polygon class="st0" points="391.8,340 394.3,335.7 399.2,335.7 401.7,340 399.2,344.2 394.3,344.2 		"/>
		<polygon class="st0" points="391.8,351.9 394.3,347.6 399.2,347.6 401.7,351.9 399.2,356.1 394.3,356.1 		"/>
		<polygon class="st0" points="402.2,131.7 404.6,127.4 409.5,127.4 412,131.7 409.5,135.9 404.6,135.9 		"/>
		<polygon class="st0" points="402.2,143.6 404.6,139.3 409.5,139.3 412,143.6 409.5,147.8 404.6,147.8 		"/>
		<polygon class="st0" points="402.2,155.5 404.6,151.2 409.5,151.2 412,155.5 409.5,159.7 404.6,159.7 		"/>
		<polygon class="st0" points="402.2,167.4 404.6,163.1 409.5,163.1 412,167.4 409.5,171.6 404.6,171.6 		"/>
		<polygon class="st0" points="402.2,179.3 404.6,175 409.5,175 412,179.3 409.5,183.6 404.6,183.6 		"/>
		<polygon class="st0" points="402.2,191.2 404.6,186.9 409.5,186.9 412,191.2 409.5,195.5 404.6,195.5 		"/>
		<polygon class="st0" points="402.2,203.1 404.6,198.9 409.5,198.9 412,203.1 409.5,207.4 404.6,207.4 		"/>
		<polygon class="st0" points="402.2,215 404.6,210.8 409.5,210.8 412,215 409.5,219.3 404.6,219.3 		"/>
		<polygon class="st0" points="402.2,226.9 404.6,222.7 409.5,222.7 412,226.9 409.5,231.2 404.6,231.2 		"/>
		<polygon class="st0" points="402.2,238.8 404.6,234.6 409.5,234.6 412,238.8 409.5,243.1 404.6,243.1 		"/>
		<polygon class="st0" points="402.2,250.7 404.6,246.5 409.5,246.5 412,250.7 409.5,255 404.6,255 		"/>
		<polygon class="st0" points="402.2,262.6 404.6,258.4 409.5,258.4 412,262.6 409.5,266.9 404.6,266.9 		"/>
		<polygon class="st0" points="402.2,274.5 404.6,270.3 409.5,270.3 412,274.5 409.5,278.8 404.6,278.8 		"/>
		<polygon class="st0" points="402.2,286.4 404.6,282.2 409.5,282.2 412,286.4 409.5,290.7 404.6,290.7 		"/>
		<polygon class="st0" points="402.2,298.3 404.6,294.1 409.5,294.1 412,298.3 409.5,302.6 404.6,302.6 		"/>
		<polygon class="st0" points="402.2,310.2 404.6,306 409.5,306 412,310.2 409.5,314.5 404.6,314.5 		"/>
		<polygon class="st0" points="402.2,322.1 404.6,317.9 409.5,317.9 412,322.1 409.5,326.4 404.6,326.4 		"/>
		<polygon class="st0" points="402.2,334 404.6,329.8 409.5,329.8 412,334 409.5,338.3 404.6,338.3 		"/>
		<polygon class="st0" points="402.2,345.9 404.6,341.7 409.5,341.7 412,345.9 409.5,350.2 404.6,350.2 		"/>
		<polygon class="st0" points="433.1,137.6 435.5,133.4 440.5,133.4 442.9,137.6 440.5,141.9 435.5,141.9 		"/>
		<polygon class="st0" points="433.1,149.5 435.5,145.3 440.5,145.3 442.9,149.5 440.5,153.8 435.5,153.8 		"/>
		<polygon class="st0" points="433.1,161.4 435.5,157.2 440.5,157.2 442.9,161.4 440.5,165.7 435.5,165.7 		"/>
		<polygon class="st0" points="433.1,173.3 435.5,169.1 440.5,169.1 442.9,173.3 440.5,177.6 435.5,177.6 		"/>
		<polygon class="st0" points="433.1,185.2 435.5,181 440.5,181 442.9,185.2 440.5,189.5 435.5,189.5 		"/>
		<polygon class="st0" points="433.1,221 435.5,216.7 440.5,216.7 442.9,221 440.5,225.2 435.5,225.2 		"/>
		<polygon class="st0" points="433.1,232.9 435.5,228.6 440.5,228.6 442.9,232.9 440.5,237.1 435.5,237.1 		"/>
		<polygon class="st0" points="433.1,244.8 435.5,240.5 440.5,240.5 442.9,244.8 440.5,249 435.5,249 		"/>
		<polygon class="st0" points="433.1,256.7 435.5,252.4 440.5,252.4 442.9,256.7 440.5,260.9 435.5,260.9 		"/>
		<polygon class="st0" points="433.1,268.6 435.5,264.3 440.5,264.3 442.9,268.6 440.5,272.8 435.5,272.8 		"/>
		<polygon class="st0" points="433.1,280.5 435.5,276.2 440.5,276.2 442.9,280.5 440.5,284.7 435.5,284.7 		"/>
		<polygon class="st0" points="433.1,292.4 435.5,288.1 440.5,288.1 442.9,292.4 440.5,296.6 435.5,296.6 		"/>
		<polygon class="st0" points="433.1,304.3 435.5,300 440.5,300 442.9,304.3 440.5,308.5 435.5,308.5 		"/>
		<polygon class="st0" points="433.1,316.2 435.5,311.9 440.5,311.9 442.9,316.2 440.5,320.4 435.5,320.4 		"/>
		<polygon class="st0" points="433.1,328.1 435.5,323.8 440.5,323.8 442.9,328.1 440.5,332.3 435.5,332.3 		"/>
		<polygon class="st0" points="433.1,90 435.5,85.8 440.5,85.8 442.9,90 440.5,94.3 435.5,94.3 		"/>
		<polygon class="st0" points="433.1,101.9 435.5,97.7 440.5,97.7 442.9,101.9 440.5,106.2 435.5,106.2 		"/>
		<polygon class="st0" points="433.1,125.7 435.5,121.5 440.5,121.5 442.9,125.7 440.5,130 435.5,130 		"/>
		<polygon class="st0" points="443.4,131.7 445.9,127.4 450.8,127.4 453.2,131.7 450.8,135.9 445.9,135.9 		"/>
		<polygon class="st0" points="443.4,143.6 445.9,139.3 450.8,139.3 453.2,143.6 450.8,147.8 445.9,147.8 		"/>
		<polygon class="st0" points="443.4,155.5 445.9,151.2 450.8,151.2 453.2,155.5 450.8,159.7 445.9,159.7 		"/>
		<polygon class="st0" points="443.4,167.4 445.9,163.1 450.8,163.1 453.2,167.4 450.8,171.6 445.9,171.6 		"/>
		<polygon class="st0" points="443.4,179.3 445.9,175 450.8,175 453.2,179.3 450.8,183.6 445.9,183.6 		"/>
		<polygon class="st0" points="443.4,215 445.9,210.8 450.8,210.8 453.2,215 450.8,219.3 445.9,219.3 		"/>
		<polygon class="st0" points="443.4,226.9 445.9,222.7 450.8,222.7 453.2,226.9 450.8,231.2 445.9,231.2 		"/>
		<polygon class="st0" points="443.4,250.7 445.9,246.5 450.8,246.5 453.2,250.7 450.8,255 445.9,255 		"/>
		<polygon class="st0" points="443.4,262.6 445.9,258.4 450.8,258.4 453.2,262.6 450.8,266.9 445.9,266.9 		"/>
		<polygon class="st0" points="443.4,274.5 445.9,270.3 450.8,270.3 453.2,274.5 450.8,278.8 445.9,278.8 		"/>
		<polygon class="st0" points="443.4,286.4 445.9,282.2 450.8,282.2 453.2,286.4 450.8,290.7 445.9,290.7 		"/>
		<polygon class="st0" points="443.4,298.3 445.9,294.1 450.8,294.1 453.2,298.3 450.8,302.6 445.9,302.6 		"/>
		<polygon class="st0" points="443.4,310.2 445.9,306 450.8,306 453.2,310.2 450.8,314.5 445.9,314.5 		"/>
		<polygon class="st0" points="443.4,84.1 445.9,79.8 450.8,79.8 453.2,84.1 450.8,88.3 445.9,88.3 		"/>
		<polygon class="st0" points="443.4,96 445.9,91.7 450.8,91.7 453.2,96 450.8,100.2 445.9,100.2 		"/>
		<polygon class="st0" points="443.4,107.9 445.9,103.6 450.8,103.6 453.2,107.9 450.8,112.1 445.9,112.1 		"/>
		<polygon class="st0" points="443.4,119.8 445.9,115.5 450.8,115.5 453.2,119.8 450.8,124 445.9,124 		"/>
		<polygon class="st0" points="443.4,48.4 445.9,44.1 450.8,44.1 453.2,48.4 450.8,52.6 445.9,52.6 		"/>
		<polygon class="st0" points="443.4,60.3 445.9,56 450.8,56 453.2,60.3 450.8,64.5 445.9,64.5 		"/>
		<polygon class="st0" points="443.4,72.2 445.9,67.9 450.8,67.9 453.2,72.2 450.8,76.4 445.9,76.4 		"/>
		<polygon class="st0" points="443.4,36.5 445.9,32.2 450.8,32.2 453.2,36.5 450.8,40.7 445.9,40.7 		"/>
		<polygon class="st0" points="453.7,137.6 456.2,133.4 461.1,133.4 463.5,137.6 461.1,141.9 456.2,141.9 		"/>
		<polygon class="st0" points="453.7,149.5 456.2,145.3 461.1,145.3 463.5,149.5 461.1,153.8 456.2,153.8 		"/>
		<polygon class="st0" points="453.7,161.4 456.2,157.2 461.1,157.2 463.5,161.4 461.1,165.7 456.2,165.7 		"/>
		<polygon class="st0" points="453.7,173.3 456.2,169.1 461.1,169.1 463.5,173.3 461.1,177.6 456.2,177.6 		"/>
		<polygon class="st0" points="453.7,197.2 456.2,192.9 461.1,192.9 463.5,197.2 461.1,201.4 456.2,201.4 		"/>
		<polygon class="st0" points="453.7,221 456.2,216.7 461.1,216.7 463.5,221 461.1,225.2 456.2,225.2 		"/>
		<polygon class="st0" points="453.7,268.6 456.2,264.3 461.1,264.3 463.5,268.6 461.1,272.8 456.2,272.8 		"/>
		<polygon class="st0" points="453.7,280.5 456.2,276.2 461.1,276.2 463.5,280.5 461.1,284.7 456.2,284.7 		"/>
		<polygon class="st0" points="453.7,292.4 456.2,288.1 461.1,288.1 463.5,292.4 461.1,296.6 456.2,296.6 		"/>
		<polygon class="st0" points="453.7,90 456.2,85.8 461.1,85.8 463.5,90 461.1,94.3 456.2,94.3 		"/>
		<polygon class="st0" points="453.7,101.9 456.2,97.7 461.1,97.7 463.5,101.9 461.1,106.2 456.2,106.2 		"/>
		<polygon class="st0" points="453.7,113.8 456.2,109.6 461.1,109.6 463.5,113.8 461.1,118.1 456.2,118.1 		"/>
		<polygon class="st0" points="453.7,125.7 456.2,121.5 461.1,121.5 463.5,125.7 461.1,130 456.2,130 		"/>
		<polygon class="st0" points="453.7,54.3 456.2,50.1 461.1,50.1 463.5,54.3 461.1,58.6 456.2,58.6 		"/>
		<polygon class="st0" points="453.7,66.2 456.2,62 461.1,62 463.5,66.2 461.1,70.5 456.2,70.5 		"/>
		<polygon class="st0" points="453.7,78.1 456.2,73.9 461.1,73.9 463.5,78.1 461.1,82.4 456.2,82.4 		"/>
		<polygon class="st0" points="453.7,42.4 456.2,38.2 461.1,38.2 463.5,42.4 461.1,46.7 456.2,46.7 		"/>
		<polygon class="st0" points="464,131.7 466.5,127.4 471.4,127.4 473.8,131.7 471.4,135.9 466.5,135.9 		"/>
		<polygon class="st0" points="464,143.6 466.5,139.3 471.4,139.3 473.8,143.6 471.4,147.8 466.5,147.8 		"/>
		<polygon class="st0" points="464,155.5 466.5,151.2 471.4,151.2 473.8,155.5 471.4,159.7 466.5,159.7 		"/>
		<polygon class="st0" points="464,167.4 466.5,163.1 471.4,163.1 473.8,167.4 471.4,171.6 466.5,171.6 		"/>
		<polygon class="st0" points="464,179.3 466.5,175 471.4,175 473.8,179.3 471.4,183.6 466.5,183.6 		"/>
		<polygon class="st0" points="464,191.2 466.5,186.9 471.4,186.9 473.8,191.2 471.4,195.5 466.5,195.5 		"/>
		<polygon class="st0" points="464,215 466.5,210.8 471.4,210.8 473.8,215 471.4,219.3 466.5,219.3 		"/>
		<polygon class="st0" points="464,84.1 466.5,79.8 471.4,79.8 473.8,84.1 471.4,88.3 466.5,88.3 		"/>
		<polygon class="st0" points="464,96 466.5,91.7 471.4,91.7 473.8,96 471.4,100.2 466.5,100.2 		"/>
		<polygon class="st0" points="464,107.9 466.5,103.6 471.4,103.6 473.8,107.9 471.4,112.1 466.5,112.1 		"/>
		<polygon class="st0" points="464,119.8 466.5,115.5 471.4,115.5 473.8,119.8 471.4,124 466.5,124 		"/>
		<polygon class="st0" points="464,48.4 466.5,44.1 471.4,44.1 473.8,48.4 471.4,52.6 466.5,52.6 		"/>
		<polygon class="st0" points="464,60.3 466.5,56 471.4,56 473.8,60.3 471.4,64.5 466.5,64.5 		"/>
		<polygon class="st0" points="464,72.2 466.5,67.9 471.4,67.9 473.8,72.2 471.4,76.4 466.5,76.4 		"/>
		<polygon class="st0" points="464,36.5 466.5,32.2 471.4,32.2 473.8,36.5 471.4,40.7 466.5,40.7 		"/>
		<polygon class="st0" points="515.6,137.6 518,133.4 523,133.4 525.4,137.6 523,141.9 518,141.9 		"/>
		<polygon class="st0" points="515.6,149.5 518,145.3 523,145.3 525.4,149.5 523,153.8 518,153.8 		"/>
		<polygon class="st0" points="515.6,161.4 518,157.2 523,157.2 525.4,161.4 523,165.7 518,165.7 		"/>
		<polygon class="st0" points="515.6,90 518,85.8 523,85.8 525.4,90 523,94.3 518,94.3 		"/>
		<polygon class="st0" points="515.6,101.9 518,97.7 523,97.7 525.4,101.9 523,106.2 518,106.2 		"/>
		<polygon class="st0" points="515.6,113.8 518,109.6 523,109.6 525.4,113.8 523,118.1 518,118.1 		"/>
		<polygon class="st0" points="515.6,125.7 518,121.5 523,121.5 525.4,125.7 523,130 518,130 		"/>
		<polygon class="st0" points="525.9,131.7 528.4,127.4 533.3,127.4 535.7,131.7 533.3,135.9 528.4,135.9 		"/>
		<polygon class="st0" points="525.9,155.5 528.4,151.2 533.3,151.2 535.7,155.5 533.3,159.7 528.4,159.7 		"/>
		<polygon class="st0" points="525.9,107.9 528.4,103.6 533.3,103.6 535.7,107.9 533.3,112.1 528.4,112.1 		"/>
		<polygon class="st0" points="525.9,119.8 528.4,115.5 533.3,115.5 535.7,119.8 533.3,124 528.4,124 		"/>
		<polygon class="st0" points="536.2,137.6 538.7,133.4 543.6,133.4 546,137.6 543.6,141.9 538.7,141.9 		"/>
		<polygon class="st0" points="536.2,113.8 538.7,109.6 543.6,109.6 546,113.8 543.6,118.1 538.7,118.1 		"/>
		<polygon class="st0" points="536.2,125.7 538.7,121.5 543.6,121.5 546,125.7 543.6,130 538.7,130 		"/>
		<polygon class="st0" points="546.5,107.9 549,103.6 553.9,103.6 556.3,107.9 553.9,112.1 549,112.1 		"/>
		<polygon class="st0" points="546.5,119.8 549,115.5 553.9,115.5 556.3,119.8 553.9,124 549,124 		"/>
		<polygon class="st0" points="474.3,137.6 476.8,133.4 481.7,133.4 484.2,137.6 481.7,141.9 476.8,141.9 		"/>
		<polygon class="st0" points="474.3,149.5 476.8,145.3 481.7,145.3 484.2,149.5 481.7,153.8 476.8,153.8 		"/>
		<polygon class="st0" points="474.3,161.4 476.8,157.2 481.7,157.2 484.2,161.4 481.7,165.7 476.8,165.7 		"/>
		<polygon class="st0" points="474.3,173.3 476.8,169.1 481.7,169.1 484.2,173.3 481.7,177.6 476.8,177.6 		"/>
		<polygon class="st0" points="474.3,185.2 476.8,181 481.7,181 484.2,185.2 481.7,189.5 476.8,189.5 		"/>
		<polygon class="st0" points="474.3,90 476.8,85.8 481.7,85.8 484.2,90 481.7,94.3 476.8,94.3 		"/>
		<polygon class="st0" points="474.3,101.9 476.8,97.7 481.7,97.7 484.2,101.9 481.7,106.2 476.8,106.2 		"/>
		<polygon class="st0" points="474.3,113.8 476.8,109.6 481.7,109.6 484.2,113.8 481.7,118.1 476.8,118.1 		"/>
		<polygon class="st0" points="474.3,125.7 476.8,121.5 481.7,121.5 484.2,125.7 481.7,130 476.8,130 		"/>
		<polygon class="st0" points="474.3,54.3 476.8,50.1 481.7,50.1 484.2,54.3 481.7,58.6 476.8,58.6 		"/>
		<polygon class="st0" points="474.3,66.2 476.8,62 481.7,62 484.2,66.2 481.7,70.5 476.8,70.5 		"/>
		<polygon class="st0" points="474.3,78.1 476.8,73.9 481.7,73.9 484.2,78.1 481.7,82.4 476.8,82.4 		"/>
		<polygon class="st0" points="474.3,42.4 476.8,38.2 481.7,38.2 484.2,42.4 481.7,46.7 476.8,46.7 		"/>
		<polygon class="st0" points="484.7,131.7 487.1,127.4 492,127.4 494.5,131.7 492,135.9 487.1,135.9 		"/>
		<polygon class="st0" points="484.7,143.6 487.1,139.3 492,139.3 494.5,143.6 492,147.8 487.1,147.8 		"/>
		<polygon class="st0" points="484.7,155.5 487.1,151.2 492,151.2 494.5,155.5 492,159.7 487.1,159.7 		"/>
		<polygon class="st0" points="484.7,167.4 487.1,163.1 492,163.1 494.5,167.4 492,171.6 487.1,171.6 		"/>
		<polygon class="st0" points="484.7,179.3 487.1,175 492,175 494.5,179.3 492,183.6 487.1,183.6 		"/>
		<polygon class="st0" points="484.7,84.1 487.1,79.8 492,79.8 494.5,84.1 492,88.3 487.1,88.3 		"/>
		<polygon class="st0" points="484.7,96 487.1,91.7 492,91.7 494.5,96 492,100.2 487.1,100.2 		"/>
		<polygon class="st0" points="484.7,107.9 487.1,103.6 492,103.6 494.5,107.9 492,112.1 487.1,112.1 		"/>
		<polygon class="st0" points="484.7,119.8 487.1,115.5 492,115.5 494.5,119.8 492,124 487.1,124 		"/>
		<polygon class="st0" points="484.7,48.4 487.1,44.1 492,44.1 494.5,48.4 492,52.6 487.1,52.6 		"/>
		<polygon class="st0" points="484.7,60.3 487.1,56 492,56 494.5,60.3 492,64.5 487.1,64.5 		"/>
		<polygon class="st0" points="484.7,72.2 487.1,67.9 492,67.9 494.5,72.2 492,76.4 487.1,76.4 		"/>
		<polygon class="st0" points="495,137.6 497.4,133.4 502.3,133.4 504.8,137.6 502.3,141.9 497.4,141.9 		"/>
		<polygon class="st0" points="495,149.5 497.4,145.3 502.3,145.3 504.8,149.5 502.3,153.8 497.4,153.8 		"/>
		<polygon class="st0" points="495,161.4 497.4,157.2 502.3,157.2 504.8,161.4 502.3,165.7 497.4,165.7 		"/>
		<polygon class="st0" points="495,173.3 497.4,169.1 502.3,169.1 504.8,173.3 502.3,177.6 497.4,177.6 		"/>
		<polygon class="st0" points="495,90 497.4,85.8 502.3,85.8 504.8,90 502.3,94.3 497.4,94.3 		"/>
		<polygon class="st0" points="495,101.9 497.4,97.7 502.3,97.7 504.8,101.9 502.3,106.2 497.4,106.2 		"/>
		<polygon class="st0" points="495,113.8 497.4,109.6 502.3,109.6 504.8,113.8 502.3,118.1 497.4,118.1 		"/>
		<polygon class="st0" points="495,125.7 497.4,121.5 502.3,121.5 504.8,125.7 502.3,130 497.4,130 		"/>
		<polygon class="st0" points="495,66.2 497.4,62 502.3,62 504.8,66.2 502.3,70.5 497.4,70.5 		"/>
		<polygon class="st0" points="495,78.1 497.4,73.9 502.3,73.9 504.8,78.1 502.3,82.4 497.4,82.4 		"/>
		<polygon class="st0" points="505.3,131.7 507.7,127.4 512.6,127.4 515.1,131.7 512.6,135.9 507.7,135.9 		"/>
		<polygon class="st0" points="505.3,143.6 507.7,139.3 512.6,139.3 515.1,143.6 512.6,147.8 507.7,147.8 		"/>
		<polygon class="st0" points="505.3,155.5 507.7,151.2 512.6,151.2 515.1,155.5 512.6,159.7 507.7,159.7 		"/>
		<polygon class="st0" points="505.3,167.4 507.7,163.1 512.6,163.1 515.1,167.4 512.6,171.6 507.7,171.6 		"/>
		<polygon class="st0" points="505.3,84.1 507.7,79.8 512.6,79.8 515.1,84.1 512.6,88.3 507.7,88.3 		"/>
		<polygon class="st0" points="505.3,96 507.7,91.7 512.6,91.7 515.1,96 512.6,100.2 507.7,100.2 		"/>
		<polygon class="st0" points="505.3,107.9 507.7,103.6 512.6,103.6 515.1,107.9 512.6,112.1 507.7,112.1 		"/>
		<polygon class="st0" points="505.3,119.8 507.7,115.5 512.6,115.5 515.1,119.8 512.6,124 507.7,124 		"/>
	</g>
</g>
<g id="Layer_2">
</g>
</svg>
