<?xml version="1.0" encoding="utf-8"?>
<!-- Generator: Adobe Illustrator 26.0.3, SVG Export Plug-In . SVG Version: 6.00 Build 0)  -->
<svg version="1.1" xmlns="http://www.w3.org/2000/svg" xmlns:xlink="http://www.w3.org/1999/xlink" x="0px" y="0px"
	 viewBox="0 0 649.1 418.1" style="enable-background:new 0 0 649.1 418.1;" xml:space="preserve">
<style type="text/css">
	.st0{fill:none;stroke:#FF00FF;stroke-width:2.834646e-02;stroke-miterlimit:10;}
</style>
<g id="Layer_1">
	<g>
		<polygon class="st0" points="149.5,131.7 152,127.4 156.9,127.4 159.3,131.7 156.9,135.9 152,135.9 		"/>
		<polygon class="st0" points="149.5,143.6 152,139.3 156.9,139.3 159.3,143.6 156.9,147.8 152,147.8 		"/>
		<polygon class="st0" points="149.5,119.8 152,115.5 156.9,115.5 159.3,119.8 156.9,124 152,124 		"/>
		<polygon class="st0" points="159.8,137.6 162.3,133.4 167.2,133.4 169.6,137.6 167.2,141.9 162.3,141.9 		"/>
		<polygon class="st0" points="159.8,209.1 162.3,204.8 167.2,204.8 169.6,209.1 167.2,213.3 162.3,213.3 		"/>
		<polygon class="st0" points="159.8,113.8 162.3,109.6 167.2,109.6 169.6,113.8 167.2,118.1 162.3,118.1 		"/>
		<polygon class="st0" points="159.8,125.7 162.3,121.5 167.2,121.5 169.6,125.7 167.2,130 162.3,130 		"/>
		<polygon class="st0" points="170.1,131.7 172.6,127.4 177.5,127.4 180,131.7 177.5,135.9 172.6,135.9 		"/>
		<polygon class="st0" points="170.1,143.6 172.6,139.3 177.5,139.3 180,143.6 177.5,147.8 172.6,147.8 		"/>
		<polygon class="st0" points="170.1,179.3 172.6,175 177.5,175 180,179.3 177.5,183.6 172.6,183.6 		"/>
		<polygon class="st0" points="170.1,191.2 172.6,186.9 177.5,186.9 180,191.2 177.5,195.5 172.6,195.5 		"/>
		<polygon class="st0" points="170.1,203.1 172.6,198.9 177.5,198.9 180,203.1 177.5,207.4 172.6,207.4 		"/>
		<polygon class="st0" points="170.1,215 172.6,210.8 177.5,210.8 180,215 177.5,219.3 172.6,219.3 		"/>
		<polygon class="st0" points="170.1,226.9 172.6,222.7 177.5,222.7 180,226.9 177.5,231.2 172.6,231.2 		"/>
		<polygon class="st0" points="170.1,119.8 172.6,115.5 177.5,115.5 180,119.8 177.5,124 172.6,124 		"/>
		<polygon class="st0" points="180.4,137.6 182.9,133.4 187.8,133.4 190.3,137.6 187.8,141.9 182.9,141.9 		"/>
		<polygon class="st0" points="180.4,149.5 182.9,145.3 187.8,145.3 190.3,149.5 187.8,153.8 182.9,153.8 		"/>
		<polygon class="st0" points="180.4,161.4 182.9,157.2 187.8,157.2 190.3,161.4 187.8,165.7 182.9,165.7 		"/>
		<polygon class="st0" points="180.4,173.3 182.9,169.1 187.8,169.1 190.3,173.3 187.8,177.6 182.9,177.6 		"/>
		<polygon class="st0" points="180.4,185.2 182.9,181 187.8,181 190.3,185.2 187.8,189.5 182.9,189.5 		"/>
		<polygon class="st0" points="180.4,197.2 182.9,192.9 187.8,192.9 190.3,197.2 187.8,201.4 182.9,201.4 		"/>
		<polygon class="st0" points="180.4,209.1 182.9,204.8 187.8,204.8 190.3,209.1 187.8,213.3 182.9,213.3 		"/>
		<polygon class="st0" points="180.4,221 182.9,216.7 187.8,216.7 190.3,221 187.8,225.2 182.9,225.2 		"/>
		<polygon class="st0" points="180.4,232.9 182.9,228.6 187.8,228.6 190.3,232.9 187.8,237.1 182.9,237.1 		"/>
		<polygon class="st0" points="180.4,244.8 182.9,240.5 187.8,240.5 190.3,244.8 187.8,249 182.9,249 		"/>
		<polygon class="st0" points="180.4,256.7 182.9,252.4 187.8,252.4 190.3,256.7 187.8,260.9 182.9,260.9 		"/>
		<polygon class="st0" points="180.4,292.4 182.9,288.1 187.8,288.1 190.3,292.4 187.8,296.6 182.9,296.6 		"/>
		<polygon class="st0" points="180.4,125.7 182.9,121.5 187.8,121.5 190.3,125.7 187.8,130 182.9,130 		"/>
		<polygon class="st0" points="190.8,131.7 193.2,127.4 198.1,127.4 200.6,131.7 198.1,135.9 193.2,135.9 		"/>
		<polygon class="st0" points="190.8,143.6 193.2,139.3 198.1,139.3 200.6,143.6 198.1,147.8 193.2,147.8 		"/>
		<polygon class="st0" points="190.8,155.5 193.2,151.2 198.1,151.2 200.6,155.5 198.1,159.7 193.2,159.7 		"/>
		<polygon class="st0" points="190.8,167.4 193.2,163.1 198.1,163.1 200.6,167.4 198.1,171.6 193.2,171.6 		"/>
		<polygon class="st0" points="190.8,179.3 193.2,175 198.1,175 200.6,179.3 198.1,183.6 193.2,183.6 		"/>
		<polygon class="st0" points="190.8,191.2 193.2,186.9 198.1,186.9 200.6,191.2 198.1,195.5 193.2,195.5 		"/>
		<polygon class="st0" points="190.8,203.1 193.2,198.9 198.1,198.9 200.6,203.1 198.1,207.4 193.2,207.4 		"/>
		<polygon class="st0" points="190.8,215 193.2,210.8 198.1,210.8 200.6,215 198.1,219.3 193.2,219.3 		"/>
		<polygon class="st0" points="190.8,226.9 193.2,222.7 198.1,222.7 200.6,226.9 198.1,231.2 193.2,231.2 		"/>
		<polygon class="st0" points="190.8,238.8 193.2,234.6 198.1,234.6 200.6,238.8 198.1,243.1 193.2,243.1 		"/>
		<polygon class="st0" points="190.8,250.7 193.2,246.5 198.1,246.5 200.6,250.7 198.1,255 193.2,255 		"/>
		<polygon class="st0" points="190.8,262.6 193.2,258.4 198.1,258.4 200.6,262.6 198.1,266.9 193.2,266.9 		"/>
		<polygon class="st0" points="190.8,274.5 193.2,270.3 198.1,270.3 200.6,274.5 198.1,278.8 193.2,278.8 		"/>
		<polygon class="st0" points="190.8,286.4 193.2,282.2 198.1,282.2 200.6,286.4 198.1,290.7 193.2,290.7 		"/>
		<polygon class="st0" points="190.8,298.3 193.2,294.1 198.1,294.1 200.6,298.3 198.1,302.6 193.2,302.6 		"/>
		<polygon class="st0" points="201.1,137.6 203.5,133.4 208.4,133.4 210.9,137.6 208.4,141.9 203.5,141.9 		"/>
		<polygon class="st0" points="201.1,149.5 203.5,145.3 208.4,145.3 210.9,149.5 208.4,153.8 203.5,153.8 		"/>
		<polygon class="st0" points="201.1,161.4 203.5,157.2 208.4,157.2 210.9,161.4 208.4,165.7 203.5,165.7 		"/>
		<polygon class="st0" points="201.1,173.3 203.5,169.1 208.4,169.1 210.9,173.3 208.4,177.6 203.5,177.6 		"/>
		<polygon class="st0" points="201.1,185.2 203.5,181 208.4,181 210.9,185.2 208.4,189.5 203.5,189.5 		"/>
		<polygon class="st0" points="201.1,197.2 203.5,192.9 208.4,192.9 210.9,197.2 208.4,201.4 203.5,201.4 		"/>
		<polygon class="st0" points="201.1,209.1 203.5,204.8 208.4,204.8 210.9,209.1 208.4,213.3 203.5,213.3 		"/>
		<polygon class="st0" points="201.1,221 203.5,216.7 208.4,216.7 210.9,221 208.4,225.2 203.5,225.2 		"/>
		<polygon class="st0" points="201.1,232.9 203.5,228.6 208.4,228.6 210.9,232.9 208.4,237.1 203.5,237.1 		"/>
		<polygon class="st0" points="201.1,244.8 203.5,240.5 208.4,240.5 210.9,244.8 208.4,249 203.5,249 		"/>
		<polygon class="st0" points="201.1,256.7 203.5,252.4 208.4,252.4 210.9,256.7 208.4,260.9 203.5,260.9 		"/>
		<polygon class="st0" points="201.1,268.6 203.5,264.3 208.4,264.3 210.9,268.6 208.4,272.8 203.5,272.8 		"/>
		<polygon class="st0" points="201.1,280.5 203.5,276.2 208.4,276.2 210.9,280.5 208.4,284.7 203.5,284.7 		"/>
		<polygon class="st0" points="201.1,292.4 203.5,288.1 208.4,288.1 210.9,292.4 208.4,296.6 203.5,296.6 		"/>
		<polygon class="st0" points="201.1,304.3 203.5,300 208.4,300 210.9,304.3 208.4,308.5 203.5,308.5 		"/>
		<polygon class="st0" points="201.1,316.2 203.5,311.9 208.4,311.9 210.9,316.2 208.4,320.4 203.5,320.4 		"/>
		<polygon class="st0" points="201.1,328.1 203.5,323.8 208.4,323.8 210.9,328.1 208.4,332.3 203.5,332.3 		"/>
		<polygon class="st0" points="201.1,125.7 203.5,121.5 208.4,121.5 210.9,125.7 208.4,130 203.5,130 		"/>
		<polygon class="st0" points="211.4,226.9 213.8,222.7 218.7,222.7 221.2,226.9 218.7,231.2 213.8,231.2 		"/>
		<polygon class="st0" points="211.4,238.8 213.8,234.6 218.7,234.6 221.2,238.8 218.7,243.1 213.8,243.1 		"/>
		<polygon class="st0" points="211.4,250.7 213.8,246.5 218.7,246.5 221.2,250.7 218.7,255 213.8,255 		"/>
		<polygon class="st0" points="211.4,262.6 213.8,258.4 218.7,258.4 221.2,262.6 218.7,266.9 213.8,266.9 		"/>
		<polygon class="st0" points="211.4,274.5 213.8,270.3 218.7,270.3 221.2,274.5 218.7,278.8 213.8,278.8 		"/>
		<polygon class="st0" points="211.4,286.4 213.8,282.2 218.7,282.2 221.2,286.4 218.7,290.7 213.8,290.7 		"/>
		<polygon class="st0" points="211.4,298.3 213.8,294.1 218.7,294.1 221.2,298.3 218.7,302.6 213.8,302.6 		"/>
		<polygon class="st0" points="211.4,310.2 213.8,306 218.7,306 221.2,310.2 218.7,314.5 213.8,314.5 		"/>
		<polygon class="st0" points="211.4,322.1 213.8,317.9 218.7,317.9 221.2,322.1 218.7,326.4 213.8,326.4 		"/>
		<polygon class="st0" points="221.7,149.5 224.1,145.3 229.1,145.3 231.5,149.5 229.1,153.8 224.1,153.8 		"/>
		<polygon class="st0" points="221.7,161.4 224.1,157.2 229.1,157.2 231.5,161.4 229.1,165.7 224.1,165.7 		"/>
		<polygon class="st0" points="221.7,209.1 224.1,204.8 229.1,204.8 231.5,209.1 229.1,213.3 224.1,213.3 		"/>
		<polygon class="st0" points="221.7,221 224.1,216.7 229.1,216.7 231.5,221 229.1,225.2 224.1,225.2 		"/>
		<polygon class="st0" points="221.7,232.9 224.1,228.6 229.1,228.6 231.5,232.9 229.1,237.1 224.1,237.1 		"/>
		<polygon class="st0" points="221.7,244.8 224.1,240.5 229.1,240.5 231.5,244.8 229.1,249 224.1,249 		"/>
		<polygon class="st0" points="221.7,268.6 224.1,264.3 229.1,264.3 231.5,268.6 229.1,272.8 224.1,272.8 		"/>
		<polygon class="st0" points="221.7,280.5 224.1,276.2 229.1,276.2 231.5,280.5 229.1,284.7 224.1,284.7 		"/>
		<polygon class="st0" points="221.7,292.4 224.1,288.1 229.1,288.1 231.5,292.4 229.1,296.6 224.1,296.6 		"/>
		<polygon class="st0" points="221.7,304.3 224.1,300 229.1,300 231.5,304.3 229.1,308.5 224.1,308.5 		"/>
		<polygon class="st0" points="221.7,316.2 224.1,311.9 229.1,311.9 231.5,316.2 229.1,320.4 224.1,320.4 		"/>
		<polygon class="st0" points="221.7,328.1 224.1,323.8 229.1,323.8 231.5,328.1 229.1,332.3 224.1,332.3 		"/>
		<polygon class="st0" points="221.7,340 224.1,335.7 229.1,335.7 231.5,340 229.1,344.2 224.1,344.2 		"/>
		<polygon class="st0" points="232,203.1 234.5,198.9 239.4,198.9 241.8,203.1 239.4,207.4 234.5,207.4 		"/>
		<polygon class="st0" points="232,226.9 234.5,222.7 239.4,222.7 241.8,226.9 239.4,231.2 234.5,231.2 		"/>
		<polygon class="st0" points="232,238.8 234.5,234.6 239.4,234.6 241.8,238.8 239.4,243.1 234.5,243.1 		"/>
		<polygon class="st0" points="232,274.5 234.5,270.3 239.4,270.3 241.8,274.5 239.4,278.8 234.5,278.8 		"/>
		<polygon class="st0" points="232,286.4 234.5,282.2 239.4,282.2 241.8,286.4 239.4,290.7 234.5,290.7 		"/>
		<polygon class="st0" points="232,298.3 234.5,294.1 239.4,294.1 241.8,298.3 239.4,302.6 234.5,302.6 		"/>
		<polygon class="st0" points="232,310.2 234.5,306 239.4,306 241.8,310.2 239.4,314.5 234.5,314.5 		"/>
		<polygon class="st0" points="232,322.1 234.5,317.9 239.4,317.9 241.8,322.1 239.4,326.4 234.5,326.4 		"/>
		<polygon class="st0" points="232,334 234.5,329.8 239.4,329.8 241.8,334 239.4,338.3 234.5,338.3 		"/>
		<polygon class="st0" points="242.3,149.5 244.8,145.3 249.7,145.3 252.1,149.5 249.7,153.8 244.8,153.8 		"/>
		<polygon class="st0" points="242.3,161.4 244.8,157.2 249.7,157.2 252.1,161.4 249.7,165.7 244.8,165.7 		"/>
		<polygon class="st0" points="242.3,173.3 244.8,169.1 249.7,169.1 252.1,173.3 249.7,177.6 244.8,177.6 		"/>
		<polygon class="st0" points="242.3,221 244.8,216.7 249.7,216.7 252.1,221 249.7,225.2 244.8,225.2 		"/>
		<polygon class="st0" points="242.3,268.6 244.8,264.3 249.7,264.3 252.1,268.6 249.7,272.8 244.8,272.8 		"/>
		<polygon class="st0" points="242.3,280.5 244.8,276.2 249.7,276.2 252.1,280.5 249.7,284.7 244.8,284.7 		"/>
		<polygon class="st0" points="242.3,292.4 244.8,288.1 249.7,288.1 252.1,292.4 249.7,296.6 244.8,296.6 		"/>
		<polygon class="st0" points="242.3,304.3 244.8,300 249.7,300 252.1,304.3 249.7,308.5 244.8,308.5 		"/>
		<polygon class="st0" points="242.3,316.2 244.8,311.9 249.7,311.9 252.1,316.2 249.7,320.4 244.8,320.4 		"/>
		<polygon class="st0" points="242.3,328.1 244.8,323.8 249.7,323.8 252.1,328.1 249.7,332.3 244.8,332.3 		"/>
		<polygon class="st0" points="242.3,340 244.8,335.7 249.7,335.7 252.1,340 249.7,344.2 244.8,344.2 		"/>
		<polygon class="st0" points="242.3,351.9 244.8,347.6 249.7,347.6 252.1,351.9 249.7,356.1 244.8,356.1 		"/>
		<polygon class="st0" points="252.6,131.7 255.1,127.4 260,127.4 262.4,131.7 260,135.9 255.1,135.9 		"/>
		<polygon class="st0" points="252.6,155.5 255.1,151.2 260,151.2 262.4,155.5 260,159.7 255.1,159.7 		"/>
		<polygon class="st0" points="252.6,167.4 255.1,163.1 260,163.1 262.4,167.4 260,171.6 255.1,171.6 		"/>
		<polygon class="st0" points="252.6,262.6 255.1,258.4 260,258.4 262.4,262.6 260,266.9 255.1,266.9 		"/>
		<polygon class="st0" points="252.6,274.5 255.1,270.3 260,270.3 262.4,274.5 260,278.8 255.1,278.8 		"/>
		<polygon class="st0" points="252.6,286.4 255.1,282.2 260,282.2 262.4,286.4 260,290.7 255.1,290.7 		"/>
		<polygon class="st0" points="252.6,298.3 255.1,294.1 260,294.1 262.4,298.3 260,302.6 255.1,302.6 		"/>
		<polygon class="st0" points="252.6,310.2 255.1,306 260,306 262.4,310.2 260,314.5 255.1,314.5 		"/>
		<polygon class="st0" points="252.6,322.1 255.1,317.9 260,317.9 262.4,322.1 260,326.4 255.1,326.4 		"/>
		<polygon class="st0" points="252.6,334 255.1,329.8 260,329.8 262.4,334 260,338.3 255.1,338.3 		"/>
		<polygon class="st0" points="252.6,345.9 255.1,341.7 260,341.7 262.4,345.9 260,350.2 255.1,350.2 		"/>
		<polygon class="st0" points="252.6,357.8 255.1,353.6 260,353.6 262.4,357.8 260,362.1 255.1,362.1 		"/>
		<polygon class="st0" points="252.6,369.7 255.1,365.5 260,365.5 262.4,369.7 260,374 255.1,374 		"/>
		<polygon class="st0" points="252.6,381.6 255.1,377.4 260,377.4 262.4,381.6 260,385.9 255.1,385.9 		"/>
		<polygon class="st0" points="283.6,137.6 286,133.4 290.9,133.4 293.4,137.6 290.9,141.9 286,141.9 		"/>
		<polygon class="st0" points="283.6,221 286,216.7 290.9,216.7 293.4,221 290.9,225.2 286,225.2 		"/>
		<polygon class="st0" points="283.6,232.9 286,228.6 290.9,228.6 293.4,232.9 290.9,237.1 286,237.1 		"/>
		<polygon class="st0" points="283.6,244.8 286,240.5 290.9,240.5 293.4,244.8 290.9,249 286,249 		"/>
		<polygon class="st0" points="283.6,256.7 286,252.4 290.9,252.4 293.4,256.7 290.9,260.9 286,260.9 		"/>
		<polygon class="st0" points="283.6,268.6 286,264.3 290.9,264.3 293.4,268.6 290.9,272.8 286,272.8 		"/>
		<polygon class="st0" points="283.6,280.5 286,276.2 290.9,276.2 293.4,280.5 290.9,284.7 286,284.7 		"/>
		<polygon class="st0" points="283.6,292.4 286,288.1 290.9,288.1 293.4,292.4 290.9,296.6 286,296.6 		"/>
		<polygon class="st0" points="283.6,304.3 286,300 290.9,300 293.4,304.3 290.9,308.5 286,308.5 		"/>
		<polygon class="st0" points="283.6,316.2 286,311.9 290.9,311.9 293.4,316.2 290.9,320.4 286,320.4 		"/>
		<polygon class="st0" points="283.6,328.1 286,323.8 290.9,323.8 293.4,328.1 290.9,332.3 286,332.3 		"/>
		<polygon class="st0" points="283.6,340 286,335.7 290.9,335.7 293.4,340 290.9,344.2 286,344.2 		"/>
		<polygon class="st0" points="283.6,363.8 286,359.5 290.9,359.5 293.4,363.8 290.9,368 286,368 		"/>
		<polygon class="st0" points="283.6,113.8 286,109.6 290.9,109.6 293.4,113.8 290.9,118.1 286,118.1 		"/>
		<polygon class="st0" points="283.6,125.7 286,121.5 290.9,121.5 293.4,125.7 290.9,130 286,130 		"/>
		<polygon class="st0" points="293.9,191.2 296.3,186.9 301.2,186.9 303.7,191.2 301.2,195.5 296.3,195.5 		"/>
		<polygon class="st0" points="293.9,238.8 296.3,234.6 301.2,234.6 303.7,238.8 301.2,243.1 296.3,243.1 		"/>
		<polygon class="st0" points="293.9,250.7 296.3,246.5 301.2,246.5 303.7,250.7 301.2,255 296.3,255 		"/>
		<polygon class="st0" points="293.9,262.6 296.3,258.4 301.2,258.4 303.7,262.6 301.2,266.9 296.3,266.9 		"/>
		<polygon class="st0" points="293.9,274.5 296.3,270.3 301.2,270.3 303.7,274.5 301.2,278.8 296.3,278.8 		"/>
		<polygon class="st0" points="293.9,286.4 296.3,282.2 301.2,282.2 303.7,286.4 301.2,290.7 296.3,290.7 		"/>
		<polygon class="st0" points="293.9,298.3 296.3,294.1 301.2,294.1 303.7,298.3 301.2,302.6 296.3,302.6 		"/>
		<polygon class="st0" points="293.9,310.2 296.3,306 301.2,306 303.7,310.2 301.2,314.5 296.3,314.5 		"/>
		<polygon class="st0" points="293.9,322.1 296.3,317.9 301.2,317.9 303.7,322.1 301.2,326.4 296.3,326.4 		"/>
		<polygon class="st0" points="293.9,334 296.3,329.8 301.2,329.8 303.7,334 301.2,338.3 296.3,338.3 		"/>
		<polygon class="st0" points="293.9,119.8 296.3,115.5 301.2,115.5 303.7,119.8 301.2,124 296.3,124 		"/>
		<polygon class="st0" points="324.8,137.6 327.3,133.4 332.2,133.4 334.6,137.6 332.2,141.9 327.3,141.9 		"/>
		<polygon class="st0" points="324.8,209.1 327.3,204.8 332.2,204.8 334.6,209.1 332.2,213.3 327.3,213.3 		"/>
		<polygon class="st0" points="324.8,221 327.3,216.7 332.2,216.7 334.6,221 332.2,225.2 327.3,225.2 		"/>
		<polygon class="st0" points="324.8,232.9 327.3,228.6 332.2,228.6 334.6,232.9 332.2,237.1 327.3,237.1 		"/>
		<polygon class="st0" points="324.8,244.8 327.3,240.5 332.2,240.5 334.6,244.8 332.2,249 327.3,249 		"/>
		<polygon class="st0" points="324.8,256.7 327.3,252.4 332.2,252.4 334.6,256.7 332.2,260.9 327.3,260.9 		"/>
		<polygon class="st0" points="324.8,268.6 327.3,264.3 332.2,264.3 334.6,268.6 332.2,272.8 327.3,272.8 		"/>
		<polygon class="st0" points="324.8,280.5 327.3,276.2 332.2,276.2 334.6,280.5 332.2,284.7 327.3,284.7 		"/>
		<polygon class="st0" points="324.8,292.4 327.3,288.1 332.2,288.1 334.6,292.4 332.2,296.6 327.3,296.6 		"/>
		<polygon class="st0" points="324.8,304.3 327.3,300 332.2,300 334.6,304.3 332.2,308.5 327.3,308.5 		"/>
		<polygon class="st0" points="324.8,316.2 327.3,311.9 332.2,311.9 334.6,316.2 332.2,320.4 327.3,320.4 		"/>
		<polygon class="st0" points="324.8,340 327.3,335.7 332.2,335.7 334.6,340 332.2,344.2 327.3,344.2 		"/>
		<polygon class="st0" points="324.8,351.9 327.3,347.6 332.2,347.6 334.6,351.9 332.2,356.1 327.3,356.1 		"/>
		<polygon class="st0" points="324.8,125.7 327.3,121.5 332.2,121.5 334.6,125.7 332.2,130 327.3,130 		"/>
		<polygon class="st0" points="335.1,131.7 337.6,127.4 342.5,127.4 344.9,131.7 342.5,135.9 337.6,135.9 		"/>
		<polygon class="st0" points="335.1,191.2 337.6,186.9 342.5,186.9 344.9,191.2 342.5,195.5 337.6,195.5 		"/>
		<polygon class="st0" points="335.1,203.1 337.6,198.9 342.5,198.9 344.9,203.1 342.5,207.4 337.6,207.4 		"/>
		<polygon class="st0" points="335.1,215 337.6,210.8 342.5,210.8 344.9,215 342.5,219.3 337.6,219.3 		"/>
		<polygon class="st0" points="335.1,226.9 337.6,222.7 342.5,222.7 344.9,226.9 342.5,231.2 337.6,231.2 		"/>
		<polygon class="st0" points="335.1,238.8 337.6,234.6 342.5,234.6 344.9,238.8 342.5,243.1 337.6,243.1 		"/>
		<polygon class="st0" points="335.1,250.7 337.6,246.5 342.5,246.5 344.9,250.7 342.5,255 337.6,255 		"/>
		<polygon class="st0" points="335.1,262.6 337.6,258.4 342.5,258.4 344.9,262.6 342.5,266.9 337.6,266.9 		"/>
		<polygon class="st0" points="335.1,274.5 337.6,270.3 342.5,270.3 344.9,274.5 342.5,278.8 337.6,278.8 		"/>
		<polygon class="st0" points="335.1,286.4 337.6,282.2 342.5,282.2 344.9,286.4 342.5,290.7 337.6,290.7 		"/>
		<polygon class="st0" points="335.1,298.3 337.6,294.1 342.5,294.1 344.9,298.3 342.5,302.6 337.6,302.6 		"/>
		<polygon class="st0" points="335.1,345.9 337.6,341.7 342.5,341.7 344.9,345.9 342.5,350.2 337.6,350.2 		"/>
		<polygon class="st0" points="335.1,357.8 337.6,353.6 342.5,353.6 344.9,357.8 342.5,362.1 337.6,362.1 		"/>
		<polygon class="st0" points="366.1,137.6 368.5,133.4 373.4,133.4 375.9,137.6 373.4,141.9 368.5,141.9 		"/>
		<polygon class="st0" points="366.1,161.4 368.5,157.2 373.4,157.2 375.9,161.4 373.4,165.7 368.5,165.7 		"/>
		<polygon class="st0" points="366.1,185.2 368.5,181 373.4,181 375.9,185.2 373.4,189.5 368.5,189.5 		"/>
		<polygon class="st0" points="366.1,197.2 368.5,192.9 373.4,192.9 375.9,197.2 373.4,201.4 368.5,201.4 		"/>
		<polygon class="st0" points="366.1,232.9 368.5,228.6 373.4,228.6 375.9,232.9 373.4,237.1 368.5,237.1 		"/>
		<polygon class="st0" points="366.1,244.8 368.5,240.5 373.4,240.5 375.9,244.8 373.4,249 368.5,249 		"/>
		<polygon class="st0" points="366.1,256.7 368.5,252.4 373.4,252.4 375.9,256.7 373.4,260.9 368.5,260.9 		"/>
		<polygon class="st0" points="366.1,268.6 368.5,264.3 373.4,264.3 375.9,268.6 373.4,272.8 368.5,272.8 		"/>
		<polygon class="st0" points="366.1,280.5 368.5,276.2 373.4,276.2 375.9,280.5 373.4,284.7 368.5,284.7 		"/>
		<polygon class="st0" points="366.1,292.4 368.5,288.1 373.4,288.1 375.9,292.4 373.4,296.6 368.5,296.6 		"/>
		<polygon class="st0" points="366.1,304.3 368.5,300 373.4,300 375.9,304.3 373.4,308.5 368.5,308.5 		"/>
		<polygon class="st0" points="366.1,340 368.5,335.7 373.4,335.7 375.9,340 373.4,344.2 368.5,344.2 		"/>
		<polygon class="st0" points="366.1,351.9 368.5,347.6 373.4,347.6 375.9,351.9 373.4,356.1 368.5,356.1 		"/>
		<polygon class="st0" points="366.1,90 368.5,85.8 373.4,85.8 375.9,90 373.4,94.3 368.5,94.3 		"/>
		<polygon class="st0" points="366.1,113.8 368.5,109.6 373.4,109.6 375.9,113.8 373.4,118.1 368.5,118.1 		"/>
		<polygon class="st0" points="376.4,179.3 378.8,175 383.7,175 386.2,179.3 383.7,183.6 378.8,183.6 		"/>
		<polygon class="st0" points="376.4,203.1 378.8,198.9 383.7,198.9 386.2,203.1 383.7,207.4 378.8,207.4 		"/>
		<polygon class="st0" points="376.4,238.8 378.8,234.6 383.7,234.6 386.2,238.8 383.7,243.1 378.8,243.1 		"/>
		<polygon class="st0" points="376.4,262.6 378.8,258.4 383.7,258.4 386.2,262.6 383.7,266.9 378.8,266.9 		"/>
		<polygon class="st0" points="376.4,274.5 378.8,270.3 383.7,270.3 386.2,274.5 383.7,278.8 378.8,278.8 		"/>
		<polygon class="st0" points="376.4,286.4 378.8,282.2 383.7,282.2 386.2,286.4 383.7,290.7 378.8,290.7 		"/>
		<polygon class="st0" points="376.4,298.3 378.8,294.1 383.7,294.1 386.2,298.3 383.7,302.6 378.8,302.6 		"/>
		<polygon class="st0" points="376.4,107.9 378.8,103.6 383.7,103.6 386.2,107.9 383.7,112.1 378.8,112.1 		"/>
		<polygon class="st0" points="407.3,137.6 409.8,133.4 414.7,133.4 417.1,137.6 414.7,141.9 409.8,141.9 		"/>
		<polygon class="st0" points="407.3,161.4 409.8,157.2 414.7,157.2 417.1,161.4 414.7,165.7 409.8,165.7 		"/>
		<polygon class="st0" points="407.3,185.2 409.8,181 414.7,181 417.1,185.2 414.7,189.5 409.8,189.5 		"/>
		<polygon class="st0" points="407.3,197.2 409.8,192.9 414.7,192.9 417.1,197.2 414.7,201.4 409.8,201.4 		"/>
		<polygon class="st0" points="407.3,209.1 409.8,204.8 414.7,204.8 417.1,209.1 414.7,213.3 409.8,213.3 		"/>
		<polygon class="st0" points="407.3,256.7 409.8,252.4 414.7,252.4 417.1,256.7 414.7,260.9 409.8,260.9 		"/>
		<polygon class="st0" points="407.3,268.6 409.8,264.3 414.7,264.3 417.1,268.6 414.7,272.8 409.8,272.8 		"/>
		<polygon class="st0" points="407.3,280.5 409.8,276.2 414.7,276.2 417.1,280.5 414.7,284.7 409.8,284.7 		"/>
		<polygon class="st0" points="407.3,304.3 409.8,300 414.7,300 417.1,304.3 414.7,308.5 409.8,308.5 		"/>
		<polygon class="st0" points="407.3,90 409.8,85.8 414.7,85.8 417.1,90 414.7,94.3 409.8,94.3 		"/>
		<polygon class="st0" points="407.3,54.3 409.8,50.1 414.7,50.1 417.1,54.3 414.7,58.6 409.8,58.6 		"/>
		<polygon class="st0" points="407.3,66.2 409.8,62 414.7,62 417.1,66.2 414.7,70.5 409.8,70.5 		"/>
		<polygon class="st0" points="417.6,155.5 420.1,151.2 425,151.2 427.4,155.5 425,159.7 420.1,159.7 		"/>
		<polygon class="st0" points="417.6,250.7 420.1,246.5 425,246.5 427.4,250.7 425,255 420.1,255 		"/>
		<polygon class="st0" points="417.6,274.5 420.1,270.3 425,270.3 427.4,274.5 425,278.8 420.1,278.8 		"/>
		<polygon class="st0" points="417.6,119.8 420.1,115.5 425,115.5 427.4,119.8 425,124 420.1,124 		"/>
		<polygon class="st0" points="417.6,36.5 420.1,32.2 425,32.2 427.4,36.5 425,40.7 420.1,40.7 		"/>
		<polygon class="st0" points="262.9,256.7 265.4,252.4 270.3,252.4 272.8,256.7 270.3,260.9 265.4,260.9 		"/>
		<polygon class="st0" points="262.9,268.6 265.4,264.3 270.3,264.3 272.8,268.6 270.3,272.8 265.4,272.8 		"/>
		<polygon class="st0" points="262.9,280.5 265.4,276.2 270.3,276.2 272.8,280.5 270.3,284.7 265.4,284.7 		"/>
		<polygon class="st0" points="262.9,292.4 265.4,288.1 270.3,288.1 272.8,292.4 270.3,296.6 265.4,296.6 		"/>
		<polygon class="st0" points="262.9,304.3 265.4,300 270.3,300 272.8,304.3 270.3,308.5 265.4,308.5 		"/>
		<polygon class="st0" points="262.9,316.2 265.4,311.9 270.3,311.9 272.8,316.2 270.3,320.4 265.4,320.4 		"/>
		<polygon class="st0" points="262.9,328.1 265.4,323.8 270.3,323.8 272.8,328.1 270.3,332.3 265.4,332.3 		"/>
		<polygon class="st0" points="262.9,340 265.4,335.7 270.3,335.7 272.8,340 270.3,344.2 265.4,344.2 		"/>
		<polygon class="st0" points="262.9,351.9 265.4,347.6 270.3,347.6 272.8,351.9 270.3,356.1 265.4,356.1 		"/>
		<polygon class="st0" points="262.9,375.7 265.4,371.4 270.3,371.4 272.8,375.7 270.3,379.9 265.4,379.9 		"/>
		<polygon class="st0" points="273.3,131.7 275.7,127.4 280.6,127.4 283.1,131.7 280.6,135.9 275.7,135.9 		"/>
		<polygon class="st0" points="273.3,215 275.7,210.8 280.6,210.8 283.1,215 280.6,219.3 275.7,219.3 		"/>
		<polygon class="st0" points="273.3,250.7 275.7,246.5 280.6,246.5 283.1,250.7 280.6,255 275.7,255 		"/>
		<polygon class="st0" points="273.3,262.6 275.7,258.4 280.6,258.4 283.1,262.6 280.6,266.9 275.7,266.9 		"/>
		<polygon class="st0" points="273.3,274.5 275.7,270.3 280.6,270.3 283.1,274.5 280.6,278.8 275.7,278.8 		"/>
		<polygon class="st0" points="273.3,286.4 275.7,282.2 280.6,282.2 283.1,286.4 280.6,290.7 275.7,290.7 		"/>
		<polygon class="st0" points="273.3,298.3 275.7,294.1 280.6,294.1 283.1,298.3 280.6,302.6 275.7,302.6 		"/>
		<polygon class="st0" points="273.3,310.2 275.7,306 280.6,306 283.1,310.2 280.6,314.5 275.7,314.5 		"/>
		<polygon class="st0" points="273.3,322.1 275.7,317.9 280.6,317.9 283.1,322.1 280.6,326.4 275.7,326.4 		"/>
		<polygon class="st0" points="273.3,334 275.7,329.8 280.6,329.8 283.1,334 280.6,338.3 275.7,338.3 		"/>
		<polygon class="st0" points="273.3,345.9 275.7,341.7 280.6,341.7 283.1,345.9 280.6,350.2 275.7,350.2 		"/>
		<polygon class="st0" points="273.3,119.8 275.7,115.5 280.6,115.5 283.1,119.8 280.6,124 275.7,124 		"/>
		<polygon class="st0" points="304.2,185.2 306.6,181 311.6,181 314,185.2 311.6,189.5 306.6,189.5 		"/>
		<polygon class="st0" points="304.2,232.9 306.6,228.6 311.6,228.6 314,232.9 311.6,237.1 306.6,237.1 		"/>
		<polygon class="st0" points="304.2,244.8 306.6,240.5 311.6,240.5 314,244.8 311.6,249 306.6,249 		"/>
		<polygon class="st0" points="304.2,256.7 306.6,252.4 311.6,252.4 314,256.7 311.6,260.9 306.6,260.9 		"/>
		<polygon class="st0" points="304.2,268.6 306.6,264.3 311.6,264.3 314,268.6 311.6,272.8 306.6,272.8 		"/>
		<polygon class="st0" points="304.2,280.5 306.6,276.2 311.6,276.2 314,280.5 311.6,284.7 306.6,284.7 		"/>
		<polygon class="st0" points="304.2,292.4 306.6,288.1 311.6,288.1 314,292.4 311.6,296.6 306.6,296.6 		"/>
		<polygon class="st0" points="304.2,304.3 306.6,300 311.6,300 314,304.3 311.6,308.5 306.6,308.5 		"/>
		<polygon class="st0" points="304.2,316.2 306.6,311.9 311.6,311.9 314,316.2 311.6,320.4 306.6,320.4 		"/>
		<polygon class="st0" points="304.2,328.1 306.6,323.8 311.6,323.8 314,328.1 311.6,332.3 306.6,332.3 		"/>
		<polygon class="st0" points="304.2,340 306.6,335.7 311.6,335.7 314,340 311.6,344.2 306.6,344.2 		"/>
		<polygon class="st0" points="304.2,351.9 306.6,347.6 311.6,347.6 314,351.9 311.6,356.1 306.6,356.1 		"/>
		<polygon class="st0" points="314.5,131.7 317,127.4 321.9,127.4 324.3,131.7 321.9,135.9 317,135.9 		"/>
		<polygon class="st0" points="314.5,143.6 317,139.3 321.9,139.3 324.3,143.6 321.9,147.8 317,147.8 		"/>
		<polygon class="st0" points="314.5,167.4 317,163.1 321.9,163.1 324.3,167.4 321.9,171.6 317,171.6 		"/>
		<polygon class="st0" points="314.5,203.1 317,198.9 321.9,198.9 324.3,203.1 321.9,207.4 317,207.4 		"/>
		<polygon class="st0" points="314.5,215 317,210.8 321.9,210.8 324.3,215 321.9,219.3 317,219.3 		"/>
		<polygon class="st0" points="314.5,226.9 317,222.7 321.9,222.7 324.3,226.9 321.9,231.2 317,231.2 		"/>
		<polygon class="st0" points="314.5,238.8 317,234.6 321.9,234.6 324.3,238.8 321.9,243.1 317,243.1 		"/>
		<polygon class="st0" points="314.5,250.7 317,246.5 321.9,246.5 324.3,250.7 321.9,255 317,255 		"/>
		<polygon class="st0" points="314.5,262.6 317,258.4 321.9,258.4 324.3,262.6 321.9,266.9 317,266.9 		"/>
		<polygon class="st0" points="314.5,274.5 317,270.3 321.9,270.3 324.3,274.5 321.9,278.8 317,278.8 		"/>
		<polygon class="st0" points="314.5,286.4 317,282.2 321.9,282.2 324.3,286.4 321.9,290.7 317,290.7 		"/>
		<polygon class="st0" points="314.5,298.3 317,294.1 321.9,294.1 324.3,298.3 321.9,302.6 317,302.6 		"/>
		<polygon class="st0" points="314.5,310.2 317,306 321.9,306 324.3,310.2 321.9,314.5 317,314.5 		"/>
		<polygon class="st0" points="314.5,322.1 317,317.9 321.9,317.9 324.3,322.1 321.9,326.4 317,326.4 		"/>
		<polygon class="st0" points="345.4,173.3 347.9,169.1 352.8,169.1 355.3,173.3 352.8,177.6 347.9,177.6 		"/>
		<polygon class="st0" points="345.4,185.2 347.9,181 352.8,181 355.3,185.2 352.8,189.5 347.9,189.5 		"/>
		<polygon class="st0" points="345.4,197.2 347.9,192.9 352.8,192.9 355.3,197.2 352.8,201.4 347.9,201.4 		"/>
		<polygon class="st0" points="345.4,209.1 347.9,204.8 352.8,204.8 355.3,209.1 352.8,213.3 347.9,213.3 		"/>
		<polygon class="st0" points="345.4,221 347.9,216.7 352.8,216.7 355.3,221 352.8,225.2 347.9,225.2 		"/>
		<polygon class="st0" points="345.4,244.8 347.9,240.5 352.8,240.5 355.3,244.8 352.8,249 347.9,249 		"/>
		<polygon class="st0" points="345.4,256.7 347.9,252.4 352.8,252.4 355.3,256.7 352.8,260.9 347.9,260.9 		"/>
		<polygon class="st0" points="345.4,268.6 347.9,264.3 352.8,264.3 355.3,268.6 352.8,272.8 347.9,272.8 		"/>
		<polygon class="st0" points="345.4,280.5 347.9,276.2 352.8,276.2 355.3,280.5 352.8,284.7 347.9,284.7 		"/>
		<polygon class="st0" points="345.4,292.4 347.9,288.1 352.8,288.1 355.3,292.4 352.8,296.6 347.9,296.6 		"/>
		<polygon class="st0" points="345.4,304.3 347.9,300 352.8,300 355.3,304.3 352.8,308.5 347.9,308.5 		"/>
		<polygon class="st0" points="345.4,316.2 347.9,311.9 352.8,311.9 355.3,316.2 352.8,320.4 347.9,320.4 		"/>
		<polygon class="st0" points="345.4,328.1 347.9,323.8 352.8,323.8 355.3,328.1 352.8,332.3 347.9,332.3 		"/>
		<polygon class="st0" points="345.4,90 347.9,85.8 352.8,85.8 355.3,90 352.8,94.3 347.9,94.3 		"/>
		<polygon class="st0" points="345.4,101.9 347.9,97.7 352.8,97.7 355.3,101.9 352.8,106.2 347.9,106.2 		"/>
		<polygon class="st0" points="355.7,131.7 358.2,127.4 363.1,127.4 365.6,131.7 363.1,135.9 358.2,135.9 		"/>
		<polygon class="st0" points="355.7,167.4 358.2,163.1 363.1,163.1 365.6,167.4 363.1,171.6 358.2,171.6 		"/>
		<polygon class="st0" points="355.7,215 358.2,210.8 363.1,210.8 365.6,215 363.1,219.3 358.2,219.3 		"/>
		<polygon class="st0" points="355.7,250.7 358.2,246.5 363.1,246.5 365.6,250.7 363.1,255 358.2,255 		"/>
		<polygon class="st0" points="355.7,262.6 358.2,258.4 363.1,258.4 365.6,262.6 363.1,266.9 358.2,266.9 		"/>
		<polygon class="st0" points="355.7,274.5 358.2,270.3 363.1,270.3 365.6,274.5 363.1,278.8 358.2,278.8 		"/>
		<polygon class="st0" points="355.7,286.4 358.2,282.2 363.1,282.2 365.6,286.4 363.1,290.7 358.2,290.7 		"/>
		<polygon class="st0" points="355.7,298.3 358.2,294.1 363.1,294.1 365.6,298.3 363.1,302.6 358.2,302.6 		"/>
		<polygon class="st0" points="355.7,310.2 358.2,306 363.1,306 365.6,310.2 363.1,314.5 358.2,314.5 		"/>
		<polygon class="st0" points="355.7,322.1 358.2,317.9 363.1,317.9 365.6,322.1 363.1,326.4 358.2,326.4 		"/>
		<polygon class="st0" points="355.7,345.9 358.2,341.7 363.1,341.7 365.6,345.9 363.1,350.2 358.2,350.2 		"/>
		<polygon class="st0" points="355.7,357.8 358.2,353.6 363.1,353.6 365.6,357.8 363.1,362.1 358.2,362.1 		"/>
		<polygon class="st0" points="355.7,96 358.2,91.7 363.1,91.7 365.6,96 363.1,100.2 358.2,100.2 		"/>
		<polygon class="st0" points="355.7,107.9 358.2,103.6 363.1,103.6 365.6,107.9 363.1,112.1 358.2,112.1 		"/>
		<polygon class="st0" points="386.7,149.5 389.1,145.3 394.1,145.3 396.5,149.5 394.1,153.8 389.1,153.8 		"/>
		<polygon class="st0" points="386.7,161.4 389.1,157.2 394.1,157.2 396.5,161.4 394.1,165.7 389.1,165.7 		"/>
		<polygon class="st0" points="386.7,197.2 389.1,192.9 394.1,192.9 396.5,197.2 394.1,201.4 389.1,201.4 		"/>
		<polygon class="st0" points="386.7,256.7 389.1,252.4 394.1,252.4 396.5,256.7 394.1,260.9 389.1,260.9 		"/>
		<polygon class="st0" points="386.7,268.6 389.1,264.3 394.1,264.3 396.5,268.6 394.1,272.8 389.1,272.8 		"/>
		<polygon class="st0" points="386.7,280.5 389.1,276.2 394.1,276.2 396.5,280.5 394.1,284.7 389.1,284.7 		"/>
		<polygon class="st0" points="386.7,292.4 389.1,288.1 394.1,288.1 396.5,292.4 394.1,296.6 389.1,296.6 		"/>
		<polygon class="st0" points="386.7,304.3 389.1,300 394.1,300 396.5,304.3 394.1,308.5 389.1,308.5 		"/>
		<polygon class="st0" points="386.7,90 389.1,85.8 394.1,85.8 396.5,90 394.1,94.3 389.1,94.3 		"/>
		<polygon class="st0" points="386.7,101.9 389.1,97.7 394.1,97.7 396.5,101.9 394.1,106.2 389.1,106.2 		"/>
		<polygon class="st0" points="397,131.7 399.5,127.4 404.4,127.4 406.8,131.7 404.4,135.9 399.5,135.9 		"/>
		<polygon class="st0" points="397,155.5 399.5,151.2 404.4,151.2 406.8,155.5 404.4,159.7 399.5,159.7 		"/>
		<polygon class="st0" points="397,179.3 399.5,175 404.4,175 406.8,179.3 404.4,183.6 399.5,183.6 		"/>
		<polygon class="st0" points="397,250.7 399.5,246.5 404.4,246.5 406.8,250.7 404.4,255 399.5,255 		"/>
		<polygon class="st0" points="397,262.6 399.5,258.4 404.4,258.4 406.8,262.6 404.4,266.9 399.5,266.9 		"/>
		<polygon class="st0" points="397,274.5 399.5,270.3 404.4,270.3 406.8,274.5 404.4,278.8 399.5,278.8 		"/>
		<polygon class="st0" points="397,286.4 399.5,282.2 404.4,282.2 406.8,286.4 404.4,290.7 399.5,290.7 		"/>
		<polygon class="st0" points="397,298.3 399.5,294.1 404.4,294.1 406.8,298.3 404.4,302.6 399.5,302.6 		"/>
		<polygon class="st0" points="397,310.2 399.5,306 404.4,306 406.8,310.2 404.4,314.5 399.5,314.5 		"/>
		<polygon class="st0" points="427.9,137.6 430.4,133.4 435.3,133.4 437.8,137.6 435.3,141.9 430.4,141.9 		"/>
		<polygon class="st0" points="427.9,161.4 430.4,157.2 435.3,157.2 437.8,161.4 435.3,165.7 430.4,165.7 		"/>
		<polygon class="st0" points="427.9,54.3 430.4,50.1 435.3,50.1 437.8,54.3 435.3,58.6 430.4,58.6 		"/>
		<polygon class="st0" points="427.9,78.1 430.4,73.9 435.3,73.9 437.8,78.1 435.3,82.4 430.4,82.4 		"/>
		<polygon class="st0" points="427.9,42.4 430.4,38.2 435.3,38.2 437.8,42.4 435.3,46.7 430.4,46.7 		"/>
		<polygon class="st0" points="438.2,250.7 440.7,246.5 445.6,246.5 448.1,250.7 445.6,255 440.7,255 		"/>
		<polygon class="st0" points="438.2,48.4 440.7,44.1 445.6,44.1 448.1,48.4 445.6,52.6 440.7,52.6 		"/>
		<polygon class="st0" points="438.2,60.3 440.7,56 445.6,56 448.1,60.3 445.6,64.5 440.7,64.5 		"/>
		<polygon class="st0" points="448.6,78.1 451,73.9 455.9,73.9 458.4,78.1 455.9,82.4 451,82.4 		"/>
		<polygon class="st0" points="458.9,203.1 461.3,198.9 466.2,198.9 468.7,203.1 466.2,207.4 461.3,207.4 		"/>
		<polygon class="st0" points="458.9,226.9 461.3,222.7 466.2,222.7 468.7,226.9 466.2,231.2 461.3,231.2 		"/>
		<polygon class="st0" points="458.9,84.1 461.3,79.8 466.2,79.8 468.7,84.1 466.2,88.3 461.3,88.3 		"/>
		<polygon class="st0" points="469.2,161.4 471.6,157.2 476.5,157.2 479,161.4 476.5,165.7 471.6,165.7 		"/>
		<polygon class="st0" points="469.2,173.3 471.6,169.1 476.5,169.1 479,173.3 476.5,177.6 471.6,177.6 		"/>
		<polygon class="st0" points="469.2,185.2 471.6,181 476.5,181 479,185.2 476.5,189.5 471.6,189.5 		"/>
		<polygon class="st0" points="469.2,197.2 471.6,192.9 476.5,192.9 479,197.2 476.5,201.4 471.6,201.4 		"/>
		<polygon class="st0" points="469.2,209.1 471.6,204.8 476.5,204.8 479,209.1 476.5,213.3 471.6,213.3 		"/>
		<polygon class="st0" points="469.2,221 471.6,216.7 476.5,216.7 479,221 476.5,225.2 471.6,225.2 		"/>
		<polygon class="st0" points="469.2,232.9 471.6,228.6 476.5,228.6 479,232.9 476.5,237.1 471.6,237.1 		"/>
		<polygon class="st0" points="469.2,125.7 471.6,121.5 476.5,121.5 479,125.7 476.5,130 471.6,130 		"/>
		<polygon class="st0" points="479.5,131.7 481.9,127.4 486.9,127.4 489.3,131.7 486.9,135.9 481.9,135.9 		"/>
		<polygon class="st0" points="479.5,143.6 481.9,139.3 486.9,139.3 489.3,143.6 486.9,147.8 481.9,147.8 		"/>
		<polygon class="st0" points="479.5,155.5 481.9,151.2 486.9,151.2 489.3,155.5 486.9,159.7 481.9,159.7 		"/>
		<polygon class="st0" points="479.5,167.4 481.9,163.1 486.9,163.1 489.3,167.4 486.9,171.6 481.9,171.6 		"/>
		<polygon class="st0" points="479.5,179.3 481.9,175 486.9,175 489.3,179.3 486.9,183.6 481.9,183.6 		"/>
		<polygon class="st0" points="479.5,191.2 481.9,186.9 486.9,186.9 489.3,191.2 486.9,195.5 481.9,195.5 		"/>
		<polygon class="st0" points="479.5,203.1 481.9,198.9 486.9,198.9 489.3,203.1 486.9,207.4 481.9,207.4 		"/>
		<polygon class="st0" points="479.5,215 481.9,210.8 486.9,210.8 489.3,215 486.9,219.3 481.9,219.3 		"/>
		<polygon class="st0" points="479.5,226.9 481.9,222.7 486.9,222.7 489.3,226.9 486.9,231.2 481.9,231.2 		"/>
		<polygon class="st0" points="479.5,96 481.9,91.7 486.9,91.7 489.3,96 486.9,100.2 481.9,100.2 		"/>
		<polygon class="st0" points="479.5,119.8 481.9,115.5 486.9,115.5 489.3,119.8 486.9,124 481.9,124 		"/>
		<polygon class="st0" points="489.8,137.6 492.3,133.4 497.2,133.4 499.6,137.6 497.2,141.9 492.3,141.9 		"/>
		<polygon class="st0" points="489.8,149.5 492.3,145.3 497.2,145.3 499.6,149.5 497.2,153.8 492.3,153.8 		"/>
		<polygon class="st0" points="489.8,161.4 492.3,157.2 497.2,157.2 499.6,161.4 497.2,165.7 492.3,165.7 		"/>
		<polygon class="st0" points="489.8,173.3 492.3,169.1 497.2,169.1 499.6,173.3 497.2,177.6 492.3,177.6 		"/>
		<polygon class="st0" points="489.8,185.2 492.3,181 497.2,181 499.6,185.2 497.2,189.5 492.3,189.5 		"/>
		<polygon class="st0" points="489.8,125.7 492.3,121.5 497.2,121.5 499.6,125.7 497.2,130 492.3,130 		"/>
		<polygon class="st0" points="242.8,244.8 245.3,240.5 250.2,240.5 252.6,244.8 250.2,249 245.3,249 		"/>
		<polygon class="st0" points="253.1,238.8 255.6,234.6 260.5,234.6 262.9,238.8 260.5,243.1 255.6,243.1 		"/>
		<polygon class="st0" points="232.5,250.7 235,246.5 239.9,246.5 242.3,250.7 239.9,255 235,255 		"/>
	</g>
</g>
<g id="Layer_2">
</g>
</svg>
