<?xml version="1.0" encoding="utf-8"?>
<!-- Generator: Adobe Illustrator 26.0.3, SVG Export Plug-In . SVG Version: 6.00 Build 0)  -->
<svg version="1.1" xmlns="http://www.w3.org/2000/svg" xmlns:xlink="http://www.w3.org/1999/xlink" x="0px" y="0px"
	 viewBox="0 0 649.1 418.1" style="enable-background:new 0 0 649.1 418.1;" xml:space="preserve">
<style type="text/css">
	.st0{fill:none;stroke:#FF00FF;stroke-width:2.834646e-02;stroke-miterlimit:10;}
</style>
<g id="Layer_1">
	<g>
		<polygon class="st0" points="118.6,191.2 121,186.9 125.9,186.9 128.4,191.2 125.9,195.5 121,195.5 		"/>
		<polygon class="st0" points="118.6,203.1 121,198.9 125.9,198.9 128.4,203.1 125.9,207.4 121,207.4 		"/>
		<polygon class="st0" points="118.6,215 121,210.8 125.9,210.8 128.4,215 125.9,219.3 121,219.3 		"/>
		<polygon class="st0" points="118.6,226.9 121,222.7 125.9,222.7 128.4,226.9 125.9,231.2 121,231.2 		"/>
		<polygon class="st0" points="118.6,274.5 121,270.3 125.9,270.3 128.4,274.5 125.9,278.8 121,278.8 		"/>
		<polygon class="st0" points="118.6,286.4 121,282.2 125.9,282.2 128.4,286.4 125.9,290.7 121,290.7 		"/>
		<polygon class="st0" points="118.6,298.3 121,294.1 125.9,294.1 128.4,298.3 125.9,302.6 121,302.6 		"/>
		<polygon class="st0" points="128.9,173.3 131.3,169.1 136.2,169.1 138.7,173.3 136.2,177.6 131.3,177.6 		"/>
		<polygon class="st0" points="128.9,185.2 131.3,181 136.2,181 138.7,185.2 136.2,189.5 131.3,189.5 		"/>
		<polygon class="st0" points="128.9,197.2 131.3,192.9 136.2,192.9 138.7,197.2 136.2,201.4 131.3,201.4 		"/>
		<polygon class="st0" points="128.9,209.1 131.3,204.8 136.2,204.8 138.7,209.1 136.2,213.3 131.3,213.3 		"/>
		<polygon class="st0" points="128.9,221 131.3,216.7 136.2,216.7 138.7,221 136.2,225.2 131.3,225.2 		"/>
		<polygon class="st0" points="128.9,304.3 131.3,300 136.2,300 138.7,304.3 136.2,308.5 131.3,308.5 		"/>
		<polygon class="st0" points="128.9,328.1 131.3,323.8 136.2,323.8 138.7,328.1 136.2,332.3 131.3,332.3 		"/>
		<polygon class="st0" points="139.2,155.5 141.6,151.2 146.6,151.2 149,155.5 146.6,159.7 141.6,159.7 		"/>
		<polygon class="st0" points="139.2,167.4 141.6,163.1 146.6,163.1 149,167.4 146.6,171.6 141.6,171.6 		"/>
		<polygon class="st0" points="139.2,179.3 141.6,175 146.6,175 149,179.3 146.6,183.6 141.6,183.6 		"/>
		<polygon class="st0" points="139.2,191.2 141.6,186.9 146.6,186.9 149,191.2 146.6,195.5 141.6,195.5 		"/>
		<polygon class="st0" points="139.2,203.1 141.6,198.9 146.6,198.9 149,203.1 146.6,207.4 141.6,207.4 		"/>
		<polygon class="st0" points="139.2,215 141.6,210.8 146.6,210.8 149,215 146.6,219.3 141.6,219.3 		"/>
		<polygon class="st0" points="139.2,226.9 141.6,222.7 146.6,222.7 149,226.9 146.6,231.2 141.6,231.2 		"/>
		<polygon class="st0" points="139.2,238.8 141.6,234.6 146.6,234.6 149,238.8 146.6,243.1 141.6,243.1 		"/>
		<polygon class="st0" points="139.2,250.7 141.6,246.5 146.6,246.5 149,250.7 146.6,255 141.6,255 		"/>
		<polygon class="st0" points="139.2,262.6 141.6,258.4 146.6,258.4 149,262.6 146.6,266.9 141.6,266.9 		"/>
		<polygon class="st0" points="139.2,274.5 141.6,270.3 146.6,270.3 149,274.5 146.6,278.8 141.6,278.8 		"/>
		<polygon class="st0" points="139.2,286.4 141.6,282.2 146.6,282.2 149,286.4 146.6,290.7 141.6,290.7 		"/>
		<polygon class="st0" points="139.2,298.3 141.6,294.1 146.6,294.1 149,298.3 146.6,302.6 141.6,302.6 		"/>
		<polygon class="st0" points="139.2,310.2 141.6,306 146.6,306 149,310.2 146.6,314.5 141.6,314.5 		"/>
		<polygon class="st0" points="139.2,334 141.6,329.8 146.6,329.8 149,334 146.6,338.3 141.6,338.3 		"/>
		<polygon class="st0" points="149.5,137.6 152,133.4 156.9,133.4 159.3,137.6 156.9,141.9 152,141.9 		"/>
		<polygon class="st0" points="149.5,149.5 152,145.3 156.9,145.3 159.3,149.5 156.9,153.8 152,153.8 		"/>
		<polygon class="st0" points="149.5,161.4 152,157.2 156.9,157.2 159.3,161.4 156.9,165.7 152,165.7 		"/>
		<polygon class="st0" points="149.5,173.3 152,169.1 156.9,169.1 159.3,173.3 156.9,177.6 152,177.6 		"/>
		<polygon class="st0" points="149.5,185.2 152,181 156.9,181 159.3,185.2 156.9,189.5 152,189.5 		"/>
		<polygon class="st0" points="149.5,197.2 152,192.9 156.9,192.9 159.3,197.2 156.9,201.4 152,201.4 		"/>
		<polygon class="st0" points="149.5,209.1 152,204.8 156.9,204.8 159.3,209.1 156.9,213.3 152,213.3 		"/>
		<polygon class="st0" points="149.5,221 152,216.7 156.9,216.7 159.3,221 156.9,225.2 152,225.2 		"/>
		<polygon class="st0" points="149.5,232.9 152,228.6 156.9,228.6 159.3,232.9 156.9,237.1 152,237.1 		"/>
		<polygon class="st0" points="149.5,244.8 152,240.5 156.9,240.5 159.3,244.8 156.9,249 152,249 		"/>
		<polygon class="st0" points="149.5,256.7 152,252.4 156.9,252.4 159.3,256.7 156.9,260.9 152,260.9 		"/>
		<polygon class="st0" points="149.5,268.6 152,264.3 156.9,264.3 159.3,268.6 156.9,272.8 152,272.8 		"/>
		<polygon class="st0" points="149.5,280.5 152,276.2 156.9,276.2 159.3,280.5 156.9,284.7 152,284.7 		"/>
		<polygon class="st0" points="149.5,292.4 152,288.1 156.9,288.1 159.3,292.4 156.9,296.6 152,296.6 		"/>
		<polygon class="st0" points="149.5,304.3 152,300 156.9,300 159.3,304.3 156.9,308.5 152,308.5 		"/>
		<polygon class="st0" points="149.5,316.2 152,311.9 156.9,311.9 159.3,316.2 156.9,320.4 152,320.4 		"/>
		<polygon class="st0" points="149.5,340 152,335.7 156.9,335.7 159.3,340 156.9,344.2 152,344.2 		"/>
		<polygon class="st0" points="159.8,143.6 162.3,139.3 167.2,139.3 169.6,143.6 167.2,147.8 162.3,147.8 		"/>
		<polygon class="st0" points="159.8,155.5 162.3,151.2 167.2,151.2 169.6,155.5 167.2,159.7 162.3,159.7 		"/>
		<polygon class="st0" points="159.8,167.4 162.3,163.1 167.2,163.1 169.6,167.4 167.2,171.6 162.3,171.6 		"/>
		<polygon class="st0" points="159.8,179.3 162.3,175 167.2,175 169.6,179.3 167.2,183.6 162.3,183.6 		"/>
		<polygon class="st0" points="159.8,191.2 162.3,186.9 167.2,186.9 169.6,191.2 167.2,195.5 162.3,195.5 		"/>
		<polygon class="st0" points="159.8,203.1 162.3,198.9 167.2,198.9 169.6,203.1 167.2,207.4 162.3,207.4 		"/>
		<polygon class="st0" points="159.8,215 162.3,210.8 167.2,210.8 169.6,215 167.2,219.3 162.3,219.3 		"/>
		<polygon class="st0" points="159.8,226.9 162.3,222.7 167.2,222.7 169.6,226.9 167.2,231.2 162.3,231.2 		"/>
		<polygon class="st0" points="159.8,238.8 162.3,234.6 167.2,234.6 169.6,238.8 167.2,243.1 162.3,243.1 		"/>
		<polygon class="st0" points="159.8,250.7 162.3,246.5 167.2,246.5 169.6,250.7 167.2,255 162.3,255 		"/>
		<polygon class="st0" points="159.8,262.6 162.3,258.4 167.2,258.4 169.6,262.6 167.2,266.9 162.3,266.9 		"/>
		<polygon class="st0" points="159.8,274.5 162.3,270.3 167.2,270.3 169.6,274.5 167.2,278.8 162.3,278.8 		"/>
		<polygon class="st0" points="159.8,286.4 162.3,282.2 167.2,282.2 169.6,286.4 167.2,290.7 162.3,290.7 		"/>
		<polygon class="st0" points="159.8,298.3 162.3,294.1 167.2,294.1 169.6,298.3 167.2,302.6 162.3,302.6 		"/>
		<polygon class="st0" points="159.8,310.2 162.3,306 167.2,306 169.6,310.2 167.2,314.5 162.3,314.5 		"/>
		<polygon class="st0" points="159.8,322.1 162.3,317.9 167.2,317.9 169.6,322.1 167.2,326.4 162.3,326.4 		"/>
		<polygon class="st0" points="170.1,149.5 172.6,145.3 177.5,145.3 180,149.5 177.5,153.8 172.6,153.8 		"/>
		<polygon class="st0" points="170.1,161.4 172.6,157.2 177.5,157.2 180,161.4 177.5,165.7 172.6,165.7 		"/>
		<polygon class="st0" points="170.1,173.3 172.6,169.1 177.5,169.1 180,173.3 177.5,177.6 172.6,177.6 		"/>
		<polygon class="st0" points="170.1,185.2 172.6,181 177.5,181 180,185.2 177.5,189.5 172.6,189.5 		"/>
		<polygon class="st0" points="170.1,197.2 172.6,192.9 177.5,192.9 180,197.2 177.5,201.4 172.6,201.4 		"/>
		<polygon class="st0" points="170.1,209.1 172.6,204.8 177.5,204.8 180,209.1 177.5,213.3 172.6,213.3 		"/>
		<polygon class="st0" points="170.1,221 172.6,216.7 177.5,216.7 180,221 177.5,225.2 172.6,225.2 		"/>
		<polygon class="st0" points="170.1,232.9 172.6,228.6 177.5,228.6 180,232.9 177.5,237.1 172.6,237.1 		"/>
		<polygon class="st0" points="170.1,244.8 172.6,240.5 177.5,240.5 180,244.8 177.5,249 172.6,249 		"/>
		<polygon class="st0" points="170.1,256.7 172.6,252.4 177.5,252.4 180,256.7 177.5,260.9 172.6,260.9 		"/>
		<polygon class="st0" points="170.1,268.6 172.6,264.3 177.5,264.3 180,268.6 177.5,272.8 172.6,272.8 		"/>
		<polygon class="st0" points="170.1,280.5 172.6,276.2 177.5,276.2 180,280.5 177.5,284.7 172.6,284.7 		"/>
		<polygon class="st0" points="170.1,292.4 172.6,288.1 177.5,288.1 180,292.4 177.5,296.6 172.6,296.6 		"/>
		<polygon class="st0" points="170.1,304.3 172.6,300 177.5,300 180,304.3 177.5,308.5 172.6,308.5 		"/>
		<polygon class="st0" points="170.1,316.2 172.6,311.9 177.5,311.9 180,316.2 177.5,320.4 172.6,320.4 		"/>
		<polygon class="st0" points="170.1,328.1 172.6,323.8 177.5,323.8 180,328.1 177.5,332.3 172.6,332.3 		"/>
		<polygon class="st0" points="180.4,143.6 182.9,139.3 187.8,139.3 190.3,143.6 187.8,147.8 182.9,147.8 		"/>
		<polygon class="st0" points="180.4,155.5 182.9,151.2 187.8,151.2 190.3,155.5 187.8,159.7 182.9,159.7 		"/>
		<polygon class="st0" points="180.4,167.4 182.9,163.1 187.8,163.1 190.3,167.4 187.8,171.6 182.9,171.6 		"/>
		<polygon class="st0" points="180.4,179.3 182.9,175 187.8,175 190.3,179.3 187.8,183.6 182.9,183.6 		"/>
		<polygon class="st0" points="180.4,191.2 182.9,186.9 187.8,186.9 190.3,191.2 187.8,195.5 182.9,195.5 		"/>
		<polygon class="st0" points="180.4,203.1 182.9,198.9 187.8,198.9 190.3,203.1 187.8,207.4 182.9,207.4 		"/>
		<polygon class="st0" points="180.4,215 182.9,210.8 187.8,210.8 190.3,215 187.8,219.3 182.9,219.3 		"/>
		<polygon class="st0" points="180.4,226.9 182.9,222.7 187.8,222.7 190.3,226.9 187.8,231.2 182.9,231.2 		"/>
		<polygon class="st0" points="180.4,238.8 182.9,234.6 187.8,234.6 190.3,238.8 187.8,243.1 182.9,243.1 		"/>
		<polygon class="st0" points="180.4,250.7 182.9,246.5 187.8,246.5 190.3,250.7 187.8,255 182.9,255 		"/>
		<polygon class="st0" points="180.4,262.6 182.9,258.4 187.8,258.4 190.3,262.6 187.8,266.9 182.9,266.9 		"/>
		<polygon class="st0" points="180.4,274.5 182.9,270.3 187.8,270.3 190.3,274.5 187.8,278.8 182.9,278.8 		"/>
		<polygon class="st0" points="180.4,286.4 182.9,282.2 187.8,282.2 190.3,286.4 187.8,290.7 182.9,290.7 		"/>
		<polygon class="st0" points="180.4,298.3 182.9,294.1 187.8,294.1 190.3,298.3 187.8,302.6 182.9,302.6 		"/>
		<polygon class="st0" points="180.4,310.2 182.9,306 187.8,306 190.3,310.2 187.8,314.5 182.9,314.5 		"/>
		<polygon class="st0" points="180.4,322.1 182.9,317.9 187.8,317.9 190.3,322.1 187.8,326.4 182.9,326.4 		"/>
		<polygon class="st0" points="180.4,334 182.9,329.8 187.8,329.8 190.3,334 187.8,338.3 182.9,338.3 		"/>
		<polygon class="st0" points="190.8,149.5 193.2,145.3 198.1,145.3 200.6,149.5 198.1,153.8 193.2,153.8 		"/>
		<polygon class="st0" points="190.8,161.4 193.2,157.2 198.1,157.2 200.6,161.4 198.1,165.7 193.2,165.7 		"/>
		<polygon class="st0" points="190.8,173.3 193.2,169.1 198.1,169.1 200.6,173.3 198.1,177.6 193.2,177.6 		"/>
		<polygon class="st0" points="190.8,185.2 193.2,181 198.1,181 200.6,185.2 198.1,189.5 193.2,189.5 		"/>
		<polygon class="st0" points="190.8,197.2 193.2,192.9 198.1,192.9 200.6,197.2 198.1,201.4 193.2,201.4 		"/>
		<polygon class="st0" points="190.8,209.1 193.2,204.8 198.1,204.8 200.6,209.1 198.1,213.3 193.2,213.3 		"/>
		<polygon class="st0" points="190.8,221 193.2,216.7 198.1,216.7 200.6,221 198.1,225.2 193.2,225.2 		"/>
		<polygon class="st0" points="190.8,232.9 193.2,228.6 198.1,228.6 200.6,232.9 198.1,237.1 193.2,237.1 		"/>
		<polygon class="st0" points="190.8,244.8 193.2,240.5 198.1,240.5 200.6,244.8 198.1,249 193.2,249 		"/>
		<polygon class="st0" points="190.8,256.7 193.2,252.4 198.1,252.4 200.6,256.7 198.1,260.9 193.2,260.9 		"/>
		<polygon class="st0" points="190.8,268.6 193.2,264.3 198.1,264.3 200.6,268.6 198.1,272.8 193.2,272.8 		"/>
		<polygon class="st0" points="190.8,280.5 193.2,276.2 198.1,276.2 200.6,280.5 198.1,284.7 193.2,284.7 		"/>
		<polygon class="st0" points="190.8,292.4 193.2,288.1 198.1,288.1 200.6,292.4 198.1,296.6 193.2,296.6 		"/>
		<polygon class="st0" points="190.8,304.3 193.2,300 198.1,300 200.6,304.3 198.1,308.5 193.2,308.5 		"/>
		<polygon class="st0" points="190.8,316.2 193.2,311.9 198.1,311.9 200.6,316.2 198.1,320.4 193.2,320.4 		"/>
		<polygon class="st0" points="190.8,328.1 193.2,323.8 198.1,323.8 200.6,328.1 198.1,332.3 193.2,332.3 		"/>
		<polygon class="st0" points="201.1,131.7 203.5,127.4 208.4,127.4 210.9,131.7 208.4,135.9 203.5,135.9 		"/>
		<polygon class="st0" points="201.1,155.5 203.5,151.2 208.4,151.2 210.9,155.5 208.4,159.7 203.5,159.7 		"/>
		<polygon class="st0" points="201.1,167.4 203.5,163.1 208.4,163.1 210.9,167.4 208.4,171.6 203.5,171.6 		"/>
		<polygon class="st0" points="201.1,179.3 203.5,175 208.4,175 210.9,179.3 208.4,183.6 203.5,183.6 		"/>
		<polygon class="st0" points="201.1,191.2 203.5,186.9 208.4,186.9 210.9,191.2 208.4,195.5 203.5,195.5 		"/>
		<polygon class="st0" points="201.1,203.1 203.5,198.9 208.4,198.9 210.9,203.1 208.4,207.4 203.5,207.4 		"/>
		<polygon class="st0" points="201.1,215 203.5,210.8 208.4,210.8 210.9,215 208.4,219.3 203.5,219.3 		"/>
		<polygon class="st0" points="201.1,226.9 203.5,222.7 208.4,222.7 210.9,226.9 208.4,231.2 203.5,231.2 		"/>
		<polygon class="st0" points="201.1,238.8 203.5,234.6 208.4,234.6 210.9,238.8 208.4,243.1 203.5,243.1 		"/>
		<polygon class="st0" points="201.1,250.7 203.5,246.5 208.4,246.5 210.9,250.7 208.4,255 203.5,255 		"/>
		<polygon class="st0" points="201.1,262.6 203.5,258.4 208.4,258.4 210.9,262.6 208.4,266.9 203.5,266.9 		"/>
		<polygon class="st0" points="201.1,274.5 203.5,270.3 208.4,270.3 210.9,274.5 208.4,278.8 203.5,278.8 		"/>
		<polygon class="st0" points="201.1,286.4 203.5,282.2 208.4,282.2 210.9,286.4 208.4,290.7 203.5,290.7 		"/>
		<polygon class="st0" points="201.1,298.3 203.5,294.1 208.4,294.1 210.9,298.3 208.4,302.6 203.5,302.6 		"/>
		<polygon class="st0" points="201.1,310.2 203.5,306 208.4,306 210.9,310.2 208.4,314.5 203.5,314.5 		"/>
		<polygon class="st0" points="201.1,322.1 203.5,317.9 208.4,317.9 210.9,322.1 208.4,326.4 203.5,326.4 		"/>
		<polygon class="st0" points="201.1,334 203.5,329.8 208.4,329.8 210.9,334 208.4,338.3 203.5,338.3 		"/>
		<polygon class="st0" points="211.4,137.6 213.8,133.4 218.7,133.4 221.2,137.6 218.7,141.9 213.8,141.9 		"/>
		<polygon class="st0" points="211.4,173.3 213.8,169.1 218.7,169.1 221.2,173.3 218.7,177.6 213.8,177.6 		"/>
		<polygon class="st0" points="211.4,185.2 213.8,181 218.7,181 221.2,185.2 218.7,189.5 213.8,189.5 		"/>
		<polygon class="st0" points="211.4,197.2 213.8,192.9 218.7,192.9 221.2,197.2 218.7,201.4 213.8,201.4 		"/>
		<polygon class="st0" points="211.4,209.1 213.8,204.8 218.7,204.8 221.2,209.1 218.7,213.3 213.8,213.3 		"/>
		<polygon class="st0" points="211.4,221 213.8,216.7 218.7,216.7 221.2,221 218.7,225.2 213.8,225.2 		"/>
		<polygon class="st0" points="211.4,232.9 213.8,228.6 218.7,228.6 221.2,232.9 218.7,237.1 213.8,237.1 		"/>
		<polygon class="st0" points="211.4,244.8 213.8,240.5 218.7,240.5 221.2,244.8 218.7,249 213.8,249 		"/>
		<polygon class="st0" points="211.4,256.7 213.8,252.4 218.7,252.4 221.2,256.7 218.7,260.9 213.8,260.9 		"/>
		<polygon class="st0" points="211.4,268.6 213.8,264.3 218.7,264.3 221.2,268.6 218.7,272.8 213.8,272.8 		"/>
		<polygon class="st0" points="211.4,280.5 213.8,276.2 218.7,276.2 221.2,280.5 218.7,284.7 213.8,284.7 		"/>
		<polygon class="st0" points="211.4,292.4 213.8,288.1 218.7,288.1 221.2,292.4 218.7,296.6 213.8,296.6 		"/>
		<polygon class="st0" points="211.4,304.3 213.8,300 218.7,300 221.2,304.3 218.7,308.5 213.8,308.5 		"/>
		<polygon class="st0" points="211.4,316.2 213.8,311.9 218.7,311.9 221.2,316.2 218.7,320.4 213.8,320.4 		"/>
		<polygon class="st0" points="211.4,328.1 213.8,323.8 218.7,323.8 221.2,328.1 218.7,332.3 213.8,332.3 		"/>
		<polygon class="st0" points="211.4,340 213.8,335.7 218.7,335.7 221.2,340 218.7,344.2 213.8,344.2 		"/>
		<polygon class="st0" points="211.4,125.7 213.8,121.5 218.7,121.5 221.2,125.7 218.7,130 213.8,130 		"/>
		<polygon class="st0" points="221.7,131.7 224.1,127.4 229.1,127.4 231.5,131.7 229.1,135.9 224.1,135.9 		"/>
		<polygon class="st0" points="221.7,143.6 224.1,139.3 229.1,139.3 231.5,143.6 229.1,147.8 224.1,147.8 		"/>
		<polygon class="st0" points="221.7,155.5 224.1,151.2 229.1,151.2 231.5,155.5 229.1,159.7 224.1,159.7 		"/>
		<polygon class="st0" points="221.7,179.3 224.1,175 229.1,175 231.5,179.3 229.1,183.6 224.1,183.6 		"/>
		<polygon class="st0" points="221.7,191.2 224.1,186.9 229.1,186.9 231.5,191.2 229.1,195.5 224.1,195.5 		"/>
		<polygon class="st0" points="221.7,203.1 224.1,198.9 229.1,198.9 231.5,203.1 229.1,207.4 224.1,207.4 		"/>
		<polygon class="st0" points="221.7,215 224.1,210.8 229.1,210.8 231.5,215 229.1,219.3 224.1,219.3 		"/>
		<polygon class="st0" points="221.7,226.9 224.1,222.7 229.1,222.7 231.5,226.9 229.1,231.2 224.1,231.2 		"/>
		<polygon class="st0" points="221.7,238.8 224.1,234.6 229.1,234.6 231.5,238.8 229.1,243.1 224.1,243.1 		"/>
		<polygon class="st0" points="221.7,250.7 224.1,246.5 229.1,246.5 231.5,250.7 229.1,255 224.1,255 		"/>
		<polygon class="st0" points="221.7,262.6 224.1,258.4 229.1,258.4 231.5,262.6 229.1,266.9 224.1,266.9 		"/>
		<polygon class="st0" points="221.7,274.5 224.1,270.3 229.1,270.3 231.5,274.5 229.1,278.8 224.1,278.8 		"/>
		<polygon class="st0" points="221.7,286.4 224.1,282.2 229.1,282.2 231.5,286.4 229.1,290.7 224.1,290.7 		"/>
		<polygon class="st0" points="221.7,298.3 224.1,294.1 229.1,294.1 231.5,298.3 229.1,302.6 224.1,302.6 		"/>
		<polygon class="st0" points="221.7,310.2 224.1,306 229.1,306 231.5,310.2 229.1,314.5 224.1,314.5 		"/>
		<polygon class="st0" points="221.7,322.1 224.1,317.9 229.1,317.9 231.5,322.1 229.1,326.4 224.1,326.4 		"/>
		<polygon class="st0" points="221.7,334 224.1,329.8 229.1,329.8 231.5,334 229.1,338.3 224.1,338.3 		"/>
		<polygon class="st0" points="221.7,96 224.1,91.7 229.1,91.7 231.5,96 229.1,100.2 224.1,100.2 		"/>
		<polygon class="st0" points="221.7,107.9 224.1,103.6 229.1,103.6 231.5,107.9 229.1,112.1 224.1,112.1 		"/>
		<polygon class="st0" points="252.6,137.6 255.1,133.4 260,133.4 262.4,137.6 260,141.9 255.1,141.9 		"/>
		<polygon class="st0" points="252.6,149.5 255.1,145.3 260,145.3 262.4,149.5 260,153.8 255.1,153.8 		"/>
		<polygon class="st0" points="252.6,161.4 255.1,157.2 260,157.2 262.4,161.4 260,165.7 255.1,165.7 		"/>
		<polygon class="st0" points="252.6,185.2 255.1,181 260,181 262.4,185.2 260,189.5 255.1,189.5 		"/>
		<polygon class="st0" points="252.6,197.2 255.1,192.9 260,192.9 262.4,197.2 260,201.4 255.1,201.4 		"/>
		<polygon class="st0" points="252.6,209.1 255.1,204.8 260,204.8 262.4,209.1 260,213.3 255.1,213.3 		"/>
		<polygon class="st0" points="252.6,221 255.1,216.7 260,216.7 262.4,221 260,225.2 255.1,225.2 		"/>
		<polygon class="st0" points="252.6,232.9 255.1,228.6 260,228.6 262.4,232.9 260,237.1 255.1,237.1 		"/>
		<polygon class="st0" points="252.6,244.8 255.1,240.5 260,240.5 262.4,244.8 260,249 255.1,249 		"/>
		<polygon class="st0" points="252.6,256.7 255.1,252.4 260,252.4 262.4,256.7 260,260.9 255.1,260.9 		"/>
		<polygon class="st0" points="252.6,268.6 255.1,264.3 260,264.3 262.4,268.6 260,272.8 255.1,272.8 		"/>
		<polygon class="st0" points="252.6,280.5 255.1,276.2 260,276.2 262.4,280.5 260,284.7 255.1,284.7 		"/>
		<polygon class="st0" points="252.6,292.4 255.1,288.1 260,288.1 262.4,292.4 260,296.6 255.1,296.6 		"/>
		<polygon class="st0" points="252.6,304.3 255.1,300 260,300 262.4,304.3 260,308.5 255.1,308.5 		"/>
		<polygon class="st0" points="252.6,316.2 255.1,311.9 260,311.9 262.4,316.2 260,320.4 255.1,320.4 		"/>
		<polygon class="st0" points="252.6,328.1 255.1,323.8 260,323.8 262.4,328.1 260,332.3 255.1,332.3 		"/>
		<polygon class="st0" points="252.6,340 255.1,335.7 260,335.7 262.4,340 260,344.2 255.1,344.2 		"/>
		<polygon class="st0" points="262.9,167.4 265.4,163.1 270.3,163.1 272.8,167.4 270.3,171.6 265.4,171.6 		"/>
		<polygon class="st0" points="262.9,191.2 265.4,186.9 270.3,186.9 272.8,191.2 270.3,195.5 265.4,195.5 		"/>
		<polygon class="st0" points="262.9,203.1 265.4,198.9 270.3,198.9 272.8,203.1 270.3,207.4 265.4,207.4 		"/>
		<polygon class="st0" points="262.9,215 265.4,210.8 270.3,210.8 272.8,215 270.3,219.3 265.4,219.3 		"/>
		<polygon class="st0" points="262.9,226.9 265.4,222.7 270.3,222.7 272.8,226.9 270.3,231.2 265.4,231.2 		"/>
		<polygon class="st0" points="262.9,238.8 265.4,234.6 270.3,234.6 272.8,238.8 270.3,243.1 265.4,243.1 		"/>
		<polygon class="st0" points="262.9,250.7 265.4,246.5 270.3,246.5 272.8,250.7 270.3,255 265.4,255 		"/>
		<polygon class="st0" points="262.9,262.6 265.4,258.4 270.3,258.4 272.8,262.6 270.3,266.9 265.4,266.9 		"/>
		<polygon class="st0" points="262.9,274.5 265.4,270.3 270.3,270.3 272.8,274.5 270.3,278.8 265.4,278.8 		"/>
		<polygon class="st0" points="262.9,286.4 265.4,282.2 270.3,282.2 272.8,286.4 270.3,290.7 265.4,290.7 		"/>
		<polygon class="st0" points="262.9,298.3 265.4,294.1 270.3,294.1 272.8,298.3 270.3,302.6 265.4,302.6 		"/>
		<polygon class="st0" points="262.9,310.2 265.4,306 270.3,306 272.8,310.2 270.3,314.5 265.4,314.5 		"/>
		<polygon class="st0" points="262.9,322.1 265.4,317.9 270.3,317.9 272.8,322.1 270.3,326.4 265.4,326.4 		"/>
		<polygon class="st0" points="262.9,334 265.4,329.8 270.3,329.8 272.8,334 270.3,338.3 265.4,338.3 		"/>
		<polygon class="st0" points="262.9,84.1 265.4,79.8 270.3,79.8 272.8,84.1 270.3,88.3 265.4,88.3 		"/>
		<polygon class="st0" points="262.9,107.9 265.4,103.6 270.3,103.6 272.8,107.9 270.3,112.1 265.4,112.1 		"/>
		<polygon class="st0" points="293.9,173.3 296.3,169.1 301.2,169.1 303.7,173.3 301.2,177.6 296.3,177.6 		"/>
		<polygon class="st0" points="293.9,185.2 296.3,181 301.2,181 303.7,185.2 301.2,189.5 296.3,189.5 		"/>
		<polygon class="st0" points="293.9,197.2 296.3,192.9 301.2,192.9 303.7,197.2 301.2,201.4 296.3,201.4 		"/>
		<polygon class="st0" points="293.9,209.1 296.3,204.8 301.2,204.8 303.7,209.1 301.2,213.3 296.3,213.3 		"/>
		<polygon class="st0" points="293.9,221 296.3,216.7 301.2,216.7 303.7,221 301.2,225.2 296.3,225.2 		"/>
		<polygon class="st0" points="293.9,232.9 296.3,228.6 301.2,228.6 303.7,232.9 301.2,237.1 296.3,237.1 		"/>
		<polygon class="st0" points="293.9,244.8 296.3,240.5 301.2,240.5 303.7,244.8 301.2,249 296.3,249 		"/>
		<polygon class="st0" points="293.9,256.7 296.3,252.4 301.2,252.4 303.7,256.7 301.2,260.9 296.3,260.9 		"/>
		<polygon class="st0" points="293.9,268.6 296.3,264.3 301.2,264.3 303.7,268.6 301.2,272.8 296.3,272.8 		"/>
		<polygon class="st0" points="293.9,280.5 296.3,276.2 301.2,276.2 303.7,280.5 301.2,284.7 296.3,284.7 		"/>
		<polygon class="st0" points="293.9,292.4 296.3,288.1 301.2,288.1 303.7,292.4 301.2,296.6 296.3,296.6 		"/>
		<polygon class="st0" points="293.9,304.3 296.3,300 301.2,300 303.7,304.3 301.2,308.5 296.3,308.5 		"/>
		<polygon class="st0" points="293.9,316.2 296.3,311.9 301.2,311.9 303.7,316.2 301.2,320.4 296.3,320.4 		"/>
		<polygon class="st0" points="293.9,328.1 296.3,323.8 301.2,323.8 303.7,328.1 301.2,332.3 296.3,332.3 		"/>
		<polygon class="st0" points="293.9,340 296.3,335.7 301.2,335.7 303.7,340 301.2,344.2 296.3,344.2 		"/>
		<polygon class="st0" points="293.9,90 296.3,85.8 301.2,85.8 303.7,90 301.2,94.3 296.3,94.3 		"/>
		<polygon class="st0" points="293.9,113.8 296.3,109.6 301.2,109.6 303.7,113.8 301.2,118.1 296.3,118.1 		"/>
		<polygon class="st0" points="293.9,54.3 296.3,50.1 301.2,50.1 303.7,54.3 301.2,58.6 296.3,58.6 		"/>
		<polygon class="st0" points="293.9,66.2 296.3,62 301.2,62 303.7,66.2 301.2,70.5 296.3,70.5 		"/>
		<polygon class="st0" points="293.9,78.1 296.3,73.9 301.2,73.9 303.7,78.1 301.2,82.4 296.3,82.4 		"/>
		<polygon class="st0" points="293.9,42.4 296.3,38.2 301.2,38.2 303.7,42.4 301.2,46.7 296.3,46.7 		"/>
		<polygon class="st0" points="304.2,131.7 306.6,127.4 311.6,127.4 314,131.7 311.6,135.9 306.6,135.9 		"/>
		<polygon class="st0" points="304.2,143.6 306.6,139.3 311.6,139.3 314,143.6 311.6,147.8 306.6,147.8 		"/>
		<polygon class="st0" points="304.2,155.5 306.6,151.2 311.6,151.2 314,155.5 311.6,159.7 306.6,159.7 		"/>
		<polygon class="st0" points="304.2,179.3 306.6,175 311.6,175 314,179.3 311.6,183.6 306.6,183.6 		"/>
		<polygon class="st0" points="304.2,191.2 306.6,186.9 311.6,186.9 314,191.2 311.6,195.5 306.6,195.5 		"/>
		<polygon class="st0" points="304.2,203.1 306.6,198.9 311.6,198.9 314,203.1 311.6,207.4 306.6,207.4 		"/>
		<polygon class="st0" points="304.2,215 306.6,210.8 311.6,210.8 314,215 311.6,219.3 306.6,219.3 		"/>
		<polygon class="st0" points="304.2,226.9 306.6,222.7 311.6,222.7 314,226.9 311.6,231.2 306.6,231.2 		"/>
		<polygon class="st0" points="304.2,262.6 306.6,258.4 311.6,258.4 314,262.6 311.6,266.9 306.6,266.9 		"/>
		<polygon class="st0" points="304.2,274.5 306.6,270.3 311.6,270.3 314,274.5 311.6,278.8 306.6,278.8 		"/>
		<polygon class="st0" points="304.2,286.4 306.6,282.2 311.6,282.2 314,286.4 311.6,290.7 306.6,290.7 		"/>
		<polygon class="st0" points="304.2,298.3 306.6,294.1 311.6,294.1 314,298.3 311.6,302.6 306.6,302.6 		"/>
		<polygon class="st0" points="304.2,310.2 306.6,306 311.6,306 314,310.2 311.6,314.5 306.6,314.5 		"/>
		<polygon class="st0" points="304.2,322.1 306.6,317.9 311.6,317.9 314,322.1 311.6,326.4 306.6,326.4 		"/>
		<polygon class="st0" points="304.2,334 306.6,329.8 311.6,329.8 314,334 311.6,338.3 306.6,338.3 		"/>
		<polygon class="st0" points="304.2,84.1 306.6,79.8 311.6,79.8 314,84.1 311.6,88.3 306.6,88.3 		"/>
		<polygon class="st0" points="304.2,107.9 306.6,103.6 311.6,103.6 314,107.9 311.6,112.1 306.6,112.1 		"/>
		<polygon class="st0" points="304.2,48.4 306.6,44.1 311.6,44.1 314,48.4 311.6,52.6 306.6,52.6 		"/>
		<polygon class="st0" points="304.2,60.3 306.6,56 311.6,56 314,60.3 311.6,64.5 306.6,64.5 		"/>
		<polygon class="st0" points="304.2,72.2 306.6,67.9 311.6,67.9 314,72.2 311.6,76.4 306.6,76.4 		"/>
		<polygon class="st0" points="304.2,36.5 306.6,32.2 311.6,32.2 314,36.5 311.6,40.7 306.6,40.7 		"/>
		<polygon class="st0" points="335.1,137.6 337.6,133.4 342.5,133.4 344.9,137.6 342.5,141.9 337.6,141.9 		"/>
		<polygon class="st0" points="335.1,149.5 337.6,145.3 342.5,145.3 344.9,149.5 342.5,153.8 337.6,153.8 		"/>
		<polygon class="st0" points="335.1,197.2 337.6,192.9 342.5,192.9 344.9,197.2 342.5,201.4 337.6,201.4 		"/>
		<polygon class="st0" points="335.1,209.1 337.6,204.8 342.5,204.8 344.9,209.1 342.5,213.3 337.6,213.3 		"/>
		<polygon class="st0" points="335.1,280.5 337.6,276.2 342.5,276.2 344.9,280.5 342.5,284.7 337.6,284.7 		"/>
		<polygon class="st0" points="335.1,292.4 337.6,288.1 342.5,288.1 344.9,292.4 342.5,296.6 337.6,296.6 		"/>
		<polygon class="st0" points="335.1,304.3 337.6,300 342.5,300 344.9,304.3 342.5,308.5 337.6,308.5 		"/>
		<polygon class="st0" points="335.1,316.2 337.6,311.9 342.5,311.9 344.9,316.2 342.5,320.4 337.6,320.4 		"/>
		<polygon class="st0" points="335.1,328.1 337.6,323.8 342.5,323.8 344.9,328.1 342.5,332.3 337.6,332.3 		"/>
		<polygon class="st0" points="335.1,340 337.6,335.7 342.5,335.7 344.9,340 342.5,344.2 337.6,344.2 		"/>
		<polygon class="st0" points="345.4,131.7 347.9,127.4 352.8,127.4 355.3,131.7 352.8,135.9 347.9,135.9 		"/>
		<polygon class="st0" points="345.4,143.6 347.9,139.3 352.8,139.3 355.3,143.6 352.8,147.8 347.9,147.8 		"/>
		<polygon class="st0" points="345.4,155.5 347.9,151.2 352.8,151.2 355.3,155.5 352.8,159.7 347.9,159.7 		"/>
		<polygon class="st0" points="345.4,167.4 347.9,163.1 352.8,163.1 355.3,167.4 352.8,171.6 347.9,171.6 		"/>
		<polygon class="st0" points="345.4,226.9 347.9,222.7 352.8,222.7 355.3,226.9 352.8,231.2 347.9,231.2 		"/>
		<polygon class="st0" points="345.4,286.4 347.9,282.2 352.8,282.2 355.3,286.4 352.8,290.7 347.9,290.7 		"/>
		<polygon class="st0" points="345.4,298.3 347.9,294.1 352.8,294.1 355.3,298.3 352.8,302.6 347.9,302.6 		"/>
		<polygon class="st0" points="345.4,310.2 347.9,306 352.8,306 355.3,310.2 352.8,314.5 347.9,314.5 		"/>
		<polygon class="st0" points="345.4,322.1 347.9,317.9 352.8,317.9 355.3,322.1 352.8,326.4 347.9,326.4 		"/>
		<polygon class="st0" points="345.4,334 347.9,329.8 352.8,329.8 355.3,334 352.8,338.3 347.9,338.3 		"/>
		<polygon class="st0" points="376.4,149.5 378.8,145.3 383.7,145.3 386.2,149.5 383.7,153.8 378.8,153.8 		"/>
		<polygon class="st0" points="376.4,161.4 378.8,157.2 383.7,157.2 386.2,161.4 383.7,165.7 378.8,165.7 		"/>
		<polygon class="st0" points="376.4,173.3 378.8,169.1 383.7,169.1 386.2,173.3 383.7,177.6 378.8,177.6 		"/>
		<polygon class="st0" points="376.4,185.2 378.8,181 383.7,181 386.2,185.2 383.7,189.5 378.8,189.5 		"/>
		<polygon class="st0" points="376.4,197.2 378.8,192.9 383.7,192.9 386.2,197.2 383.7,201.4 378.8,201.4 		"/>
		<polygon class="st0" points="376.4,221 378.8,216.7 383.7,216.7 386.2,221 383.7,225.2 378.8,225.2 		"/>
		<polygon class="st0" points="376.4,232.9 378.8,228.6 383.7,228.6 386.2,232.9 383.7,237.1 378.8,237.1 		"/>
		<polygon class="st0" points="376.4,244.8 378.8,240.5 383.7,240.5 386.2,244.8 383.7,249 378.8,249 		"/>
		<polygon class="st0" points="376.4,268.6 378.8,264.3 383.7,264.3 386.2,268.6 383.7,272.8 378.8,272.8 		"/>
		<polygon class="st0" points="376.4,280.5 378.8,276.2 383.7,276.2 386.2,280.5 383.7,284.7 378.8,284.7 		"/>
		<polygon class="st0" points="376.4,304.3 378.8,300 383.7,300 386.2,304.3 383.7,308.5 378.8,308.5 		"/>
		<polygon class="st0" points="376.4,316.2 378.8,311.9 383.7,311.9 386.2,316.2 383.7,320.4 378.8,320.4 		"/>
		<polygon class="st0" points="376.4,328.1 378.8,323.8 383.7,323.8 386.2,328.1 383.7,332.3 378.8,332.3 		"/>
		<polygon class="st0" points="376.4,340 378.8,335.7 383.7,335.7 386.2,340 383.7,344.2 378.8,344.2 		"/>
		<polygon class="st0" points="376.4,351.9 378.8,347.6 383.7,347.6 386.2,351.9 383.7,356.1 378.8,356.1 		"/>
		<polygon class="st0" points="386.7,155.5 389.1,151.2 394.1,151.2 396.5,155.5 394.1,159.7 389.1,159.7 		"/>
		<polygon class="st0" points="386.7,167.4 389.1,163.1 394.1,163.1 396.5,167.4 394.1,171.6 389.1,171.6 		"/>
		<polygon class="st0" points="386.7,179.3 389.1,175 394.1,175 396.5,179.3 394.1,183.6 389.1,183.6 		"/>
		<polygon class="st0" points="386.7,191.2 389.1,186.9 394.1,186.9 396.5,191.2 394.1,195.5 389.1,195.5 		"/>
		<polygon class="st0" points="386.7,215 389.1,210.8 394.1,210.8 396.5,215 394.1,219.3 389.1,219.3 		"/>
		<polygon class="st0" points="386.7,226.9 389.1,222.7 394.1,222.7 396.5,226.9 394.1,231.2 389.1,231.2 		"/>
		<polygon class="st0" points="386.7,238.8 389.1,234.6 394.1,234.6 396.5,238.8 394.1,243.1 389.1,243.1 		"/>
		<polygon class="st0" points="386.7,250.7 389.1,246.5 394.1,246.5 396.5,250.7 394.1,255 389.1,255 		"/>
		<polygon class="st0" points="386.7,262.6 389.1,258.4 394.1,258.4 396.5,262.6 394.1,266.9 389.1,266.9 		"/>
		<polygon class="st0" points="386.7,274.5 389.1,270.3 394.1,270.3 396.5,274.5 394.1,278.8 389.1,278.8 		"/>
		<polygon class="st0" points="386.7,286.4 389.1,282.2 394.1,282.2 396.5,286.4 394.1,290.7 389.1,290.7 		"/>
		<polygon class="st0" points="386.7,298.3 389.1,294.1 394.1,294.1 396.5,298.3 394.1,302.6 389.1,302.6 		"/>
		<polygon class="st0" points="386.7,310.2 389.1,306 394.1,306 396.5,310.2 394.1,314.5 389.1,314.5 		"/>
		<polygon class="st0" points="386.7,322.1 389.1,317.9 394.1,317.9 396.5,322.1 394.1,326.4 389.1,326.4 		"/>
		<polygon class="st0" points="386.7,334 389.1,329.8 394.1,329.8 396.5,334 394.1,338.3 389.1,338.3 		"/>
		<polygon class="st0" points="386.7,345.9 389.1,341.7 394.1,341.7 396.5,345.9 394.1,350.2 389.1,350.2 		"/>
		<polygon class="st0" points="386.7,357.8 389.1,353.6 394.1,353.6 396.5,357.8 394.1,362.1 389.1,362.1 		"/>
		<polygon class="st0" points="386.7,369.7 389.1,365.5 394.1,365.5 396.5,369.7 394.1,374 389.1,374 		"/>
		<polygon class="st0" points="386.7,381.6 389.1,377.4 394.1,377.4 396.5,381.6 394.1,385.9 389.1,385.9 		"/>
		<polygon class="st0" points="232,137.6 234.5,133.4 239.4,133.4 241.8,137.6 239.4,141.9 234.5,141.9 		"/>
		<polygon class="st0" points="232,149.5 234.5,145.3 239.4,145.3 241.8,149.5 239.4,153.8 234.5,153.8 		"/>
		<polygon class="st0" points="232,161.4 234.5,157.2 239.4,157.2 241.8,161.4 239.4,165.7 234.5,165.7 		"/>
		<polygon class="st0" points="232,185.2 234.5,181 239.4,181 241.8,185.2 239.4,189.5 234.5,189.5 		"/>
		<polygon class="st0" points="232,197.2 234.5,192.9 239.4,192.9 241.8,197.2 239.4,201.4 234.5,201.4 		"/>
		<polygon class="st0" points="232,209.1 234.5,204.8 239.4,204.8 241.8,209.1 239.4,213.3 234.5,213.3 		"/>
		<polygon class="st0" points="232,221 234.5,216.7 239.4,216.7 241.8,221 239.4,225.2 234.5,225.2 		"/>
		<polygon class="st0" points="232,232.9 234.5,228.6 239.4,228.6 241.8,232.9 239.4,237.1 234.5,237.1 		"/>
		<polygon class="st0" points="232,244.8 234.5,240.5 239.4,240.5 241.8,244.8 239.4,249 234.5,249 		"/>
		<polygon class="st0" points="232,256.7 234.5,252.4 239.4,252.4 241.8,256.7 239.4,260.9 234.5,260.9 		"/>
		<polygon class="st0" points="232,268.6 234.5,264.3 239.4,264.3 241.8,268.6 239.4,272.8 234.5,272.8 		"/>
		<polygon class="st0" points="232,280.5 234.5,276.2 239.4,276.2 241.8,280.5 239.4,284.7 234.5,284.7 		"/>
		<polygon class="st0" points="232,292.4 234.5,288.1 239.4,288.1 241.8,292.4 239.4,296.6 234.5,296.6 		"/>
		<polygon class="st0" points="232,304.3 234.5,300 239.4,300 241.8,304.3 239.4,308.5 234.5,308.5 		"/>
		<polygon class="st0" points="232,316.2 234.5,311.9 239.4,311.9 241.8,316.2 239.4,320.4 234.5,320.4 		"/>
		<polygon class="st0" points="232,328.1 234.5,323.8 239.4,323.8 241.8,328.1 239.4,332.3 234.5,332.3 		"/>
		<polygon class="st0" points="232,340 234.5,335.7 239.4,335.7 241.8,340 239.4,344.2 234.5,344.2 		"/>
		<polygon class="st0" points="232,90 234.5,85.8 239.4,85.8 241.8,90 239.4,94.3 234.5,94.3 		"/>
		<polygon class="st0" points="232,101.9 234.5,97.7 239.4,97.7 241.8,101.9 239.4,106.2 234.5,106.2 		"/>
		<polygon class="st0" points="232,113.8 234.5,109.6 239.4,109.6 241.8,113.8 239.4,118.1 234.5,118.1 		"/>
		<polygon class="st0" points="242.3,143.6 244.8,139.3 249.7,139.3 252.1,143.6 249.7,147.8 244.8,147.8 		"/>
		<polygon class="st0" points="242.3,155.5 244.8,151.2 249.7,151.2 252.1,155.5 249.7,159.7 244.8,159.7 		"/>
		<polygon class="st0" points="242.3,167.4 244.8,163.1 249.7,163.1 252.1,167.4 249.7,171.6 244.8,171.6 		"/>
		<polygon class="st0" points="242.3,191.2 244.8,186.9 249.7,186.9 252.1,191.2 249.7,195.5 244.8,195.5 		"/>
		<polygon class="st0" points="242.3,203.1 244.8,198.9 249.7,198.9 252.1,203.1 249.7,207.4 244.8,207.4 		"/>
		<polygon class="st0" points="242.3,215 244.8,210.8 249.7,210.8 252.1,215 249.7,219.3 244.8,219.3 		"/>
		<polygon class="st0" points="242.3,226.9 244.8,222.7 249.7,222.7 252.1,226.9 249.7,231.2 244.8,231.2 		"/>
		<polygon class="st0" points="242.3,238.8 244.8,234.6 249.7,234.6 252.1,238.8 249.7,243.1 244.8,243.1 		"/>
		<polygon class="st0" points="242.3,250.7 244.8,246.5 249.7,246.5 252.1,250.7 249.7,255 244.8,255 		"/>
		<polygon class="st0" points="242.3,262.6 244.8,258.4 249.7,258.4 252.1,262.6 249.7,266.9 244.8,266.9 		"/>
		<polygon class="st0" points="242.3,274.5 244.8,270.3 249.7,270.3 252.1,274.5 249.7,278.8 244.8,278.8 		"/>
		<polygon class="st0" points="242.3,286.4 244.8,282.2 249.7,282.2 252.1,286.4 249.7,290.7 244.8,290.7 		"/>
		<polygon class="st0" points="242.3,298.3 244.8,294.1 249.7,294.1 252.1,298.3 249.7,302.6 244.8,302.6 		"/>
		<polygon class="st0" points="242.3,310.2 244.8,306 249.7,306 252.1,310.2 249.7,314.5 244.8,314.5 		"/>
		<polygon class="st0" points="242.3,322.1 244.8,317.9 249.7,317.9 252.1,322.1 249.7,326.4 244.8,326.4 		"/>
		<polygon class="st0" points="242.3,334 244.8,329.8 249.7,329.8 252.1,334 249.7,338.3 244.8,338.3 		"/>
		<polygon class="st0" points="242.3,84.1 244.8,79.8 249.7,79.8 252.1,84.1 249.7,88.3 244.8,88.3 		"/>
		<polygon class="st0" points="242.3,96 244.8,91.7 249.7,91.7 252.1,96 249.7,100.2 244.8,100.2 		"/>
		<polygon class="st0" points="242.3,119.8 244.8,115.5 249.7,115.5 252.1,119.8 249.7,124 244.8,124 		"/>
		<polygon class="st0" points="273.3,137.6 275.7,133.4 280.6,133.4 283.1,137.6 280.6,141.9 275.7,141.9 		"/>
		<polygon class="st0" points="273.3,149.5 275.7,145.3 280.6,145.3 283.1,149.5 280.6,153.8 275.7,153.8 		"/>
		<polygon class="st0" points="273.3,185.2 275.7,181 280.6,181 283.1,185.2 280.6,189.5 275.7,189.5 		"/>
		<polygon class="st0" points="273.3,197.2 275.7,192.9 280.6,192.9 283.1,197.2 280.6,201.4 275.7,201.4 		"/>
		<polygon class="st0" points="273.3,209.1 275.7,204.8 280.6,204.8 283.1,209.1 280.6,213.3 275.7,213.3 		"/>
		<polygon class="st0" points="273.3,221 275.7,216.7 280.6,216.7 283.1,221 280.6,225.2 275.7,225.2 		"/>
		<polygon class="st0" points="273.3,232.9 275.7,228.6 280.6,228.6 283.1,232.9 280.6,237.1 275.7,237.1 		"/>
		<polygon class="st0" points="273.3,244.8 275.7,240.5 280.6,240.5 283.1,244.8 280.6,249 275.7,249 		"/>
		<polygon class="st0" points="273.3,256.7 275.7,252.4 280.6,252.4 283.1,256.7 280.6,260.9 275.7,260.9 		"/>
		<polygon class="st0" points="273.3,268.6 275.7,264.3 280.6,264.3 283.1,268.6 280.6,272.8 275.7,272.8 		"/>
		<polygon class="st0" points="273.3,280.5 275.7,276.2 280.6,276.2 283.1,280.5 280.6,284.7 275.7,284.7 		"/>
		<polygon class="st0" points="273.3,292.4 275.7,288.1 280.6,288.1 283.1,292.4 280.6,296.6 275.7,296.6 		"/>
		<polygon class="st0" points="273.3,304.3 275.7,300 280.6,300 283.1,304.3 280.6,308.5 275.7,308.5 		"/>
		<polygon class="st0" points="273.3,316.2 275.7,311.9 280.6,311.9 283.1,316.2 280.6,320.4 275.7,320.4 		"/>
		<polygon class="st0" points="273.3,328.1 275.7,323.8 280.6,323.8 283.1,328.1 280.6,332.3 275.7,332.3 		"/>
		<polygon class="st0" points="273.3,340 275.7,335.7 280.6,335.7 283.1,340 280.6,344.2 275.7,344.2 		"/>
		<polygon class="st0" points="273.3,90 275.7,85.8 280.6,85.8 283.1,90 280.6,94.3 275.7,94.3 		"/>
		<polygon class="st0" points="273.3,113.8 275.7,109.6 280.6,109.6 283.1,113.8 280.6,118.1 275.7,118.1 		"/>
		<polygon class="st0" points="273.3,66.2 275.7,62 280.6,62 283.1,66.2 280.6,70.5 275.7,70.5 		"/>
		<polygon class="st0" points="283.6,131.7 286,127.4 290.9,127.4 293.4,131.7 290.9,135.9 286,135.9 		"/>
		<polygon class="st0" points="283.6,143.6 286,139.3 290.9,139.3 293.4,143.6 290.9,147.8 286,147.8 		"/>
		<polygon class="st0" points="283.6,155.5 286,151.2 290.9,151.2 293.4,155.5 290.9,159.7 286,159.7 		"/>
		<polygon class="st0" points="283.6,167.4 286,163.1 290.9,163.1 293.4,167.4 290.9,171.6 286,171.6 		"/>
		<polygon class="st0" points="283.6,179.3 286,175 290.9,175 293.4,179.3 290.9,183.6 286,183.6 		"/>
		<polygon class="st0" points="283.6,191.2 286,186.9 290.9,186.9 293.4,191.2 290.9,195.5 286,195.5 		"/>
		<polygon class="st0" points="283.6,203.1 286,198.9 290.9,198.9 293.4,203.1 290.9,207.4 286,207.4 		"/>
		<polygon class="st0" points="283.6,215 286,210.8 290.9,210.8 293.4,215 290.9,219.3 286,219.3 		"/>
		<polygon class="st0" points="283.6,226.9 286,222.7 290.9,222.7 293.4,226.9 290.9,231.2 286,231.2 		"/>
		<polygon class="st0" points="283.6,238.8 286,234.6 290.9,234.6 293.4,238.8 290.9,243.1 286,243.1 		"/>
		<polygon class="st0" points="283.6,250.7 286,246.5 290.9,246.5 293.4,250.7 290.9,255 286,255 		"/>
		<polygon class="st0" points="283.6,262.6 286,258.4 290.9,258.4 293.4,262.6 290.9,266.9 286,266.9 		"/>
		<polygon class="st0" points="283.6,274.5 286,270.3 290.9,270.3 293.4,274.5 290.9,278.8 286,278.8 		"/>
		<polygon class="st0" points="283.6,286.4 286,282.2 290.9,282.2 293.4,286.4 290.9,290.7 286,290.7 		"/>
		<polygon class="st0" points="283.6,298.3 286,294.1 290.9,294.1 293.4,298.3 290.9,302.6 286,302.6 		"/>
		<polygon class="st0" points="283.6,310.2 286,306 290.9,306 293.4,310.2 290.9,314.5 286,314.5 		"/>
		<polygon class="st0" points="283.6,322.1 286,317.9 290.9,317.9 293.4,322.1 290.9,326.4 286,326.4 		"/>
		<polygon class="st0" points="283.6,334 286,329.8 290.9,329.8 293.4,334 290.9,338.3 286,338.3 		"/>
		<polygon class="st0" points="283.6,48.4 286,44.1 290.9,44.1 293.4,48.4 290.9,52.6 286,52.6 		"/>
		<polygon class="st0" points="283.6,60.3 286,56 290.9,56 293.4,60.3 290.9,64.5 286,64.5 		"/>
		<polygon class="st0" points="283.6,72.2 286,67.9 290.9,67.9 293.4,72.2 290.9,76.4 286,76.4 		"/>
		<polygon class="st0" points="314.5,137.6 317,133.4 321.9,133.4 324.3,137.6 321.9,141.9 317,141.9 		"/>
		<polygon class="st0" points="314.5,149.5 317,145.3 321.9,145.3 324.3,149.5 321.9,153.8 317,153.8 		"/>
		<polygon class="st0" points="314.5,173.3 317,169.1 321.9,169.1 324.3,173.3 321.9,177.6 317,177.6 		"/>
		<polygon class="st0" points="314.5,185.2 317,181 321.9,181 324.3,185.2 321.9,189.5 317,189.5 		"/>
		<polygon class="st0" points="314.5,268.6 317,264.3 321.9,264.3 324.3,268.6 321.9,272.8 317,272.8 		"/>
		<polygon class="st0" points="314.5,280.5 317,276.2 321.9,276.2 324.3,280.5 321.9,284.7 317,284.7 		"/>
		<polygon class="st0" points="314.5,292.4 317,288.1 321.9,288.1 324.3,292.4 321.9,296.6 317,296.6 		"/>
		<polygon class="st0" points="314.5,304.3 317,300 321.9,300 324.3,304.3 321.9,308.5 317,308.5 		"/>
		<polygon class="st0" points="314.5,316.2 317,311.9 321.9,311.9 324.3,316.2 321.9,320.4 317,320.4 		"/>
		<polygon class="st0" points="314.5,328.1 317,323.8 321.9,323.8 324.3,328.1 321.9,332.3 317,332.3 		"/>
		<polygon class="st0" points="314.5,340 317,335.7 321.9,335.7 324.3,340 321.9,344.2 317,344.2 		"/>
		<polygon class="st0" points="314.5,101.9 317,97.7 321.9,97.7 324.3,101.9 321.9,106.2 317,106.2 		"/>
		<polygon class="st0" points="314.5,113.8 317,109.6 321.9,109.6 324.3,113.8 321.9,118.1 317,118.1 		"/>
		<polygon class="st0" points="314.5,54.3 317,50.1 321.9,50.1 324.3,54.3 321.9,58.6 317,58.6 		"/>
		<polygon class="st0" points="314.5,66.2 317,62 321.9,62 324.3,66.2 321.9,70.5 317,70.5 		"/>
		<polygon class="st0" points="314.5,78.1 317,73.9 321.9,73.9 324.3,78.1 321.9,82.4 317,82.4 		"/>
		<polygon class="st0" points="314.5,42.4 317,38.2 321.9,38.2 324.3,42.4 321.9,46.7 317,46.7 		"/>
		<polygon class="st0" points="324.8,131.7 327.3,127.4 332.2,127.4 334.6,131.7 332.2,135.9 327.3,135.9 		"/>
		<polygon class="st0" points="324.8,143.6 327.3,139.3 332.2,139.3 334.6,143.6 332.2,147.8 327.3,147.8 		"/>
		<polygon class="st0" points="324.8,167.4 327.3,163.1 332.2,163.1 334.6,167.4 332.2,171.6 327.3,171.6 		"/>
		<polygon class="st0" points="324.8,179.3 327.3,175 332.2,175 334.6,179.3 332.2,183.6 327.3,183.6 		"/>
		<polygon class="st0" points="324.8,203.1 327.3,198.9 332.2,198.9 334.6,203.1 332.2,207.4 327.3,207.4 		"/>
		<polygon class="st0" points="324.8,215 327.3,210.8 332.2,210.8 334.6,215 332.2,219.3 327.3,219.3 		"/>
		<polygon class="st0" points="324.8,274.5 327.3,270.3 332.2,270.3 334.6,274.5 332.2,278.8 327.3,278.8 		"/>
		<polygon class="st0" points="324.8,286.4 327.3,282.2 332.2,282.2 334.6,286.4 332.2,290.7 327.3,290.7 		"/>
		<polygon class="st0" points="324.8,298.3 327.3,294.1 332.2,294.1 334.6,298.3 332.2,302.6 327.3,302.6 		"/>
		<polygon class="st0" points="324.8,310.2 327.3,306 332.2,306 334.6,310.2 332.2,314.5 327.3,314.5 		"/>
		<polygon class="st0" points="324.8,322.1 327.3,317.9 332.2,317.9 334.6,322.1 332.2,326.4 327.3,326.4 		"/>
		<polygon class="st0" points="324.8,334 327.3,329.8 332.2,329.8 334.6,334 332.2,338.3 327.3,338.3 		"/>
		<polygon class="st0" points="324.8,345.9 327.3,341.7 332.2,341.7 334.6,345.9 332.2,350.2 327.3,350.2 		"/>
		<polygon class="st0" points="355.7,137.6 358.2,133.4 363.1,133.4 365.6,137.6 363.1,141.9 358.2,141.9 		"/>
		<polygon class="st0" points="355.7,149.5 358.2,145.3 363.1,145.3 365.6,149.5 363.1,153.8 358.2,153.8 		"/>
		<polygon class="st0" points="355.7,161.4 358.2,157.2 363.1,157.2 365.6,161.4 363.1,165.7 358.2,165.7 		"/>
		<polygon class="st0" points="355.7,197.2 358.2,192.9 363.1,192.9 365.6,197.2 363.1,201.4 358.2,201.4 		"/>
		<polygon class="st0" points="355.7,280.5 358.2,276.2 363.1,276.2 365.6,280.5 363.1,284.7 358.2,284.7 		"/>
		<polygon class="st0" points="355.7,292.4 358.2,288.1 363.1,288.1 365.6,292.4 363.1,296.6 358.2,296.6 		"/>
		<polygon class="st0" points="355.7,304.3 358.2,300 363.1,300 365.6,304.3 363.1,308.5 358.2,308.5 		"/>
		<polygon class="st0" points="355.7,316.2 358.2,311.9 363.1,311.9 365.6,316.2 363.1,320.4 358.2,320.4 		"/>
		<polygon class="st0" points="355.7,328.1 358.2,323.8 363.1,323.8 365.6,328.1 363.1,332.3 358.2,332.3 		"/>
		<polygon class="st0" points="355.7,340 358.2,335.7 363.1,335.7 365.6,340 363.1,344.2 358.2,344.2 		"/>
		<polygon class="st0" points="366.1,143.6 368.5,139.3 373.4,139.3 375.9,143.6 373.4,147.8 368.5,147.8 		"/>
		<polygon class="st0" points="366.1,155.5 368.5,151.2 373.4,151.2 375.9,155.5 373.4,159.7 368.5,159.7 		"/>
		<polygon class="st0" points="366.1,167.4 368.5,163.1 373.4,163.1 375.9,167.4 373.4,171.6 368.5,171.6 		"/>
		<polygon class="st0" points="366.1,179.3 368.5,175 373.4,175 375.9,179.3 373.4,183.6 368.5,183.6 		"/>
		<polygon class="st0" points="366.1,191.2 368.5,186.9 373.4,186.9 375.9,191.2 373.4,195.5 368.5,195.5 		"/>
		<polygon class="st0" points="366.1,215 368.5,210.8 373.4,210.8 375.9,215 373.4,219.3 368.5,219.3 		"/>
		<polygon class="st0" points="366.1,226.9 368.5,222.7 373.4,222.7 375.9,226.9 373.4,231.2 368.5,231.2 		"/>
		<polygon class="st0" points="366.1,238.8 368.5,234.6 373.4,234.6 375.9,238.8 373.4,243.1 368.5,243.1 		"/>
		<polygon class="st0" points="366.1,298.3 368.5,294.1 373.4,294.1 375.9,298.3 373.4,302.6 368.5,302.6 		"/>
		<polygon class="st0" points="366.1,310.2 368.5,306 373.4,306 375.9,310.2 373.4,314.5 368.5,314.5 		"/>
		<polygon class="st0" points="366.1,322.1 368.5,317.9 373.4,317.9 375.9,322.1 373.4,326.4 368.5,326.4 		"/>
		<polygon class="st0" points="366.1,334 368.5,329.8 373.4,329.8 375.9,334 373.4,338.3 368.5,338.3 		"/>
		<polygon class="st0" points="366.1,345.9 368.5,341.7 373.4,341.7 375.9,345.9 373.4,350.2 368.5,350.2 		"/>
		<polygon class="st0" points="397,149.5 399.5,145.3 404.4,145.3 406.8,149.5 404.4,153.8 399.5,153.8 		"/>
		<polygon class="st0" points="397,161.4 399.5,157.2 404.4,157.2 406.8,161.4 404.4,165.7 399.5,165.7 		"/>
		<polygon class="st0" points="397,173.3 399.5,169.1 404.4,169.1 406.8,173.3 404.4,177.6 399.5,177.6 		"/>
		<polygon class="st0" points="397,185.2 399.5,181 404.4,181 406.8,185.2 404.4,189.5 399.5,189.5 		"/>
		<polygon class="st0" points="397,221 399.5,216.7 404.4,216.7 406.8,221 404.4,225.2 399.5,225.2 		"/>
		<polygon class="st0" points="397,232.9 399.5,228.6 404.4,228.6 406.8,232.9 404.4,237.1 399.5,237.1 		"/>
		<polygon class="st0" points="397,244.8 399.5,240.5 404.4,240.5 406.8,244.8 404.4,249 399.5,249 		"/>
		<polygon class="st0" points="397,256.7 399.5,252.4 404.4,252.4 406.8,256.7 404.4,260.9 399.5,260.9 		"/>
		<polygon class="st0" points="397,268.6 399.5,264.3 404.4,264.3 406.8,268.6 404.4,272.8 399.5,272.8 		"/>
		<polygon class="st0" points="397,280.5 399.5,276.2 404.4,276.2 406.8,280.5 404.4,284.7 399.5,284.7 		"/>
		<polygon class="st0" points="397,292.4 399.5,288.1 404.4,288.1 406.8,292.4 404.4,296.6 399.5,296.6 		"/>
		<polygon class="st0" points="397,304.3 399.5,300 404.4,300 406.8,304.3 404.4,308.5 399.5,308.5 		"/>
		<polygon class="st0" points="397,316.2 399.5,311.9 404.4,311.9 406.8,316.2 404.4,320.4 399.5,320.4 		"/>
		<polygon class="st0" points="397,328.1 399.5,323.8 404.4,323.8 406.8,328.1 404.4,332.3 399.5,332.3 		"/>
		<polygon class="st0" points="397,340 399.5,335.7 404.4,335.7 406.8,340 404.4,344.2 399.5,344.2 		"/>
		<polygon class="st0" points="397,351.9 399.5,347.6 404.4,347.6 406.8,351.9 404.4,356.1 399.5,356.1 		"/>
		<polygon class="st0" points="397,363.8 399.5,359.5 404.4,359.5 406.8,363.8 404.4,368 399.5,368 		"/>
		<polygon class="st0" points="397,375.7 399.5,371.4 404.4,371.4 406.8,375.7 404.4,379.9 399.5,379.9 		"/>
		<polygon class="st0" points="407.3,191.2 409.8,186.9 414.7,186.9 417.1,191.2 414.7,195.5 409.8,195.5 		"/>
		<polygon class="st0" points="407.3,226.9 409.8,222.7 414.7,222.7 417.1,226.9 414.7,231.2 409.8,231.2 		"/>
		<polygon class="st0" points="407.3,238.8 409.8,234.6 414.7,234.6 417.1,238.8 414.7,243.1 409.8,243.1 		"/>
		<polygon class="st0" points="407.3,250.7 409.8,246.5 414.7,246.5 417.1,250.7 414.7,255 409.8,255 		"/>
		<polygon class="st0" points="407.3,262.6 409.8,258.4 414.7,258.4 417.1,262.6 414.7,266.9 409.8,266.9 		"/>
		<polygon class="st0" points="407.3,274.5 409.8,270.3 414.7,270.3 417.1,274.5 414.7,278.8 409.8,278.8 		"/>
		<polygon class="st0" points="407.3,286.4 409.8,282.2 414.7,282.2 417.1,286.4 414.7,290.7 409.8,290.7 		"/>
		<polygon class="st0" points="407.3,298.3 409.8,294.1 414.7,294.1 417.1,298.3 414.7,302.6 409.8,302.6 		"/>
		<polygon class="st0" points="407.3,310.2 409.8,306 414.7,306 417.1,310.2 414.7,314.5 409.8,314.5 		"/>
		<polygon class="st0" points="407.3,322.1 409.8,317.9 414.7,317.9 417.1,322.1 414.7,326.4 409.8,326.4 		"/>
		<polygon class="st0" points="407.3,334 409.8,329.8 414.7,329.8 417.1,334 414.7,338.3 409.8,338.3 		"/>
		<polygon class="st0" points="407.3,345.9 409.8,341.7 414.7,341.7 417.1,345.9 414.7,350.2 409.8,350.2 		"/>
		<polygon class="st0" points="407.3,357.8 409.8,353.6 414.7,353.6 417.1,357.8 414.7,362.1 409.8,362.1 		"/>
		<polygon class="st0" points="417.6,209.1 420.1,204.8 425,204.8 427.4,209.1 425,213.3 420.1,213.3 		"/>
		<polygon class="st0" points="417.6,221 420.1,216.7 425,216.7 427.4,221 425,225.2 420.1,225.2 		"/>
		<polygon class="st0" points="417.6,232.9 420.1,228.6 425,228.6 427.4,232.9 425,237.1 420.1,237.1 		"/>
		<polygon class="st0" points="417.6,244.8 420.1,240.5 425,240.5 427.4,244.8 425,249 420.1,249 		"/>
		<polygon class="st0" points="417.6,256.7 420.1,252.4 425,252.4 427.4,256.7 425,260.9 420.1,260.9 		"/>
		<polygon class="st0" points="417.6,268.6 420.1,264.3 425,264.3 427.4,268.6 425,272.8 420.1,272.8 		"/>
		<polygon class="st0" points="417.6,280.5 420.1,276.2 425,276.2 427.4,280.5 425,284.7 420.1,284.7 		"/>
		<polygon class="st0" points="417.6,292.4 420.1,288.1 425,288.1 427.4,292.4 425,296.6 420.1,296.6 		"/>
		<polygon class="st0" points="417.6,304.3 420.1,300 425,300 427.4,304.3 425,308.5 420.1,308.5 		"/>
		<polygon class="st0" points="417.6,316.2 420.1,311.9 425,311.9 427.4,316.2 425,320.4 420.1,320.4 		"/>
		<polygon class="st0" points="417.6,328.1 420.1,323.8 425,323.8 427.4,328.1 425,332.3 420.1,332.3 		"/>
		<polygon class="st0" points="417.6,340 420.1,335.7 425,335.7 427.4,340 425,344.2 420.1,344.2 		"/>
		<polygon class="st0" points="417.6,351.9 420.1,347.6 425,347.6 427.4,351.9 425,356.1 420.1,356.1 		"/>
		<polygon class="st0" points="427.9,215 430.4,210.8 435.3,210.8 437.8,215 435.3,219.3 430.4,219.3 		"/>
		<polygon class="st0" points="427.9,226.9 430.4,222.7 435.3,222.7 437.8,226.9 435.3,231.2 430.4,231.2 		"/>
		<polygon class="st0" points="427.9,238.8 430.4,234.6 435.3,234.6 437.8,238.8 435.3,243.1 430.4,243.1 		"/>
		<polygon class="st0" points="427.9,250.7 430.4,246.5 435.3,246.5 437.8,250.7 435.3,255 430.4,255 		"/>
		<polygon class="st0" points="427.9,262.6 430.4,258.4 435.3,258.4 437.8,262.6 435.3,266.9 430.4,266.9 		"/>
		<polygon class="st0" points="427.9,274.5 430.4,270.3 435.3,270.3 437.8,274.5 435.3,278.8 430.4,278.8 		"/>
		<polygon class="st0" points="427.9,286.4 430.4,282.2 435.3,282.2 437.8,286.4 435.3,290.7 430.4,290.7 		"/>
		<polygon class="st0" points="427.9,298.3 430.4,294.1 435.3,294.1 437.8,298.3 435.3,302.6 430.4,302.6 		"/>
		<polygon class="st0" points="427.9,310.2 430.4,306 435.3,306 437.8,310.2 435.3,314.5 430.4,314.5 		"/>
		<polygon class="st0" points="427.9,322.1 430.4,317.9 435.3,317.9 437.8,322.1 435.3,326.4 430.4,326.4 		"/>
		<polygon class="st0" points="427.9,334 430.4,329.8 435.3,329.8 437.8,334 435.3,338.3 430.4,338.3 		"/>
		<polygon class="st0" points="479.5,232.9 481.9,228.6 486.9,228.6 489.3,232.9 486.9,237.1 481.9,237.1 		"/>
		<polygon class="st0" points="479.5,292.4 481.9,288.1 486.9,288.1 489.3,292.4 486.9,296.6 481.9,296.6 		"/>
		<polygon class="st0" points="479.5,304.3 481.9,300 486.9,300 489.3,304.3 486.9,308.5 481.9,308.5 		"/>
		<polygon class="st0" points="479.5,316.2 481.9,311.9 486.9,311.9 489.3,316.2 486.9,320.4 481.9,320.4 		"/>
		<polygon class="st0" points="479.5,328.1 481.9,323.8 486.9,323.8 489.3,328.1 486.9,332.3 481.9,332.3 		"/>
		<polygon class="st0" points="489.8,250.7 492.3,246.5 497.2,246.5 499.6,250.7 497.2,255 492.3,255 		"/>
		<polygon class="st0" points="489.8,262.6 492.3,258.4 497.2,258.4 499.6,262.6 497.2,266.9 492.3,266.9 		"/>
		<polygon class="st0" points="489.8,274.5 492.3,270.3 497.2,270.3 499.6,274.5 497.2,278.8 492.3,278.8 		"/>
		<polygon class="st0" points="489.8,298.3 492.3,294.1 497.2,294.1 499.6,298.3 497.2,302.6 492.3,302.6 		"/>
		<polygon class="st0" points="489.8,310.2 492.3,306 497.2,306 499.6,310.2 497.2,314.5 492.3,314.5 		"/>
		<polygon class="st0" points="500.1,256.7 502.6,252.4 507.5,252.4 509.9,256.7 507.5,260.9 502.6,260.9 		"/>
		<polygon class="st0" points="500.1,268.6 502.6,264.3 507.5,264.3 509.9,268.6 507.5,272.8 502.6,272.8 		"/>
		<polygon class="st0" points="500.1,280.5 502.6,276.2 507.5,276.2 509.9,280.5 507.5,284.7 502.6,284.7 		"/>
		<polygon class="st0" points="510.4,250.7 512.9,246.5 517.8,246.5 520.3,250.7 517.8,255 512.9,255 		"/>
		<polygon class="st0" points="510.4,262.6 512.9,258.4 517.8,258.4 520.3,262.6 517.8,266.9 512.9,266.9 		"/>
		<polygon class="st0" points="510.4,274.5 512.9,270.3 517.8,270.3 520.3,274.5 517.8,278.8 512.9,278.8 		"/>
		<polygon class="st0" points="510.4,310.2 512.9,306 517.8,306 520.3,310.2 517.8,314.5 512.9,314.5 		"/>
		<polygon class="st0" points="438.2,232.9 440.7,228.6 445.6,228.6 448.1,232.9 445.6,237.1 440.7,237.1 		"/>
		<polygon class="st0" points="438.2,244.8 440.7,240.5 445.6,240.5 448.1,244.8 445.6,249 440.7,249 		"/>
		<polygon class="st0" points="438.2,256.7 440.7,252.4 445.6,252.4 448.1,256.7 445.6,260.9 440.7,260.9 		"/>
		<polygon class="st0" points="438.2,268.6 440.7,264.3 445.6,264.3 448.1,268.6 445.6,272.8 440.7,272.8 		"/>
		<polygon class="st0" points="438.2,280.5 440.7,276.2 445.6,276.2 448.1,280.5 445.6,284.7 440.7,284.7 		"/>
		<polygon class="st0" points="438.2,292.4 440.7,288.1 445.6,288.1 448.1,292.4 445.6,296.6 440.7,296.6 		"/>
		<polygon class="st0" points="438.2,316.2 440.7,311.9 445.6,311.9 448.1,316.2 445.6,320.4 440.7,320.4 		"/>
		<polygon class="st0" points="438.2,328.1 440.7,323.8 445.6,323.8 448.1,328.1 445.6,332.3 440.7,332.3 		"/>
		<polygon class="st0" points="438.2,340 440.7,335.7 445.6,335.7 448.1,340 445.6,344.2 440.7,344.2 		"/>
		<polygon class="st0" points="448.6,238.8 451,234.6 455.9,234.6 458.4,238.8 455.9,243.1 451,243.1 		"/>
		<polygon class="st0" points="448.6,250.7 451,246.5 455.9,246.5 458.4,250.7 455.9,255 451,255 		"/>
		<polygon class="st0" points="448.6,262.6 451,258.4 455.9,258.4 458.4,262.6 455.9,266.9 451,266.9 		"/>
		<polygon class="st0" points="448.6,274.5 451,270.3 455.9,270.3 458.4,274.5 455.9,278.8 451,278.8 		"/>
		<polygon class="st0" points="448.6,310.2 451,306 455.9,306 458.4,310.2 455.9,314.5 451,314.5 		"/>
		<polygon class="st0" points="458.9,232.9 461.3,228.6 466.2,228.6 468.7,232.9 466.2,237.1 461.3,237.1 		"/>
		<polygon class="st0" points="458.9,244.8 461.3,240.5 466.2,240.5 468.7,244.8 466.2,249 461.3,249 		"/>
		<polygon class="st0" points="458.9,256.7 461.3,252.4 466.2,252.4 468.7,256.7 466.2,260.9 461.3,260.9 		"/>
		<polygon class="st0" points="458.9,268.6 461.3,264.3 466.2,264.3 468.7,268.6 466.2,272.8 461.3,272.8 		"/>
		<polygon class="st0" points="458.9,292.4 461.3,288.1 466.2,288.1 468.7,292.4 466.2,296.6 461.3,296.6 		"/>
		<polygon class="st0" points="458.9,304.3 461.3,300 466.2,300 468.7,304.3 466.2,308.5 461.3,308.5 		"/>
		<polygon class="st0" points="458.9,316.2 461.3,311.9 466.2,311.9 468.7,316.2 466.2,320.4 461.3,320.4 		"/>
		<polygon class="st0" points="458.9,328.1 461.3,323.8 466.2,323.8 468.7,328.1 466.2,332.3 461.3,332.3 		"/>
		<polygon class="st0" points="469.2,238.8 471.6,234.6 476.5,234.6 479,238.8 476.5,243.1 471.6,243.1 		"/>
		<polygon class="st0" points="469.2,250.7 471.6,246.5 476.5,246.5 479,250.7 476.5,255 471.6,255 		"/>
		<polygon class="st0" points="469.2,262.6 471.6,258.4 476.5,258.4 479,262.6 476.5,266.9 471.6,266.9 		"/>
		<polygon class="st0" points="469.2,310.2 471.6,306 476.5,306 479,310.2 476.5,314.5 471.6,314.5 		"/>
		<polygon class="st0" points="520.7,256.7 523.2,252.4 528.1,252.4 530.6,256.7 528.1,260.9 523.2,260.9 		"/>
		<polygon class="st0" points="520.7,268.6 523.2,264.3 528.1,264.3 530.6,268.6 528.1,272.8 523.2,272.8 		"/>
	</g>
</g>
<g id="Layer_2">
</g>
</svg>
