<?xml version="1.0" encoding="utf-8"?>
<!-- Generator: Adobe Illustrator 26.0.3, SVG Export Plug-In . SVG Version: 6.00 Build 0)  -->
<svg version="1.1" id="Layer_1" xmlns="http://www.w3.org/2000/svg" xmlns:xlink="http://www.w3.org/1999/xlink" x="0px" y="0px"
	 viewBox="0 0 2126 1360.6" style="enable-background:new 0 0 2126 1360.6;" xml:space="preserve">
<style type="text/css">
	.st0{fill:none;stroke:#FF00FF;stroke-width:0.1;stroke-miterlimit:10;}
	.st1{fill:none;stroke:#FF0000;stroke-width:0.1;stroke-miterlimit:10;}
</style>
<g><g><path class="st1" d="M58.9,395.8l0-324c0-26,21.1-47.1,47.1-47.1l555,0c26,0,47.1,21.1,47.1,47.1l0,324c0,26-21.1,47.1-47.1,47.1
 l-555,0C79.9,442.9,58.9,421.8,58.9,395.8z"></path></g><g><path class="st1" d="M58.9,842.3l0-324c0-26,21.1-47.1,47.1-47.1l555,0c26,0,47.1,21.1,47.1,47.1l0,324c0,26-21.1,47.1-47.1,47.1
 l-555,0C79.9,889.4,58.9,868.3,58.9,842.3z"></path></g><g><path class="st1" d="M58.9,1288.8l0-324c0-26,21.1-47.1,47.1-47.1l555,0c26,0,47.1,21.1,47.1,47.1l0,324c0,26-21.1,47.1-47.1,47.1
 l-555,0C79.9,1335.9,58.9,1314.8,58.9,1288.8z"></path></g></g><g><g><path class="st1" d="M738.4,395.8l0-324c0-26,21.1-47.1,47.1-47.1l555,0c26,0,47.1,21.1,47.1,47.1l0,324c0,26-21.1,47.1-47.1,47.1
 l-555,0C759.5,442.9,738.4,421.8,738.4,395.8z"></path></g><g><path class="st1" d="M738.4,842.3l0-324c0-26,21.1-47.1,47.1-47.1l555,0c26,0,47.1,21.1,47.1,47.1l0,324c0,26-21.1,47.1-47.1,47.1
 l-555,0C759.5,889.4,738.4,868.3,738.4,842.3z"></path></g><g><path class="st1" d="M738.4,1288.8l0-324c0-26,21.1-47.1,47.1-47.1l555,0c26,0,47.1,21.1,47.1,47.1l0,324
 c0,26-21.1,47.1-47.1,47.1l-555,0C759.5,1335.9,738.4,1314.8,738.4,1288.8z"></path></g></g><g><path class="st1" d="M1418,395.8l0-324c0-26,21.1-47.1,47.1-47.1l555,0c26,0,47.1,21.1,47.1,47.1l0,324c0,26-21.1,47.1-47.1,47.1
 l-555,0C1439.1,442.9,1418,421.8,1418,395.8z"></path></g><g><path class="st1" d="M1418,842.3l0-324c0-26,21.1-47.1,47.1-47.1l555,0c26,0,47.1,21.1,47.1,47.1l0,324c0,26-21.1,47.1-47.1,47.1
 l-555,0C1439.1,889.4,1418,868.3,1418,842.3z"></path></g><g><path class="st1" d="M1418,1288.8l0-324c0-26,21.1-47.1,47.1-47.1l555,0c26,0,47.1,21.1,47.1,47.1l0,324c0,26-21.1,47.1-47.1,47.1
 l-555,0C1439.1,1335.9,1418,1314.8,1418,1288.8z"></path></g><rect x="382.7" y="-382.7" transform="matrix(1.909081e-06 1 -1 1.909081e-06 1743.3051 -382.6785)" class="st1" width="1360.6" height="2126"></rect><g class="country" transform="translate(48 28)"></g><g class="country" transform="translate(730 28)"></g><g class="country" transform="translate(1415 28)"></g><g class="country" transform="translate(48 470)"></g><g class="country" transform="translate(730 470)"></g><g class="country" transform="translate(1415 470)"></g><g class="country" transform="translate(48 920)"></g><g class="country" transform="translate(730 920)"></g><g class="country" transform="translate(1415 920)"></g></svg>