<?xml version="1.0" encoding="utf-8"?>
<!-- Generator: Adobe Illustrator 26.0.3, SVG Export Plug-In . SVG Version: 6.00 Build 0)  -->
<svg version="1.1" xmlns="http://www.w3.org/2000/svg" xmlns:xlink="http://www.w3.org/1999/xlink" x="0px" y="0px"
	 viewBox="0 0 649.1 418.1" style="enable-background:new 0 0 649.1 418.1;" xml:space="preserve">
<style type="text/css">
	.st0{fill:none;stroke:#FF00FF;stroke-width:2.834646e-02;stroke-miterlimit:10;}
</style>
<g id="Layer_1">
	<g>
		<polygon class="st0" points="77.3,107.9 79.7,103.6 84.6,103.6 87.1,107.9 84.6,112.1 79.7,112.1 		"/>
		<polygon class="st0" points="77.3,119.8 79.7,115.5 84.6,115.5 87.1,119.8 84.6,124 79.7,124 		"/>
		<polygon class="st0" points="87.6,90 90,85.8 94.9,85.8 97.4,90 94.9,94.3 90,94.3 		"/>
		<polygon class="st0" points="87.6,101.9 90,97.7 94.9,97.7 97.4,101.9 94.9,106.2 90,106.2 		"/>
		<polygon class="st0" points="97.9,84.1 100.3,79.8 105.3,79.8 107.7,84.1 105.3,88.3 100.3,88.3 		"/>
		<polygon class="st0" points="97.9,96 100.3,91.7 105.3,91.7 107.7,96 105.3,100.2 100.3,100.2 		"/>
		<polygon class="st0" points="118.5,84.1 121,79.8 125.9,79.8 128.3,84.1 125.9,88.3 121,88.3 		"/>
		<polygon class="st0" points="128.8,90 131.3,85.8 136.2,85.8 138.6,90 136.2,94.3 131.3,94.3 		"/>
		<polygon class="st0" points="128.8,78.1 131.3,73.9 136.2,73.9 138.6,78.1 136.2,82.4 131.3,82.4 		"/>
		<polygon class="st0" points="139.1,84.1 141.6,79.8 146.5,79.8 149,84.1 146.5,88.3 141.6,88.3 		"/>
		<polygon class="st0" points="139.1,96 141.6,91.7 146.5,91.7 149,96 146.5,100.2 141.6,100.2 		"/>
		<polygon class="st0" points="139.1,72.2 141.6,67.9 146.5,67.9 149,72.2 146.5,76.4 141.6,76.4 		"/>
		<polygon class="st0" points="149.4,90 151.9,85.8 156.8,85.8 159.3,90 156.8,94.3 151.9,94.3 		"/>
		<polygon class="st0" points="149.4,101.9 151.9,97.7 156.8,97.7 159.3,101.9 156.8,106.2 151.9,106.2 		"/>
		<polygon class="st0" points="149.4,66.2 151.9,62 156.8,62 159.3,66.2 156.8,70.5 151.9,70.5 		"/>
		<polygon class="st0" points="149.4,78.1 151.9,73.9 156.8,73.9 159.3,78.1 156.8,82.4 151.9,82.4 		"/>
		<polygon class="st0" points="159.8,84.1 162.2,79.8 167.1,79.8 169.6,84.1 167.1,88.3 162.2,88.3 		"/>
		<polygon class="st0" points="159.8,96 162.2,91.7 167.1,91.7 169.6,96 167.1,100.2 162.2,100.2 		"/>
		<polygon class="st0" points="159.8,72.2 162.2,67.9 167.1,67.9 169.6,72.2 167.1,76.4 162.2,76.4 		"/>
		<polygon class="st0" points="170.1,90 172.5,85.8 177.4,85.8 179.9,90 177.4,94.3 172.5,94.3 		"/>
		<polygon class="st0" points="170.1,66.2 172.5,62 177.4,62 179.9,66.2 177.4,70.5 172.5,70.5 		"/>
		<polygon class="st0" points="170.1,78.1 172.5,73.9 177.4,73.9 179.9,78.1 177.4,82.4 172.5,82.4 		"/>
		<polygon class="st0" points="231.9,101.9 234.4,97.7 239.3,97.7 241.8,101.9 239.3,106.2 234.4,106.2 		"/>
		<polygon class="st0" points="242.3,96 244.7,91.7 249.6,91.7 252.1,96 249.6,100.2 244.7,100.2 		"/>
		<polygon class="st0" points="242.3,107.9 244.7,103.6 249.6,103.6 252.1,107.9 249.6,112.1 244.7,112.1 		"/>
		<polygon class="st0" points="242.3,119.8 244.7,115.5 249.6,115.5 252.1,119.8 249.6,124 244.7,124 		"/>
		<polygon class="st0" points="273.2,101.9 275.7,97.7 280.6,97.7 283,101.9 280.6,106.2 275.7,106.2 		"/>
		<polygon class="st0" points="273.2,113.8 275.7,109.6 280.6,109.6 283,113.8 280.6,118.1 275.7,118.1 		"/>
		<polygon class="st0" points="273.2,125.7 275.7,121.5 280.6,121.5 283,125.7 280.6,130 275.7,130 		"/>
		<polygon class="st0" points="283.5,131.7 286,127.4 290.9,127.4 293.3,131.7 290.9,135.9 286,135.9 		"/>
		<polygon class="st0" points="283.5,119.8 286,115.5 290.9,115.5 293.3,119.8 290.9,124 286,124 		"/>
		<polygon class="st0" points="324.8,131.7 327.2,127.4 332.1,127.4 334.6,131.7 332.1,135.9 327.2,135.9 		"/>
		<polygon class="st0" points="324.8,143.6 327.2,139.3 332.1,139.3 334.6,143.6 332.1,147.8 327.2,147.8 		"/>
		<polygon class="st0" points="355.7,137.6 358.1,133.4 363.1,133.4 365.5,137.6 363.1,141.9 358.1,141.9 		"/>
		<polygon class="st0" points="355.7,161.4 358.1,157.2 363.1,157.2 365.5,161.4 363.1,165.7 358.1,165.7 		"/>
		<polygon class="st0" points="355.7,173.3 358.1,169.1 363.1,169.1 365.5,173.3 363.1,177.6 358.1,177.6 		"/>
		<polygon class="st0" points="366,131.7 368.5,127.4 373.4,127.4 375.8,131.7 373.4,135.9 368.5,135.9 		"/>
		<polygon class="st0" points="366,143.6 368.5,139.3 373.4,139.3 375.8,143.6 373.4,147.8 368.5,147.8 		"/>
		<polygon class="st0" points="366,167.4 368.5,163.1 373.4,163.1 375.8,167.4 373.4,171.6 368.5,171.6 		"/>
		<polygon class="st0" points="366,179.3 368.5,175 373.4,175 375.8,179.3 373.4,183.6 368.5,183.6 		"/>
		<polygon class="st0" points="366,191.2 368.5,186.9 373.4,186.9 375.8,191.2 373.4,195.5 368.5,195.5 		"/>
		<polygon class="st0" points="396.9,137.6 399.4,133.4 404.3,133.4 406.8,137.6 404.3,141.9 399.4,141.9 		"/>
		<polygon class="st0" points="396.9,161.4 399.4,157.2 404.3,157.2 406.8,161.4 404.3,165.7 399.4,165.7 		"/>
		<polygon class="st0" points="396.9,209.1 399.4,204.8 404.3,204.8 406.8,209.1 404.3,213.3 399.4,213.3 		"/>
		<polygon class="st0" points="407.3,155.5 409.7,151.2 414.6,151.2 417.1,155.5 414.6,159.7 409.7,159.7 		"/>
		<polygon class="st0" points="407.3,167.4 409.7,163.1 414.6,163.1 417.1,167.4 414.6,171.6 409.7,171.6 		"/>
		<polygon class="st0" points="407.3,179.3 409.7,175 414.6,175 417.1,179.3 414.6,183.6 409.7,183.6 		"/>
		<polygon class="st0" points="407.3,203.1 409.7,198.9 414.6,198.9 417.1,203.1 414.6,207.4 409.7,207.4 		"/>
		<polygon class="st0" points="407.3,215 409.7,210.8 414.6,210.8 417.1,215 414.6,219.3 409.7,219.3 		"/>
		<polygon class="st0" points="252.6,90 255,85.8 259.9,85.8 262.4,90 259.9,94.3 255,94.3 		"/>
		<polygon class="st0" points="252.6,101.9 255,97.7 259.9,97.7 262.4,101.9 259.9,106.2 255,106.2 		"/>
		<polygon class="st0" points="252.6,113.8 255,109.6 259.9,109.6 262.4,113.8 259.9,118.1 255,118.1 		"/>
		<polygon class="st0" points="252.6,125.7 255,121.5 259.9,121.5 262.4,125.7 259.9,130 255,130 		"/>
		<polygon class="st0" points="262.9,84.1 265.3,79.8 270.2,79.8 272.7,84.1 270.2,88.3 265.3,88.3 		"/>
		<polygon class="st0" points="262.9,96 265.3,91.7 270.2,91.7 272.7,96 270.2,100.2 265.3,100.2 		"/>
		<polygon class="st0" points="262.9,107.9 265.3,103.6 270.2,103.6 272.7,107.9 270.2,112.1 265.3,112.1 		"/>
		<polygon class="st0" points="293.8,125.7 296.3,121.5 301.2,121.5 303.6,125.7 301.2,130 296.3,130 		"/>
		<polygon class="st0" points="335.1,137.6 337.5,133.4 342.4,133.4 344.9,137.6 342.4,141.9 337.5,141.9 		"/>
		<polygon class="st0" points="335.1,125.7 337.5,121.5 342.4,121.5 344.9,125.7 342.4,130 337.5,130 		"/>
		<polygon class="st0" points="345.4,131.7 347.8,127.4 352.7,127.4 355.2,131.7 352.7,135.9 347.8,135.9 		"/>
		<polygon class="st0" points="345.4,167.4 347.8,163.1 352.7,163.1 355.2,167.4 352.7,171.6 347.8,171.6 		"/>
		<polygon class="st0" points="376.3,137.6 378.8,133.4 383.7,133.4 386.1,137.6 383.7,141.9 378.8,141.9 		"/>
		<polygon class="st0" points="376.3,149.5 378.8,145.3 383.7,145.3 386.1,149.5 383.7,153.8 378.8,153.8 		"/>
		<polygon class="st0" points="376.3,173.3 378.8,169.1 383.7,169.1 386.1,173.3 383.7,177.6 378.8,177.6 		"/>
		<polygon class="st0" points="376.3,185.2 378.8,181 383.7,181 386.1,185.2 383.7,189.5 378.8,189.5 		"/>
		<polygon class="st0" points="386.6,131.7 389.1,127.4 394,127.4 396.4,131.7 394,135.9 389.1,135.9 		"/>
		<polygon class="st0" points="386.6,143.6 389.1,139.3 394,139.3 396.4,143.6 394,147.8 389.1,147.8 		"/>
		<polygon class="st0" points="386.6,215 389.1,210.8 394,210.8 396.4,215 394,219.3 389.1,219.3 		"/>
		<polygon class="st0" points="417.6,161.4 420,157.2 424.9,157.2 427.4,161.4 424.9,165.7 420,165.7 		"/>
		<polygon class="st0" points="417.6,173.3 420,169.1 424.9,169.1 427.4,173.3 424.9,177.6 420,177.6 		"/>
		<polygon class="st0" points="427.9,167.4 430.3,163.1 435.2,163.1 437.7,167.4 435.2,171.6 430.3,171.6 		"/>
		<polygon class="st0" points="427.9,179.3 430.3,175 435.2,175 437.7,179.3 435.2,183.6 430.3,183.6 		"/>
		<polygon class="st0" points="427.9,191.2 430.3,186.9 435.2,186.9 437.7,191.2 435.2,195.5 430.3,195.5 		"/>
		<polygon class="st0" points="427.9,203.1 430.3,198.9 435.2,198.9 437.7,203.1 435.2,207.4 430.3,207.4 		"/>
		<polygon class="st0" points="438.2,161.4 440.6,157.2 445.6,157.2 448,161.4 445.6,165.7 440.6,165.7 		"/>
		<polygon class="st0" points="438.2,173.3 440.6,169.1 445.6,169.1 448,173.3 445.6,177.6 440.6,177.6 		"/>
		<polygon class="st0" points="438.2,185.2 440.6,181 445.6,181 448,185.2 445.6,189.5 440.6,189.5 		"/>
		<polygon class="st0" points="438.2,197.2 440.6,192.9 445.6,192.9 448,197.2 445.6,201.4 440.6,201.4 		"/>
		<polygon class="st0" points="448.5,167.4 451,163.1 455.9,163.1 458.3,167.4 455.9,171.6 451,171.6 		"/>
		<polygon class="st0" points="448.5,179.3 451,175 455.9,175 458.3,179.3 455.9,183.6 451,183.6 		"/>
		<polygon class="st0" points="448.5,191.2 451,186.9 455.9,186.9 458.3,191.2 455.9,195.5 451,195.5 		"/>
		<polygon class="st0" points="448.5,274.5 451,270.3 455.9,270.3 458.3,274.5 455.9,278.8 451,278.8 		"/>
		<polygon class="st0" points="500.1,232.9 502.5,228.6 507.4,228.6 509.9,232.9 507.4,237.1 502.5,237.1 		"/>
		<polygon class="st0" points="500.1,244.8 502.5,240.5 507.4,240.5 509.9,244.8 507.4,249 502.5,249 		"/>
		<polygon class="st0" points="500.1,256.7 502.5,252.4 507.4,252.4 509.9,256.7 507.4,260.9 502.5,260.9 		"/>
		<polygon class="st0" points="500.1,268.6 502.5,264.3 507.4,264.3 509.9,268.6 507.4,272.8 502.5,272.8 		"/>
		<polygon class="st0" points="500.1,280.5 502.5,276.2 507.4,276.2 509.9,280.5 507.4,284.7 502.5,284.7 		"/>
		<polygon class="st0" points="500.1,292.4 502.5,288.1 507.4,288.1 509.9,292.4 507.4,296.6 502.5,296.6 		"/>
		<polygon class="st0" points="500.1,304.3 502.5,300 507.4,300 509.9,304.3 507.4,308.5 502.5,308.5 		"/>
		<polygon class="st0" points="500.1,316.2 502.5,311.9 507.4,311.9 509.9,316.2 507.4,320.4 502.5,320.4 		"/>
		<polygon class="st0" points="500.1,328.1 502.5,323.8 507.4,323.8 509.9,328.1 507.4,332.3 502.5,332.3 		"/>
		<polygon class="st0" points="510.4,238.8 512.8,234.6 517.7,234.6 520.2,238.8 517.7,243.1 512.8,243.1 		"/>
		<polygon class="st0" points="510.4,250.7 512.8,246.5 517.7,246.5 520.2,250.7 517.7,255 512.8,255 		"/>
		<polygon class="st0" points="510.4,262.6 512.8,258.4 517.7,258.4 520.2,262.6 517.7,266.9 512.8,266.9 		"/>
		<polygon class="st0" points="510.4,274.5 512.8,270.3 517.7,270.3 520.2,274.5 517.7,278.8 512.8,278.8 		"/>
		<polygon class="st0" points="510.4,286.4 512.8,282.2 517.7,282.2 520.2,286.4 517.7,290.7 512.8,290.7 		"/>
		<polygon class="st0" points="510.4,298.3 512.8,294.1 517.7,294.1 520.2,298.3 517.7,302.6 512.8,302.6 		"/>
		<polygon class="st0" points="510.4,310.2 512.8,306 517.7,306 520.2,310.2 517.7,314.5 512.8,314.5 		"/>
		<polygon class="st0" points="510.4,322.1 512.8,317.9 517.7,317.9 520.2,322.1 517.7,326.4 512.8,326.4 		"/>
		<polygon class="st0" points="520.7,244.8 523.1,240.5 528.1,240.5 530.5,244.8 528.1,249 523.1,249 		"/>
		<polygon class="st0" points="520.7,256.7 523.1,252.4 528.1,252.4 530.5,256.7 528.1,260.9 523.1,260.9 		"/>
		<polygon class="st0" points="520.7,268.6 523.1,264.3 528.1,264.3 530.5,268.6 528.1,272.8 523.1,272.8 		"/>
		<polygon class="st0" points="520.7,280.5 523.1,276.2 528.1,276.2 530.5,280.5 528.1,284.7 523.1,284.7 		"/>
		<polygon class="st0" points="520.7,292.4 523.1,288.1 528.1,288.1 530.5,292.4 528.1,296.6 523.1,296.6 		"/>
		<polygon class="st0" points="520.7,304.3 523.1,300 528.1,300 530.5,304.3 528.1,308.5 523.1,308.5 		"/>
		<polygon class="st0" points="520.7,316.2 523.1,311.9 528.1,311.9 530.5,316.2 528.1,320.4 523.1,320.4 		"/>
		<polygon class="st0" points="531,250.7 533.5,246.5 538.4,246.5 540.8,250.7 538.4,255 533.5,255 		"/>
		<polygon class="st0" points="531,262.6 533.5,258.4 538.4,258.4 540.8,262.6 538.4,266.9 533.5,266.9 		"/>
		<polygon class="st0" points="531,274.5 533.5,270.3 538.4,270.3 540.8,274.5 538.4,278.8 533.5,278.8 		"/>
		<polygon class="st0" points="531,286.4 533.5,282.2 538.4,282.2 540.8,286.4 538.4,290.7 533.5,290.7 		"/>
		<polygon class="st0" points="531,298.3 533.5,294.1 538.4,294.1 540.8,298.3 538.4,302.6 533.5,302.6 		"/>
		<polygon class="st0" points="531,310.2 533.5,306 538.4,306 540.8,310.2 538.4,314.5 533.5,314.5 		"/>
		<polygon class="st0" points="458.8,173.3 461.3,169.1 466.2,169.1 468.6,173.3 466.2,177.6 461.3,177.6 		"/>
		<polygon class="st0" points="458.8,185.2 461.3,181 466.2,181 468.6,185.2 466.2,189.5 461.3,189.5 		"/>
		<polygon class="st0" points="458.8,197.2 461.3,192.9 466.2,192.9 468.6,197.2 466.2,201.4 461.3,201.4 		"/>
		<polygon class="st0" points="458.8,268.6 461.3,264.3 466.2,264.3 468.6,268.6 466.2,272.8 461.3,272.8 		"/>
		<polygon class="st0" points="458.8,280.5 461.3,276.2 466.2,276.2 468.6,280.5 466.2,284.7 461.3,284.7 		"/>
		<polygon class="st0" points="458.8,292.4 461.3,288.1 466.2,288.1 468.6,292.4 466.2,296.6 461.3,296.6 		"/>
		<polygon class="st0" points="469.1,179.3 471.6,175 476.5,175 478.9,179.3 476.5,183.6 471.6,183.6 		"/>
		<polygon class="st0" points="469.1,191.2 471.6,186.9 476.5,186.9 478.9,191.2 476.5,195.5 471.6,195.5 		"/>
		<polygon class="st0" points="469.1,226.9 471.6,222.7 476.5,222.7 478.9,226.9 476.5,231.2 471.6,231.2 		"/>
		<polygon class="st0" points="469.1,238.8 471.6,234.6 476.5,234.6 478.9,238.8 476.5,243.1 471.6,243.1 		"/>
		<polygon class="st0" points="469.1,250.7 471.6,246.5 476.5,246.5 478.9,250.7 476.5,255 471.6,255 		"/>
		<polygon class="st0" points="469.1,262.6 471.6,258.4 476.5,258.4 478.9,262.6 476.5,266.9 471.6,266.9 		"/>
		<polygon class="st0" points="469.1,274.5 471.6,270.3 476.5,270.3 478.9,274.5 476.5,278.8 471.6,278.8 		"/>
		<polygon class="st0" points="469.1,286.4 471.6,282.2 476.5,282.2 478.9,286.4 476.5,290.7 471.6,290.7 		"/>
		<polygon class="st0" points="469.1,298.3 471.6,294.1 476.5,294.1 478.9,298.3 476.5,302.6 471.6,302.6 		"/>
		<polygon class="st0" points="469.1,310.2 471.6,306 476.5,306 478.9,310.2 476.5,314.5 471.6,314.5 		"/>
		<polygon class="st0" points="469.1,322.1 471.6,317.9 476.5,317.9 478.9,322.1 476.5,326.4 471.6,326.4 		"/>
		<polygon class="st0" points="469.1,334 471.6,329.8 476.5,329.8 478.9,334 476.5,338.3 471.6,338.3 		"/>
		<polygon class="st0" points="469.1,345.9 471.6,341.7 476.5,341.7 478.9,345.9 476.5,350.2 471.6,350.2 		"/>
		<polygon class="st0" points="479.4,232.9 481.9,228.6 486.8,228.6 489.3,232.9 486.8,237.1 481.9,237.1 		"/>
		<polygon class="st0" points="479.4,244.8 481.9,240.5 486.8,240.5 489.3,244.8 486.8,249 481.9,249 		"/>
		<polygon class="st0" points="479.4,256.7 481.9,252.4 486.8,252.4 489.3,256.7 486.8,260.9 481.9,260.9 		"/>
		<polygon class="st0" points="479.4,268.6 481.9,264.3 486.8,264.3 489.3,268.6 486.8,272.8 481.9,272.8 		"/>
		<polygon class="st0" points="479.4,280.5 481.9,276.2 486.8,276.2 489.3,280.5 486.8,284.7 481.9,284.7 		"/>
		<polygon class="st0" points="479.4,292.4 481.9,288.1 486.8,288.1 489.3,292.4 486.8,296.6 481.9,296.6 		"/>
		<polygon class="st0" points="479.4,304.3 481.9,300 486.8,300 489.3,304.3 486.8,308.5 481.9,308.5 		"/>
		<polygon class="st0" points="479.4,316.2 481.9,311.9 486.8,311.9 489.3,316.2 486.8,320.4 481.9,320.4 		"/>
		<polygon class="st0" points="479.4,328.1 481.9,323.8 486.8,323.8 489.3,328.1 486.8,332.3 481.9,332.3 		"/>
		<polygon class="st0" points="479.4,340 481.9,335.7 486.8,335.7 489.3,340 486.8,344.2 481.9,344.2 		"/>
		<polygon class="st0" points="479.4,351.9 481.9,347.6 486.8,347.6 489.3,351.9 486.8,356.1 481.9,356.1 		"/>
		<polygon class="st0" points="489.8,238.8 492.2,234.6 497.1,234.6 499.6,238.8 497.1,243.1 492.2,243.1 		"/>
		<polygon class="st0" points="489.8,250.7 492.2,246.5 497.1,246.5 499.6,250.7 497.1,255 492.2,255 		"/>
		<polygon class="st0" points="489.8,262.6 492.2,258.4 497.1,258.4 499.6,262.6 497.1,266.9 492.2,266.9 		"/>
		<polygon class="st0" points="489.8,274.5 492.2,270.3 497.1,270.3 499.6,274.5 497.1,278.8 492.2,278.8 		"/>
		<polygon class="st0" points="489.8,286.4 492.2,282.2 497.1,282.2 499.6,286.4 497.1,290.7 492.2,290.7 		"/>
		<polygon class="st0" points="489.8,298.3 492.2,294.1 497.1,294.1 499.6,298.3 497.1,302.6 492.2,302.6 		"/>
		<polygon class="st0" points="489.8,310.2 492.2,306 497.1,306 499.6,310.2 497.1,314.5 492.2,314.5 		"/>
		<polygon class="st0" points="489.8,322.1 492.2,317.9 497.1,317.9 499.6,322.1 497.1,326.4 492.2,326.4 		"/>
		<polygon class="st0" points="489.8,334 492.2,329.8 497.1,329.8 499.6,334 497.1,338.3 492.2,338.3 		"/>
		<polygon class="st0" points="489.8,345.9 492.2,341.7 497.1,341.7 499.6,345.9 497.1,350.2 492.2,350.2 		"/>
		<polygon class="st0" points="541.3,256.7 543.8,252.4 548.7,252.4 551.1,256.7 548.7,260.9 543.8,260.9 		"/>
		<polygon class="st0" points="541.3,268.6 543.8,264.3 548.7,264.3 551.1,268.6 548.7,272.8 543.8,272.8 		"/>
		<polygon class="st0" points="541.3,280.5 543.8,276.2 548.7,276.2 551.1,280.5 548.7,284.7 543.8,284.7 		"/>
		<polygon class="st0" points="541.3,292.4 543.8,288.1 548.7,288.1 551.1,292.4 548.7,296.6 543.8,296.6 		"/>
		<polygon class="st0" points="541.3,304.3 543.8,300 548.7,300 551.1,304.3 548.7,308.5 543.8,308.5 		"/>
		<polygon class="st0" points="541.3,316.2 543.8,311.9 548.7,311.9 551.1,316.2 548.7,320.4 543.8,320.4 		"/>
		<polygon class="st0" points="551.7,274.5 554.2,270.3 559.1,270.3 561.6,274.5 559.1,278.8 554.2,278.8 		"/>
		<polygon class="st0" points="551.7,286.4 554.2,282.2 559.1,282.2 561.6,286.4 559.1,290.7 554.2,290.7 		"/>
		<polygon class="st0" points="551.7,298.3 554.2,294.1 559.1,294.1 561.6,298.3 559.1,302.6 554.2,302.6 		"/>
		<polygon class="st0" points="551.7,310.2 554.2,306 559.1,306 561.6,310.2 559.1,314.5 554.2,314.5 		"/>
		<polygon class="st0" points="562,292.4 564.5,288.1 569.4,288.1 571.9,292.4 569.4,296.6 564.5,296.6 		"/>
		<polygon class="st0" points="562,304.3 564.5,300 569.4,300 571.9,304.3 569.4,308.5 564.5,308.5 		"/>
	</g>
</g>
<g id="Layer_2">
</g>
</svg>
