<?xml version="1.0" encoding="utf-8"?>
<!-- Generator: Adobe Illustrator 26.0.3, SVG Export Plug-In . SVG Version: 6.00 Build 0)  -->
<svg version="1.1" xmlns="http://www.w3.org/2000/svg" xmlns:xlink="http://www.w3.org/1999/xlink" x="0px" y="0px"
	 viewBox="0 0 649.1 418.1" style="enable-background:new 0 0 649.1 418.1;" xml:space="preserve">
<style type="text/css">
	.st0{fill:none;stroke:#FF00FF;stroke-width:2.834646e-02;stroke-miterlimit:10;}
</style>
<g id="Layer_1">
	<g>
		<polygon class="st0" points="61.8,146.9 64.3,142.6 69.2,142.6 71.6,146.9 69.2,151.1 64.3,151.1 		"/>
		<polygon class="st0" points="72.1,140.9 74.6,136.7 79.5,136.7 81.9,140.9 79.5,145.2 74.6,145.2 		"/>
		<polygon class="st0" points="72.1,152.8 74.6,148.6 79.5,148.6 81.9,152.8 79.5,157.1 74.6,157.1 		"/>
		<polygon class="st0" points="82.4,146.9 84.9,142.6 89.8,142.6 92.2,146.9 89.8,151.1 84.9,151.1 		"/>
		<polygon class="st0" points="82.4,158.8 84.9,154.5 89.8,154.5 92.2,158.8 89.8,163 84.9,163 		"/>
		<polygon class="st0" points="82.4,218.3 84.9,214 89.8,214 92.2,218.3 89.8,222.5 84.9,222.5 		"/>
		<polygon class="st0" points="82.4,230.2 84.9,225.9 89.8,225.9 92.2,230.2 89.8,234.4 84.9,234.4 		"/>
		<polygon class="st0" points="82.4,123.1 84.9,118.8 89.8,118.8 92.2,123.1 89.8,127.3 84.9,127.3 		"/>
		<polygon class="st0" points="92.7,129 95.2,124.8 100.1,124.8 102.6,129 100.1,133.3 95.2,133.3 		"/>
		<polygon class="st0" points="92.7,140.9 95.2,136.7 100.1,136.7 102.6,140.9 100.1,145.2 95.2,145.2 		"/>
		<polygon class="st0" points="92.7,152.8 95.2,148.6 100.1,148.6 102.6,152.8 100.1,157.1 95.2,157.1 		"/>
		<polygon class="st0" points="92.7,164.7 95.2,160.5 100.1,160.5 102.6,164.7 100.1,169 95.2,169 		"/>
		<polygon class="st0" points="92.7,224.2 95.2,220 100.1,220 102.6,224.2 100.1,228.5 95.2,228.5 		"/>
		<polygon class="st0" points="92.7,236.1 95.2,231.9 100.1,231.9 102.6,236.1 100.1,240.4 95.2,240.4 		"/>
		<polygon class="st0" points="92.7,93.3 95.2,89.1 100.1,89.1 102.6,93.3 100.1,97.6 95.2,97.6 		"/>
		<polygon class="st0" points="92.7,105.2 95.2,101 100.1,101 102.6,105.2 100.1,109.5 95.2,109.5 		"/>
		<polygon class="st0" points="103,135 105.5,130.7 110.4,130.7 112.9,135 110.4,139.2 105.5,139.2 		"/>
		<polygon class="st0" points="103,146.9 105.5,142.6 110.4,142.6 112.9,146.9 110.4,151.1 105.5,151.1 		"/>
		<polygon class="st0" points="103,158.8 105.5,154.5 110.4,154.5 112.9,158.8 110.4,163 105.5,163 		"/>
		<polygon class="st0" points="103,218.3 105.5,214 110.4,214 112.9,218.3 110.4,222.5 105.5,222.5 		"/>
		<polygon class="st0" points="103,230.2 105.5,225.9 110.4,225.9 112.9,230.2 110.4,234.4 105.5,234.4 		"/>
		<polygon class="st0" points="103,99.3 105.5,95 110.4,95 112.9,99.3 110.4,103.5 105.5,103.5 		"/>
		<polygon class="st0" points="103,111.2 105.5,106.9 110.4,106.9 112.9,111.2 110.4,115.4 105.5,115.4 		"/>
		<polygon class="st0" points="103,75.5 105.5,71.2 110.4,71.2 112.9,75.5 110.4,79.7 105.5,79.7 		"/>
		<polygon class="st0" points="113.4,129 115.8,124.8 120.7,124.8 123.2,129 120.7,133.3 115.8,133.3 		"/>
		<polygon class="st0" points="113.4,140.9 115.8,136.7 120.7,136.7 123.2,140.9 120.7,145.2 115.8,145.2 		"/>
		<polygon class="st0" points="113.4,152.8 115.8,148.6 120.7,148.6 123.2,152.8 120.7,157.1 115.8,157.1 		"/>
		<polygon class="st0" points="113.4,224.2 115.8,220 120.7,220 123.2,224.2 120.7,228.5 115.8,228.5 		"/>
		<polygon class="st0" points="113.4,81.4 115.8,77.2 120.7,77.2 123.2,81.4 120.7,85.7 115.8,85.7 		"/>
		<polygon class="st0" points="113.4,93.3 115.8,89.1 120.7,89.1 123.2,93.3 120.7,97.6 115.8,97.6 		"/>
		<polygon class="st0" points="113.4,105.2 115.8,101 120.7,101 123.2,105.2 120.7,109.5 115.8,109.5 		"/>
		<polygon class="st0" points="113.4,117.1 115.8,112.9 120.7,112.9 123.2,117.1 120.7,121.4 115.8,121.4 		"/>
		<polygon class="st0" points="123.7,135 126.1,130.7 131,130.7 133.5,135 131,139.2 126.1,139.2 		"/>
		<polygon class="st0" points="123.7,146.9 126.1,142.6 131,142.6 133.5,146.9 131,151.1 126.1,151.1 		"/>
		<polygon class="st0" points="123.7,206.4 126.1,202.1 131,202.1 133.5,206.4 131,210.6 126.1,210.6 		"/>
		<polygon class="st0" points="123.7,218.3 126.1,214 131,214 133.5,218.3 131,222.5 126.1,222.5 		"/>
		<polygon class="st0" points="123.7,230.2 126.1,225.9 131,225.9 133.5,230.2 131,234.4 126.1,234.4 		"/>
		<polygon class="st0" points="123.7,87.4 126.1,83.1 131,83.1 133.5,87.4 131,91.6 126.1,91.6 		"/>
		<polygon class="st0" points="123.7,99.3 126.1,95 131,95 133.5,99.3 131,103.5 126.1,103.5 		"/>
		<polygon class="st0" points="123.7,111.2 126.1,106.9 131,106.9 133.5,111.2 131,115.4 126.1,115.4 		"/>
		<polygon class="st0" points="123.7,123.1 126.1,118.8 131,118.8 133.5,123.1 131,127.3 126.1,127.3 		"/>
		<polygon class="st0" points="123.7,51.6 126.1,47.4 131,47.4 133.5,51.6 131,55.9 126.1,55.9 		"/>
		<polygon class="st0" points="134,129 136.4,124.8 141.3,124.8 143.8,129 141.3,133.3 136.4,133.3 		"/>
		<polygon class="st0" points="134,140.9 136.4,136.7 141.3,136.7 143.8,140.9 141.3,145.2 136.4,145.2 		"/>
		<polygon class="st0" points="134,212.3 136.4,208.1 141.3,208.1 143.8,212.3 141.3,216.6 136.4,216.6 		"/>
		<polygon class="st0" points="134,224.2 136.4,220 141.3,220 143.8,224.2 141.3,228.5 136.4,228.5 		"/>
		<polygon class="st0" points="134,93.3 136.4,89.1 141.3,89.1 143.8,93.3 141.3,97.6 136.4,97.6 		"/>
		<polygon class="st0" points="134,105.2 136.4,101 141.3,101 143.8,105.2 141.3,109.5 136.4,109.5 		"/>
		<polygon class="st0" points="134,117.1 136.4,112.9 141.3,112.9 143.8,117.1 141.3,121.4 136.4,121.4 		"/>
		<polygon class="st0" points="134,45.7 136.4,41.4 141.3,41.4 143.8,45.7 141.3,49.9 136.4,49.9 		"/>
		<polygon class="st0" points="134,57.6 136.4,53.3 141.3,53.3 143.8,57.6 141.3,61.9 136.4,61.9 		"/>
		<polygon class="st0" points="144.3,135 146.7,130.7 151.7,130.7 154.1,135 151.7,139.2 146.7,139.2 		"/>
		<polygon class="st0" points="144.3,146.9 146.7,142.6 151.7,142.6 154.1,146.9 151.7,151.1 146.7,151.1 		"/>
		<polygon class="st0" points="144.3,206.4 146.7,202.1 151.7,202.1 154.1,206.4 151.7,210.6 146.7,210.6 		"/>
		<polygon class="st0" points="144.3,218.3 146.7,214 151.7,214 154.1,218.3 151.7,222.5 146.7,222.5 		"/>
		<polygon class="st0" points="144.3,230.2 146.7,225.9 151.7,225.9 154.1,230.2 151.7,234.4 146.7,234.4 		"/>
		<polygon class="st0" points="144.3,313.5 146.7,309.3 151.7,309.3 154.1,313.5 151.7,317.8 146.7,317.8 		"/>
		<polygon class="st0" points="144.3,325.4 146.7,321.2 151.7,321.2 154.1,325.4 151.7,329.7 146.7,329.7 		"/>
		<polygon class="st0" points="144.3,337.3 146.7,333.1 151.7,333.1 154.1,337.3 151.7,341.6 146.7,341.6 		"/>
		<polygon class="st0" points="144.3,99.3 146.7,95 151.7,95 154.1,99.3 151.7,103.5 146.7,103.5 		"/>
		<polygon class="st0" points="144.3,111.2 146.7,106.9 151.7,106.9 154.1,111.2 151.7,115.4 146.7,115.4 		"/>
		<polygon class="st0" points="144.3,123.1 146.7,118.8 151.7,118.8 154.1,123.1 151.7,127.3 146.7,127.3 		"/>
		<polygon class="st0" points="144.3,51.6 146.7,47.4 151.7,47.4 154.1,51.6 151.7,55.9 146.7,55.9 		"/>
		<polygon class="st0" points="144.3,75.5 146.7,71.2 151.7,71.2 154.1,75.5 151.7,79.7 146.7,79.7 		"/>
		<polygon class="st0" points="154.6,129 157.1,124.8 162,124.8 164.4,129 162,133.3 157.1,133.3 		"/>
		<polygon class="st0" points="154.6,140.9 157.1,136.7 162,136.7 164.4,140.9 162,145.2 157.1,145.2 		"/>
		<polygon class="st0" points="154.6,188.5 157.1,184.3 162,184.3 164.4,188.5 162,192.8 157.1,192.8 		"/>
		<polygon class="st0" points="154.6,212.3 157.1,208.1 162,208.1 164.4,212.3 162,216.6 157.1,216.6 		"/>
		<polygon class="st0" points="154.6,224.2 157.1,220 162,220 164.4,224.2 162,228.5 157.1,228.5 		"/>
		<polygon class="st0" points="154.6,319.5 157.1,315.2 162,315.2 164.4,319.5 162,323.7 157.1,323.7 		"/>
		<polygon class="st0" points="154.6,331.4 157.1,327.1 162,327.1 164.4,331.4 162,335.6 157.1,335.6 		"/>
		<polygon class="st0" points="154.6,81.4 157.1,77.2 162,77.2 164.4,81.4 162,85.7 157.1,85.7 		"/>
		<polygon class="st0" points="154.6,105.2 157.1,101 162,101 164.4,105.2 162,109.5 157.1,109.5 		"/>
		<polygon class="st0" points="154.6,117.1 157.1,112.9 162,112.9 164.4,117.1 162,121.4 157.1,121.4 		"/>
		<polygon class="st0" points="154.6,45.7 157.1,41.4 162,41.4 164.4,45.7 162,49.9 157.1,49.9 		"/>
		<polygon class="st0" points="154.6,57.6 157.1,53.3 162,53.3 164.4,57.6 162,61.9 157.1,61.9 		"/>
		<polygon class="st0" points="154.6,69.5 157.1,65.3 162,65.3 164.4,69.5 162,73.8 157.1,73.8 		"/>
		<polygon class="st0" points="164.9,135 167.4,130.7 172.3,130.7 174.7,135 172.3,139.2 167.4,139.2 		"/>
		<polygon class="st0" points="164.9,146.9 167.4,142.6 172.3,142.6 174.7,146.9 172.3,151.1 167.4,151.1 		"/>
		<polygon class="st0" points="164.9,158.8 167.4,154.5 172.3,154.5 174.7,158.8 172.3,163 167.4,163 		"/>
		<polygon class="st0" points="164.9,182.6 167.4,178.3 172.3,178.3 174.7,182.6 172.3,186.8 167.4,186.8 		"/>
		<polygon class="st0" points="164.9,194.5 167.4,190.2 172.3,190.2 174.7,194.5 172.3,198.7 167.4,198.7 		"/>
		<polygon class="st0" points="164.9,218.3 167.4,214 172.3,214 174.7,218.3 172.3,222.5 167.4,222.5 		"/>
		<polygon class="st0" points="164.9,230.2 167.4,225.9 172.3,225.9 174.7,230.2 172.3,234.4 167.4,234.4 		"/>
		<polygon class="st0" points="164.9,242.1 167.4,237.8 172.3,237.8 174.7,242.1 172.3,246.3 167.4,246.3 		"/>
		<polygon class="st0" points="164.9,254 167.4,249.7 172.3,249.7 174.7,254 172.3,258.3 167.4,258.3 		"/>
		<polygon class="st0" points="164.9,325.4 167.4,321.2 172.3,321.2 174.7,325.4 172.3,329.7 167.4,329.7 		"/>
		<polygon class="st0" points="164.9,337.3 167.4,333.1 172.3,333.1 174.7,337.3 172.3,341.6 167.4,341.6 		"/>
		<polygon class="st0" points="164.9,87.4 167.4,83.1 172.3,83.1 174.7,87.4 172.3,91.6 167.4,91.6 		"/>
		<polygon class="st0" points="164.9,99.3 167.4,95 172.3,95 174.7,99.3 172.3,103.5 167.4,103.5 		"/>
		<polygon class="st0" points="164.9,111.2 167.4,106.9 172.3,106.9 174.7,111.2 172.3,115.4 167.4,115.4 		"/>
		<polygon class="st0" points="164.9,123.1 167.4,118.8 172.3,118.8 174.7,123.1 172.3,127.3 167.4,127.3 		"/>
		<polygon class="st0" points="164.9,51.6 167.4,47.4 172.3,47.4 174.7,51.6 172.3,55.9 167.4,55.9 		"/>
		<polygon class="st0" points="164.9,63.6 167.4,59.3 172.3,59.3 174.7,63.6 172.3,67.8 167.4,67.8 		"/>
		<polygon class="st0" points="164.9,75.5 167.4,71.2 172.3,71.2 174.7,75.5 172.3,79.7 167.4,79.7 		"/>
		<polygon class="st0" points="175.2,129 177.7,124.8 182.6,124.8 185.1,129 182.6,133.3 177.7,133.3 		"/>
		<polygon class="st0" points="175.2,140.9 177.7,136.7 182.6,136.7 185.1,140.9 182.6,145.2 177.7,145.2 		"/>
		<polygon class="st0" points="175.2,152.8 177.7,148.6 182.6,148.6 185.1,152.8 182.6,157.1 177.7,157.1 		"/>
		<polygon class="st0" points="175.2,176.6 177.7,172.4 182.6,172.4 185.1,176.6 182.6,180.9 177.7,180.9 		"/>
		<polygon class="st0" points="175.2,188.5 177.7,184.3 182.6,184.3 185.1,188.5 182.6,192.8 177.7,192.8 		"/>
		<polygon class="st0" points="175.2,212.3 177.7,208.1 182.6,208.1 185.1,212.3 182.6,216.6 177.7,216.6 		"/>
		<polygon class="st0" points="175.2,224.2 177.7,220 182.6,220 185.1,224.2 182.6,228.5 177.7,228.5 		"/>
		<polygon class="st0" points="175.2,236.1 177.7,231.9 182.6,231.9 185.1,236.1 182.6,240.4 177.7,240.4 		"/>
		<polygon class="st0" points="175.2,248 177.7,243.8 182.6,243.8 185.1,248 182.6,252.3 177.7,252.3 		"/>
		<polygon class="st0" points="175.2,271.9 177.7,267.6 182.6,267.6 185.1,271.9 182.6,276.1 177.7,276.1 		"/>
		<polygon class="st0" points="175.2,283.8 177.7,279.5 182.6,279.5 185.1,283.8 182.6,288 177.7,288 		"/>
		<polygon class="st0" points="175.2,307.6 177.7,303.3 182.6,303.3 185.1,307.6 182.6,311.8 177.7,311.8 		"/>
		<polygon class="st0" points="175.2,319.5 177.7,315.2 182.6,315.2 185.1,319.5 182.6,323.7 177.7,323.7 		"/>
		<polygon class="st0" points="175.2,331.4 177.7,327.1 182.6,327.1 185.1,331.4 182.6,335.6 177.7,335.6 		"/>
		<polygon class="st0" points="175.2,81.4 177.7,77.2 182.6,77.2 185.1,81.4 182.6,85.7 177.7,85.7 		"/>
		<polygon class="st0" points="175.2,93.3 177.7,89.1 182.6,89.1 185.1,93.3 182.6,97.6 177.7,97.6 		"/>
		<polygon class="st0" points="175.2,105.2 177.7,101 182.6,101 185.1,105.2 182.6,109.5 177.7,109.5 		"/>
		<polygon class="st0" points="175.2,117.1 177.7,112.9 182.6,112.9 185.1,117.1 182.6,121.4 177.7,121.4 		"/>
		<polygon class="st0" points="175.2,69.5 177.7,65.3 182.6,65.3 185.1,69.5 182.6,73.8 177.7,73.8 		"/>
		<polygon class="st0" points="185.5,135 188,130.7 192.9,130.7 195.4,135 192.9,139.2 188,139.2 		"/>
		<polygon class="st0" points="185.5,146.9 188,142.6 192.9,142.6 195.4,146.9 192.9,151.1 188,151.1 		"/>
		<polygon class="st0" points="185.5,170.7 188,166.4 192.9,166.4 195.4,170.7 192.9,174.9 188,174.9 		"/>
		<polygon class="st0" points="185.5,182.6 188,178.3 192.9,178.3 195.4,182.6 192.9,186.8 188,186.8 		"/>
		<polygon class="st0" points="185.5,218.3 188,214 192.9,214 195.4,218.3 192.9,222.5 188,222.5 		"/>
		<polygon class="st0" points="185.5,230.2 188,225.9 192.9,225.9 195.4,230.2 192.9,234.4 188,234.4 		"/>
		<polygon class="st0" points="185.5,242.1 188,237.8 192.9,237.8 195.4,242.1 192.9,246.3 188,246.3 		"/>
		<polygon class="st0" points="185.5,254 188,249.7 192.9,249.7 195.4,254 192.9,258.3 188,258.3 		"/>
		<polygon class="st0" points="185.5,265.9 188,261.6 192.9,261.6 195.4,265.9 192.9,270.2 188,270.2 		"/>
		<polygon class="st0" points="185.5,277.8 188,273.6 192.9,273.6 195.4,277.8 192.9,282.1 188,282.1 		"/>
		<polygon class="st0" points="185.5,301.6 188,297.4 192.9,297.4 195.4,301.6 192.9,305.9 188,305.9 		"/>
		<polygon class="st0" points="185.5,313.5 188,309.3 192.9,309.3 195.4,313.5 192.9,317.8 188,317.8 		"/>
		<polygon class="st0" points="185.5,325.4 188,321.2 192.9,321.2 195.4,325.4 192.9,329.7 188,329.7 		"/>
		<polygon class="st0" points="185.5,337.3 188,333.1 192.9,333.1 195.4,337.3 192.9,341.6 188,341.6 		"/>
		<polygon class="st0" points="185.5,87.4 188,83.1 192.9,83.1 195.4,87.4 192.9,91.6 188,91.6 		"/>
		<polygon class="st0" points="185.5,99.3 188,95 192.9,95 195.4,99.3 192.9,103.5 188,103.5 		"/>
		<polygon class="st0" points="185.5,111.2 188,106.9 192.9,106.9 195.4,111.2 192.9,115.4 188,115.4 		"/>
		<polygon class="st0" points="185.5,123.1 188,118.8 192.9,118.8 195.4,123.1 192.9,127.3 188,127.3 		"/>
		<polygon class="st0" points="185.5,75.5 188,71.2 192.9,71.2 195.4,75.5 192.9,79.7 188,79.7 		"/>
		<polygon class="st0" points="195.9,140.9 198.3,136.7 203.2,136.7 205.7,140.9 203.2,145.2 198.3,145.2 		"/>
		<polygon class="st0" points="195.9,152.8 198.3,148.6 203.2,148.6 205.7,152.8 203.2,157.1 198.3,157.1 		"/>
		<polygon class="st0" points="195.9,164.7 198.3,160.5 203.2,160.5 205.7,164.7 203.2,169 198.3,169 		"/>
		<polygon class="st0" points="195.9,176.6 198.3,172.4 203.2,172.4 205.7,176.6 203.2,180.9 198.3,180.9 		"/>
		<polygon class="st0" points="195.9,188.5 198.3,184.3 203.2,184.3 205.7,188.5 203.2,192.8 198.3,192.8 		"/>
		<polygon class="st0" points="195.9,200.4 198.3,196.2 203.2,196.2 205.7,200.4 203.2,204.7 198.3,204.7 		"/>
		<polygon class="st0" points="195.9,212.3 198.3,208.1 203.2,208.1 205.7,212.3 203.2,216.6 198.3,216.6 		"/>
		<polygon class="st0" points="195.9,224.2 198.3,220 203.2,220 205.7,224.2 203.2,228.5 198.3,228.5 		"/>
		<polygon class="st0" points="195.9,236.1 198.3,231.9 203.2,231.9 205.7,236.1 203.2,240.4 198.3,240.4 		"/>
		<polygon class="st0" points="195.9,248 198.3,243.8 203.2,243.8 205.7,248 203.2,252.3 198.3,252.3 		"/>
		<polygon class="st0" points="195.9,260 198.3,255.7 203.2,255.7 205.7,260 203.2,264.2 198.3,264.2 		"/>
		<polygon class="st0" points="195.9,271.9 198.3,267.6 203.2,267.6 205.7,271.9 203.2,276.1 198.3,276.1 		"/>
		<polygon class="st0" points="195.9,295.7 198.3,291.4 203.2,291.4 205.7,295.7 203.2,299.9 198.3,299.9 		"/>
		<polygon class="st0" points="195.9,307.6 198.3,303.3 203.2,303.3 205.7,307.6 203.2,311.8 198.3,311.8 		"/>
		<polygon class="st0" points="195.9,319.5 198.3,315.2 203.2,315.2 205.7,319.5 203.2,323.7 198.3,323.7 		"/>
		<polygon class="st0" points="195.9,331.4 198.3,327.1 203.2,327.1 205.7,331.4 203.2,335.6 198.3,335.6 		"/>
		<polygon class="st0" points="195.9,93.3 198.3,89.1 203.2,89.1 205.7,93.3 203.2,97.6 198.3,97.6 		"/>
		<polygon class="st0" points="195.9,105.2 198.3,101 203.2,101 205.7,105.2 203.2,109.5 198.3,109.5 		"/>
		<polygon class="st0" points="195.9,117.1 198.3,112.9 203.2,112.9 205.7,117.1 203.2,121.4 198.3,121.4 		"/>
		<polygon class="st0" points="206.2,146.9 208.6,142.6 213.5,142.6 216,146.9 213.5,151.1 208.6,151.1 		"/>
		<polygon class="st0" points="206.2,158.8 208.6,154.5 213.5,154.5 216,158.8 213.5,163 208.6,163 		"/>
		<polygon class="st0" points="206.2,170.7 208.6,166.4 213.5,166.4 216,170.7 213.5,174.9 208.6,174.9 		"/>
		<polygon class="st0" points="206.2,182.6 208.6,178.3 213.5,178.3 216,182.6 213.5,186.8 208.6,186.8 		"/>
		<polygon class="st0" points="206.2,194.5 208.6,190.2 213.5,190.2 216,194.5 213.5,198.7 208.6,198.7 		"/>
		<polygon class="st0" points="206.2,206.4 208.6,202.1 213.5,202.1 216,206.4 213.5,210.6 208.6,210.6 		"/>
		<polygon class="st0" points="206.2,218.3 208.6,214 213.5,214 216,218.3 213.5,222.5 208.6,222.5 		"/>
		<polygon class="st0" points="206.2,230.2 208.6,225.9 213.5,225.9 216,230.2 213.5,234.4 208.6,234.4 		"/>
		<polygon class="st0" points="206.2,242.1 208.6,237.8 213.5,237.8 216,242.1 213.5,246.3 208.6,246.3 		"/>
		<polygon class="st0" points="206.2,254 208.6,249.7 213.5,249.7 216,254 213.5,258.3 208.6,258.3 		"/>
		<polygon class="st0" points="206.2,265.9 208.6,261.6 213.5,261.6 216,265.9 213.5,270.2 208.6,270.2 		"/>
		<polygon class="st0" points="206.2,277.8 208.6,273.6 213.5,273.6 216,277.8 213.5,282.1 208.6,282.1 		"/>
		<polygon class="st0" points="206.2,289.7 208.6,285.5 213.5,285.5 216,289.7 213.5,294 208.6,294 		"/>
		<polygon class="st0" points="206.2,301.6 208.6,297.4 213.5,297.4 216,301.6 213.5,305.9 208.6,305.9 		"/>
		<polygon class="st0" points="206.2,313.5 208.6,309.3 213.5,309.3 216,313.5 213.5,317.8 208.6,317.8 		"/>
		<polygon class="st0" points="206.2,325.4 208.6,321.2 213.5,321.2 216,325.4 213.5,329.7 208.6,329.7 		"/>
		<polygon class="st0" points="206.2,87.4 208.6,83.1 213.5,83.1 216,87.4 213.5,91.6 208.6,91.6 		"/>
		<polygon class="st0" points="206.2,111.2 208.6,106.9 213.5,106.9 216,111.2 213.5,115.4 208.6,115.4 		"/>
		<polygon class="st0" points="206.2,123.1 208.6,118.8 213.5,118.8 216,123.1 213.5,127.3 208.6,127.3 		"/>
		<polygon class="st0" points="216.5,176.6 218.9,172.4 223.8,172.4 226.3,176.6 223.8,180.9 218.9,180.9 		"/>
		<polygon class="st0" points="216.5,188.5 218.9,184.3 223.8,184.3 226.3,188.5 223.8,192.8 218.9,192.8 		"/>
		<polygon class="st0" points="216.5,200.4 218.9,196.2 223.8,196.2 226.3,200.4 223.8,204.7 218.9,204.7 		"/>
		<polygon class="st0" points="216.5,212.3 218.9,208.1 223.8,208.1 226.3,212.3 223.8,216.6 218.9,216.6 		"/>
		<polygon class="st0" points="216.5,224.2 218.9,220 223.8,220 226.3,224.2 223.8,228.5 218.9,228.5 		"/>
		<polygon class="st0" points="216.5,236.1 218.9,231.9 223.8,231.9 226.3,236.1 223.8,240.4 218.9,240.4 		"/>
		<polygon class="st0" points="216.5,248 218.9,243.8 223.8,243.8 226.3,248 223.8,252.3 218.9,252.3 		"/>
		<polygon class="st0" points="216.5,260 218.9,255.7 223.8,255.7 226.3,260 223.8,264.2 218.9,264.2 		"/>
		<polygon class="st0" points="216.5,271.9 218.9,267.6 223.8,267.6 226.3,271.9 223.8,276.1 218.9,276.1 		"/>
		<polygon class="st0" points="216.5,283.8 218.9,279.5 223.8,279.5 226.3,283.8 223.8,288 218.9,288 		"/>
		<polygon class="st0" points="216.5,295.7 218.9,291.4 223.8,291.4 226.3,295.7 223.8,299.9 218.9,299.9 		"/>
		<polygon class="st0" points="216.5,307.6 218.9,303.3 223.8,303.3 226.3,307.6 223.8,311.8 218.9,311.8 		"/>
		<polygon class="st0" points="216.5,319.5 218.9,315.2 223.8,315.2 226.3,319.5 223.8,323.7 218.9,323.7 		"/>
		<polygon class="st0" points="226.8,146.9 229.2,142.6 234.2,142.6 236.6,146.9 234.2,151.1 229.2,151.1 		"/>
		<polygon class="st0" points="226.8,158.8 229.2,154.5 234.2,154.5 236.6,158.8 234.2,163 229.2,163 		"/>
		<polygon class="st0" points="226.8,170.7 229.2,166.4 234.2,166.4 236.6,170.7 234.2,174.9 229.2,174.9 		"/>
		<polygon class="st0" points="226.8,182.6 229.2,178.3 234.2,178.3 236.6,182.6 234.2,186.8 229.2,186.8 		"/>
		<polygon class="st0" points="226.8,194.5 229.2,190.2 234.2,190.2 236.6,194.5 234.2,198.7 229.2,198.7 		"/>
		<polygon class="st0" points="226.8,206.4 229.2,202.1 234.2,202.1 236.6,206.4 234.2,210.6 229.2,210.6 		"/>
		<polygon class="st0" points="226.8,218.3 229.2,214 234.2,214 236.6,218.3 234.2,222.5 229.2,222.5 		"/>
		<polygon class="st0" points="226.8,230.2 229.2,225.9 234.2,225.9 236.6,230.2 234.2,234.4 229.2,234.4 		"/>
		<polygon class="st0" points="226.8,242.1 229.2,237.8 234.2,237.8 236.6,242.1 234.2,246.3 229.2,246.3 		"/>
		<polygon class="st0" points="226.8,254 229.2,249.7 234.2,249.7 236.6,254 234.2,258.3 229.2,258.3 		"/>
		<polygon class="st0" points="226.8,265.9 229.2,261.6 234.2,261.6 236.6,265.9 234.2,270.2 229.2,270.2 		"/>
		<polygon class="st0" points="226.8,277.8 229.2,273.6 234.2,273.6 236.6,277.8 234.2,282.1 229.2,282.1 		"/>
		<polygon class="st0" points="226.8,289.7 229.2,285.5 234.2,285.5 236.6,289.7 234.2,294 229.2,294 		"/>
		<polygon class="st0" points="226.8,301.6 229.2,297.4 234.2,297.4 236.6,301.6 234.2,305.9 229.2,305.9 		"/>
		<polygon class="st0" points="226.8,313.5 229.2,309.3 234.2,309.3 236.6,313.5 234.2,317.8 229.2,317.8 		"/>
		<polygon class="st0" points="226.8,325.4 229.2,321.2 234.2,321.2 236.6,325.4 234.2,329.7 229.2,329.7 		"/>
		<polygon class="st0" points="226.8,337.3 229.2,333.1 234.2,333.1 236.6,337.3 234.2,341.6 229.2,341.6 		"/>
		<polygon class="st0" points="237.1,140.9 239.6,136.7 244.5,136.7 246.9,140.9 244.5,145.2 239.6,145.2 		"/>
		<polygon class="st0" points="237.1,152.8 239.6,148.6 244.5,148.6 246.9,152.8 244.5,157.1 239.6,157.1 		"/>
		<polygon class="st0" points="237.1,164.7 239.6,160.5 244.5,160.5 246.9,164.7 244.5,169 239.6,169 		"/>
		<polygon class="st0" points="237.1,176.6 239.6,172.4 244.5,172.4 246.9,176.6 244.5,180.9 239.6,180.9 		"/>
		<polygon class="st0" points="237.1,188.5 239.6,184.3 244.5,184.3 246.9,188.5 244.5,192.8 239.6,192.8 		"/>
		<polygon class="st0" points="237.1,200.4 239.6,196.2 244.5,196.2 246.9,200.4 244.5,204.7 239.6,204.7 		"/>
		<polygon class="st0" points="237.1,212.3 239.6,208.1 244.5,208.1 246.9,212.3 244.5,216.6 239.6,216.6 		"/>
		<polygon class="st0" points="237.1,224.2 239.6,220 244.5,220 246.9,224.2 244.5,228.5 239.6,228.5 		"/>
		<polygon class="st0" points="237.1,236.1 239.6,231.9 244.5,231.9 246.9,236.1 244.5,240.4 239.6,240.4 		"/>
		<polygon class="st0" points="237.1,248 239.6,243.8 244.5,243.8 246.9,248 244.5,252.3 239.6,252.3 		"/>
		<polygon class="st0" points="237.1,260 239.6,255.7 244.5,255.7 246.9,260 244.5,264.2 239.6,264.2 		"/>
		<polygon class="st0" points="237.1,271.9 239.6,267.6 244.5,267.6 246.9,271.9 244.5,276.1 239.6,276.1 		"/>
		<polygon class="st0" points="237.1,283.8 239.6,279.5 244.5,279.5 246.9,283.8 244.5,288 239.6,288 		"/>
		<polygon class="st0" points="237.1,295.7 239.6,291.4 244.5,291.4 246.9,295.7 244.5,299.9 239.6,299.9 		"/>
		<polygon class="st0" points="237.1,307.6 239.6,303.3 244.5,303.3 246.9,307.6 244.5,311.8 239.6,311.8 		"/>
		<polygon class="st0" points="237.1,319.5 239.6,315.2 244.5,315.2 246.9,319.5 244.5,323.7 239.6,323.7 		"/>
		<polygon class="st0" points="237.1,331.4 239.6,327.1 244.5,327.1 246.9,331.4 244.5,335.6 239.6,335.6 		"/>
		<polygon class="st0" points="237.1,343.3 239.6,339 244.5,339 246.9,343.3 244.5,347.5 239.6,347.5 		"/>
		<polygon class="st0" points="268,135 270.5,130.7 275.4,130.7 277.9,135 275.4,139.2 270.5,139.2 		"/>
		<polygon class="st0" points="268,146.9 270.5,142.6 275.4,142.6 277.9,146.9 275.4,151.1 270.5,151.1 		"/>
		<polygon class="st0" points="268,158.8 270.5,154.5 275.4,154.5 277.9,158.8 275.4,163 270.5,163 		"/>
		<polygon class="st0" points="268,170.7 270.5,166.4 275.4,166.4 277.9,170.7 275.4,174.9 270.5,174.9 		"/>
		<polygon class="st0" points="268,182.6 270.5,178.3 275.4,178.3 277.9,182.6 275.4,186.8 270.5,186.8 		"/>
		<polygon class="st0" points="268,194.5 270.5,190.2 275.4,190.2 277.9,194.5 275.4,198.7 270.5,198.7 		"/>
		<polygon class="st0" points="268,206.4 270.5,202.1 275.4,202.1 277.9,206.4 275.4,210.6 270.5,210.6 		"/>
		<polygon class="st0" points="268,218.3 270.5,214 275.4,214 277.9,218.3 275.4,222.5 270.5,222.5 		"/>
		<polygon class="st0" points="268,230.2 270.5,225.9 275.4,225.9 277.9,230.2 275.4,234.4 270.5,234.4 		"/>
		<polygon class="st0" points="268,242.1 270.5,237.8 275.4,237.8 277.9,242.1 275.4,246.3 270.5,246.3 		"/>
		<polygon class="st0" points="268,254 270.5,249.7 275.4,249.7 277.9,254 275.4,258.3 270.5,258.3 		"/>
		<polygon class="st0" points="268,265.9 270.5,261.6 275.4,261.6 277.9,265.9 275.4,270.2 270.5,270.2 		"/>
		<polygon class="st0" points="268,277.8 270.5,273.6 275.4,273.6 277.9,277.8 275.4,282.1 270.5,282.1 		"/>
		<polygon class="st0" points="268,289.7 270.5,285.5 275.4,285.5 277.9,289.7 275.4,294 270.5,294 		"/>
		<polygon class="st0" points="268,301.6 270.5,297.4 275.4,297.4 277.9,301.6 275.4,305.9 270.5,305.9 		"/>
		<polygon class="st0" points="268,313.5 270.5,309.3 275.4,309.3 277.9,313.5 275.4,317.8 270.5,317.8 		"/>
		<polygon class="st0" points="268,325.4 270.5,321.2 275.4,321.2 277.9,325.4 275.4,329.7 270.5,329.7 		"/>
		<polygon class="st0" points="268,337.3 270.5,333.1 275.4,333.1 277.9,337.3 275.4,341.6 270.5,341.6 		"/>
		<polygon class="st0" points="268,349.2 270.5,345 275.4,345 277.9,349.2 275.4,353.5 270.5,353.5 		"/>
		<polygon class="st0" points="268,361.1 270.5,356.9 275.4,356.9 277.9,361.1 275.4,365.4 270.5,365.4 		"/>
		<polygon class="st0" points="268,87.4 270.5,83.1 275.4,83.1 277.9,87.4 275.4,91.6 270.5,91.6 		"/>
		<polygon class="st0" points="268,99.3 270.5,95 275.4,95 277.9,99.3 275.4,103.5 270.5,103.5 		"/>
		<polygon class="st0" points="268,111.2 270.5,106.9 275.4,106.9 277.9,111.2 275.4,115.4 270.5,115.4 		"/>
		<polygon class="st0" points="268,123.1 270.5,118.8 275.4,118.8 277.9,123.1 275.4,127.3 270.5,127.3 		"/>
		<polygon class="st0" points="278.4,129 280.8,124.8 285.7,124.8 288.2,129 285.7,133.3 280.8,133.3 		"/>
		<polygon class="st0" points="278.4,140.9 280.8,136.7 285.7,136.7 288.2,140.9 285.7,145.2 280.8,145.2 		"/>
		<polygon class="st0" points="278.4,152.8 280.8,148.6 285.7,148.6 288.2,152.8 285.7,157.1 280.8,157.1 		"/>
		<polygon class="st0" points="278.4,164.7 280.8,160.5 285.7,160.5 288.2,164.7 285.7,169 280.8,169 		"/>
		<polygon class="st0" points="278.4,176.6 280.8,172.4 285.7,172.4 288.2,176.6 285.7,180.9 280.8,180.9 		"/>
		<polygon class="st0" points="278.4,188.5 280.8,184.3 285.7,184.3 288.2,188.5 285.7,192.8 280.8,192.8 		"/>
		<polygon class="st0" points="278.4,200.4 280.8,196.2 285.7,196.2 288.2,200.4 285.7,204.7 280.8,204.7 		"/>
		<polygon class="st0" points="278.4,212.3 280.8,208.1 285.7,208.1 288.2,212.3 285.7,216.6 280.8,216.6 		"/>
		<polygon class="st0" points="278.4,224.2 280.8,220 285.7,220 288.2,224.2 285.7,228.5 280.8,228.5 		"/>
		<polygon class="st0" points="278.4,236.1 280.8,231.9 285.7,231.9 288.2,236.1 285.7,240.4 280.8,240.4 		"/>
		<polygon class="st0" points="278.4,248 280.8,243.8 285.7,243.8 288.2,248 285.7,252.3 280.8,252.3 		"/>
		<polygon class="st0" points="278.4,260 280.8,255.7 285.7,255.7 288.2,260 285.7,264.2 280.8,264.2 		"/>
		<polygon class="st0" points="278.4,271.9 280.8,267.6 285.7,267.6 288.2,271.9 285.7,276.1 280.8,276.1 		"/>
		<polygon class="st0" points="278.4,283.8 280.8,279.5 285.7,279.5 288.2,283.8 285.7,288 280.8,288 		"/>
		<polygon class="st0" points="278.4,295.7 280.8,291.4 285.7,291.4 288.2,295.7 285.7,299.9 280.8,299.9 		"/>
		<polygon class="st0" points="278.4,307.6 280.8,303.3 285.7,303.3 288.2,307.6 285.7,311.8 280.8,311.8 		"/>
		<polygon class="st0" points="278.4,319.5 280.8,315.2 285.7,315.2 288.2,319.5 285.7,323.7 280.8,323.7 		"/>
		<polygon class="st0" points="278.4,331.4 280.8,327.1 285.7,327.1 288.2,331.4 285.7,335.6 280.8,335.6 		"/>
		<polygon class="st0" points="278.4,343.3 280.8,339 285.7,339 288.2,343.3 285.7,347.5 280.8,347.5 		"/>
		<polygon class="st0" points="278.4,355.2 280.8,350.9 285.7,350.9 288.2,355.2 285.7,359.4 280.8,359.4 		"/>
		<polygon class="st0" points="278.4,367.1 280.8,362.8 285.7,362.8 288.2,367.1 285.7,371.3 280.8,371.3 		"/>
		<polygon class="st0" points="278.4,105.2 280.8,101 285.7,101 288.2,105.2 285.7,109.5 280.8,109.5 		"/>
		<polygon class="st0" points="278.4,117.1 280.8,112.9 285.7,112.9 288.2,117.1 285.7,121.4 280.8,121.4 		"/>
		<polygon class="st0" points="309.3,135 311.7,130.7 316.7,130.7 319.1,135 316.7,139.2 311.7,139.2 		"/>
		<polygon class="st0" points="309.3,146.9 311.7,142.6 316.7,142.6 319.1,146.9 316.7,151.1 311.7,151.1 		"/>
		<polygon class="st0" points="309.3,158.8 311.7,154.5 316.7,154.5 319.1,158.8 316.7,163 311.7,163 		"/>
		<polygon class="st0" points="309.3,170.7 311.7,166.4 316.7,166.4 319.1,170.7 316.7,174.9 311.7,174.9 		"/>
		<polygon class="st0" points="309.3,182.6 311.7,178.3 316.7,178.3 319.1,182.6 316.7,186.8 311.7,186.8 		"/>
		<polygon class="st0" points="309.3,194.5 311.7,190.2 316.7,190.2 319.1,194.5 316.7,198.7 311.7,198.7 		"/>
		<polygon class="st0" points="309.3,206.4 311.7,202.1 316.7,202.1 319.1,206.4 316.7,210.6 311.7,210.6 		"/>
		<polygon class="st0" points="309.3,218.3 311.7,214 316.7,214 319.1,218.3 316.7,222.5 311.7,222.5 		"/>
		<polygon class="st0" points="309.3,230.2 311.7,225.9 316.7,225.9 319.1,230.2 316.7,234.4 311.7,234.4 		"/>
		<polygon class="st0" points="309.3,242.1 311.7,237.8 316.7,237.8 319.1,242.1 316.7,246.3 311.7,246.3 		"/>
		<polygon class="st0" points="309.3,254 311.7,249.7 316.7,249.7 319.1,254 316.7,258.3 311.7,258.3 		"/>
		<polygon class="st0" points="309.3,265.9 311.7,261.6 316.7,261.6 319.1,265.9 316.7,270.2 311.7,270.2 		"/>
		<polygon class="st0" points="309.3,277.8 311.7,273.6 316.7,273.6 319.1,277.8 316.7,282.1 311.7,282.1 		"/>
		<polygon class="st0" points="309.3,289.7 311.7,285.5 316.7,285.5 319.1,289.7 316.7,294 311.7,294 		"/>
		<polygon class="st0" points="309.3,301.6 311.7,297.4 316.7,297.4 319.1,301.6 316.7,305.9 311.7,305.9 		"/>
		<polygon class="st0" points="309.3,313.5 311.7,309.3 316.7,309.3 319.1,313.5 316.7,317.8 311.7,317.8 		"/>
		<polygon class="st0" points="309.3,325.4 311.7,321.2 316.7,321.2 319.1,325.4 316.7,329.7 311.7,329.7 		"/>
		<polygon class="st0" points="309.3,337.3 311.7,333.1 316.7,333.1 319.1,337.3 316.7,341.6 311.7,341.6 		"/>
		<polygon class="st0" points="309.3,349.2 311.7,345 316.7,345 319.1,349.2 316.7,353.5 311.7,353.5 		"/>
		<polygon class="st0" points="309.3,361.1 311.7,356.9 316.7,356.9 319.1,361.1 316.7,365.4 311.7,365.4 		"/>
		<polygon class="st0" points="309.3,373 311.7,368.8 316.7,368.8 319.1,373 316.7,377.3 311.7,377.3 		"/>
		<polygon class="st0" points="309.3,87.4 311.7,83.1 316.7,83.1 319.1,87.4 316.7,91.6 311.7,91.6 		"/>
		<polygon class="st0" points="309.3,99.3 311.7,95 316.7,95 319.1,99.3 316.7,103.5 311.7,103.5 		"/>
		<polygon class="st0" points="309.3,111.2 311.7,106.9 316.7,106.9 319.1,111.2 316.7,115.4 311.7,115.4 		"/>
		<polygon class="st0" points="309.3,123.1 311.7,118.8 316.7,118.8 319.1,123.1 316.7,127.3 311.7,127.3 		"/>
		<polygon class="st0" points="319.6,129 322.1,124.8 327,124.8 329.4,129 327,133.3 322.1,133.3 		"/>
		<polygon class="st0" points="319.6,140.9 322.1,136.7 327,136.7 329.4,140.9 327,145.2 322.1,145.2 		"/>
		<polygon class="st0" points="319.6,152.8 322.1,148.6 327,148.6 329.4,152.8 327,157.1 322.1,157.1 		"/>
		<polygon class="st0" points="319.6,164.7 322.1,160.5 327,160.5 329.4,164.7 327,169 322.1,169 		"/>
		<polygon class="st0" points="319.6,176.6 322.1,172.4 327,172.4 329.4,176.6 327,180.9 322.1,180.9 		"/>
		<polygon class="st0" points="319.6,188.5 322.1,184.3 327,184.3 329.4,188.5 327,192.8 322.1,192.8 		"/>
		<polygon class="st0" points="319.6,200.4 322.1,196.2 327,196.2 329.4,200.4 327,204.7 322.1,204.7 		"/>
		<polygon class="st0" points="319.6,212.3 322.1,208.1 327,208.1 329.4,212.3 327,216.6 322.1,216.6 		"/>
		<polygon class="st0" points="319.6,224.2 322.1,220 327,220 329.4,224.2 327,228.5 322.1,228.5 		"/>
		<polygon class="st0" points="319.6,236.1 322.1,231.9 327,231.9 329.4,236.1 327,240.4 322.1,240.4 		"/>
		<polygon class="st0" points="319.6,248 322.1,243.8 327,243.8 329.4,248 327,252.3 322.1,252.3 		"/>
		<polygon class="st0" points="319.6,260 322.1,255.7 327,255.7 329.4,260 327,264.2 322.1,264.2 		"/>
		<polygon class="st0" points="319.6,271.9 322.1,267.6 327,267.6 329.4,271.9 327,276.1 322.1,276.1 		"/>
		<polygon class="st0" points="319.6,283.8 322.1,279.5 327,279.5 329.4,283.8 327,288 322.1,288 		"/>
		<polygon class="st0" points="319.6,295.7 322.1,291.4 327,291.4 329.4,295.7 327,299.9 322.1,299.9 		"/>
		<polygon class="st0" points="319.6,307.6 322.1,303.3 327,303.3 329.4,307.6 327,311.8 322.1,311.8 		"/>
		<polygon class="st0" points="319.6,319.5 322.1,315.2 327,315.2 329.4,319.5 327,323.7 322.1,323.7 		"/>
		<polygon class="st0" points="319.6,331.4 322.1,327.1 327,327.1 329.4,331.4 327,335.6 322.1,335.6 		"/>
		<polygon class="st0" points="319.6,343.3 322.1,339 327,339 329.4,343.3 327,347.5 322.1,347.5 		"/>
		<polygon class="st0" points="319.6,355.2 322.1,350.9 327,350.9 329.4,355.2 327,359.4 322.1,359.4 		"/>
		<polygon class="st0" points="319.6,367.1 322.1,362.8 327,362.8 329.4,367.1 327,371.3 322.1,371.3 		"/>
		<polygon class="st0" points="319.6,379 322.1,374.7 327,374.7 329.4,379 327,383.2 322.1,383.2 		"/>
		<polygon class="st0" points="319.6,81.4 322.1,77.2 327,77.2 329.4,81.4 327,85.7 322.1,85.7 		"/>
		<polygon class="st0" points="319.6,93.3 322.1,89.1 327,89.1 329.4,93.3 327,97.6 322.1,97.6 		"/>
		<polygon class="st0" points="319.6,105.2 322.1,101 327,101 329.4,105.2 327,109.5 322.1,109.5 		"/>
		<polygon class="st0" points="319.6,117.1 322.1,112.9 327,112.9 329.4,117.1 327,121.4 322.1,121.4 		"/>
		<polygon class="st0" points="350.5,135 353,130.7 357.9,130.7 360.4,135 357.9,139.2 353,139.2 		"/>
		<polygon class="st0" points="350.5,146.9 353,142.6 357.9,142.6 360.4,146.9 357.9,151.1 353,151.1 		"/>
		<polygon class="st0" points="350.5,158.8 353,154.5 357.9,154.5 360.4,158.8 357.9,163 353,163 		"/>
		<polygon class="st0" points="350.5,170.7 353,166.4 357.9,166.4 360.4,170.7 357.9,174.9 353,174.9 		"/>
		<polygon class="st0" points="350.5,182.6 353,178.3 357.9,178.3 360.4,182.6 357.9,186.8 353,186.8 		"/>
		<polygon class="st0" points="350.5,194.5 353,190.2 357.9,190.2 360.4,194.5 357.9,198.7 353,198.7 		"/>
		<polygon class="st0" points="350.5,206.4 353,202.1 357.9,202.1 360.4,206.4 357.9,210.6 353,210.6 		"/>
		<polygon class="st0" points="350.5,218.3 353,214 357.9,214 360.4,218.3 357.9,222.5 353,222.5 		"/>
		<polygon class="st0" points="350.5,230.2 353,225.9 357.9,225.9 360.4,230.2 357.9,234.4 353,234.4 		"/>
		<polygon class="st0" points="350.5,242.1 353,237.8 357.9,237.8 360.4,242.1 357.9,246.3 353,246.3 		"/>
		<polygon class="st0" points="350.5,254 353,249.7 357.9,249.7 360.4,254 357.9,258.3 353,258.3 		"/>
		<polygon class="st0" points="350.5,265.9 353,261.6 357.9,261.6 360.4,265.9 357.9,270.2 353,270.2 		"/>
		<polygon class="st0" points="350.5,277.8 353,273.6 357.9,273.6 360.4,277.8 357.9,282.1 353,282.1 		"/>
		<polygon class="st0" points="350.5,289.7 353,285.5 357.9,285.5 360.4,289.7 357.9,294 353,294 		"/>
		<polygon class="st0" points="350.5,301.6 353,297.4 357.9,297.4 360.4,301.6 357.9,305.9 353,305.9 		"/>
		<polygon class="st0" points="350.5,313.5 353,309.3 357.9,309.3 360.4,313.5 357.9,317.8 353,317.8 		"/>
		<polygon class="st0" points="350.5,325.4 353,321.2 357.9,321.2 360.4,325.4 357.9,329.7 353,329.7 		"/>
		<polygon class="st0" points="350.5,337.3 353,333.1 357.9,333.1 360.4,337.3 357.9,341.6 353,341.6 		"/>
		<polygon class="st0" points="350.5,349.2 353,345 357.9,345 360.4,349.2 357.9,353.5 353,353.5 		"/>
		<polygon class="st0" points="350.5,361.1 353,356.9 357.9,356.9 360.4,361.1 357.9,365.4 353,365.4 		"/>
		<polygon class="st0" points="350.5,373 353,368.8 357.9,368.8 360.4,373 357.9,377.3 353,377.3 		"/>
		<polygon class="st0" points="350.5,111.2 353,106.9 357.9,106.9 360.4,111.2 357.9,115.4 353,115.4 		"/>
		<polygon class="st0" points="350.5,123.1 353,118.8 357.9,118.8 360.4,123.1 357.9,127.3 353,127.3 		"/>
		<polygon class="st0" points="350.5,75.5 353,71.2 357.9,71.2 360.4,75.5 357.9,79.7 353,79.7 		"/>
		<polygon class="st0" points="360.8,140.9 363.3,136.7 368.2,136.7 370.7,140.9 368.2,145.2 363.3,145.2 		"/>
		<polygon class="st0" points="360.8,152.8 363.3,148.6 368.2,148.6 370.7,152.8 368.2,157.1 363.3,157.1 		"/>
		<polygon class="st0" points="360.8,164.7 363.3,160.5 368.2,160.5 370.7,164.7 368.2,169 363.3,169 		"/>
		<polygon class="st0" points="360.8,176.6 363.3,172.4 368.2,172.4 370.7,176.6 368.2,180.9 363.3,180.9 		"/>
		<polygon class="st0" points="360.8,188.5 363.3,184.3 368.2,184.3 370.7,188.5 368.2,192.8 363.3,192.8 		"/>
		<polygon class="st0" points="360.8,200.4 363.3,196.2 368.2,196.2 370.7,200.4 368.2,204.7 363.3,204.7 		"/>
		<polygon class="st0" points="360.8,212.3 363.3,208.1 368.2,208.1 370.7,212.3 368.2,216.6 363.3,216.6 		"/>
		<polygon class="st0" points="360.8,224.2 363.3,220 368.2,220 370.7,224.2 368.2,228.5 363.3,228.5 		"/>
		<polygon class="st0" points="360.8,236.1 363.3,231.9 368.2,231.9 370.7,236.1 368.2,240.4 363.3,240.4 		"/>
		<polygon class="st0" points="360.8,248 363.3,243.8 368.2,243.8 370.7,248 368.2,252.3 363.3,252.3 		"/>
		<polygon class="st0" points="360.8,260 363.3,255.7 368.2,255.7 370.7,260 368.2,264.2 363.3,264.2 		"/>
		<polygon class="st0" points="360.8,271.9 363.3,267.6 368.2,267.6 370.7,271.9 368.2,276.1 363.3,276.1 		"/>
		<polygon class="st0" points="360.8,283.8 363.3,279.5 368.2,279.5 370.7,283.8 368.2,288 363.3,288 		"/>
		<polygon class="st0" points="360.8,295.7 363.3,291.4 368.2,291.4 370.7,295.7 368.2,299.9 363.3,299.9 		"/>
		<polygon class="st0" points="360.8,307.6 363.3,303.3 368.2,303.3 370.7,307.6 368.2,311.8 363.3,311.8 		"/>
		<polygon class="st0" points="360.8,319.5 363.3,315.2 368.2,315.2 370.7,319.5 368.2,323.7 363.3,323.7 		"/>
		<polygon class="st0" points="360.8,331.4 363.3,327.1 368.2,327.1 370.7,331.4 368.2,335.6 363.3,335.6 		"/>
		<polygon class="st0" points="360.8,343.3 363.3,339 368.2,339 370.7,343.3 368.2,347.5 363.3,347.5 		"/>
		<polygon class="st0" points="360.8,355.2 363.3,350.9 368.2,350.9 370.7,355.2 368.2,359.4 363.3,359.4 		"/>
		<polygon class="st0" points="360.8,367.1 363.3,362.8 368.2,362.8 370.7,367.1 368.2,371.3 363.3,371.3 		"/>
		<polygon class="st0" points="360.8,81.4 363.3,77.2 368.2,77.2 370.7,81.4 368.2,85.7 363.3,85.7 		"/>
		<polygon class="st0" points="360.8,93.3 363.3,89.1 368.2,89.1 370.7,93.3 368.2,97.6 363.3,97.6 		"/>
		<polygon class="st0" points="391.8,135 394.2,130.7 399.2,130.7 401.6,135 399.2,139.2 394.2,139.2 		"/>
		<polygon class="st0" points="391.8,146.9 394.2,142.6 399.2,142.6 401.6,146.9 399.2,151.1 394.2,151.1 		"/>
		<polygon class="st0" points="391.8,158.8 394.2,154.5 399.2,154.5 401.6,158.8 399.2,163 394.2,163 		"/>
		<polygon class="st0" points="391.8,170.7 394.2,166.4 399.2,166.4 401.6,170.7 399.2,174.9 394.2,174.9 		"/>
		<polygon class="st0" points="391.8,182.6 394.2,178.3 399.2,178.3 401.6,182.6 399.2,186.8 394.2,186.8 		"/>
		<polygon class="st0" points="391.8,194.5 394.2,190.2 399.2,190.2 401.6,194.5 399.2,198.7 394.2,198.7 		"/>
		<polygon class="st0" points="391.8,206.4 394.2,202.1 399.2,202.1 401.6,206.4 399.2,210.6 394.2,210.6 		"/>
		<polygon class="st0" points="391.8,218.3 394.2,214 399.2,214 401.6,218.3 399.2,222.5 394.2,222.5 		"/>
		<polygon class="st0" points="391.8,230.2 394.2,225.9 399.2,225.9 401.6,230.2 399.2,234.4 394.2,234.4 		"/>
		<polygon class="st0" points="391.8,242.1 394.2,237.8 399.2,237.8 401.6,242.1 399.2,246.3 394.2,246.3 		"/>
		<polygon class="st0" points="391.8,254 394.2,249.7 399.2,249.7 401.6,254 399.2,258.3 394.2,258.3 		"/>
		<polygon class="st0" points="391.8,265.9 394.2,261.6 399.2,261.6 401.6,265.9 399.2,270.2 394.2,270.2 		"/>
		<polygon class="st0" points="391.8,277.8 394.2,273.6 399.2,273.6 401.6,277.8 399.2,282.1 394.2,282.1 		"/>
		<polygon class="st0" points="391.8,289.7 394.2,285.5 399.2,285.5 401.6,289.7 399.2,294 394.2,294 		"/>
		<polygon class="st0" points="391.8,301.6 394.2,297.4 399.2,297.4 401.6,301.6 399.2,305.9 394.2,305.9 		"/>
		<polygon class="st0" points="391.8,313.5 394.2,309.3 399.2,309.3 401.6,313.5 399.2,317.8 394.2,317.8 		"/>
		<polygon class="st0" points="391.8,325.4 394.2,321.2 399.2,321.2 401.6,325.4 399.2,329.7 394.2,329.7 		"/>
		<polygon class="st0" points="391.8,337.3 394.2,333.1 399.2,333.1 401.6,337.3 399.2,341.6 394.2,341.6 		"/>
		<polygon class="st0" points="391.8,99.3 394.2,95 399.2,95 401.6,99.3 399.2,103.5 394.2,103.5 		"/>
		<polygon class="st0" points="391.8,111.2 394.2,106.9 399.2,106.9 401.6,111.2 399.2,115.4 394.2,115.4 		"/>
		<polygon class="st0" points="391.8,123.1 394.2,118.8 399.2,118.8 401.6,123.1 399.2,127.3 394.2,127.3 		"/>
		<polygon class="st0" points="402.1,129 404.6,124.8 409.5,124.8 411.9,129 409.5,133.3 404.6,133.3 		"/>
		<polygon class="st0" points="402.1,140.9 404.6,136.7 409.5,136.7 411.9,140.9 409.5,145.2 404.6,145.2 		"/>
		<polygon class="st0" points="402.1,152.8 404.6,148.6 409.5,148.6 411.9,152.8 409.5,157.1 404.6,157.1 		"/>
		<polygon class="st0" points="402.1,164.7 404.6,160.5 409.5,160.5 411.9,164.7 409.5,169 404.6,169 		"/>
		<polygon class="st0" points="402.1,176.6 404.6,172.4 409.5,172.4 411.9,176.6 409.5,180.9 404.6,180.9 		"/>
		<polygon class="st0" points="402.1,188.5 404.6,184.3 409.5,184.3 411.9,188.5 409.5,192.8 404.6,192.8 		"/>
		<polygon class="st0" points="402.1,200.4 404.6,196.2 409.5,196.2 411.9,200.4 409.5,204.7 404.6,204.7 		"/>
		<polygon class="st0" points="402.1,212.3 404.6,208.1 409.5,208.1 411.9,212.3 409.5,216.6 404.6,216.6 		"/>
		<polygon class="st0" points="402.1,224.2 404.6,220 409.5,220 411.9,224.2 409.5,228.5 404.6,228.5 		"/>
		<polygon class="st0" points="402.1,236.1 404.6,231.9 409.5,231.9 411.9,236.1 409.5,240.4 404.6,240.4 		"/>
		<polygon class="st0" points="402.1,248 404.6,243.8 409.5,243.8 411.9,248 409.5,252.3 404.6,252.3 		"/>
		<polygon class="st0" points="402.1,260 404.6,255.7 409.5,255.7 411.9,260 409.5,264.2 404.6,264.2 		"/>
		<polygon class="st0" points="402.1,271.9 404.6,267.6 409.5,267.6 411.9,271.9 409.5,276.1 404.6,276.1 		"/>
		<polygon class="st0" points="402.1,283.8 404.6,279.5 409.5,279.5 411.9,283.8 409.5,288 404.6,288 		"/>
		<polygon class="st0" points="402.1,295.7 404.6,291.4 409.5,291.4 411.9,295.7 409.5,299.9 404.6,299.9 		"/>
		<polygon class="st0" points="402.1,307.6 404.6,303.3 409.5,303.3 411.9,307.6 409.5,311.8 404.6,311.8 		"/>
		<polygon class="st0" points="402.1,319.5 404.6,315.2 409.5,315.2 411.9,319.5 409.5,323.7 404.6,323.7 		"/>
		<polygon class="st0" points="402.1,331.4 404.6,327.1 409.5,327.1 411.9,331.4 409.5,335.6 404.6,335.6 		"/>
		<polygon class="st0" points="402.1,343.3 404.6,339 409.5,339 411.9,343.3 409.5,347.5 404.6,347.5 		"/>
		<polygon class="st0" points="402.1,81.4 404.6,77.2 409.5,77.2 411.9,81.4 409.5,85.7 404.6,85.7 		"/>
		<polygon class="st0" points="402.1,93.3 404.6,89.1 409.5,89.1 411.9,93.3 409.5,97.6 404.6,97.6 		"/>
		<polygon class="st0" points="402.1,105.2 404.6,101 409.5,101 411.9,105.2 409.5,109.5 404.6,109.5 		"/>
		<polygon class="st0" points="402.1,117.1 404.6,112.9 409.5,112.9 411.9,117.1 409.5,121.4 404.6,121.4 		"/>
		<polygon class="st0" points="247.4,146.9 249.9,142.6 254.8,142.6 257.2,146.9 254.8,151.1 249.9,151.1 		"/>
		<polygon class="st0" points="247.4,158.8 249.9,154.5 254.8,154.5 257.2,158.8 254.8,163 249.9,163 		"/>
		<polygon class="st0" points="247.4,170.7 249.9,166.4 254.8,166.4 257.2,170.7 254.8,174.9 249.9,174.9 		"/>
		<polygon class="st0" points="247.4,182.6 249.9,178.3 254.8,178.3 257.2,182.6 254.8,186.8 249.9,186.8 		"/>
		<polygon class="st0" points="247.4,194.5 249.9,190.2 254.8,190.2 257.2,194.5 254.8,198.7 249.9,198.7 		"/>
		<polygon class="st0" points="247.4,206.4 249.9,202.1 254.8,202.1 257.2,206.4 254.8,210.6 249.9,210.6 		"/>
		<polygon class="st0" points="247.4,218.3 249.9,214 254.8,214 257.2,218.3 254.8,222.5 249.9,222.5 		"/>
		<polygon class="st0" points="247.4,230.2 249.9,225.9 254.8,225.9 257.2,230.2 254.8,234.4 249.9,234.4 		"/>
		<polygon class="st0" points="247.4,242.1 249.9,237.8 254.8,237.8 257.2,242.1 254.8,246.3 249.9,246.3 		"/>
		<polygon class="st0" points="247.4,254 249.9,249.7 254.8,249.7 257.2,254 254.8,258.3 249.9,258.3 		"/>
		<polygon class="st0" points="247.4,265.9 249.9,261.6 254.8,261.6 257.2,265.9 254.8,270.2 249.9,270.2 		"/>
		<polygon class="st0" points="247.4,277.8 249.9,273.6 254.8,273.6 257.2,277.8 254.8,282.1 249.9,282.1 		"/>
		<polygon class="st0" points="247.4,289.7 249.9,285.5 254.8,285.5 257.2,289.7 254.8,294 249.9,294 		"/>
		<polygon class="st0" points="247.4,301.6 249.9,297.4 254.8,297.4 257.2,301.6 254.8,305.9 249.9,305.9 		"/>
		<polygon class="st0" points="247.4,313.5 249.9,309.3 254.8,309.3 257.2,313.5 254.8,317.8 249.9,317.8 		"/>
		<polygon class="st0" points="247.4,325.4 249.9,321.2 254.8,321.2 257.2,325.4 254.8,329.7 249.9,329.7 		"/>
		<polygon class="st0" points="247.4,337.3 249.9,333.1 254.8,333.1 257.2,337.3 254.8,341.6 249.9,341.6 		"/>
		<polygon class="st0" points="247.4,349.2 249.9,345 254.8,345 257.2,349.2 254.8,353.5 249.9,353.5 		"/>
		<polygon class="st0" points="257.7,129 260.2,124.8 265.1,124.8 267.5,129 265.1,133.3 260.2,133.3 		"/>
		<polygon class="st0" points="257.7,140.9 260.2,136.7 265.1,136.7 267.5,140.9 265.1,145.2 260.2,145.2 		"/>
		<polygon class="st0" points="257.7,152.8 260.2,148.6 265.1,148.6 267.5,152.8 265.1,157.1 260.2,157.1 		"/>
		<polygon class="st0" points="257.7,164.7 260.2,160.5 265.1,160.5 267.5,164.7 265.1,169 260.2,169 		"/>
		<polygon class="st0" points="257.7,176.6 260.2,172.4 265.1,172.4 267.5,176.6 265.1,180.9 260.2,180.9 		"/>
		<polygon class="st0" points="257.7,188.5 260.2,184.3 265.1,184.3 267.5,188.5 265.1,192.8 260.2,192.8 		"/>
		<polygon class="st0" points="257.7,200.4 260.2,196.2 265.1,196.2 267.5,200.4 265.1,204.7 260.2,204.7 		"/>
		<polygon class="st0" points="257.7,212.3 260.2,208.1 265.1,208.1 267.5,212.3 265.1,216.6 260.2,216.6 		"/>
		<polygon class="st0" points="257.7,224.2 260.2,220 265.1,220 267.5,224.2 265.1,228.5 260.2,228.5 		"/>
		<polygon class="st0" points="257.7,236.1 260.2,231.9 265.1,231.9 267.5,236.1 265.1,240.4 260.2,240.4 		"/>
		<polygon class="st0" points="257.7,248 260.2,243.8 265.1,243.8 267.5,248 265.1,252.3 260.2,252.3 		"/>
		<polygon class="st0" points="257.7,260 260.2,255.7 265.1,255.7 267.5,260 265.1,264.2 260.2,264.2 		"/>
		<polygon class="st0" points="257.7,271.9 260.2,267.6 265.1,267.6 267.5,271.9 265.1,276.1 260.2,276.1 		"/>
		<polygon class="st0" points="257.7,283.8 260.2,279.5 265.1,279.5 267.5,283.8 265.1,288 260.2,288 		"/>
		<polygon class="st0" points="257.7,295.7 260.2,291.4 265.1,291.4 267.5,295.7 265.1,299.9 260.2,299.9 		"/>
		<polygon class="st0" points="257.7,307.6 260.2,303.3 265.1,303.3 267.5,307.6 265.1,311.8 260.2,311.8 		"/>
		<polygon class="st0" points="257.7,319.5 260.2,315.2 265.1,315.2 267.5,319.5 265.1,323.7 260.2,323.7 		"/>
		<polygon class="st0" points="257.7,331.4 260.2,327.1 265.1,327.1 267.5,331.4 265.1,335.6 260.2,335.6 		"/>
		<polygon class="st0" points="257.7,343.3 260.2,339 265.1,339 267.5,343.3 265.1,347.5 260.2,347.5 		"/>
		<polygon class="st0" points="257.7,355.2 260.2,350.9 265.1,350.9 267.5,355.2 265.1,359.4 260.2,359.4 		"/>
		<polygon class="st0" points="257.7,379 260.2,374.7 265.1,374.7 267.5,379 265.1,383.2 260.2,383.2 		"/>
		<polygon class="st0" points="257.7,93.3 260.2,89.1 265.1,89.1 267.5,93.3 265.1,97.6 260.2,97.6 		"/>
		<polygon class="st0" points="257.7,105.2 260.2,101 265.1,101 267.5,105.2 265.1,109.5 260.2,109.5 		"/>
		<polygon class="st0" points="257.7,117.1 260.2,112.9 265.1,112.9 267.5,117.1 265.1,121.4 260.2,121.4 		"/>
		<polygon class="st0" points="288.7,135 291.1,130.7 296,130.7 298.5,135 296,139.2 291.1,139.2 		"/>
		<polygon class="st0" points="288.7,146.9 291.1,142.6 296,142.6 298.5,146.9 296,151.1 291.1,151.1 		"/>
		<polygon class="st0" points="288.7,158.8 291.1,154.5 296,154.5 298.5,158.8 296,163 291.1,163 		"/>
		<polygon class="st0" points="288.7,170.7 291.1,166.4 296,166.4 298.5,170.7 296,174.9 291.1,174.9 		"/>
		<polygon class="st0" points="288.7,182.6 291.1,178.3 296,178.3 298.5,182.6 296,186.8 291.1,186.8 		"/>
		<polygon class="st0" points="288.7,194.5 291.1,190.2 296,190.2 298.5,194.5 296,198.7 291.1,198.7 		"/>
		<polygon class="st0" points="288.7,206.4 291.1,202.1 296,202.1 298.5,206.4 296,210.6 291.1,210.6 		"/>
		<polygon class="st0" points="288.7,218.3 291.1,214 296,214 298.5,218.3 296,222.5 291.1,222.5 		"/>
		<polygon class="st0" points="288.7,230.2 291.1,225.9 296,225.9 298.5,230.2 296,234.4 291.1,234.4 		"/>
		<polygon class="st0" points="288.7,242.1 291.1,237.8 296,237.8 298.5,242.1 296,246.3 291.1,246.3 		"/>
		<polygon class="st0" points="288.7,254 291.1,249.7 296,249.7 298.5,254 296,258.3 291.1,258.3 		"/>
		<polygon class="st0" points="288.7,265.9 291.1,261.6 296,261.6 298.5,265.9 296,270.2 291.1,270.2 		"/>
		<polygon class="st0" points="288.7,277.8 291.1,273.6 296,273.6 298.5,277.8 296,282.1 291.1,282.1 		"/>
		<polygon class="st0" points="288.7,289.7 291.1,285.5 296,285.5 298.5,289.7 296,294 291.1,294 		"/>
		<polygon class="st0" points="288.7,301.6 291.1,297.4 296,297.4 298.5,301.6 296,305.9 291.1,305.9 		"/>
		<polygon class="st0" points="288.7,313.5 291.1,309.3 296,309.3 298.5,313.5 296,317.8 291.1,317.8 		"/>
		<polygon class="st0" points="288.7,325.4 291.1,321.2 296,321.2 298.5,325.4 296,329.7 291.1,329.7 		"/>
		<polygon class="st0" points="288.7,337.3 291.1,333.1 296,333.1 298.5,337.3 296,341.6 291.1,341.6 		"/>
		<polygon class="st0" points="288.7,349.2 291.1,345 296,345 298.5,349.2 296,353.5 291.1,353.5 		"/>
		<polygon class="st0" points="288.7,361.1 291.1,356.9 296,356.9 298.5,361.1 296,365.4 291.1,365.4 		"/>
		<polygon class="st0" points="288.7,373 291.1,368.8 296,368.8 298.5,373 296,377.3 291.1,377.3 		"/>
		<polygon class="st0" points="299,129 301.4,124.8 306.3,124.8 308.8,129 306.3,133.3 301.4,133.3 		"/>
		<polygon class="st0" points="299,140.9 301.4,136.7 306.3,136.7 308.8,140.9 306.3,145.2 301.4,145.2 		"/>
		<polygon class="st0" points="299,152.8 301.4,148.6 306.3,148.6 308.8,152.8 306.3,157.1 301.4,157.1 		"/>
		<polygon class="st0" points="299,164.7 301.4,160.5 306.3,160.5 308.8,164.7 306.3,169 301.4,169 		"/>
		<polygon class="st0" points="299,176.6 301.4,172.4 306.3,172.4 308.8,176.6 306.3,180.9 301.4,180.9 		"/>
		<polygon class="st0" points="299,188.5 301.4,184.3 306.3,184.3 308.8,188.5 306.3,192.8 301.4,192.8 		"/>
		<polygon class="st0" points="299,200.4 301.4,196.2 306.3,196.2 308.8,200.4 306.3,204.7 301.4,204.7 		"/>
		<polygon class="st0" points="299,212.3 301.4,208.1 306.3,208.1 308.8,212.3 306.3,216.6 301.4,216.6 		"/>
		<polygon class="st0" points="299,224.2 301.4,220 306.3,220 308.8,224.2 306.3,228.5 301.4,228.5 		"/>
		<polygon class="st0" points="299,236.1 301.4,231.9 306.3,231.9 308.8,236.1 306.3,240.4 301.4,240.4 		"/>
		<polygon class="st0" points="299,248 301.4,243.8 306.3,243.8 308.8,248 306.3,252.3 301.4,252.3 		"/>
		<polygon class="st0" points="299,260 301.4,255.7 306.3,255.7 308.8,260 306.3,264.2 301.4,264.2 		"/>
		<polygon class="st0" points="299,271.9 301.4,267.6 306.3,267.6 308.8,271.9 306.3,276.1 301.4,276.1 		"/>
		<polygon class="st0" points="299,283.8 301.4,279.5 306.3,279.5 308.8,283.8 306.3,288 301.4,288 		"/>
		<polygon class="st0" points="299,295.7 301.4,291.4 306.3,291.4 308.8,295.7 306.3,299.9 301.4,299.9 		"/>
		<polygon class="st0" points="299,307.6 301.4,303.3 306.3,303.3 308.8,307.6 306.3,311.8 301.4,311.8 		"/>
		<polygon class="st0" points="299,319.5 301.4,315.2 306.3,315.2 308.8,319.5 306.3,323.7 301.4,323.7 		"/>
		<polygon class="st0" points="299,331.4 301.4,327.1 306.3,327.1 308.8,331.4 306.3,335.6 301.4,335.6 		"/>
		<polygon class="st0" points="299,343.3 301.4,339 306.3,339 308.8,343.3 306.3,347.5 301.4,347.5 		"/>
		<polygon class="st0" points="299,355.2 301.4,350.9 306.3,350.9 308.8,355.2 306.3,359.4 301.4,359.4 		"/>
		<polygon class="st0" points="299,367.1 301.4,362.8 306.3,362.8 308.8,367.1 306.3,371.3 301.4,371.3 		"/>
		<polygon class="st0" points="299,379 301.4,374.7 306.3,374.7 308.8,379 306.3,383.2 301.4,383.2 		"/>
		<polygon class="st0" points="299,93.3 301.4,89.1 306.3,89.1 308.8,93.3 306.3,97.6 301.4,97.6 		"/>
		<polygon class="st0" points="299,105.2 301.4,101 306.3,101 308.8,105.2 306.3,109.5 301.4,109.5 		"/>
		<polygon class="st0" points="329.9,135 332.4,130.7 337.3,130.7 339.7,135 337.3,139.2 332.4,139.2 		"/>
		<polygon class="st0" points="329.9,146.9 332.4,142.6 337.3,142.6 339.7,146.9 337.3,151.1 332.4,151.1 		"/>
		<polygon class="st0" points="329.9,158.8 332.4,154.5 337.3,154.5 339.7,158.8 337.3,163 332.4,163 		"/>
		<polygon class="st0" points="329.9,170.7 332.4,166.4 337.3,166.4 339.7,170.7 337.3,174.9 332.4,174.9 		"/>
		<polygon class="st0" points="329.9,182.6 332.4,178.3 337.3,178.3 339.7,182.6 337.3,186.8 332.4,186.8 		"/>
		<polygon class="st0" points="329.9,194.5 332.4,190.2 337.3,190.2 339.7,194.5 337.3,198.7 332.4,198.7 		"/>
		<polygon class="st0" points="329.9,206.4 332.4,202.1 337.3,202.1 339.7,206.4 337.3,210.6 332.4,210.6 		"/>
		<polygon class="st0" points="329.9,218.3 332.4,214 337.3,214 339.7,218.3 337.3,222.5 332.4,222.5 		"/>
		<polygon class="st0" points="329.9,230.2 332.4,225.9 337.3,225.9 339.7,230.2 337.3,234.4 332.4,234.4 		"/>
		<polygon class="st0" points="329.9,242.1 332.4,237.8 337.3,237.8 339.7,242.1 337.3,246.3 332.4,246.3 		"/>
		<polygon class="st0" points="329.9,254 332.4,249.7 337.3,249.7 339.7,254 337.3,258.3 332.4,258.3 		"/>
		<polygon class="st0" points="329.9,265.9 332.4,261.6 337.3,261.6 339.7,265.9 337.3,270.2 332.4,270.2 		"/>
		<polygon class="st0" points="329.9,277.8 332.4,273.6 337.3,273.6 339.7,277.8 337.3,282.1 332.4,282.1 		"/>
		<polygon class="st0" points="329.9,289.7 332.4,285.5 337.3,285.5 339.7,289.7 337.3,294 332.4,294 		"/>
		<polygon class="st0" points="329.9,301.6 332.4,297.4 337.3,297.4 339.7,301.6 337.3,305.9 332.4,305.9 		"/>
		<polygon class="st0" points="329.9,313.5 332.4,309.3 337.3,309.3 339.7,313.5 337.3,317.8 332.4,317.8 		"/>
		<polygon class="st0" points="329.9,325.4 332.4,321.2 337.3,321.2 339.7,325.4 337.3,329.7 332.4,329.7 		"/>
		<polygon class="st0" points="329.9,337.3 332.4,333.1 337.3,333.1 339.7,337.3 337.3,341.6 332.4,341.6 		"/>
		<polygon class="st0" points="329.9,349.2 332.4,345 337.3,345 339.7,349.2 337.3,353.5 332.4,353.5 		"/>
		<polygon class="st0" points="329.9,361.1 332.4,356.9 337.3,356.9 339.7,361.1 337.3,365.4 332.4,365.4 		"/>
		<polygon class="st0" points="329.9,373 332.4,368.8 337.3,368.8 339.7,373 337.3,377.3 332.4,377.3 		"/>
		<polygon class="st0" points="329.9,87.4 332.4,83.1 337.3,83.1 339.7,87.4 337.3,91.6 332.4,91.6 		"/>
		<polygon class="st0" points="329.9,99.3 332.4,95 337.3,95 339.7,99.3 337.3,103.5 332.4,103.5 		"/>
		<polygon class="st0" points="329.9,111.2 332.4,106.9 337.3,106.9 339.7,111.2 337.3,115.4 332.4,115.4 		"/>
		<polygon class="st0" points="329.9,123.1 332.4,118.8 337.3,118.8 339.7,123.1 337.3,127.3 332.4,127.3 		"/>
		<polygon class="st0" points="329.9,75.5 332.4,71.2 337.3,71.2 339.7,75.5 337.3,79.7 332.4,79.7 		"/>
		<polygon class="st0" points="340.2,129 342.7,124.8 347.6,124.8 350,129 347.6,133.3 342.7,133.3 		"/>
		<polygon class="st0" points="340.2,140.9 342.7,136.7 347.6,136.7 350,140.9 347.6,145.2 342.7,145.2 		"/>
		<polygon class="st0" points="340.2,152.8 342.7,148.6 347.6,148.6 350,152.8 347.6,157.1 342.7,157.1 		"/>
		<polygon class="st0" points="340.2,164.7 342.7,160.5 347.6,160.5 350,164.7 347.6,169 342.7,169 		"/>
		<polygon class="st0" points="340.2,176.6 342.7,172.4 347.6,172.4 350,176.6 347.6,180.9 342.7,180.9 		"/>
		<polygon class="st0" points="340.2,188.5 342.7,184.3 347.6,184.3 350,188.5 347.6,192.8 342.7,192.8 		"/>
		<polygon class="st0" points="340.2,200.4 342.7,196.2 347.6,196.2 350,200.4 347.6,204.7 342.7,204.7 		"/>
		<polygon class="st0" points="340.2,212.3 342.7,208.1 347.6,208.1 350,212.3 347.6,216.6 342.7,216.6 		"/>
		<polygon class="st0" points="340.2,224.2 342.7,220 347.6,220 350,224.2 347.6,228.5 342.7,228.5 		"/>
		<polygon class="st0" points="340.2,236.1 342.7,231.9 347.6,231.9 350,236.1 347.6,240.4 342.7,240.4 		"/>
		<polygon class="st0" points="340.2,248 342.7,243.8 347.6,243.8 350,248 347.6,252.3 342.7,252.3 		"/>
		<polygon class="st0" points="340.2,260 342.7,255.7 347.6,255.7 350,260 347.6,264.2 342.7,264.2 		"/>
		<polygon class="st0" points="340.2,271.9 342.7,267.6 347.6,267.6 350,271.9 347.6,276.1 342.7,276.1 		"/>
		<polygon class="st0" points="340.2,283.8 342.7,279.5 347.6,279.5 350,283.8 347.6,288 342.7,288 		"/>
		<polygon class="st0" points="340.2,295.7 342.7,291.4 347.6,291.4 350,295.7 347.6,299.9 342.7,299.9 		"/>
		<polygon class="st0" points="340.2,307.6 342.7,303.3 347.6,303.3 350,307.6 347.6,311.8 342.7,311.8 		"/>
		<polygon class="st0" points="340.2,319.5 342.7,315.2 347.6,315.2 350,319.5 347.6,323.7 342.7,323.7 		"/>
		<polygon class="st0" points="340.2,331.4 342.7,327.1 347.6,327.1 350,331.4 347.6,335.6 342.7,335.6 		"/>
		<polygon class="st0" points="340.2,343.3 342.7,339 347.6,339 350,343.3 347.6,347.5 342.7,347.5 		"/>
		<polygon class="st0" points="340.2,355.2 342.7,350.9 347.6,350.9 350,355.2 347.6,359.4 342.7,359.4 		"/>
		<polygon class="st0" points="340.2,367.1 342.7,362.8 347.6,362.8 350,367.1 347.6,371.3 342.7,371.3 		"/>
		<polygon class="st0" points="340.2,379 342.7,374.7 347.6,374.7 350,379 347.6,383.2 342.7,383.2 		"/>
		<polygon class="st0" points="340.2,105.2 342.7,101 347.6,101 350,105.2 347.6,109.5 342.7,109.5 		"/>
		<polygon class="st0" points="340.2,117.1 342.7,112.9 347.6,112.9 350,117.1 347.6,121.4 342.7,121.4 		"/>
		<polygon class="st0" points="371.2,135 373.6,130.7 378.5,130.7 381,135 378.5,139.2 373.6,139.2 		"/>
		<polygon class="st0" points="371.2,146.9 373.6,142.6 378.5,142.6 381,146.9 378.5,151.1 373.6,151.1 		"/>
		<polygon class="st0" points="371.2,158.8 373.6,154.5 378.5,154.5 381,158.8 378.5,163 373.6,163 		"/>
		<polygon class="st0" points="371.2,170.7 373.6,166.4 378.5,166.4 381,170.7 378.5,174.9 373.6,174.9 		"/>
		<polygon class="st0" points="371.2,182.6 373.6,178.3 378.5,178.3 381,182.6 378.5,186.8 373.6,186.8 		"/>
		<polygon class="st0" points="371.2,194.5 373.6,190.2 378.5,190.2 381,194.5 378.5,198.7 373.6,198.7 		"/>
		<polygon class="st0" points="371.2,206.4 373.6,202.1 378.5,202.1 381,206.4 378.5,210.6 373.6,210.6 		"/>
		<polygon class="st0" points="371.2,218.3 373.6,214 378.5,214 381,218.3 378.5,222.5 373.6,222.5 		"/>
		<polygon class="st0" points="371.2,230.2 373.6,225.9 378.5,225.9 381,230.2 378.5,234.4 373.6,234.4 		"/>
		<polygon class="st0" points="371.2,242.1 373.6,237.8 378.5,237.8 381,242.1 378.5,246.3 373.6,246.3 		"/>
		<polygon class="st0" points="371.2,254 373.6,249.7 378.5,249.7 381,254 378.5,258.3 373.6,258.3 		"/>
		<polygon class="st0" points="371.2,265.9 373.6,261.6 378.5,261.6 381,265.9 378.5,270.2 373.6,270.2 		"/>
		<polygon class="st0" points="371.2,277.8 373.6,273.6 378.5,273.6 381,277.8 378.5,282.1 373.6,282.1 		"/>
		<polygon class="st0" points="371.2,289.7 373.6,285.5 378.5,285.5 381,289.7 378.5,294 373.6,294 		"/>
		<polygon class="st0" points="371.2,301.6 373.6,297.4 378.5,297.4 381,301.6 378.5,305.9 373.6,305.9 		"/>
		<polygon class="st0" points="371.2,313.5 373.6,309.3 378.5,309.3 381,313.5 378.5,317.8 373.6,317.8 		"/>
		<polygon class="st0" points="371.2,325.4 373.6,321.2 378.5,321.2 381,325.4 378.5,329.7 373.6,329.7 		"/>
		<polygon class="st0" points="371.2,337.3 373.6,333.1 378.5,333.1 381,337.3 378.5,341.6 373.6,341.6 		"/>
		<polygon class="st0" points="371.2,349.2 373.6,345 378.5,345 381,349.2 378.5,353.5 373.6,353.5 		"/>
		<polygon class="st0" points="371.2,361.1 373.6,356.9 378.5,356.9 381,361.1 378.5,365.4 373.6,365.4 		"/>
		<polygon class="st0" points="371.2,87.4 373.6,83.1 378.5,83.1 381,87.4 378.5,91.6 373.6,91.6 		"/>
		<polygon class="st0" points="371.2,99.3 373.6,95 378.5,95 381,99.3 378.5,103.5 373.6,103.5 		"/>
		<polygon class="st0" points="371.2,111.2 373.6,106.9 378.5,106.9 381,111.2 378.5,115.4 373.6,115.4 		"/>
		<polygon class="st0" points="371.2,123.1 373.6,118.8 378.5,118.8 381,123.1 378.5,127.3 373.6,127.3 		"/>
		<polygon class="st0" points="376.6,72.1 379,67.8 383.9,67.8 386.4,72.1 383.9,76.3 379,76.3 		"/>
		<polygon class="st0" points="381.5,129 383.9,124.8 388.8,124.8 391.3,129 388.8,133.3 383.9,133.3 		"/>
		<polygon class="st0" points="381.5,140.9 383.9,136.7 388.8,136.7 391.3,140.9 388.8,145.2 383.9,145.2 		"/>
		<polygon class="st0" points="381.5,152.8 383.9,148.6 388.8,148.6 391.3,152.8 388.8,157.1 383.9,157.1 		"/>
		<polygon class="st0" points="381.5,164.7 383.9,160.5 388.8,160.5 391.3,164.7 388.8,169 383.9,169 		"/>
		<polygon class="st0" points="381.5,176.6 383.9,172.4 388.8,172.4 391.3,176.6 388.8,180.9 383.9,180.9 		"/>
		<polygon class="st0" points="381.5,188.5 383.9,184.3 388.8,184.3 391.3,188.5 388.8,192.8 383.9,192.8 		"/>
		<polygon class="st0" points="381.5,200.4 383.9,196.2 388.8,196.2 391.3,200.4 388.8,204.7 383.9,204.7 		"/>
		<polygon class="st0" points="381.5,212.3 383.9,208.1 388.8,208.1 391.3,212.3 388.8,216.6 383.9,216.6 		"/>
		<polygon class="st0" points="381.5,224.2 383.9,220 388.8,220 391.3,224.2 388.8,228.5 383.9,228.5 		"/>
		<polygon class="st0" points="381.5,236.1 383.9,231.9 388.8,231.9 391.3,236.1 388.8,240.4 383.9,240.4 		"/>
		<polygon class="st0" points="381.5,248 383.9,243.8 388.8,243.8 391.3,248 388.8,252.3 383.9,252.3 		"/>
		<polygon class="st0" points="381.5,260 383.9,255.7 388.8,255.7 391.3,260 388.8,264.2 383.9,264.2 		"/>
		<polygon class="st0" points="381.5,271.9 383.9,267.6 388.8,267.6 391.3,271.9 388.8,276.1 383.9,276.1 		"/>
		<polygon class="st0" points="381.5,283.8 383.9,279.5 388.8,279.5 391.3,283.8 388.8,288 383.9,288 		"/>
		<polygon class="st0" points="381.5,295.7 383.9,291.4 388.8,291.4 391.3,295.7 388.8,299.9 383.9,299.9 		"/>
		<polygon class="st0" points="381.5,307.6 383.9,303.3 388.8,303.3 391.3,307.6 388.8,311.8 383.9,311.8 		"/>
		<polygon class="st0" points="381.5,319.5 383.9,315.2 388.8,315.2 391.3,319.5 388.8,323.7 383.9,323.7 		"/>
		<polygon class="st0" points="381.5,331.4 383.9,327.1 388.8,327.1 391.3,331.4 388.8,335.6 383.9,335.6 		"/>
		<polygon class="st0" points="381.5,343.3 383.9,339 388.8,339 391.3,343.3 388.8,347.5 383.9,347.5 		"/>
		<polygon class="st0" points="381.5,105.2 383.9,101 388.8,101 391.3,105.2 388.8,109.5 383.9,109.5 		"/>
		<polygon class="st0" points="381.5,117.1 383.9,112.9 388.8,112.9 391.3,117.1 388.8,121.4 383.9,121.4 		"/>
		<polygon class="st0" points="412.4,135 414.9,130.7 419.8,130.7 422.2,135 419.8,139.2 414.9,139.2 		"/>
		<polygon class="st0" points="412.4,146.9 414.9,142.6 419.8,142.6 422.2,146.9 419.8,151.1 414.9,151.1 		"/>
		<polygon class="st0" points="412.4,158.8 414.9,154.5 419.8,154.5 422.2,158.8 419.8,163 414.9,163 		"/>
		<polygon class="st0" points="412.4,170.7 414.9,166.4 419.8,166.4 422.2,170.7 419.8,174.9 414.9,174.9 		"/>
		<polygon class="st0" points="412.4,182.6 414.9,178.3 419.8,178.3 422.2,182.6 419.8,186.8 414.9,186.8 		"/>
		<polygon class="st0" points="412.4,194.5 414.9,190.2 419.8,190.2 422.2,194.5 419.8,198.7 414.9,198.7 		"/>
		<polygon class="st0" points="412.4,206.4 414.9,202.1 419.8,202.1 422.2,206.4 419.8,210.6 414.9,210.6 		"/>
		<polygon class="st0" points="412.4,218.3 414.9,214 419.8,214 422.2,218.3 419.8,222.5 414.9,222.5 		"/>
		<polygon class="st0" points="412.4,230.2 414.9,225.9 419.8,225.9 422.2,230.2 419.8,234.4 414.9,234.4 		"/>
		<polygon class="st0" points="412.4,242.1 414.9,237.8 419.8,237.8 422.2,242.1 419.8,246.3 414.9,246.3 		"/>
		<polygon class="st0" points="412.4,254 414.9,249.7 419.8,249.7 422.2,254 419.8,258.3 414.9,258.3 		"/>
		<polygon class="st0" points="412.4,265.9 414.9,261.6 419.8,261.6 422.2,265.9 419.8,270.2 414.9,270.2 		"/>
		<polygon class="st0" points="412.4,277.8 414.9,273.6 419.8,273.6 422.2,277.8 419.8,282.1 414.9,282.1 		"/>
		<polygon class="st0" points="412.4,289.7 414.9,285.5 419.8,285.5 422.2,289.7 419.8,294 414.9,294 		"/>
		<polygon class="st0" points="412.4,301.6 414.9,297.4 419.8,297.4 422.2,301.6 419.8,305.9 414.9,305.9 		"/>
		<polygon class="st0" points="412.4,313.5 414.9,309.3 419.8,309.3 422.2,313.5 419.8,317.8 414.9,317.8 		"/>
		<polygon class="st0" points="412.4,325.4 414.9,321.2 419.8,321.2 422.2,325.4 419.8,329.7 414.9,329.7 		"/>
		<polygon class="st0" points="412.4,87.4 414.9,83.1 419.8,83.1 422.2,87.4 419.8,91.6 414.9,91.6 		"/>
		<polygon class="st0" points="412.4,99.3 414.9,95 419.8,95 422.2,99.3 419.8,103.5 414.9,103.5 		"/>
		<polygon class="st0" points="412.4,111.2 414.9,106.9 419.8,106.9 422.2,111.2 419.8,115.4 414.9,115.4 		"/>
		<polygon class="st0" points="412.4,123.1 414.9,118.8 419.8,118.8 422.2,123.1 419.8,127.3 414.9,127.3 		"/>
		<polygon class="st0" points="412.4,75.5 414.9,71.2 419.8,71.2 422.2,75.5 419.8,79.7 414.9,79.7 		"/>
		<polygon class="st0" points="422.7,129 425.2,124.8 430.1,124.8 432.5,129 430.1,133.3 425.2,133.3 		"/>
		<polygon class="st0" points="422.7,140.9 425.2,136.7 430.1,136.7 432.5,140.9 430.1,145.2 425.2,145.2 		"/>
		<polygon class="st0" points="422.7,152.8 425.2,148.6 430.1,148.6 432.5,152.8 430.1,157.1 425.2,157.1 		"/>
		<polygon class="st0" points="422.7,164.7 425.2,160.5 430.1,160.5 432.5,164.7 430.1,169 425.2,169 		"/>
		<polygon class="st0" points="422.7,176.6 425.2,172.4 430.1,172.4 432.5,176.6 430.1,180.9 425.2,180.9 		"/>
		<polygon class="st0" points="422.7,188.5 425.2,184.3 430.1,184.3 432.5,188.5 430.1,192.8 425.2,192.8 		"/>
		<polygon class="st0" points="422.7,200.4 425.2,196.2 430.1,196.2 432.5,200.4 430.1,204.7 425.2,204.7 		"/>
		<polygon class="st0" points="422.7,212.3 425.2,208.1 430.1,208.1 432.5,212.3 430.1,216.6 425.2,216.6 		"/>
		<polygon class="st0" points="422.7,224.2 425.2,220 430.1,220 432.5,224.2 430.1,228.5 425.2,228.5 		"/>
		<polygon class="st0" points="422.7,236.1 425.2,231.9 430.1,231.9 432.5,236.1 430.1,240.4 425.2,240.4 		"/>
		<polygon class="st0" points="422.7,248 425.2,243.8 430.1,243.8 432.5,248 430.1,252.3 425.2,252.3 		"/>
		<polygon class="st0" points="422.7,260 425.2,255.7 430.1,255.7 432.5,260 430.1,264.2 425.2,264.2 		"/>
		<polygon class="st0" points="422.7,271.9 425.2,267.6 430.1,267.6 432.5,271.9 430.1,276.1 425.2,276.1 		"/>
		<polygon class="st0" points="422.7,283.8 425.2,279.5 430.1,279.5 432.5,283.8 430.1,288 425.2,288 		"/>
		<polygon class="st0" points="422.7,295.7 425.2,291.4 430.1,291.4 432.5,295.7 430.1,299.9 425.2,299.9 		"/>
		<polygon class="st0" points="422.7,307.6 425.2,303.3 430.1,303.3 432.5,307.6 430.1,311.8 425.2,311.8 		"/>
		<polygon class="st0" points="422.7,319.5 425.2,315.2 430.1,315.2 432.5,319.5 430.1,323.7 425.2,323.7 		"/>
		<polygon class="st0" points="422.7,331.4 425.2,327.1 430.1,327.1 432.5,331.4 430.1,335.6 425.2,335.6 		"/>
		<polygon class="st0" points="422.7,81.4 425.2,77.2 430.1,77.2 432.5,81.4 430.1,85.7 425.2,85.7 		"/>
		<polygon class="st0" points="422.7,93.3 425.2,89.1 430.1,89.1 432.5,93.3 430.1,97.6 425.2,97.6 		"/>
		<polygon class="st0" points="422.7,105.2 425.2,101 430.1,101 432.5,105.2 430.1,109.5 425.2,109.5 		"/>
		<polygon class="st0" points="422.7,117.1 425.2,112.9 430.1,112.9 432.5,117.1 430.1,121.4 425.2,121.4 		"/>
		<polygon class="st0" points="433,135 435.5,130.7 440.4,130.7 442.9,135 440.4,139.2 435.5,139.2 		"/>
		<polygon class="st0" points="433,146.9 435.5,142.6 440.4,142.6 442.9,146.9 440.4,151.1 435.5,151.1 		"/>
		<polygon class="st0" points="433,158.8 435.5,154.5 440.4,154.5 442.9,158.8 440.4,163 435.5,163 		"/>
		<polygon class="st0" points="433,170.7 435.5,166.4 440.4,166.4 442.9,170.7 440.4,174.9 435.5,174.9 		"/>
		<polygon class="st0" points="433,182.6 435.5,178.3 440.4,178.3 442.9,182.6 440.4,186.8 435.5,186.8 		"/>
		<polygon class="st0" points="433,194.5 435.5,190.2 440.4,190.2 442.9,194.5 440.4,198.7 435.5,198.7 		"/>
		<polygon class="st0" points="433,206.4 435.5,202.1 440.4,202.1 442.9,206.4 440.4,210.6 435.5,210.6 		"/>
		<polygon class="st0" points="433,218.3 435.5,214 440.4,214 442.9,218.3 440.4,222.5 435.5,222.5 		"/>
		<polygon class="st0" points="433,230.2 435.5,225.9 440.4,225.9 442.9,230.2 440.4,234.4 435.5,234.4 		"/>
		<polygon class="st0" points="433,242.1 435.5,237.8 440.4,237.8 442.9,242.1 440.4,246.3 435.5,246.3 		"/>
		<polygon class="st0" points="433,254 435.5,249.7 440.4,249.7 442.9,254 440.4,258.3 435.5,258.3 		"/>
		<polygon class="st0" points="433,265.9 435.5,261.6 440.4,261.6 442.9,265.9 440.4,270.2 435.5,270.2 		"/>
		<polygon class="st0" points="433,277.8 435.5,273.6 440.4,273.6 442.9,277.8 440.4,282.1 435.5,282.1 		"/>
		<polygon class="st0" points="433,289.7 435.5,285.5 440.4,285.5 442.9,289.7 440.4,294 435.5,294 		"/>
		<polygon class="st0" points="433,301.6 435.5,297.4 440.4,297.4 442.9,301.6 440.4,305.9 435.5,305.9 		"/>
		<polygon class="st0" points="433,313.5 435.5,309.3 440.4,309.3 442.9,313.5 440.4,317.8 435.5,317.8 		"/>
		<polygon class="st0" points="433,325.4 435.5,321.2 440.4,321.2 442.9,325.4 440.4,329.7 435.5,329.7 		"/>
		<polygon class="st0" points="433,337.3 435.5,333.1 440.4,333.1 442.9,337.3 440.4,341.6 435.5,341.6 		"/>
		<polygon class="st0" points="433,87.4 435.5,83.1 440.4,83.1 442.9,87.4 440.4,91.6 435.5,91.6 		"/>
		<polygon class="st0" points="433,99.3 435.5,95 440.4,95 442.9,99.3 440.4,103.5 435.5,103.5 		"/>
		<polygon class="st0" points="433,111.2 435.5,106.9 440.4,106.9 442.9,111.2 440.4,115.4 435.5,115.4 		"/>
		<polygon class="st0" points="433,123.1 435.5,118.8 440.4,118.8 442.9,123.1 440.4,127.3 435.5,127.3 		"/>
		<polygon class="st0" points="433,51.6 435.5,47.4 440.4,47.4 442.9,51.6 440.4,55.9 435.5,55.9 		"/>
		<polygon class="st0" points="433,39.7 435.5,35.5 440.4,35.5 442.9,39.7 440.4,44 435.5,44 		"/>
		<polygon class="st0" points="443.3,129 445.8,124.8 450.7,124.8 453.2,129 450.7,133.3 445.8,133.3 		"/>
		<polygon class="st0" points="443.3,140.9 445.8,136.7 450.7,136.7 453.2,140.9 450.7,145.2 445.8,145.2 		"/>
		<polygon class="st0" points="443.3,152.8 445.8,148.6 450.7,148.6 453.2,152.8 450.7,157.1 445.8,157.1 		"/>
		<polygon class="st0" points="443.3,164.7 445.8,160.5 450.7,160.5 453.2,164.7 450.7,169 445.8,169 		"/>
		<polygon class="st0" points="443.3,176.6 445.8,172.4 450.7,172.4 453.2,176.6 450.7,180.9 445.8,180.9 		"/>
		<polygon class="st0" points="443.3,188.5 445.8,184.3 450.7,184.3 453.2,188.5 450.7,192.8 445.8,192.8 		"/>
		<polygon class="st0" points="443.3,200.4 445.8,196.2 450.7,196.2 453.2,200.4 450.7,204.7 445.8,204.7 		"/>
		<polygon class="st0" points="443.3,212.3 445.8,208.1 450.7,208.1 453.2,212.3 450.7,216.6 445.8,216.6 		"/>
		<polygon class="st0" points="443.3,224.2 445.8,220 450.7,220 453.2,224.2 450.7,228.5 445.8,228.5 		"/>
		<polygon class="st0" points="443.3,236.1 445.8,231.9 450.7,231.9 453.2,236.1 450.7,240.4 445.8,240.4 		"/>
		<polygon class="st0" points="443.3,248 445.8,243.8 450.7,243.8 453.2,248 450.7,252.3 445.8,252.3 		"/>
		<polygon class="st0" points="443.3,260 445.8,255.7 450.7,255.7 453.2,260 450.7,264.2 445.8,264.2 		"/>
		<polygon class="st0" points="443.3,271.9 445.8,267.6 450.7,267.6 453.2,271.9 450.7,276.1 445.8,276.1 		"/>
		<polygon class="st0" points="443.3,283.8 445.8,279.5 450.7,279.5 453.2,283.8 450.7,288 445.8,288 		"/>
		<polygon class="st0" points="443.3,295.7 445.8,291.4 450.7,291.4 453.2,295.7 450.7,299.9 445.8,299.9 		"/>
		<polygon class="st0" points="443.3,307.6 445.8,303.3 450.7,303.3 453.2,307.6 450.7,311.8 445.8,311.8 		"/>
		<polygon class="st0" points="443.3,319.5 445.8,315.2 450.7,315.2 453.2,319.5 450.7,323.7 445.8,323.7 		"/>
		<polygon class="st0" points="443.3,81.4 445.8,77.2 450.7,77.2 453.2,81.4 450.7,85.7 445.8,85.7 		"/>
		<polygon class="st0" points="443.3,93.3 445.8,89.1 450.7,89.1 453.2,93.3 450.7,97.6 445.8,97.6 		"/>
		<polygon class="st0" points="443.3,105.2 445.8,101 450.7,101 453.2,105.2 450.7,109.5 445.8,109.5 		"/>
		<polygon class="st0" points="443.3,117.1 445.8,112.9 450.7,112.9 453.2,117.1 450.7,121.4 445.8,121.4 		"/>
		<polygon class="st0" points="443.3,45.7 445.8,41.4 450.7,41.4 453.2,45.7 450.7,49.9 445.8,49.9 		"/>
		<polygon class="st0" points="443.3,57.6 445.8,53.3 450.7,53.3 453.2,57.6 450.7,61.9 445.8,61.9 		"/>
		<polygon class="st0" points="443.3,69.5 445.8,65.3 450.7,65.3 453.2,69.5 450.7,73.8 445.8,73.8 		"/>
		<polygon class="st0" points="494.9,135 497.4,130.7 502.3,130.7 504.7,135 502.3,139.2 497.4,139.2 		"/>
		<polygon class="st0" points="494.9,146.9 497.4,142.6 502.3,142.6 504.7,146.9 502.3,151.1 497.4,151.1 		"/>
		<polygon class="st0" points="494.9,158.8 497.4,154.5 502.3,154.5 504.7,158.8 502.3,163 497.4,163 		"/>
		<polygon class="st0" points="494.9,170.7 497.4,166.4 502.3,166.4 504.7,170.7 502.3,174.9 497.4,174.9 		"/>
		<polygon class="st0" points="494.9,182.6 497.4,178.3 502.3,178.3 504.7,182.6 502.3,186.8 497.4,186.8 		"/>
		<polygon class="st0" points="494.9,194.5 497.4,190.2 502.3,190.2 504.7,194.5 502.3,198.7 497.4,198.7 		"/>
		<polygon class="st0" points="494.9,206.4 497.4,202.1 502.3,202.1 504.7,206.4 502.3,210.6 497.4,210.6 		"/>
		<polygon class="st0" points="494.9,218.3 497.4,214 502.3,214 504.7,218.3 502.3,222.5 497.4,222.5 		"/>
		<polygon class="st0" points="494.9,230.2 497.4,225.9 502.3,225.9 504.7,230.2 502.3,234.4 497.4,234.4 		"/>
		<polygon class="st0" points="494.9,242.1 497.4,237.8 502.3,237.8 504.7,242.1 502.3,246.3 497.4,246.3 		"/>
		<polygon class="st0" points="494.9,254 497.4,249.7 502.3,249.7 504.7,254 502.3,258.3 497.4,258.3 		"/>
		<polygon class="st0" points="494.9,265.9 497.4,261.6 502.3,261.6 504.7,265.9 502.3,270.2 497.4,270.2 		"/>
		<polygon class="st0" points="494.9,277.8 497.4,273.6 502.3,273.6 504.7,277.8 502.3,282.1 497.4,282.1 		"/>
		<polygon class="st0" points="494.9,289.7 497.4,285.5 502.3,285.5 504.7,289.7 502.3,294 497.4,294 		"/>
		<polygon class="st0" points="494.9,87.4 497.4,83.1 502.3,83.1 504.7,87.4 502.3,91.6 497.4,91.6 		"/>
		<polygon class="st0" points="494.9,99.3 497.4,95 502.3,95 504.7,99.3 502.3,103.5 497.4,103.5 		"/>
		<polygon class="st0" points="494.9,111.2 497.4,106.9 502.3,106.9 504.7,111.2 502.3,115.4 497.4,115.4 		"/>
		<polygon class="st0" points="494.9,123.1 497.4,118.8 502.3,118.8 504.7,123.1 502.3,127.3 497.4,127.3 		"/>
		<polygon class="st0" points="494.9,75.5 497.4,71.2 502.3,71.2 504.7,75.5 502.3,79.7 497.4,79.7 		"/>
		<polygon class="st0" points="505.2,129 507.7,124.8 512.6,124.8 515,129 512.6,133.3 507.7,133.3 		"/>
		<polygon class="st0" points="505.2,140.9 507.7,136.7 512.6,136.7 515,140.9 512.6,145.2 507.7,145.2 		"/>
		<polygon class="st0" points="505.2,152.8 507.7,148.6 512.6,148.6 515,152.8 512.6,157.1 507.7,157.1 		"/>
		<polygon class="st0" points="505.2,164.7 507.7,160.5 512.6,160.5 515,164.7 512.6,169 507.7,169 		"/>
		<polygon class="st0" points="505.2,176.6 507.7,172.4 512.6,172.4 515,176.6 512.6,180.9 507.7,180.9 		"/>
		<polygon class="st0" points="505.2,188.5 507.7,184.3 512.6,184.3 515,188.5 512.6,192.8 507.7,192.8 		"/>
		<polygon class="st0" points="505.2,200.4 507.7,196.2 512.6,196.2 515,200.4 512.6,204.7 507.7,204.7 		"/>
		<polygon class="st0" points="505.2,212.3 507.7,208.1 512.6,208.1 515,212.3 512.6,216.6 507.7,216.6 		"/>
		<polygon class="st0" points="505.2,224.2 507.7,220 512.6,220 515,224.2 512.6,228.5 507.7,228.5 		"/>
		<polygon class="st0" points="505.2,236.1 507.7,231.9 512.6,231.9 515,236.1 512.6,240.4 507.7,240.4 		"/>
		<polygon class="st0" points="505.2,248 507.7,243.8 512.6,243.8 515,248 512.6,252.3 507.7,252.3 		"/>
		<polygon class="st0" points="505.2,260 507.7,255.7 512.6,255.7 515,260 512.6,264.2 507.7,264.2 		"/>
		<polygon class="st0" points="505.2,271.9 507.7,267.6 512.6,267.6 515,271.9 512.6,276.1 507.7,276.1 		"/>
		<polygon class="st0" points="505.2,283.8 507.7,279.5 512.6,279.5 515,283.8 512.6,288 507.7,288 		"/>
		<polygon class="st0" points="505.2,295.7 507.7,291.4 512.6,291.4 515,295.7 512.6,299.9 507.7,299.9 		"/>
		<polygon class="st0" points="505.2,93.3 507.7,89.1 512.6,89.1 515,93.3 512.6,97.6 507.7,97.6 		"/>
		<polygon class="st0" points="505.2,105.2 507.7,101 512.6,101 515,105.2 512.6,109.5 507.7,109.5 		"/>
		<polygon class="st0" points="505.2,117.1 507.7,112.9 512.6,112.9 515,117.1 512.6,121.4 507.7,121.4 		"/>
		<polygon class="st0" points="505.2,57.6 507.7,53.3 512.6,53.3 515,57.6 512.6,61.9 507.7,61.9 		"/>
		<polygon class="st0" points="505.2,69.5 507.7,65.3 512.6,65.3 515,69.5 512.6,73.8 507.7,73.8 		"/>
		<polygon class="st0" points="515.5,135 518,130.7 522.9,130.7 525.4,135 522.9,139.2 518,139.2 		"/>
		<polygon class="st0" points="515.5,146.9 518,142.6 522.9,142.6 525.4,146.9 522.9,151.1 518,151.1 		"/>
		<polygon class="st0" points="515.5,158.8 518,154.5 522.9,154.5 525.4,158.8 522.9,163 518,163 		"/>
		<polygon class="st0" points="515.5,170.7 518,166.4 522.9,166.4 525.4,170.7 522.9,174.9 518,174.9 		"/>
		<polygon class="st0" points="515.5,182.6 518,178.3 522.9,178.3 525.4,182.6 522.9,186.8 518,186.8 		"/>
		<polygon class="st0" points="515.5,194.5 518,190.2 522.9,190.2 525.4,194.5 522.9,198.7 518,198.7 		"/>
		<polygon class="st0" points="515.5,206.4 518,202.1 522.9,202.1 525.4,206.4 522.9,210.6 518,210.6 		"/>
		<polygon class="st0" points="515.5,218.3 518,214 522.9,214 525.4,218.3 522.9,222.5 518,222.5 		"/>
		<polygon class="st0" points="515.5,230.2 518,225.9 522.9,225.9 525.4,230.2 522.9,234.4 518,234.4 		"/>
		<polygon class="st0" points="515.5,242.1 518,237.8 522.9,237.8 525.4,242.1 522.9,246.3 518,246.3 		"/>
		<polygon class="st0" points="515.5,254 518,249.7 522.9,249.7 525.4,254 522.9,258.3 518,258.3 		"/>
		<polygon class="st0" points="515.5,265.9 518,261.6 522.9,261.6 525.4,265.9 522.9,270.2 518,270.2 		"/>
		<polygon class="st0" points="515.5,99.3 518,95 522.9,95 525.4,99.3 522.9,103.5 518,103.5 		"/>
		<polygon class="st0" points="515.5,111.2 518,106.9 522.9,106.9 525.4,111.2 522.9,115.4 518,115.4 		"/>
		<polygon class="st0" points="515.5,123.1 518,118.8 522.9,118.8 525.4,123.1 522.9,127.3 518,127.3 		"/>
		<polygon class="st0" points="515.5,51.6 518,47.4 522.9,47.4 525.4,51.6 522.9,55.9 518,55.9 		"/>
		<polygon class="st0" points="525.8,129 528.3,124.8 533.2,124.8 535.7,129 533.2,133.3 528.3,133.3 		"/>
		<polygon class="st0" points="525.8,140.9 528.3,136.7 533.2,136.7 535.7,140.9 533.2,145.2 528.3,145.2 		"/>
		<polygon class="st0" points="525.8,152.8 528.3,148.6 533.2,148.6 535.7,152.8 533.2,157.1 528.3,157.1 		"/>
		<polygon class="st0" points="525.8,164.7 528.3,160.5 533.2,160.5 535.7,164.7 533.2,169 528.3,169 		"/>
		<polygon class="st0" points="525.8,176.6 528.3,172.4 533.2,172.4 535.7,176.6 533.2,180.9 528.3,180.9 		"/>
		<polygon class="st0" points="525.8,188.5 528.3,184.3 533.2,184.3 535.7,188.5 533.2,192.8 528.3,192.8 		"/>
		<polygon class="st0" points="525.8,200.4 528.3,196.2 533.2,196.2 535.7,200.4 533.2,204.7 528.3,204.7 		"/>
		<polygon class="st0" points="525.8,212.3 528.3,208.1 533.2,208.1 535.7,212.3 533.2,216.6 528.3,216.6 		"/>
		<polygon class="st0" points="525.8,224.2 528.3,220 533.2,220 535.7,224.2 533.2,228.5 528.3,228.5 		"/>
		<polygon class="st0" points="525.8,248 528.3,243.8 533.2,243.8 535.7,248 533.2,252.3 528.3,252.3 		"/>
		<polygon class="st0" points="525.8,260 528.3,255.7 533.2,255.7 535.7,260 533.2,264.2 528.3,264.2 		"/>
		<polygon class="st0" points="525.8,271.9 528.3,267.6 533.2,267.6 535.7,271.9 533.2,276.1 528.3,276.1 		"/>
		<polygon class="st0" points="525.8,93.3 528.3,89.1 533.2,89.1 535.7,93.3 533.2,97.6 528.3,97.6 		"/>
		<polygon class="st0" points="525.8,105.2 528.3,101 533.2,101 535.7,105.2 533.2,109.5 528.3,109.5 		"/>
		<polygon class="st0" points="453.7,135 456.1,130.7 461,130.7 463.5,135 461,139.2 456.1,139.2 		"/>
		<polygon class="st0" points="453.7,146.9 456.1,142.6 461,142.6 463.5,146.9 461,151.1 456.1,151.1 		"/>
		<polygon class="st0" points="453.7,158.8 456.1,154.5 461,154.5 463.5,158.8 461,163 456.1,163 		"/>
		<polygon class="st0" points="453.7,170.7 456.1,166.4 461,166.4 463.5,170.7 461,174.9 456.1,174.9 		"/>
		<polygon class="st0" points="453.7,182.6 456.1,178.3 461,178.3 463.5,182.6 461,186.8 456.1,186.8 		"/>
		<polygon class="st0" points="453.7,194.5 456.1,190.2 461,190.2 463.5,194.5 461,198.7 456.1,198.7 		"/>
		<polygon class="st0" points="453.7,206.4 456.1,202.1 461,202.1 463.5,206.4 461,210.6 456.1,210.6 		"/>
		<polygon class="st0" points="453.7,218.3 456.1,214 461,214 463.5,218.3 461,222.5 456.1,222.5 		"/>
		<polygon class="st0" points="453.7,230.2 456.1,225.9 461,225.9 463.5,230.2 461,234.4 456.1,234.4 		"/>
		<polygon class="st0" points="453.7,242.1 456.1,237.8 461,237.8 463.5,242.1 461,246.3 456.1,246.3 		"/>
		<polygon class="st0" points="453.7,254 456.1,249.7 461,249.7 463.5,254 461,258.3 456.1,258.3 		"/>
		<polygon class="st0" points="453.7,265.9 456.1,261.6 461,261.6 463.5,265.9 461,270.2 456.1,270.2 		"/>
		<polygon class="st0" points="453.7,277.8 456.1,273.6 461,273.6 463.5,277.8 461,282.1 456.1,282.1 		"/>
		<polygon class="st0" points="453.7,289.7 456.1,285.5 461,285.5 463.5,289.7 461,294 456.1,294 		"/>
		<polygon class="st0" points="453.7,301.6 456.1,297.4 461,297.4 463.5,301.6 461,305.9 456.1,305.9 		"/>
		<polygon class="st0" points="453.7,313.5 456.1,309.3 461,309.3 463.5,313.5 461,317.8 456.1,317.8 		"/>
		<polygon class="st0" points="453.7,87.4 456.1,83.1 461,83.1 463.5,87.4 461,91.6 456.1,91.6 		"/>
		<polygon class="st0" points="453.7,99.3 456.1,95 461,95 463.5,99.3 461,103.5 456.1,103.5 		"/>
		<polygon class="st0" points="453.7,111.2 456.1,106.9 461,106.9 463.5,111.2 461,115.4 456.1,115.4 		"/>
		<polygon class="st0" points="453.7,123.1 456.1,118.8 461,118.8 463.5,123.1 461,127.3 456.1,127.3 		"/>
		<polygon class="st0" points="453.7,51.6 456.1,47.4 461,47.4 463.5,51.6 461,55.9 456.1,55.9 		"/>
		<polygon class="st0" points="453.7,63.6 456.1,59.3 461,59.3 463.5,63.6 461,67.8 456.1,67.8 		"/>
		<polygon class="st0" points="453.7,75.5 456.1,71.2 461,71.2 463.5,75.5 461,79.7 456.1,79.7 		"/>
		<polygon class="st0" points="453.7,39.7 456.1,35.5 461,35.5 463.5,39.7 461,44 456.1,44 		"/>
		<polygon class="st0" points="464,129 466.4,124.8 471.3,124.8 473.8,129 471.3,133.3 466.4,133.3 		"/>
		<polygon class="st0" points="464,140.9 466.4,136.7 471.3,136.7 473.8,140.9 471.3,145.2 466.4,145.2 		"/>
		<polygon class="st0" points="464,152.8 466.4,148.6 471.3,148.6 473.8,152.8 471.3,157.1 466.4,157.1 		"/>
		<polygon class="st0" points="464,164.7 466.4,160.5 471.3,160.5 473.8,164.7 471.3,169 466.4,169 		"/>
		<polygon class="st0" points="464,176.6 466.4,172.4 471.3,172.4 473.8,176.6 471.3,180.9 466.4,180.9 		"/>
		<polygon class="st0" points="464,188.5 466.4,184.3 471.3,184.3 473.8,188.5 471.3,192.8 466.4,192.8 		"/>
		<polygon class="st0" points="464,200.4 466.4,196.2 471.3,196.2 473.8,200.4 471.3,204.7 466.4,204.7 		"/>
		<polygon class="st0" points="464,212.3 466.4,208.1 471.3,208.1 473.8,212.3 471.3,216.6 466.4,216.6 		"/>
		<polygon class="st0" points="464,224.2 466.4,220 471.3,220 473.8,224.2 471.3,228.5 466.4,228.5 		"/>
		<polygon class="st0" points="464,236.1 466.4,231.9 471.3,231.9 473.8,236.1 471.3,240.4 466.4,240.4 		"/>
		<polygon class="st0" points="464,248 466.4,243.8 471.3,243.8 473.8,248 471.3,252.3 466.4,252.3 		"/>
		<polygon class="st0" points="464,260 466.4,255.7 471.3,255.7 473.8,260 471.3,264.2 466.4,264.2 		"/>
		<polygon class="st0" points="464,271.9 466.4,267.6 471.3,267.6 473.8,271.9 471.3,276.1 466.4,276.1 		"/>
		<polygon class="st0" points="464,283.8 466.4,279.5 471.3,279.5 473.8,283.8 471.3,288 466.4,288 		"/>
		<polygon class="st0" points="464,295.7 466.4,291.4 471.3,291.4 473.8,295.7 471.3,299.9 466.4,299.9 		"/>
		<polygon class="st0" points="464,81.4 466.4,77.2 471.3,77.2 473.8,81.4 471.3,85.7 466.4,85.7 		"/>
		<polygon class="st0" points="464,93.3 466.4,89.1 471.3,89.1 473.8,93.3 471.3,97.6 466.4,97.6 		"/>
		<polygon class="st0" points="464,105.2 466.4,101 471.3,101 473.8,105.2 471.3,109.5 466.4,109.5 		"/>
		<polygon class="st0" points="464,117.1 466.4,112.9 471.3,112.9 473.8,117.1 471.3,121.4 466.4,121.4 		"/>
		<polygon class="st0" points="464,57.6 466.4,53.3 471.3,53.3 473.8,57.6 471.3,61.9 466.4,61.9 		"/>
		<polygon class="st0" points="464,69.5 466.4,65.3 471.3,65.3 473.8,69.5 471.3,73.8 466.4,73.8 		"/>
		<polygon class="st0" points="474.3,135 476.7,130.7 481.6,130.7 484.1,135 481.6,139.2 476.7,139.2 		"/>
		<polygon class="st0" points="474.3,146.9 476.7,142.6 481.6,142.6 484.1,146.9 481.6,151.1 476.7,151.1 		"/>
		<polygon class="st0" points="474.3,158.8 476.7,154.5 481.6,154.5 484.1,158.8 481.6,163 476.7,163 		"/>
		<polygon class="st0" points="474.3,170.7 476.7,166.4 481.6,166.4 484.1,170.7 481.6,174.9 476.7,174.9 		"/>
		<polygon class="st0" points="474.3,182.6 476.7,178.3 481.6,178.3 484.1,182.6 481.6,186.8 476.7,186.8 		"/>
		<polygon class="st0" points="474.3,194.5 476.7,190.2 481.6,190.2 484.1,194.5 481.6,198.7 476.7,198.7 		"/>
		<polygon class="st0" points="474.3,206.4 476.7,202.1 481.6,202.1 484.1,206.4 481.6,210.6 476.7,210.6 		"/>
		<polygon class="st0" points="474.3,218.3 476.7,214 481.6,214 484.1,218.3 481.6,222.5 476.7,222.5 		"/>
		<polygon class="st0" points="474.3,230.2 476.7,225.9 481.6,225.9 484.1,230.2 481.6,234.4 476.7,234.4 		"/>
		<polygon class="st0" points="474.3,242.1 476.7,237.8 481.6,237.8 484.1,242.1 481.6,246.3 476.7,246.3 		"/>
		<polygon class="st0" points="474.3,254 476.7,249.7 481.6,249.7 484.1,254 481.6,258.3 476.7,258.3 		"/>
		<polygon class="st0" points="474.3,265.9 476.7,261.6 481.6,261.6 484.1,265.9 481.6,270.2 476.7,270.2 		"/>
		<polygon class="st0" points="474.3,277.8 476.7,273.6 481.6,273.6 484.1,277.8 481.6,282.1 476.7,282.1 		"/>
		<polygon class="st0" points="474.3,289.7 476.7,285.5 481.6,285.5 484.1,289.7 481.6,294 476.7,294 		"/>
		<polygon class="st0" points="474.3,87.4 476.7,83.1 481.6,83.1 484.1,87.4 481.6,91.6 476.7,91.6 		"/>
		<polygon class="st0" points="474.3,99.3 476.7,95 481.6,95 484.1,99.3 481.6,103.5 476.7,103.5 		"/>
		<polygon class="st0" points="474.3,111.2 476.7,106.9 481.6,106.9 484.1,111.2 481.6,115.4 476.7,115.4 		"/>
		<polygon class="st0" points="474.3,123.1 476.7,118.8 481.6,118.8 484.1,123.1 481.6,127.3 476.7,127.3 		"/>
		<polygon class="st0" points="474.3,51.6 476.7,47.4 481.6,47.4 484.1,51.6 481.6,55.9 476.7,55.9 		"/>
		<polygon class="st0" points="474.3,75.5 476.7,71.2 481.6,71.2 484.1,75.5 481.6,79.7 476.7,79.7 		"/>
		<polygon class="st0" points="484.6,129 487,124.8 492,124.8 494.4,129 492,133.3 487,133.3 		"/>
		<polygon class="st0" points="484.6,140.9 487,136.7 492,136.7 494.4,140.9 492,145.2 487,145.2 		"/>
		<polygon class="st0" points="484.6,152.8 487,148.6 492,148.6 494.4,152.8 492,157.1 487,157.1 		"/>
		<polygon class="st0" points="484.6,164.7 487,160.5 492,160.5 494.4,164.7 492,169 487,169 		"/>
		<polygon class="st0" points="484.6,176.6 487,172.4 492,172.4 494.4,176.6 492,180.9 487,180.9 		"/>
		<polygon class="st0" points="484.6,188.5 487,184.3 492,184.3 494.4,188.5 492,192.8 487,192.8 		"/>
		<polygon class="st0" points="484.6,200.4 487,196.2 492,196.2 494.4,200.4 492,204.7 487,204.7 		"/>
		<polygon class="st0" points="484.6,212.3 487,208.1 492,208.1 494.4,212.3 492,216.6 487,216.6 		"/>
		<polygon class="st0" points="484.6,224.2 487,220 492,220 494.4,224.2 492,228.5 487,228.5 		"/>
		<polygon class="st0" points="484.6,236.1 487,231.9 492,231.9 494.4,236.1 492,240.4 487,240.4 		"/>
		<polygon class="st0" points="484.6,248 487,243.8 492,243.8 494.4,248 492,252.3 487,252.3 		"/>
		<polygon class="st0" points="484.6,260 487,255.7 492,255.7 494.4,260 492,264.2 487,264.2 		"/>
		<polygon class="st0" points="484.6,271.9 487,267.6 492,267.6 494.4,271.9 492,276.1 487,276.1 		"/>
		<polygon class="st0" points="484.6,81.4 487,77.2 492,77.2 494.4,81.4 492,85.7 487,85.7 		"/>
		<polygon class="st0" points="484.6,93.3 487,89.1 492,89.1 494.4,93.3 492,97.6 487,97.6 		"/>
		<polygon class="st0" points="484.6,105.2 487,101 492,101 494.4,105.2 492,109.5 487,109.5 		"/>
		<polygon class="st0" points="484.6,117.1 487,112.9 492,112.9 494.4,117.1 492,121.4 487,121.4 		"/>
		<polygon class="st0" points="536.2,135 538.6,130.7 543.5,130.7 546,135 543.5,139.2 538.6,139.2 		"/>
		<polygon class="st0" points="536.2,146.9 538.6,142.6 543.5,142.6 546,146.9 543.5,151.1 538.6,151.1 		"/>
		<polygon class="st0" points="536.2,158.8 538.6,154.5 543.5,154.5 546,158.8 543.5,163 538.6,163 		"/>
		<polygon class="st0" points="536.2,170.7 538.6,166.4 543.5,166.4 546,170.7 543.5,174.9 538.6,174.9 		"/>
		<polygon class="st0" points="536.2,182.6 538.6,178.3 543.5,178.3 546,182.6 543.5,186.8 538.6,186.8 		"/>
		<polygon class="st0" points="536.2,194.5 538.6,190.2 543.5,190.2 546,194.5 543.5,198.7 538.6,198.7 		"/>
		<polygon class="st0" points="536.2,206.4 538.6,202.1 543.5,202.1 546,206.4 543.5,210.6 538.6,210.6 		"/>
		<polygon class="st0" points="536.2,218.3 538.6,214 543.5,214 546,218.3 543.5,222.5 538.6,222.5 		"/>
		<polygon class="st0" points="536.2,230.2 538.6,225.9 543.5,225.9 546,230.2 543.5,234.4 538.6,234.4 		"/>
		<polygon class="st0" points="536.2,254 538.6,249.7 543.5,249.7 546,254 543.5,258.3 538.6,258.3 		"/>
		<polygon class="st0" points="536.2,123.1 538.6,118.8 543.5,118.8 546,123.1 543.5,127.3 538.6,127.3 		"/>
		<polygon class="st0" points="577.5,194.5 580,190.2 584.9,190.2 587.3,194.5 584.9,198.7 580,198.7 		"/>
		<polygon class="st0" points="577.5,206.4 580,202.1 584.9,202.1 587.3,206.4 584.9,210.6 580,210.6 		"/>
		<polygon class="st0" points="546.6,140.9 549,136.7 553.9,136.7 556.4,140.9 553.9,145.2 549,145.2 		"/>
		<polygon class="st0" points="546.6,152.8 549,148.6 553.9,148.6 556.4,152.8 553.9,157.1 549,157.1 		"/>
		<polygon class="st0" points="546.6,164.7 549,160.5 553.9,160.5 556.4,164.7 553.9,169 549,169 		"/>
		<polygon class="st0" points="546.6,176.6 549,172.4 553.9,172.4 556.4,176.6 553.9,180.9 549,180.9 		"/>
		<polygon class="st0" points="546.6,188.5 549,184.3 553.9,184.3 556.4,188.5 553.9,192.8 549,192.8 		"/>
		<polygon class="st0" points="546.6,200.4 549,196.2 553.9,196.2 556.4,200.4 553.9,204.7 549,204.7 		"/>
		<polygon class="st0" points="546.6,212.3 549,208.1 553.9,208.1 556.4,212.3 553.9,216.6 549,216.6 		"/>
		<polygon class="st0" points="546.6,224.2 549,220 553.9,220 556.4,224.2 553.9,228.5 549,228.5 		"/>
		<polygon class="st0" points="546.6,236.1 549,231.9 553.9,231.9 556.4,236.1 553.9,240.4 549,240.4 		"/>
		<polygon class="st0" points="556.9,146.9 559.3,142.6 564.3,142.6 566.7,146.9 564.3,151.1 559.3,151.1 		"/>
		<polygon class="st0" points="556.9,158.8 559.3,154.5 564.3,154.5 566.7,158.8 564.3,163 559.3,163 		"/>
		<polygon class="st0" points="556.9,170.7 559.3,166.4 564.3,166.4 566.7,170.7 564.3,174.9 559.3,174.9 		"/>
		<polygon class="st0" points="556.9,182.6 559.3,178.3 564.3,178.3 566.7,182.6 564.3,186.8 559.3,186.8 		"/>
		<polygon class="st0" points="556.9,194.5 559.3,190.2 564.3,190.2 566.7,194.5 564.3,198.7 559.3,198.7 		"/>
		<polygon class="st0" points="556.9,218.3 559.3,214 564.3,214 566.7,218.3 564.3,222.5 559.3,222.5 		"/>
		<polygon class="st0" points="556.9,230.2 559.3,225.9 564.3,225.9 566.7,230.2 564.3,234.4 559.3,234.4 		"/>
		<polygon class="st0" points="567.2,152.8 569.7,148.6 574.6,148.6 577,152.8 574.6,157.1 569.7,157.1 		"/>
		<polygon class="st0" points="567.2,164.7 569.7,160.5 574.6,160.5 577,164.7 574.6,169 569.7,169 		"/>
		<polygon class="st0" points="567.2,188.5 569.7,184.3 574.6,184.3 577,188.5 574.6,192.8 569.7,192.8 		"/>
		<polygon class="st0" points="567.2,200.4 569.7,196.2 574.6,196.2 577,200.4 574.6,204.7 569.7,204.7 		"/>
	</g>
</g>
<g id="Layer_2">
</g>
</svg>
