<?xml version="1.0" encoding="utf-8"?>
<!-- Generator: Adobe Illustrator 26.0.3, SVG Export Plug-In . SVG Version: 6.00 Build 0)  -->
<svg version="1.1" xmlns="http://www.w3.org/2000/svg" xmlns:xlink="http://www.w3.org/1999/xlink" x="0px" y="0px"
	 viewBox="0 0 649.1 418.1" style="enable-background:new 0 0 649.1 418.1;" xml:space="preserve">
<style type="text/css">
	.st0{fill:none;stroke:#FF00FF;stroke-width:2.834646e-02;stroke-miterlimit:10;}
</style>
<g id="Layer_1">
	<g>
		<polygon class="st0" points="113.4,209.1 115.9,204.8 120.8,204.8 123.2,209.1 120.8,213.3 115.9,213.3 		"/>
		<polygon class="st0" points="113.4,221 115.9,216.7 120.8,216.7 123.2,221 120.8,225.2 115.9,225.2 		"/>
		<polygon class="st0" points="113.4,232.9 115.9,228.6 120.8,228.6 123.2,232.9 120.8,237.1 115.9,237.1 		"/>
		<polygon class="st0" points="113.4,244.8 115.9,240.5 120.8,240.5 123.2,244.8 120.8,249 115.9,249 		"/>
		<polygon class="st0" points="123.7,215 126.2,210.8 131.1,210.8 133.5,215 131.1,219.3 126.2,219.3 		"/>
		<polygon class="st0" points="123.7,226.9 126.2,222.7 131.1,222.7 133.5,226.9 131.1,231.2 126.2,231.2 		"/>
		<polygon class="st0" points="123.7,238.8 126.2,234.6 131.1,234.6 133.5,238.8 131.1,243.1 126.2,243.1 		"/>
		<polygon class="st0" points="123.7,262.6 126.2,258.4 131.1,258.4 133.5,262.6 131.1,266.9 126.2,266.9 		"/>
		<polygon class="st0" points="134,173.3 136.5,169.1 141.4,169.1 143.9,173.3 141.4,177.6 136.5,177.6 		"/>
		<polygon class="st0" points="134,185.2 136.5,181 141.4,181 143.9,185.2 141.4,189.5 136.5,189.5 		"/>
		<polygon class="st0" points="134,197.2 136.5,192.9 141.4,192.9 143.9,197.2 141.4,201.4 136.5,201.4 		"/>
		<polygon class="st0" points="134,209.1 136.5,204.8 141.4,204.8 143.9,209.1 141.4,213.3 136.5,213.3 		"/>
		<polygon class="st0" points="134,221 136.5,216.7 141.4,216.7 143.9,221 141.4,225.2 136.5,225.2 		"/>
		<polygon class="st0" points="134,232.9 136.5,228.6 141.4,228.6 143.9,232.9 141.4,237.1 136.5,237.1 		"/>
		<polygon class="st0" points="134,244.8 136.5,240.5 141.4,240.5 143.9,244.8 141.4,249 136.5,249 		"/>
		<polygon class="st0" points="134,256.7 136.5,252.4 141.4,252.4 143.9,256.7 141.4,260.9 136.5,260.9 		"/>
		<polygon class="st0" points="134,268.6 136.5,264.3 141.4,264.3 143.9,268.6 141.4,272.8 136.5,272.8 		"/>
		<polygon class="st0" points="134,280.5 136.5,276.2 141.4,276.2 143.9,280.5 141.4,284.7 136.5,284.7 		"/>
		<polygon class="st0" points="134,304.3 136.5,300 141.4,300 143.9,304.3 141.4,308.5 136.5,308.5 		"/>
		<polygon class="st0" points="144.4,179.3 146.8,175 151.7,175 154.2,179.3 151.7,183.6 146.8,183.6 		"/>
		<polygon class="st0" points="144.4,191.2 146.8,186.9 151.7,186.9 154.2,191.2 151.7,195.5 146.8,195.5 		"/>
		<polygon class="st0" points="144.4,203.1 146.8,198.9 151.7,198.9 154.2,203.1 151.7,207.4 146.8,207.4 		"/>
		<polygon class="st0" points="144.4,215 146.8,210.8 151.7,210.8 154.2,215 151.7,219.3 146.8,219.3 		"/>
		<polygon class="st0" points="144.4,226.9 146.8,222.7 151.7,222.7 154.2,226.9 151.7,231.2 146.8,231.2 		"/>
		<polygon class="st0" points="144.4,238.8 146.8,234.6 151.7,234.6 154.2,238.8 151.7,243.1 146.8,243.1 		"/>
		<polygon class="st0" points="144.4,250.7 146.8,246.5 151.7,246.5 154.2,250.7 151.7,255 146.8,255 		"/>
		<polygon class="st0" points="144.4,262.6 146.8,258.4 151.7,258.4 154.2,262.6 151.7,266.9 146.8,266.9 		"/>
		<polygon class="st0" points="144.4,274.5 146.8,270.3 151.7,270.3 154.2,274.5 151.7,278.8 146.8,278.8 		"/>
		<polygon class="st0" points="144.4,286.4 146.8,282.2 151.7,282.2 154.2,286.4 151.7,290.7 146.8,290.7 		"/>
		<polygon class="st0" points="144.4,298.3 146.8,294.1 151.7,294.1 154.2,298.3 151.7,302.6 146.8,302.6 		"/>
		<polygon class="st0" points="144.4,334 146.8,329.8 151.7,329.8 154.2,334 151.7,338.3 146.8,338.3 		"/>
		<polygon class="st0" points="154.7,185.2 157.1,181 162,181 164.5,185.2 162,189.5 157.1,189.5 		"/>
		<polygon class="st0" points="154.7,197.2 157.1,192.9 162,192.9 164.5,197.2 162,201.4 157.1,201.4 		"/>
		<polygon class="st0" points="154.7,209.1 157.1,204.8 162,204.8 164.5,209.1 162,213.3 157.1,213.3 		"/>
		<polygon class="st0" points="154.7,221 157.1,216.7 162,216.7 164.5,221 162,225.2 157.1,225.2 		"/>
		<polygon class="st0" points="154.7,232.9 157.1,228.6 162,228.6 164.5,232.9 162,237.1 157.1,237.1 		"/>
		<polygon class="st0" points="154.7,244.8 157.1,240.5 162,240.5 164.5,244.8 162,249 157.1,249 		"/>
		<polygon class="st0" points="154.7,256.7 157.1,252.4 162,252.4 164.5,256.7 162,260.9 157.1,260.9 		"/>
		<polygon class="st0" points="154.7,268.6 157.1,264.3 162,264.3 164.5,268.6 162,272.8 157.1,272.8 		"/>
		<polygon class="st0" points="154.7,280.5 157.1,276.2 162,276.2 164.5,280.5 162,284.7 157.1,284.7 		"/>
		<polygon class="st0" points="154.7,292.4 157.1,288.1 162,288.1 164.5,292.4 162,296.6 157.1,296.6 		"/>
		<polygon class="st0" points="154.7,304.3 157.1,300 162,300 164.5,304.3 162,308.5 157.1,308.5 		"/>
		<polygon class="st0" points="154.7,316.2 157.1,311.9 162,311.9 164.5,316.2 162,320.4 157.1,320.4 		"/>
		<polygon class="st0" points="154.7,328.1 157.1,323.8 162,323.8 164.5,328.1 162,332.3 157.1,332.3 		"/>
		<polygon class="st0" points="154.7,340 157.1,335.7 162,335.7 164.5,340 162,344.2 157.1,344.2 		"/>
		<polygon class="st0" points="165,179.3 167.4,175 172.3,175 174.8,179.3 172.3,183.6 167.4,183.6 		"/>
		<polygon class="st0" points="165,191.2 167.4,186.9 172.3,186.9 174.8,191.2 172.3,195.5 167.4,195.5 		"/>
		<polygon class="st0" points="165,203.1 167.4,198.9 172.3,198.9 174.8,203.1 172.3,207.4 167.4,207.4 		"/>
		<polygon class="st0" points="165,215 167.4,210.8 172.3,210.8 174.8,215 172.3,219.3 167.4,219.3 		"/>
		<polygon class="st0" points="165,226.9 167.4,222.7 172.3,222.7 174.8,226.9 172.3,231.2 167.4,231.2 		"/>
		<polygon class="st0" points="165,238.8 167.4,234.6 172.3,234.6 174.8,238.8 172.3,243.1 167.4,243.1 		"/>
		<polygon class="st0" points="165,250.7 167.4,246.5 172.3,246.5 174.8,250.7 172.3,255 167.4,255 		"/>
		<polygon class="st0" points="165,262.6 167.4,258.4 172.3,258.4 174.8,262.6 172.3,266.9 167.4,266.9 		"/>
		<polygon class="st0" points="165,274.5 167.4,270.3 172.3,270.3 174.8,274.5 172.3,278.8 167.4,278.8 		"/>
		<polygon class="st0" points="165,286.4 167.4,282.2 172.3,282.2 174.8,286.4 172.3,290.7 167.4,290.7 		"/>
		<polygon class="st0" points="165,298.3 167.4,294.1 172.3,294.1 174.8,298.3 172.3,302.6 167.4,302.6 		"/>
		<polygon class="st0" points="165,310.2 167.4,306 172.3,306 174.8,310.2 172.3,314.5 167.4,314.5 		"/>
		<polygon class="st0" points="165,322.1 167.4,317.9 172.3,317.9 174.8,322.1 172.3,326.4 167.4,326.4 		"/>
		<polygon class="st0" points="165,334 167.4,329.8 172.3,329.8 174.8,334 172.3,338.3 167.4,338.3 		"/>
		<polygon class="st0" points="165,345.9 167.4,341.7 172.3,341.7 174.8,345.9 172.3,350.2 167.4,350.2 		"/>
		<polygon class="st0" points="165,357.8 167.4,353.6 172.3,353.6 174.8,357.8 172.3,362.1 167.4,362.1 		"/>
		<polygon class="st0" points="165,369.7 167.4,365.5 172.3,365.5 174.8,369.7 172.3,374 167.4,374 		"/>
		<polygon class="st0" points="175.3,173.3 177.7,169.1 182.7,169.1 185.1,173.3 182.7,177.6 177.7,177.6 		"/>
		<polygon class="st0" points="175.3,209.1 177.7,204.8 182.7,204.8 185.1,209.1 182.7,213.3 177.7,213.3 		"/>
		<polygon class="st0" points="175.3,221 177.7,216.7 182.7,216.7 185.1,221 182.7,225.2 177.7,225.2 		"/>
		<polygon class="st0" points="175.3,232.9 177.7,228.6 182.7,228.6 185.1,232.9 182.7,237.1 177.7,237.1 		"/>
		<polygon class="st0" points="175.3,244.8 177.7,240.5 182.7,240.5 185.1,244.8 182.7,249 177.7,249 		"/>
		<polygon class="st0" points="175.3,256.7 177.7,252.4 182.7,252.4 185.1,256.7 182.7,260.9 177.7,260.9 		"/>
		<polygon class="st0" points="175.3,268.6 177.7,264.3 182.7,264.3 185.1,268.6 182.7,272.8 177.7,272.8 		"/>
		<polygon class="st0" points="175.3,280.5 177.7,276.2 182.7,276.2 185.1,280.5 182.7,284.7 177.7,284.7 		"/>
		<polygon class="st0" points="175.3,292.4 177.7,288.1 182.7,288.1 185.1,292.4 182.7,296.6 177.7,296.6 		"/>
		<polygon class="st0" points="175.3,304.3 177.7,300 182.7,300 185.1,304.3 182.7,308.5 177.7,308.5 		"/>
		<polygon class="st0" points="175.3,316.2 177.7,311.9 182.7,311.9 185.1,316.2 182.7,320.4 177.7,320.4 		"/>
		<polygon class="st0" points="175.3,328.1 177.7,323.8 182.7,323.8 185.1,328.1 182.7,332.3 177.7,332.3 		"/>
		<polygon class="st0" points="175.3,340 177.7,335.7 182.7,335.7 185.1,340 182.7,344.2 177.7,344.2 		"/>
		<polygon class="st0" points="175.3,351.9 177.7,347.6 182.7,347.6 185.1,351.9 182.7,356.1 177.7,356.1 		"/>
		<polygon class="st0" points="175.3,363.8 177.7,359.5 182.7,359.5 185.1,363.8 182.7,368 177.7,368 		"/>
		<polygon class="st0" points="185.6,226.9 188.1,222.7 193,222.7 195.4,226.9 193,231.2 188.1,231.2 		"/>
		<polygon class="st0" points="185.6,238.8 188.1,234.6 193,234.6 195.4,238.8 193,243.1 188.1,243.1 		"/>
		<polygon class="st0" points="185.6,250.7 188.1,246.5 193,246.5 195.4,250.7 193,255 188.1,255 		"/>
		<polygon class="st0" points="185.6,262.6 188.1,258.4 193,258.4 195.4,262.6 193,266.9 188.1,266.9 		"/>
		<polygon class="st0" points="185.6,274.5 188.1,270.3 193,270.3 195.4,274.5 193,278.8 188.1,278.8 		"/>
		<polygon class="st0" points="185.6,286.4 188.1,282.2 193,282.2 195.4,286.4 193,290.7 188.1,290.7 		"/>
		<polygon class="st0" points="185.6,298.3 188.1,294.1 193,294.1 195.4,298.3 193,302.6 188.1,302.6 		"/>
		<polygon class="st0" points="185.6,310.2 188.1,306 193,306 195.4,310.2 193,314.5 188.1,314.5 		"/>
		<polygon class="st0" points="185.6,322.1 188.1,317.9 193,317.9 195.4,322.1 193,326.4 188.1,326.4 		"/>
		<polygon class="st0" points="185.6,334 188.1,329.8 193,329.8 195.4,334 193,338.3 188.1,338.3 		"/>
		<polygon class="st0" points="185.6,345.9 188.1,341.7 193,341.7 195.4,345.9 193,350.2 188.1,350.2 		"/>
		<polygon class="st0" points="185.6,357.8 188.1,353.6 193,353.6 195.4,357.8 193,362.1 188.1,362.1 		"/>
		<polygon class="st0" points="185.6,369.7 188.1,365.5 193,365.5 195.4,369.7 193,374 188.1,374 		"/>
		<polygon class="st0" points="195.9,209.1 198.4,204.8 203.3,204.8 205.7,209.1 203.3,213.3 198.4,213.3 		"/>
		<polygon class="st0" points="195.9,221 198.4,216.7 203.3,216.7 205.7,221 203.3,225.2 198.4,225.2 		"/>
		<polygon class="st0" points="195.9,232.9 198.4,228.6 203.3,228.6 205.7,232.9 203.3,237.1 198.4,237.1 		"/>
		<polygon class="st0" points="195.9,244.8 198.4,240.5 203.3,240.5 205.7,244.8 203.3,249 198.4,249 		"/>
		<polygon class="st0" points="195.9,256.7 198.4,252.4 203.3,252.4 205.7,256.7 203.3,260.9 198.4,260.9 		"/>
		<polygon class="st0" points="195.9,268.6 198.4,264.3 203.3,264.3 205.7,268.6 203.3,272.8 198.4,272.8 		"/>
		<polygon class="st0" points="195.9,280.5 198.4,276.2 203.3,276.2 205.7,280.5 203.3,284.7 198.4,284.7 		"/>
		<polygon class="st0" points="195.9,292.4 198.4,288.1 203.3,288.1 205.7,292.4 203.3,296.6 198.4,296.6 		"/>
		<polygon class="st0" points="195.9,304.3 198.4,300 203.3,300 205.7,304.3 203.3,308.5 198.4,308.5 		"/>
		<polygon class="st0" points="195.9,316.2 198.4,311.9 203.3,311.9 205.7,316.2 203.3,320.4 198.4,320.4 		"/>
		<polygon class="st0" points="195.9,328.1 198.4,323.8 203.3,323.8 205.7,328.1 203.3,332.3 198.4,332.3 		"/>
		<polygon class="st0" points="195.9,340 198.4,335.7 203.3,335.7 205.7,340 203.3,344.2 198.4,344.2 		"/>
		<polygon class="st0" points="195.9,351.9 198.4,347.6 203.3,347.6 205.7,351.9 203.3,356.1 198.4,356.1 		"/>
		<polygon class="st0" points="195.9,363.8 198.4,359.5 203.3,359.5 205.7,363.8 203.3,368 198.4,368 		"/>
		<polygon class="st0" points="195.9,375.7 198.4,371.4 203.3,371.4 205.7,375.7 203.3,379.9 198.4,379.9 		"/>
		<polygon class="st0" points="206.2,215 208.7,210.8 213.6,210.8 216,215 213.6,219.3 208.7,219.3 		"/>
		<polygon class="st0" points="206.2,226.9 208.7,222.7 213.6,222.7 216,226.9 213.6,231.2 208.7,231.2 		"/>
		<polygon class="st0" points="206.2,238.8 208.7,234.6 213.6,234.6 216,238.8 213.6,243.1 208.7,243.1 		"/>
		<polygon class="st0" points="206.2,250.7 208.7,246.5 213.6,246.5 216,250.7 213.6,255 208.7,255 		"/>
		<polygon class="st0" points="206.2,262.6 208.7,258.4 213.6,258.4 216,262.6 213.6,266.9 208.7,266.9 		"/>
		<polygon class="st0" points="206.2,274.5 208.7,270.3 213.6,270.3 216,274.5 213.6,278.8 208.7,278.8 		"/>
		<polygon class="st0" points="206.2,286.4 208.7,282.2 213.6,282.2 216,286.4 213.6,290.7 208.7,290.7 		"/>
		<polygon class="st0" points="206.2,298.3 208.7,294.1 213.6,294.1 216,298.3 213.6,302.6 208.7,302.6 		"/>
		<polygon class="st0" points="206.2,310.2 208.7,306 213.6,306 216,310.2 213.6,314.5 208.7,314.5 		"/>
		<polygon class="st0" points="206.2,322.1 208.7,317.9 213.6,317.9 216,322.1 213.6,326.4 208.7,326.4 		"/>
		<polygon class="st0" points="206.2,334 208.7,329.8 213.6,329.8 216,334 213.6,338.3 208.7,338.3 		"/>
		<polygon class="st0" points="206.2,345.9 208.7,341.7 213.6,341.7 216,345.9 213.6,350.2 208.7,350.2 		"/>
		<polygon class="st0" points="206.2,357.8 208.7,353.6 213.6,353.6 216,357.8 213.6,362.1 208.7,362.1 		"/>
		<polygon class="st0" points="206.2,369.7 208.7,365.5 213.6,365.5 216,369.7 213.6,374 208.7,374 		"/>
		<polygon class="st0" points="216.5,221 219,216.7 223.9,216.7 226.4,221 223.9,225.2 219,225.2 		"/>
		<polygon class="st0" points="216.5,232.9 219,228.6 223.9,228.6 226.4,232.9 223.9,237.1 219,237.1 		"/>
		<polygon class="st0" points="216.5,244.8 219,240.5 223.9,240.5 226.4,244.8 223.9,249 219,249 		"/>
		<polygon class="st0" points="216.5,256.7 219,252.4 223.9,252.4 226.4,256.7 223.9,260.9 219,260.9 		"/>
		<polygon class="st0" points="216.5,268.6 219,264.3 223.9,264.3 226.4,268.6 223.9,272.8 219,272.8 		"/>
		<polygon class="st0" points="216.5,280.5 219,276.2 223.9,276.2 226.4,280.5 223.9,284.7 219,284.7 		"/>
		<polygon class="st0" points="216.5,292.4 219,288.1 223.9,288.1 226.4,292.4 223.9,296.6 219,296.6 		"/>
		<polygon class="st0" points="216.5,304.3 219,300 223.9,300 226.4,304.3 223.9,308.5 219,308.5 		"/>
		<polygon class="st0" points="216.5,316.2 219,311.9 223.9,311.9 226.4,316.2 223.9,320.4 219,320.4 		"/>
		<polygon class="st0" points="216.5,328.1 219,323.8 223.9,323.8 226.4,328.1 223.9,332.3 219,332.3 		"/>
		<polygon class="st0" points="216.5,340 219,335.7 223.9,335.7 226.4,340 223.9,344.2 219,344.2 		"/>
		<polygon class="st0" points="216.5,351.9 219,347.6 223.9,347.6 226.4,351.9 223.9,356.1 219,356.1 		"/>
		<polygon class="st0" points="216.5,363.8 219,359.5 223.9,359.5 226.4,363.8 223.9,368 219,368 		"/>
		<polygon class="st0" points="216.5,375.7 219,371.4 223.9,371.4 226.4,375.7 223.9,379.9 219,379.9 		"/>
		<polygon class="st0" points="226.8,215 229.3,210.8 234.2,210.8 236.7,215 234.2,219.3 229.3,219.3 		"/>
		<polygon class="st0" points="226.8,226.9 229.3,222.7 234.2,222.7 236.7,226.9 234.2,231.2 229.3,231.2 		"/>
		<polygon class="st0" points="226.8,238.8 229.3,234.6 234.2,234.6 236.7,238.8 234.2,243.1 229.3,243.1 		"/>
		<polygon class="st0" points="226.8,250.7 229.3,246.5 234.2,246.5 236.7,250.7 234.2,255 229.3,255 		"/>
		<polygon class="st0" points="226.8,262.6 229.3,258.4 234.2,258.4 236.7,262.6 234.2,266.9 229.3,266.9 		"/>
		<polygon class="st0" points="226.8,274.5 229.3,270.3 234.2,270.3 236.7,274.5 234.2,278.8 229.3,278.8 		"/>
		<polygon class="st0" points="226.8,286.4 229.3,282.2 234.2,282.2 236.7,286.4 234.2,290.7 229.3,290.7 		"/>
		<polygon class="st0" points="226.8,298.3 229.3,294.1 234.2,294.1 236.7,298.3 234.2,302.6 229.3,302.6 		"/>
		<polygon class="st0" points="226.8,334 229.3,329.8 234.2,329.8 236.7,334 234.2,338.3 229.3,338.3 		"/>
		<polygon class="st0" points="226.8,345.9 229.3,341.7 234.2,341.7 236.7,345.9 234.2,350.2 229.3,350.2 		"/>
		<polygon class="st0" points="226.8,357.8 229.3,353.6 234.2,353.6 236.7,357.8 234.2,362.1 229.3,362.1 		"/>
		<polygon class="st0" points="226.8,369.7 229.3,365.5 234.2,365.5 236.7,369.7 234.2,374 229.3,374 		"/>
		<polygon class="st0" points="226.8,381.6 229.3,377.4 234.2,377.4 236.7,381.6 234.2,385.9 229.3,385.9 		"/>
		<polygon class="st0" points="257.8,173.3 260.2,169.1 265.1,169.1 267.6,173.3 265.1,177.6 260.2,177.6 		"/>
		<polygon class="st0" points="257.8,185.2 260.2,181 265.1,181 267.6,185.2 265.1,189.5 260.2,189.5 		"/>
		<polygon class="st0" points="257.8,197.2 260.2,192.9 265.1,192.9 267.6,197.2 265.1,201.4 260.2,201.4 		"/>
		<polygon class="st0" points="257.8,209.1 260.2,204.8 265.1,204.8 267.6,209.1 265.1,213.3 260.2,213.3 		"/>
		<polygon class="st0" points="257.8,221 260.2,216.7 265.1,216.7 267.6,221 265.1,225.2 260.2,225.2 		"/>
		<polygon class="st0" points="257.8,232.9 260.2,228.6 265.1,228.6 267.6,232.9 265.1,237.1 260.2,237.1 		"/>
		<polygon class="st0" points="257.8,244.8 260.2,240.5 265.1,240.5 267.6,244.8 265.1,249 260.2,249 		"/>
		<polygon class="st0" points="257.8,256.7 260.2,252.4 265.1,252.4 267.6,256.7 265.1,260.9 260.2,260.9 		"/>
		<polygon class="st0" points="257.8,268.6 260.2,264.3 265.1,264.3 267.6,268.6 265.1,272.8 260.2,272.8 		"/>
		<polygon class="st0" points="268.1,179.3 270.6,175 275.5,175 277.9,179.3 275.5,183.6 270.6,183.6 		"/>
		<polygon class="st0" points="268.1,191.2 270.6,186.9 275.5,186.9 277.9,191.2 275.5,195.5 270.6,195.5 		"/>
		<polygon class="st0" points="268.1,203.1 270.6,198.9 275.5,198.9 277.9,203.1 275.5,207.4 270.6,207.4 		"/>
		<polygon class="st0" points="268.1,215 270.6,210.8 275.5,210.8 277.9,215 275.5,219.3 270.6,219.3 		"/>
		<polygon class="st0" points="268.1,226.9 270.6,222.7 275.5,222.7 277.9,226.9 275.5,231.2 270.6,231.2 		"/>
		<polygon class="st0" points="268.1,238.8 270.6,234.6 275.5,234.6 277.9,238.8 275.5,243.1 270.6,243.1 		"/>
		<polygon class="st0" points="268.1,250.7 270.6,246.5 275.5,246.5 277.9,250.7 275.5,255 270.6,255 		"/>
		<polygon class="st0" points="268.1,262.6 270.6,258.4 275.5,258.4 277.9,262.6 275.5,266.9 270.6,266.9 		"/>
		<polygon class="st0" points="299,161.4 301.5,157.2 306.4,157.2 308.9,161.4 306.4,165.7 301.5,165.7 		"/>
		<polygon class="st0" points="299,173.3 301.5,169.1 306.4,169.1 308.9,173.3 306.4,177.6 301.5,177.6 		"/>
		<polygon class="st0" points="299,185.2 301.5,181 306.4,181 308.9,185.2 306.4,189.5 301.5,189.5 		"/>
		<polygon class="st0" points="299,197.2 301.5,192.9 306.4,192.9 308.9,197.2 306.4,201.4 301.5,201.4 		"/>
		<polygon class="st0" points="299,209.1 301.5,204.8 306.4,204.8 308.9,209.1 306.4,213.3 301.5,213.3 		"/>
		<polygon class="st0" points="299,221 301.5,216.7 306.4,216.7 308.9,221 306.4,225.2 301.5,225.2 		"/>
		<polygon class="st0" points="299,232.9 301.5,228.6 306.4,228.6 308.9,232.9 306.4,237.1 301.5,237.1 		"/>
		<polygon class="st0" points="299,244.8 301.5,240.5 306.4,240.5 308.9,244.8 306.4,249 301.5,249 		"/>
		<polygon class="st0" points="309.3,155.5 311.8,151.2 316.7,151.2 319.2,155.5 316.7,159.7 311.8,159.7 		"/>
		<polygon class="st0" points="309.3,167.4 311.8,163.1 316.7,163.1 319.2,167.4 316.7,171.6 311.8,171.6 		"/>
		<polygon class="st0" points="309.3,179.3 311.8,175 316.7,175 319.2,179.3 316.7,183.6 311.8,183.6 		"/>
		<polygon class="st0" points="309.3,191.2 311.8,186.9 316.7,186.9 319.2,191.2 316.7,195.5 311.8,195.5 		"/>
		<polygon class="st0" points="309.3,203.1 311.8,198.9 316.7,198.9 319.2,203.1 316.7,207.4 311.8,207.4 		"/>
		<polygon class="st0" points="309.3,215 311.8,210.8 316.7,210.8 319.2,215 316.7,219.3 311.8,219.3 		"/>
		<polygon class="st0" points="309.3,226.9 311.8,222.7 316.7,222.7 319.2,226.9 316.7,231.2 311.8,231.2 		"/>
		<polygon class="st0" points="309.3,238.8 311.8,234.6 316.7,234.6 319.2,238.8 316.7,243.1 311.8,243.1 		"/>
		<polygon class="st0" points="309.3,250.7 311.8,246.5 316.7,246.5 319.2,250.7 316.7,255 311.8,255 		"/>
		<polygon class="st0" points="340.3,137.6 342.7,133.4 347.6,133.4 350.1,137.6 347.6,141.9 342.7,141.9 		"/>
		<polygon class="st0" points="340.3,149.5 342.7,145.3 347.6,145.3 350.1,149.5 347.6,153.8 342.7,153.8 		"/>
		<polygon class="st0" points="340.3,161.4 342.7,157.2 347.6,157.2 350.1,161.4 347.6,165.7 342.7,165.7 		"/>
		<polygon class="st0" points="340.3,173.3 342.7,169.1 347.6,169.1 350.1,173.3 347.6,177.6 342.7,177.6 		"/>
		<polygon class="st0" points="340.3,185.2 342.7,181 347.6,181 350.1,185.2 347.6,189.5 342.7,189.5 		"/>
		<polygon class="st0" points="340.3,197.2 342.7,192.9 347.6,192.9 350.1,197.2 347.6,201.4 342.7,201.4 		"/>
		<polygon class="st0" points="340.3,209.1 342.7,204.8 347.6,204.8 350.1,209.1 347.6,213.3 342.7,213.3 		"/>
		<polygon class="st0" points="340.3,113.8 342.7,109.6 347.6,109.6 350.1,113.8 347.6,118.1 342.7,118.1 		"/>
		<polygon class="st0" points="340.3,125.7 342.7,121.5 347.6,121.5 350.1,125.7 347.6,130 342.7,130 		"/>
		<polygon class="st0" points="350.6,131.7 353,127.4 358,127.4 360.4,131.7 358,135.9 353,135.9 		"/>
		<polygon class="st0" points="350.6,143.6 353,139.3 358,139.3 360.4,143.6 358,147.8 353,147.8 		"/>
		<polygon class="st0" points="350.6,155.5 353,151.2 358,151.2 360.4,155.5 358,159.7 353,159.7 		"/>
		<polygon class="st0" points="350.6,167.4 353,163.1 358,163.1 360.4,167.4 358,171.6 353,171.6 		"/>
		<polygon class="st0" points="350.6,179.3 353,175 358,175 360.4,179.3 358,183.6 353,183.6 		"/>
		<polygon class="st0" points="350.6,191.2 353,186.9 358,186.9 360.4,191.2 358,195.5 353,195.5 		"/>
		<polygon class="st0" points="350.6,286.4 353,282.2 358,282.2 360.4,286.4 358,290.7 353,290.7 		"/>
		<polygon class="st0" points="350.6,310.2 353,306 358,306 360.4,310.2 358,314.5 353,314.5 		"/>
		<polygon class="st0" points="350.6,84.1 353,79.8 358,79.8 360.4,84.1 358,88.3 353,88.3 		"/>
		<polygon class="st0" points="350.6,96 353,91.7 358,91.7 360.4,96 358,100.2 353,100.2 		"/>
		<polygon class="st0" points="350.6,107.9 353,103.6 358,103.6 360.4,107.9 358,112.1 353,112.1 		"/>
		<polygon class="st0" points="350.6,119.8 353,115.5 358,115.5 360.4,119.8 358,124 353,124 		"/>
		<polygon class="st0" points="381.5,137.6 384,133.4 388.9,133.4 391.4,137.6 388.9,141.9 384,141.9 		"/>
		<polygon class="st0" points="381.5,268.6 384,264.3 388.9,264.3 391.4,268.6 388.9,272.8 384,272.8 		"/>
		<polygon class="st0" points="381.5,280.5 384,276.2 388.9,276.2 391.4,280.5 388.9,284.7 384,284.7 		"/>
		<polygon class="st0" points="381.5,292.4 384,288.1 388.9,288.1 391.4,292.4 388.9,296.6 384,296.6 		"/>
		<polygon class="st0" points="381.5,304.3 384,300 388.9,300 391.4,304.3 388.9,308.5 384,308.5 		"/>
		<polygon class="st0" points="381.5,90 384,85.8 388.9,85.8 391.4,90 388.9,94.3 384,94.3 		"/>
		<polygon class="st0" points="381.5,101.9 384,97.7 388.9,97.7 391.4,101.9 388.9,106.2 384,106.2 		"/>
		<polygon class="st0" points="381.5,113.8 384,109.6 388.9,109.6 391.4,113.8 388.9,118.1 384,118.1 		"/>
		<polygon class="st0" points="381.5,125.7 384,121.5 388.9,121.5 391.4,125.7 388.9,130 384,130 		"/>
		<polygon class="st0" points="381.5,54.3 384,50.1 388.9,50.1 391.4,54.3 388.9,58.6 384,58.6 		"/>
		<polygon class="st0" points="381.5,66.2 384,62 388.9,62 391.4,66.2 388.9,70.5 384,70.5 		"/>
		<polygon class="st0" points="381.5,78.1 384,73.9 388.9,73.9 391.4,78.1 388.9,82.4 384,82.4 		"/>
		<polygon class="st0" points="381.5,42.4 384,38.2 388.9,38.2 391.4,42.4 388.9,46.7 384,46.7 		"/>
		<polygon class="st0" points="391.8,131.7 394.3,127.4 399.2,127.4 401.7,131.7 399.2,135.9 394.3,135.9 		"/>
		<polygon class="st0" points="391.8,274.5 394.3,270.3 399.2,270.3 401.7,274.5 399.2,278.8 394.3,278.8 		"/>
		<polygon class="st0" points="391.8,286.4 394.3,282.2 399.2,282.2 401.7,286.4 399.2,290.7 394.3,290.7 		"/>
		<polygon class="st0" points="391.8,298.3 394.3,294.1 399.2,294.1 401.7,298.3 399.2,302.6 394.3,302.6 		"/>
		<polygon class="st0" points="391.8,310.2 394.3,306 399.2,306 401.7,310.2 399.2,314.5 394.3,314.5 		"/>
		<polygon class="st0" points="391.8,84.1 394.3,79.8 399.2,79.8 401.7,84.1 399.2,88.3 394.3,88.3 		"/>
		<polygon class="st0" points="391.8,96 394.3,91.7 399.2,91.7 401.7,96 399.2,100.2 394.3,100.2 		"/>
		<polygon class="st0" points="391.8,107.9 394.3,103.6 399.2,103.6 401.7,107.9 399.2,112.1 394.3,112.1 		"/>
		<polygon class="st0" points="391.8,119.8 394.3,115.5 399.2,115.5 401.7,119.8 399.2,124 394.3,124 		"/>
		<polygon class="st0" points="391.8,48.4 394.3,44.1 399.2,44.1 401.7,48.4 399.2,52.6 394.3,52.6 		"/>
		<polygon class="st0" points="391.8,36.5 394.3,32.2 399.2,32.2 401.7,36.5 399.2,40.7 394.3,40.7 		"/>
		<polygon class="st0" points="237.2,209.1 239.6,204.8 244.5,204.8 247,209.1 244.5,213.3 239.6,213.3 		"/>
		<polygon class="st0" points="237.2,221 239.6,216.7 244.5,216.7 247,221 244.5,225.2 239.6,225.2 		"/>
		<polygon class="st0" points="237.2,232.9 239.6,228.6 244.5,228.6 247,232.9 244.5,237.1 239.6,237.1 		"/>
		<polygon class="st0" points="237.2,244.8 239.6,240.5 244.5,240.5 247,244.8 244.5,249 239.6,249 		"/>
		<polygon class="st0" points="237.2,256.7 239.6,252.4 244.5,252.4 247,256.7 244.5,260.9 239.6,260.9 		"/>
		<polygon class="st0" points="237.2,268.6 239.6,264.3 244.5,264.3 247,268.6 244.5,272.8 239.6,272.8 		"/>
		<polygon class="st0" points="237.2,280.5 239.6,276.2 244.5,276.2 247,280.5 244.5,284.7 239.6,284.7 		"/>
		<polygon class="st0" points="237.2,292.4 239.6,288.1 244.5,288.1 247,292.4 244.5,296.6 239.6,296.6 		"/>
		<polygon class="st0" points="237.2,340 239.6,335.7 244.5,335.7 247,340 244.5,344.2 239.6,344.2 		"/>
		<polygon class="st0" points="237.2,351.9 239.6,347.6 244.5,347.6 247,351.9 244.5,356.1 239.6,356.1 		"/>
		<polygon class="st0" points="247.5,191.2 249.9,186.9 254.8,186.9 257.3,191.2 254.8,195.5 249.9,195.5 		"/>
		<polygon class="st0" points="247.5,203.1 249.9,198.9 254.8,198.9 257.3,203.1 254.8,207.4 249.9,207.4 		"/>
		<polygon class="st0" points="247.5,215 249.9,210.8 254.8,210.8 257.3,215 254.8,219.3 249.9,219.3 		"/>
		<polygon class="st0" points="247.5,226.9 249.9,222.7 254.8,222.7 257.3,226.9 254.8,231.2 249.9,231.2 		"/>
		<polygon class="st0" points="247.5,238.8 249.9,234.6 254.8,234.6 257.3,238.8 254.8,243.1 249.9,243.1 		"/>
		<polygon class="st0" points="247.5,250.7 249.9,246.5 254.8,246.5 257.3,250.7 254.8,255 249.9,255 		"/>
		<polygon class="st0" points="247.5,262.6 249.9,258.4 254.8,258.4 257.3,262.6 254.8,266.9 249.9,266.9 		"/>
		<polygon class="st0" points="247.5,274.5 249.9,270.3 254.8,270.3 257.3,274.5 254.8,278.8 249.9,278.8 		"/>
		<polygon class="st0" points="247.5,345.9 249.9,341.7 254.8,341.7 257.3,345.9 254.8,350.2 249.9,350.2 		"/>
		<polygon class="st0" points="247.5,357.8 249.9,353.6 254.8,353.6 257.3,357.8 254.8,362.1 249.9,362.1 		"/>
		<polygon class="st0" points="278.4,173.3 280.9,169.1 285.8,169.1 288.2,173.3 285.8,177.6 280.9,177.6 		"/>
		<polygon class="st0" points="278.4,185.2 280.9,181 285.8,181 288.2,185.2 285.8,189.5 280.9,189.5 		"/>
		<polygon class="st0" points="278.4,197.2 280.9,192.9 285.8,192.9 288.2,197.2 285.8,201.4 280.9,201.4 		"/>
		<polygon class="st0" points="278.4,209.1 280.9,204.8 285.8,204.8 288.2,209.1 285.8,213.3 280.9,213.3 		"/>
		<polygon class="st0" points="278.4,221 280.9,216.7 285.8,216.7 288.2,221 285.8,225.2 280.9,225.2 		"/>
		<polygon class="st0" points="278.4,232.9 280.9,228.6 285.8,228.6 288.2,232.9 285.8,237.1 280.9,237.1 		"/>
		<polygon class="st0" points="278.4,244.8 280.9,240.5 285.8,240.5 288.2,244.8 285.8,249 280.9,249 		"/>
		<polygon class="st0" points="278.4,256.7 280.9,252.4 285.8,252.4 288.2,256.7 285.8,260.9 280.9,260.9 		"/>
		<polygon class="st0" points="278.4,268.6 280.9,264.3 285.8,264.3 288.2,268.6 285.8,272.8 280.9,272.8 		"/>
		<polygon class="st0" points="288.7,167.4 291.2,163.1 296.1,163.1 298.5,167.4 296.1,171.6 291.2,171.6 		"/>
		<polygon class="st0" points="288.7,179.3 291.2,175 296.1,175 298.5,179.3 296.1,183.6 291.2,183.6 		"/>
		<polygon class="st0" points="288.7,191.2 291.2,186.9 296.1,186.9 298.5,191.2 296.1,195.5 291.2,195.5 		"/>
		<polygon class="st0" points="288.7,203.1 291.2,198.9 296.1,198.9 298.5,203.1 296.1,207.4 291.2,207.4 		"/>
		<polygon class="st0" points="288.7,215 291.2,210.8 296.1,210.8 298.5,215 296.1,219.3 291.2,219.3 		"/>
		<polygon class="st0" points="288.7,226.9 291.2,222.7 296.1,222.7 298.5,226.9 296.1,231.2 291.2,231.2 		"/>
		<polygon class="st0" points="288.7,238.8 291.2,234.6 296.1,234.6 298.5,238.8 296.1,243.1 291.2,243.1 		"/>
		<polygon class="st0" points="288.7,250.7 291.2,246.5 296.1,246.5 298.5,250.7 296.1,255 291.2,255 		"/>
		<polygon class="st0" points="319.7,137.6 322.1,133.4 327,133.4 329.5,137.6 327,141.9 322.1,141.9 		"/>
		<polygon class="st0" points="319.7,149.5 322.1,145.3 327,145.3 329.5,149.5 327,153.8 322.1,153.8 		"/>
		<polygon class="st0" points="319.7,161.4 322.1,157.2 327,157.2 329.5,161.4 327,165.7 322.1,165.7 		"/>
		<polygon class="st0" points="319.7,173.3 322.1,169.1 327,169.1 329.5,173.3 327,177.6 322.1,177.6 		"/>
		<polygon class="st0" points="319.7,185.2 322.1,181 327,181 329.5,185.2 327,189.5 322.1,189.5 		"/>
		<polygon class="st0" points="319.7,197.2 322.1,192.9 327,192.9 329.5,197.2 327,201.4 322.1,201.4 		"/>
		<polygon class="st0" points="319.7,209.1 322.1,204.8 327,204.8 329.5,209.1 327,213.3 322.1,213.3 		"/>
		<polygon class="st0" points="319.7,221 322.1,216.7 327,216.7 329.5,221 327,225.2 322.1,225.2 		"/>
		<polygon class="st0" points="319.7,101.9 322.1,97.7 327,97.7 329.5,101.9 327,106.2 322.1,106.2 		"/>
		<polygon class="st0" points="330,131.7 332.4,127.4 337.3,127.4 339.8,131.7 337.3,135.9 332.4,135.9 		"/>
		<polygon class="st0" points="330,143.6 332.4,139.3 337.3,139.3 339.8,143.6 337.3,147.8 332.4,147.8 		"/>
		<polygon class="st0" points="330,155.5 332.4,151.2 337.3,151.2 339.8,155.5 337.3,159.7 332.4,159.7 		"/>
		<polygon class="st0" points="330,167.4 332.4,163.1 337.3,163.1 339.8,167.4 337.3,171.6 332.4,171.6 		"/>
		<polygon class="st0" points="330,179.3 332.4,175 337.3,175 339.8,179.3 337.3,183.6 332.4,183.6 		"/>
		<polygon class="st0" points="330,191.2 332.4,186.9 337.3,186.9 339.8,191.2 337.3,195.5 332.4,195.5 		"/>
		<polygon class="st0" points="330,203.1 332.4,198.9 337.3,198.9 339.8,203.1 337.3,207.4 332.4,207.4 		"/>
		<polygon class="st0" points="330,215 332.4,210.8 337.3,210.8 339.8,215 337.3,219.3 332.4,219.3 		"/>
		<polygon class="st0" points="330,107.9 332.4,103.6 337.3,103.6 339.8,107.9 337.3,112.1 332.4,112.1 		"/>
		<polygon class="st0" points="330,119.8 332.4,115.5 337.3,115.5 339.8,119.8 337.3,124 332.4,124 		"/>
		<polygon class="st0" points="360.9,137.6 363.4,133.4 368.3,133.4 370.7,137.6 368.3,141.9 363.4,141.9 		"/>
		<polygon class="st0" points="360.9,149.5 363.4,145.3 368.3,145.3 370.7,149.5 368.3,153.8 363.4,153.8 		"/>
		<polygon class="st0" points="360.9,161.4 363.4,157.2 368.3,157.2 370.7,161.4 368.3,165.7 363.4,165.7 		"/>
		<polygon class="st0" points="360.9,173.3 363.4,169.1 368.3,169.1 370.7,173.3 368.3,177.6 363.4,177.6 		"/>
		<polygon class="st0" points="360.9,197.2 363.4,192.9 368.3,192.9 370.7,197.2 368.3,201.4 363.4,201.4 		"/>
		<polygon class="st0" points="360.9,280.5 363.4,276.2 368.3,276.2 370.7,280.5 368.3,284.7 363.4,284.7 		"/>
		<polygon class="st0" points="360.9,292.4 363.4,288.1 368.3,288.1 370.7,292.4 368.3,296.6 363.4,296.6 		"/>
		<polygon class="st0" points="360.9,316.2 363.4,311.9 368.3,311.9 370.7,316.2 368.3,320.4 363.4,320.4 		"/>
		<polygon class="st0" points="360.9,90 363.4,85.8 368.3,85.8 370.7,90 368.3,94.3 363.4,94.3 		"/>
		<polygon class="st0" points="360.9,101.9 363.4,97.7 368.3,97.7 370.7,101.9 368.3,106.2 363.4,106.2 		"/>
		<polygon class="st0" points="360.9,113.8 363.4,109.6 368.3,109.6 370.7,113.8 368.3,118.1 363.4,118.1 		"/>
		<polygon class="st0" points="360.9,125.7 363.4,121.5 368.3,121.5 370.7,125.7 368.3,130 363.4,130 		"/>
		<polygon class="st0" points="360.9,66.2 363.4,62 368.3,62 370.7,66.2 368.3,70.5 363.4,70.5 		"/>
		<polygon class="st0" points="360.9,78.1 363.4,73.9 368.3,73.9 370.7,78.1 368.3,82.4 363.4,82.4 		"/>
		<polygon class="st0" points="371.2,131.7 373.7,127.4 378.6,127.4 381,131.7 378.6,135.9 373.7,135.9 		"/>
		<polygon class="st0" points="371.2,143.6 373.7,139.3 378.6,139.3 381,143.6 378.6,147.8 373.7,147.8 		"/>
		<polygon class="st0" points="371.2,155.5 373.7,151.2 378.6,151.2 381,155.5 378.6,159.7 373.7,159.7 		"/>
		<polygon class="st0" points="371.2,167.4 373.7,163.1 378.6,163.1 381,167.4 378.6,171.6 373.7,171.6 		"/>
		<polygon class="st0" points="371.2,274.5 373.7,270.3 378.6,270.3 381,274.5 378.6,278.8 373.7,278.8 		"/>
		<polygon class="st0" points="371.2,286.4 373.7,282.2 378.6,282.2 381,286.4 378.6,290.7 373.7,290.7 		"/>
		<polygon class="st0" points="371.2,298.3 373.7,294.1 378.6,294.1 381,298.3 378.6,302.6 373.7,302.6 		"/>
		<polygon class="st0" points="371.2,310.2 373.7,306 378.6,306 381,310.2 378.6,314.5 373.7,314.5 		"/>
		<polygon class="st0" points="371.2,84.1 373.7,79.8 378.6,79.8 381,84.1 378.6,88.3 373.7,88.3 		"/>
		<polygon class="st0" points="371.2,96 373.7,91.7 378.6,91.7 381,96 378.6,100.2 373.7,100.2 		"/>
		<polygon class="st0" points="371.2,107.9 373.7,103.6 378.6,103.6 381,107.9 378.6,112.1 373.7,112.1 		"/>
		<polygon class="st0" points="371.2,119.8 373.7,115.5 378.6,115.5 381,119.8 378.6,124 373.7,124 		"/>
		<polygon class="st0" points="371.2,48.4 373.7,44.1 378.6,44.1 381,48.4 378.6,52.6 373.7,52.6 		"/>
		<polygon class="st0" points="371.2,60.3 373.7,56 378.6,56 381,60.3 378.6,64.5 373.7,64.5 		"/>
		<polygon class="st0" points="371.2,72.2 373.7,67.9 378.6,67.9 381,72.2 378.6,76.4 373.7,76.4 		"/>
		<polygon class="st0" points="402.2,268.6 404.6,264.3 409.5,264.3 412,268.6 409.5,272.8 404.6,272.8 		"/>
		<polygon class="st0" points="402.2,280.5 404.6,276.2 409.5,276.2 412,280.5 409.5,284.7 404.6,284.7 		"/>
		<polygon class="st0" points="402.2,292.4 404.6,288.1 409.5,288.1 412,292.4 409.5,296.6 404.6,296.6 		"/>
		<polygon class="st0" points="402.2,304.3 404.6,300 409.5,300 412,304.3 409.5,308.5 404.6,308.5 		"/>
		<polygon class="st0" points="402.2,90 404.6,85.8 409.5,85.8 412,90 409.5,94.3 404.6,94.3 		"/>
		<polygon class="st0" points="402.2,101.9 404.6,97.7 409.5,97.7 412,101.9 409.5,106.2 404.6,106.2 		"/>
		<polygon class="st0" points="402.2,113.8 404.6,109.6 409.5,109.6 412,113.8 409.5,118.1 404.6,118.1 		"/>
		<polygon class="st0" points="402.2,125.7 404.6,121.5 409.5,121.5 412,125.7 409.5,130 404.6,130 		"/>
		<polygon class="st0" points="402.2,42.4 404.6,38.2 409.5,38.2 412,42.4 409.5,46.7 404.6,46.7 		"/>
		<polygon class="st0" points="412.5,274.5 414.9,270.3 419.8,270.3 422.3,274.5 419.8,278.8 414.9,278.8 		"/>
		<polygon class="st0" points="412.5,286.4 414.9,282.2 419.8,282.2 422.3,286.4 419.8,290.7 414.9,290.7 		"/>
		<polygon class="st0" points="412.5,298.3 414.9,294.1 419.8,294.1 422.3,298.3 419.8,302.6 414.9,302.6 		"/>
		<polygon class="st0" points="412.5,84.1 414.9,79.8 419.8,79.8 422.3,84.1 419.8,88.3 414.9,88.3 		"/>
		<polygon class="st0" points="412.5,96 414.9,91.7 419.8,91.7 422.3,96 419.8,100.2 414.9,100.2 		"/>
		<polygon class="st0" points="412.5,107.9 414.9,103.6 419.8,103.6 422.3,107.9 419.8,112.1 414.9,112.1 		"/>
		<polygon class="st0" points="422.8,280.5 425.2,276.2 430.1,276.2 432.6,280.5 430.1,284.7 425.2,284.7 		"/>
		<polygon class="st0" points="422.8,292.4 425.2,288.1 430.1,288.1 432.6,292.4 430.1,296.6 425.2,296.6 		"/>
		<polygon class="st0" points="422.8,304.3 425.2,300 430.1,300 432.6,304.3 430.1,308.5 425.2,308.5 		"/>
		<polygon class="st0" points="422.8,90 425.2,85.8 430.1,85.8 432.6,90 430.1,94.3 425.2,94.3 		"/>
		<polygon class="st0" points="422.8,101.9 425.2,97.7 430.1,97.7 432.6,101.9 430.1,106.2 425.2,106.2 		"/>
		<polygon class="st0" points="422.8,78.1 425.2,73.9 430.1,73.9 432.6,78.1 430.1,82.4 425.2,82.4 		"/>
		<polygon class="st0" points="433.1,274.5 435.5,270.3 440.5,270.3 442.9,274.5 440.5,278.8 435.5,278.8 		"/>
		<polygon class="st0" points="433.1,298.3 435.5,294.1 440.5,294.1 442.9,298.3 440.5,302.6 435.5,302.6 		"/>
		<polygon class="st0" points="433.1,310.2 435.5,306 440.5,306 442.9,310.2 440.5,314.5 435.5,314.5 		"/>
		<polygon class="st0" points="433.1,84.1 435.5,79.8 440.5,79.8 442.9,84.1 440.5,88.3 435.5,88.3 		"/>
		<polygon class="st0" points="433.1,96 435.5,91.7 440.5,91.7 442.9,96 440.5,100.2 435.5,100.2 		"/>
		<polygon class="st0" points="433.1,72.2 435.5,67.9 440.5,67.9 442.9,72.2 440.5,76.4 435.5,76.4 		"/>
		<polygon class="st0" points="484.7,137.6 487.1,133.4 492,133.4 494.5,137.6 492,141.9 487.1,141.9 		"/>
		<polygon class="st0" points="484.7,149.5 487.1,145.3 492,145.3 494.5,149.5 492,153.8 487.1,153.8 		"/>
		<polygon class="st0" points="484.7,161.4 487.1,157.2 492,157.2 494.5,161.4 492,165.7 487.1,165.7 		"/>
		<polygon class="st0" points="484.7,173.3 487.1,169.1 492,169.1 494.5,173.3 492,177.6 487.1,177.6 		"/>
		<polygon class="st0" points="484.7,185.2 487.1,181 492,181 494.5,185.2 492,189.5 487.1,189.5 		"/>
		<polygon class="st0" points="484.7,197.2 487.1,192.9 492,192.9 494.5,197.2 492,201.4 487.1,201.4 		"/>
		<polygon class="st0" points="484.7,209.1 487.1,204.8 492,204.8 494.5,209.1 492,213.3 487.1,213.3 		"/>
		<polygon class="st0" points="495,143.6 497.4,139.3 502.3,139.3 504.8,143.6 502.3,147.8 497.4,147.8 		"/>
		<polygon class="st0" points="495,155.5 497.4,151.2 502.3,151.2 504.8,155.5 502.3,159.7 497.4,159.7 		"/>
		<polygon class="st0" points="495,167.4 497.4,163.1 502.3,163.1 504.8,167.4 502.3,171.6 497.4,171.6 		"/>
		<polygon class="st0" points="495,179.3 497.4,175 502.3,175 504.8,179.3 502.3,183.6 497.4,183.6 		"/>
		<polygon class="st0" points="495,191.2 497.4,186.9 502.3,186.9 504.8,191.2 502.3,195.5 497.4,195.5 		"/>
		<polygon class="st0" points="495,203.1 497.4,198.9 502.3,198.9 504.8,203.1 502.3,207.4 497.4,207.4 		"/>
		<polygon class="st0" points="505.3,137.6 507.7,133.4 512.6,133.4 515.1,137.6 512.6,141.9 507.7,141.9 		"/>
		<polygon class="st0" points="505.3,149.5 507.7,145.3 512.6,145.3 515.1,149.5 512.6,153.8 507.7,153.8 		"/>
		<polygon class="st0" points="505.3,161.4 507.7,157.2 512.6,157.2 515.1,161.4 512.6,165.7 507.7,165.7 		"/>
		<polygon class="st0" points="505.3,173.3 507.7,169.1 512.6,169.1 515.1,173.3 512.6,177.6 507.7,177.6 		"/>
		<polygon class="st0" points="515.6,131.7 518,127.4 523,127.4 525.4,131.7 523,135.9 518,135.9 		"/>
		<polygon class="st0" points="515.6,143.6 518,139.3 523,139.3 525.4,143.6 523,147.8 518,147.8 		"/>
		<polygon class="st0" points="515.6,155.5 518,151.2 523,151.2 525.4,155.5 523,159.7 518,159.7 		"/>
		<polygon class="st0" points="443.4,90 445.9,85.8 450.8,85.8 453.2,90 450.8,94.3 445.9,94.3 		"/>
		<polygon class="st0" points="443.4,101.9 445.9,97.7 450.8,97.7 453.2,101.9 450.8,106.2 445.9,106.2 		"/>
		<polygon class="st0" points="443.4,78.1 445.9,73.9 450.8,73.9 453.2,78.1 450.8,82.4 445.9,82.4 		"/>
		<polygon class="st0" points="453.7,96 456.2,91.7 461.1,91.7 463.5,96 461.1,100.2 456.2,100.2 		"/>
		<polygon class="st0" points="453.7,107.9 456.2,103.6 461.1,103.6 463.5,107.9 461.1,112.1 456.2,112.1 		"/>
		<polygon class="st0" points="464,137.6 466.5,133.4 471.4,133.4 473.8,137.6 471.4,141.9 466.5,141.9 		"/>
		<polygon class="st0" points="464,185.2 466.5,181 471.4,181 473.8,185.2 471.4,189.5 466.5,189.5 		"/>
		<polygon class="st0" points="464,209.1 466.5,204.8 471.4,204.8 473.8,209.1 471.4,213.3 466.5,213.3 		"/>
		<polygon class="st0" points="464,101.9 466.5,97.7 471.4,97.7 473.8,101.9 471.4,106.2 466.5,106.2 		"/>
		<polygon class="st0" points="464,113.8 466.5,109.6 471.4,109.6 473.8,113.8 471.4,118.1 466.5,118.1 		"/>
		<polygon class="st0" points="474.3,131.7 476.8,127.4 481.7,127.4 484.2,131.7 481.7,135.9 476.8,135.9 		"/>
		<polygon class="st0" points="474.3,143.6 476.8,139.3 481.7,139.3 484.2,143.6 481.7,147.8 476.8,147.8 		"/>
		<polygon class="st0" points="474.3,155.5 476.8,151.2 481.7,151.2 484.2,155.5 481.7,159.7 476.8,159.7 		"/>
		<polygon class="st0" points="474.3,167.4 476.8,163.1 481.7,163.1 484.2,167.4 481.7,171.6 476.8,171.6 		"/>
		<polygon class="st0" points="474.3,179.3 476.8,175 481.7,175 484.2,179.3 481.7,183.6 476.8,183.6 		"/>
		<polygon class="st0" points="474.3,191.2 476.8,186.9 481.7,186.9 484.2,191.2 481.7,195.5 476.8,195.5 		"/>
		<polygon class="st0" points="474.3,203.1 476.8,198.9 481.7,198.9 484.2,203.1 481.7,207.4 476.8,207.4 		"/>
		<polygon class="st0" points="474.3,215 476.8,210.8 481.7,210.8 484.2,215 481.7,219.3 476.8,219.3 		"/>
		<polygon class="st0" points="474.3,107.9 476.8,103.6 481.7,103.6 484.2,107.9 481.7,112.1 476.8,112.1 		"/>
		<polygon class="st0" points="525.9,137.6 528.4,133.4 533.3,133.4 535.7,137.6 533.3,141.9 528.4,141.9 		"/>
		<polygon class="st0" points="525.9,149.5 528.4,145.3 533.3,145.3 535.7,149.5 533.3,153.8 528.4,153.8 		"/>
	</g>
</g>
<g id="Layer_2">
</g>
</svg>
