<?xml version="1.0" encoding="utf-8"?>
<!-- Generator: Adobe Illustrator 26.0.3, SVG Export Plug-In . SVG Version: 6.00 Build 0)  -->
<svg version="1.1" xmlns="http://www.w3.org/2000/svg" xmlns:xlink="http://www.w3.org/1999/xlink" x="0px" y="0px"
	 viewBox="0 0 649.1 418.1" style="enable-background:new 0 0 649.1 418.1;" xml:space="preserve">
<style type="text/css">
	.st0{fill:none;stroke:#FF00FF;stroke-width:2.834646e-02;stroke-miterlimit:10;}
</style>
<g id="Layer_1">
	<g>
		<polygon class="st0" points="51.5,146.9 53.9,142.6 58.9,142.6 61.3,146.9 58.9,151.1 53.9,151.1 		"/>
		<polygon class="st0" points="51.5,158.8 53.9,154.5 58.9,154.5 61.3,158.8 58.9,163 53.9,163 		"/>
		<polygon class="st0" points="61.8,140.9 64.3,136.7 69.2,136.7 71.6,140.9 69.2,145.2 64.3,145.2 		"/>
		<polygon class="st0" points="61.8,152.8 64.3,148.6 69.2,148.6 71.6,152.8 69.2,157.1 64.3,157.1 		"/>
		<polygon class="st0" points="61.8,164.7 64.3,160.5 69.2,160.5 71.6,164.7 69.2,169 64.3,169 		"/>
		<polygon class="st0" points="61.8,176.6 64.3,172.4 69.2,172.4 71.6,176.6 69.2,180.9 64.3,180.9 		"/>
		<polygon class="st0" points="61.8,188.5 64.3,184.3 69.2,184.3 71.6,188.5 69.2,192.8 64.3,192.8 		"/>
		<polygon class="st0" points="61.8,200.4 64.3,196.2 69.2,196.2 71.6,200.4 69.2,204.7 64.3,204.7 		"/>
		<polygon class="st0" points="61.8,105.2 64.3,101 69.2,101 71.6,105.2 69.2,109.5 64.3,109.5 		"/>
		<polygon class="st0" points="61.8,117.1 64.3,112.9 69.2,112.9 71.6,117.1 69.2,121.4 64.3,121.4 		"/>
		<polygon class="st0" points="61.8,129 64.3,124.8 69.2,124.8 71.6,129 69.2,133.3 64.3,133.3 		"/>
		<polygon class="st0" points="72.1,135 74.6,130.7 79.5,130.7 81.9,135 79.5,139.2 74.6,139.2 		"/>
		<polygon class="st0" points="72.1,146.9 74.6,142.6 79.5,142.6 81.9,146.9 79.5,151.1 74.6,151.1 		"/>
		<polygon class="st0" points="72.1,158.8 74.6,154.5 79.5,154.5 81.9,158.8 79.5,163 74.6,163 		"/>
		<polygon class="st0" points="72.1,170.7 74.6,166.4 79.5,166.4 81.9,170.7 79.5,174.9 74.6,174.9 		"/>
		<polygon class="st0" points="72.1,182.6 74.6,178.3 79.5,178.3 81.9,182.6 79.5,186.8 74.6,186.8 		"/>
		<polygon class="st0" points="72.1,194.5 74.6,190.2 79.5,190.2 81.9,194.5 79.5,198.7 74.6,198.7 		"/>
		<polygon class="st0" points="72.1,206.4 74.6,202.1 79.5,202.1 81.9,206.4 79.5,210.6 74.6,210.6 		"/>
		<polygon class="st0" points="72.1,218.3 74.6,214 79.5,214 81.9,218.3 79.5,222.5 74.6,222.5 		"/>
		<polygon class="st0" points="72.1,230.2 74.6,225.9 79.5,225.9 81.9,230.2 79.5,234.5 74.6,234.5 		"/>
		<polygon class="st0" points="72.1,87.4 74.6,83.1 79.5,83.1 81.9,87.4 79.5,91.6 74.6,91.6 		"/>
		<polygon class="st0" points="72.1,99.3 74.6,95 79.5,95 81.9,99.3 79.5,103.5 74.6,103.5 		"/>
		<polygon class="st0" points="72.1,111.2 74.6,106.9 79.5,106.9 81.9,111.2 79.5,115.4 74.6,115.4 		"/>
		<polygon class="st0" points="72.1,123.1 74.6,118.8 79.5,118.8 81.9,123.1 79.5,127.3 74.6,127.3 		"/>
		<polygon class="st0" points="82.4,140.9 84.9,136.7 89.8,136.7 92.2,140.9 89.8,145.2 84.9,145.2 		"/>
		<polygon class="st0" points="82.4,152.8 84.9,148.6 89.8,148.6 92.2,152.8 89.8,157.1 84.9,157.1 		"/>
		<polygon class="st0" points="82.4,164.7 84.9,160.5 89.8,160.5 92.2,164.7 89.8,169 84.9,169 		"/>
		<polygon class="st0" points="82.4,176.6 84.9,172.4 89.8,172.4 92.2,176.6 89.8,180.9 84.9,180.9 		"/>
		<polygon class="st0" points="82.4,188.5 84.9,184.3 89.8,184.3 92.2,188.5 89.8,192.8 84.9,192.8 		"/>
		<polygon class="st0" points="82.4,200.4 84.9,196.2 89.8,196.2 92.2,200.4 89.8,204.7 84.9,204.7 		"/>
		<polygon class="st0" points="82.4,212.3 84.9,208.1 89.8,208.1 92.2,212.3 89.8,216.6 84.9,216.6 		"/>
		<polygon class="st0" points="82.4,224.2 84.9,220 89.8,220 92.2,224.2 89.8,228.5 84.9,228.5 		"/>
		<polygon class="st0" points="82.4,236.1 84.9,231.9 89.8,231.9 92.2,236.1 89.8,240.4 84.9,240.4 		"/>
		<polygon class="st0" points="82.4,93.3 84.9,89.1 89.8,89.1 92.2,93.3 89.8,97.6 84.9,97.6 		"/>
		<polygon class="st0" points="82.4,105.2 84.9,101 89.8,101 92.2,105.2 89.8,109.5 84.9,109.5 		"/>
		<polygon class="st0" points="82.4,117.1 84.9,112.9 89.8,112.9 92.2,117.1 89.8,121.4 84.9,121.4 		"/>
		<polygon class="st0" points="82.4,129 84.9,124.8 89.8,124.8 92.2,129 89.8,133.3 84.9,133.3 		"/>
		<polygon class="st0" points="82.4,57.6 84.9,53.3 89.8,53.3 92.2,57.6 89.8,61.9 84.9,61.9 		"/>
		<polygon class="st0" points="82.4,69.5 84.9,65.3 89.8,65.3 92.2,69.5 89.8,73.8 84.9,73.8 		"/>
		<polygon class="st0" points="82.4,81.4 84.9,77.2 89.8,77.2 92.2,81.4 89.8,85.7 84.9,85.7 		"/>
		<polygon class="st0" points="82.4,45.7 84.9,41.4 89.8,41.4 92.2,45.7 89.8,50 84.9,50 		"/>
		<polygon class="st0" points="92.7,135 95.2,130.7 100.1,130.7 102.6,135 100.1,139.2 95.2,139.2 		"/>
		<polygon class="st0" points="92.7,146.9 95.2,142.6 100.1,142.6 102.6,146.9 100.1,151.1 95.2,151.1 		"/>
		<polygon class="st0" points="92.7,158.8 95.2,154.5 100.1,154.5 102.6,158.8 100.1,163 95.2,163 		"/>
		<polygon class="st0" points="92.7,170.7 95.2,166.4 100.1,166.4 102.6,170.7 100.1,174.9 95.2,174.9 		"/>
		<polygon class="st0" points="92.7,182.6 95.2,178.3 100.1,178.3 102.6,182.6 100.1,186.8 95.2,186.8 		"/>
		<polygon class="st0" points="92.7,194.5 95.2,190.2 100.1,190.2 102.6,194.5 100.1,198.7 95.2,198.7 		"/>
		<polygon class="st0" points="92.7,206.4 95.2,202.1 100.1,202.1 102.6,206.4 100.1,210.6 95.2,210.6 		"/>
		<polygon class="st0" points="92.7,218.3 95.2,214 100.1,214 102.6,218.3 100.1,222.5 95.2,222.5 		"/>
		<polygon class="st0" points="92.7,230.2 95.2,225.9 100.1,225.9 102.6,230.2 100.1,234.5 95.2,234.5 		"/>
		<polygon class="st0" points="92.7,242.1 95.2,237.8 100.1,237.8 102.6,242.1 100.1,246.4 95.2,246.4 		"/>
		<polygon class="st0" points="92.7,254 95.2,249.8 100.1,249.8 102.6,254 100.1,258.3 95.2,258.3 		"/>
		<polygon class="st0" points="92.7,87.4 95.2,83.1 100.1,83.1 102.6,87.4 100.1,91.6 95.2,91.6 		"/>
		<polygon class="st0" points="92.7,99.3 95.2,95 100.1,95 102.6,99.3 100.1,103.5 95.2,103.5 		"/>
		<polygon class="st0" points="92.7,111.2 95.2,106.9 100.1,106.9 102.6,111.2 100.1,115.4 95.2,115.4 		"/>
		<polygon class="st0" points="92.7,123.1 95.2,118.8 100.1,118.8 102.6,123.1 100.1,127.3 95.2,127.3 		"/>
		<polygon class="st0" points="92.7,51.7 95.2,47.4 100.1,47.4 102.6,51.7 100.1,55.9 95.2,55.9 		"/>
		<polygon class="st0" points="92.7,63.6 95.2,59.3 100.1,59.3 102.6,63.6 100.1,67.8 95.2,67.8 		"/>
		<polygon class="st0" points="92.7,75.5 95.2,71.2 100.1,71.2 102.6,75.5 100.1,79.7 95.2,79.7 		"/>
		<polygon class="st0" points="103,140.9 105.5,136.7 110.4,136.7 112.9,140.9 110.4,145.2 105.5,145.2 		"/>
		<polygon class="st0" points="103,152.8 105.5,148.6 110.4,148.6 112.9,152.8 110.4,157.1 105.5,157.1 		"/>
		<polygon class="st0" points="103,164.7 105.5,160.5 110.4,160.5 112.9,164.7 110.4,169 105.5,169 		"/>
		<polygon class="st0" points="103,176.6 105.5,172.4 110.4,172.4 112.9,176.6 110.4,180.9 105.5,180.9 		"/>
		<polygon class="st0" points="103,188.5 105.5,184.3 110.4,184.3 112.9,188.5 110.4,192.8 105.5,192.8 		"/>
		<polygon class="st0" points="103,200.4 105.5,196.2 110.4,196.2 112.9,200.4 110.4,204.7 105.5,204.7 		"/>
		<polygon class="st0" points="103,212.3 105.5,208.1 110.4,208.1 112.9,212.3 110.4,216.6 105.5,216.6 		"/>
		<polygon class="st0" points="103,224.2 105.5,220 110.4,220 112.9,224.2 110.4,228.5 105.5,228.5 		"/>
		<polygon class="st0" points="103,236.1 105.5,231.9 110.4,231.9 112.9,236.1 110.4,240.4 105.5,240.4 		"/>
		<polygon class="st0" points="103,248.1 105.5,243.8 110.4,243.8 112.9,248.1 110.4,252.3 105.5,252.3 		"/>
		<polygon class="st0" points="103,260 105.5,255.7 110.4,255.7 112.9,260 110.4,264.2 105.5,264.2 		"/>
		<polygon class="st0" points="103,93.3 105.5,89.1 110.4,89.1 112.9,93.3 110.4,97.6 105.5,97.6 		"/>
		<polygon class="st0" points="103,105.2 105.5,101 110.4,101 112.9,105.2 110.4,109.5 105.5,109.5 		"/>
		<polygon class="st0" points="103,117.1 105.5,112.9 110.4,112.9 112.9,117.1 110.4,121.4 105.5,121.4 		"/>
		<polygon class="st0" points="103,129 105.5,124.8 110.4,124.8 112.9,129 110.4,133.3 105.5,133.3 		"/>
		<polygon class="st0" points="103,57.6 105.5,53.3 110.4,53.3 112.9,57.6 110.4,61.9 105.5,61.9 		"/>
		<polygon class="st0" points="103,69.5 105.5,65.3 110.4,65.3 112.9,69.5 110.4,73.8 105.5,73.8 		"/>
		<polygon class="st0" points="103,81.4 105.5,77.2 110.4,77.2 112.9,81.4 110.4,85.7 105.5,85.7 		"/>
		<polygon class="st0" points="103,45.7 105.5,41.4 110.4,41.4 112.9,45.7 110.4,50 105.5,50 		"/>
		<polygon class="st0" points="113.4,135 115.8,130.7 120.7,130.7 123.2,135 120.7,139.2 115.8,139.2 		"/>
		<polygon class="st0" points="113.4,146.9 115.8,142.6 120.7,142.6 123.2,146.9 120.7,151.1 115.8,151.1 		"/>
		<polygon class="st0" points="113.4,158.8 115.8,154.5 120.7,154.5 123.2,158.8 120.7,163 115.8,163 		"/>
		<polygon class="st0" points="113.4,170.7 115.8,166.4 120.7,166.4 123.2,170.7 120.7,174.9 115.8,174.9 		"/>
		<polygon class="st0" points="113.4,182.6 115.8,178.3 120.7,178.3 123.2,182.6 120.7,186.8 115.8,186.8 		"/>
		<polygon class="st0" points="113.4,194.5 115.8,190.2 120.7,190.2 123.2,194.5 120.7,198.7 115.8,198.7 		"/>
		<polygon class="st0" points="113.4,206.4 115.8,202.1 120.7,202.1 123.2,206.4 120.7,210.6 115.8,210.6 		"/>
		<polygon class="st0" points="113.4,218.3 115.8,214 120.7,214 123.2,218.3 120.7,222.5 115.8,222.5 		"/>
		<polygon class="st0" points="113.4,230.2 115.8,225.9 120.7,225.9 123.2,230.2 120.7,234.5 115.8,234.5 		"/>
		<polygon class="st0" points="113.4,242.1 115.8,237.8 120.7,237.8 123.2,242.1 120.7,246.4 115.8,246.4 		"/>
		<polygon class="st0" points="113.4,254 115.8,249.8 120.7,249.8 123.2,254 120.7,258.3 115.8,258.3 		"/>
		<polygon class="st0" points="113.4,265.9 115.8,261.7 120.7,261.7 123.2,265.9 120.7,270.2 115.8,270.2 		"/>
		<polygon class="st0" points="113.4,87.4 115.8,83.1 120.7,83.1 123.2,87.4 120.7,91.6 115.8,91.6 		"/>
		<polygon class="st0" points="113.4,99.3 115.8,95 120.7,95 123.2,99.3 120.7,103.5 115.8,103.5 		"/>
		<polygon class="st0" points="113.4,111.2 115.8,106.9 120.7,106.9 123.2,111.2 120.7,115.4 115.8,115.4 		"/>
		<polygon class="st0" points="113.4,123.1 115.8,118.8 120.7,118.8 123.2,123.1 120.7,127.3 115.8,127.3 		"/>
		<polygon class="st0" points="113.4,51.7 115.8,47.4 120.7,47.4 123.2,51.7 120.7,55.9 115.8,55.9 		"/>
		<polygon class="st0" points="113.4,63.6 115.8,59.3 120.7,59.3 123.2,63.6 120.7,67.8 115.8,67.8 		"/>
		<polygon class="st0" points="113.4,75.5 115.8,71.2 120.7,71.2 123.2,75.5 120.7,79.7 115.8,79.7 		"/>
		<polygon class="st0" points="123.7,140.9 126.1,136.7 131,136.7 133.5,140.9 131,145.2 126.1,145.2 		"/>
		<polygon class="st0" points="123.7,152.8 126.1,148.6 131,148.6 133.5,152.8 131,157.1 126.1,157.1 		"/>
		<polygon class="st0" points="123.7,164.7 126.1,160.5 131,160.5 133.5,164.7 131,169 126.1,169 		"/>
		<polygon class="st0" points="123.7,176.6 126.1,172.4 131,172.4 133.5,176.6 131,180.9 126.1,180.9 		"/>
		<polygon class="st0" points="123.7,188.5 126.1,184.3 131,184.3 133.5,188.5 131,192.8 126.1,192.8 		"/>
		<polygon class="st0" points="123.7,200.4 126.1,196.2 131,196.2 133.5,200.4 131,204.7 126.1,204.7 		"/>
		<polygon class="st0" points="123.7,212.3 126.1,208.1 131,208.1 133.5,212.3 131,216.6 126.1,216.6 		"/>
		<polygon class="st0" points="123.7,224.2 126.1,220 131,220 133.5,224.2 131,228.5 126.1,228.5 		"/>
		<polygon class="st0" points="123.7,236.1 126.1,231.9 131,231.9 133.5,236.1 131,240.4 126.1,240.4 		"/>
		<polygon class="st0" points="123.7,248.1 126.1,243.8 131,243.8 133.5,248.1 131,252.3 126.1,252.3 		"/>
		<polygon class="st0" points="123.7,260 126.1,255.7 131,255.7 133.5,260 131,264.2 126.1,264.2 		"/>
		<polygon class="st0" points="123.7,271.9 126.1,267.6 131,267.6 133.5,271.9 131,276.1 126.1,276.1 		"/>
		<polygon class="st0" points="123.7,93.3 126.1,89.1 131,89.1 133.5,93.3 131,97.6 126.1,97.6 		"/>
		<polygon class="st0" points="123.7,105.2 126.1,101 131,101 133.5,105.2 131,109.5 126.1,109.5 		"/>
		<polygon class="st0" points="123.7,117.1 126.1,112.9 131,112.9 133.5,117.1 131,121.4 126.1,121.4 		"/>
		<polygon class="st0" points="123.7,129 126.1,124.8 131,124.8 133.5,129 131,133.3 126.1,133.3 		"/>
		<polygon class="st0" points="123.7,57.6 126.1,53.3 131,53.3 133.5,57.6 131,61.9 126.1,61.9 		"/>
		<polygon class="st0" points="123.7,69.5 126.1,65.3 131,65.3 133.5,69.5 131,73.8 126.1,73.8 		"/>
		<polygon class="st0" points="123.7,81.4 126.1,77.2 131,77.2 133.5,81.4 131,85.7 126.1,85.7 		"/>
		<polygon class="st0" points="134,135 136.4,130.7 141.3,130.7 143.8,135 141.3,139.2 136.4,139.2 		"/>
		<polygon class="st0" points="134,146.9 136.4,142.6 141.3,142.6 143.8,146.9 141.3,151.1 136.4,151.1 		"/>
		<polygon class="st0" points="134,158.8 136.4,154.5 141.3,154.5 143.8,158.8 141.3,163 136.4,163 		"/>
		<polygon class="st0" points="134,170.7 136.4,166.4 141.3,166.4 143.8,170.7 141.3,174.9 136.4,174.9 		"/>
		<polygon class="st0" points="134,182.6 136.4,178.3 141.3,178.3 143.8,182.6 141.3,186.8 136.4,186.8 		"/>
		<polygon class="st0" points="134,194.5 136.4,190.2 141.3,190.2 143.8,194.5 141.3,198.7 136.4,198.7 		"/>
		<polygon class="st0" points="134,206.4 136.4,202.1 141.3,202.1 143.8,206.4 141.3,210.6 136.4,210.6 		"/>
		<polygon class="st0" points="134,218.3 136.4,214 141.3,214 143.8,218.3 141.3,222.5 136.4,222.5 		"/>
		<polygon class="st0" points="134,230.2 136.4,225.9 141.3,225.9 143.8,230.2 141.3,234.5 136.4,234.5 		"/>
		<polygon class="st0" points="134,242.1 136.4,237.8 141.3,237.8 143.8,242.1 141.3,246.4 136.4,246.4 		"/>
		<polygon class="st0" points="134,254 136.4,249.8 141.3,249.8 143.8,254 141.3,258.3 136.4,258.3 		"/>
		<polygon class="st0" points="134,265.9 136.4,261.7 141.3,261.7 143.8,265.9 141.3,270.2 136.4,270.2 		"/>
		<polygon class="st0" points="134,277.8 136.4,273.6 141.3,273.6 143.8,277.8 141.3,282.1 136.4,282.1 		"/>
		<polygon class="st0" points="134,87.4 136.4,83.1 141.3,83.1 143.8,87.4 141.3,91.6 136.4,91.6 		"/>
		<polygon class="st0" points="134,99.3 136.4,95 141.3,95 143.8,99.3 141.3,103.5 136.4,103.5 		"/>
		<polygon class="st0" points="134,111.2 136.4,106.9 141.3,106.9 143.8,111.2 141.3,115.4 136.4,115.4 		"/>
		<polygon class="st0" points="134,123.1 136.4,118.8 141.3,118.8 143.8,123.1 141.3,127.3 136.4,127.3 		"/>
		<polygon class="st0" points="134,51.7 136.4,47.4 141.3,47.4 143.8,51.7 141.3,55.9 136.4,55.9 		"/>
		<polygon class="st0" points="134,63.6 136.4,59.3 141.3,59.3 143.8,63.6 141.3,67.8 136.4,67.8 		"/>
		<polygon class="st0" points="134,75.5 136.4,71.2 141.3,71.2 143.8,75.5 141.3,79.7 136.4,79.7 		"/>
		<polygon class="st0" points="144.3,140.9 146.7,136.7 151.7,136.7 154.1,140.9 151.7,145.2 146.7,145.2 		"/>
		<polygon class="st0" points="144.3,152.8 146.7,148.6 151.7,148.6 154.1,152.8 151.7,157.1 146.7,157.1 		"/>
		<polygon class="st0" points="144.3,164.7 146.7,160.5 151.7,160.5 154.1,164.7 151.7,169 146.7,169 		"/>
		<polygon class="st0" points="144.3,176.6 146.7,172.4 151.7,172.4 154.1,176.6 151.7,180.9 146.7,180.9 		"/>
		<polygon class="st0" points="144.3,188.5 146.7,184.3 151.7,184.3 154.1,188.5 151.7,192.8 146.7,192.8 		"/>
		<polygon class="st0" points="144.3,200.4 146.7,196.2 151.7,196.2 154.1,200.4 151.7,204.7 146.7,204.7 		"/>
		<polygon class="st0" points="144.3,212.3 146.7,208.1 151.7,208.1 154.1,212.3 151.7,216.6 146.7,216.6 		"/>
		<polygon class="st0" points="144.3,224.2 146.7,220 151.7,220 154.1,224.2 151.7,228.5 146.7,228.5 		"/>
		<polygon class="st0" points="144.3,236.1 146.7,231.9 151.7,231.9 154.1,236.1 151.7,240.4 146.7,240.4 		"/>
		<polygon class="st0" points="144.3,248.1 146.7,243.8 151.7,243.8 154.1,248.1 151.7,252.3 146.7,252.3 		"/>
		<polygon class="st0" points="144.3,260 146.7,255.7 151.7,255.7 154.1,260 151.7,264.2 146.7,264.2 		"/>
		<polygon class="st0" points="144.3,271.9 146.7,267.6 151.7,267.6 154.1,271.9 151.7,276.1 146.7,276.1 		"/>
		<polygon class="st0" points="144.3,283.8 146.7,279.5 151.7,279.5 154.1,283.8 151.7,288 146.7,288 		"/>
		<polygon class="st0" points="144.3,93.3 146.7,89.1 151.7,89.1 154.1,93.3 151.7,97.6 146.7,97.6 		"/>
		<polygon class="st0" points="144.3,105.2 146.7,101 151.7,101 154.1,105.2 151.7,109.5 146.7,109.5 		"/>
		<polygon class="st0" points="144.3,117.1 146.7,112.9 151.7,112.9 154.1,117.1 151.7,121.4 146.7,121.4 		"/>
		<polygon class="st0" points="144.3,129 146.7,124.8 151.7,124.8 154.1,129 151.7,133.3 146.7,133.3 		"/>
		<polygon class="st0" points="144.3,57.6 146.7,53.3 151.7,53.3 154.1,57.6 151.7,61.9 146.7,61.9 		"/>
		<polygon class="st0" points="144.3,69.5 146.7,65.3 151.7,65.3 154.1,69.5 151.7,73.8 146.7,73.8 		"/>
		<polygon class="st0" points="144.3,81.4 146.7,77.2 151.7,77.2 154.1,81.4 151.7,85.7 146.7,85.7 		"/>
		<polygon class="st0" points="154.6,135 157.1,130.7 162,130.7 164.4,135 162,139.2 157.1,139.2 		"/>
		<polygon class="st0" points="154.6,146.9 157.1,142.6 162,142.6 164.4,146.9 162,151.1 157.1,151.1 		"/>
		<polygon class="st0" points="154.6,158.8 157.1,154.5 162,154.5 164.4,158.8 162,163 157.1,163 		"/>
		<polygon class="st0" points="154.6,170.7 157.1,166.4 162,166.4 164.4,170.7 162,174.9 157.1,174.9 		"/>
		<polygon class="st0" points="154.6,182.6 157.1,178.3 162,178.3 164.4,182.6 162,186.8 157.1,186.8 		"/>
		<polygon class="st0" points="154.6,194.5 157.1,190.2 162,190.2 164.4,194.5 162,198.7 157.1,198.7 		"/>
		<polygon class="st0" points="154.6,206.4 157.1,202.1 162,202.1 164.4,206.4 162,210.6 157.1,210.6 		"/>
		<polygon class="st0" points="154.6,218.3 157.1,214 162,214 164.4,218.3 162,222.5 157.1,222.5 		"/>
		<polygon class="st0" points="154.6,230.2 157.1,225.9 162,225.9 164.4,230.2 162,234.5 157.1,234.5 		"/>
		<polygon class="st0" points="154.6,242.1 157.1,237.8 162,237.8 164.4,242.1 162,246.4 157.1,246.4 		"/>
		<polygon class="st0" points="154.6,254 157.1,249.8 162,249.8 164.4,254 162,258.3 157.1,258.3 		"/>
		<polygon class="st0" points="154.6,265.9 157.1,261.7 162,261.7 164.4,265.9 162,270.2 157.1,270.2 		"/>
		<polygon class="st0" points="154.6,277.8 157.1,273.6 162,273.6 164.4,277.8 162,282.1 157.1,282.1 		"/>
		<polygon class="st0" points="154.6,289.7 157.1,285.5 162,285.5 164.4,289.7 162,294 157.1,294 		"/>
		<polygon class="st0" points="154.6,87.4 157.1,83.1 162,83.1 164.4,87.4 162,91.6 157.1,91.6 		"/>
		<polygon class="st0" points="154.6,99.3 157.1,95 162,95 164.4,99.3 162,103.5 157.1,103.5 		"/>
		<polygon class="st0" points="154.6,111.2 157.1,106.9 162,106.9 164.4,111.2 162,115.4 157.1,115.4 		"/>
		<polygon class="st0" points="154.6,123.1 157.1,118.8 162,118.8 164.4,123.1 162,127.3 157.1,127.3 		"/>
		<polygon class="st0" points="154.6,63.6 157.1,59.3 162,59.3 164.4,63.6 162,67.8 157.1,67.8 		"/>
		<polygon class="st0" points="154.6,75.5 157.1,71.2 162,71.2 164.4,75.5 162,79.7 157.1,79.7 		"/>
		<polygon class="st0" points="164.9,140.9 167.4,136.7 172.3,136.7 174.7,140.9 172.3,145.2 167.4,145.2 		"/>
		<polygon class="st0" points="164.9,152.8 167.4,148.6 172.3,148.6 174.7,152.8 172.3,157.1 167.4,157.1 		"/>
		<polygon class="st0" points="164.9,164.7 167.4,160.5 172.3,160.5 174.7,164.7 172.3,169 167.4,169 		"/>
		<polygon class="st0" points="164.9,176.6 167.4,172.4 172.3,172.4 174.7,176.6 172.3,180.9 167.4,180.9 		"/>
		<polygon class="st0" points="164.9,188.5 167.4,184.3 172.3,184.3 174.7,188.5 172.3,192.8 167.4,192.8 		"/>
		<polygon class="st0" points="164.9,200.4 167.4,196.2 172.3,196.2 174.7,200.4 172.3,204.7 167.4,204.7 		"/>
		<polygon class="st0" points="164.9,212.3 167.4,208.1 172.3,208.1 174.7,212.3 172.3,216.6 167.4,216.6 		"/>
		<polygon class="st0" points="164.9,224.2 167.4,220 172.3,220 174.7,224.2 172.3,228.5 167.4,228.5 		"/>
		<polygon class="st0" points="164.9,236.1 167.4,231.9 172.3,231.9 174.7,236.1 172.3,240.4 167.4,240.4 		"/>
		<polygon class="st0" points="164.9,248.1 167.4,243.8 172.3,243.8 174.7,248.1 172.3,252.3 167.4,252.3 		"/>
		<polygon class="st0" points="164.9,260 167.4,255.7 172.3,255.7 174.7,260 172.3,264.2 167.4,264.2 		"/>
		<polygon class="st0" points="164.9,271.9 167.4,267.6 172.3,267.6 174.7,271.9 172.3,276.1 167.4,276.1 		"/>
		<polygon class="st0" points="164.9,283.8 167.4,279.5 172.3,279.5 174.7,283.8 172.3,288 167.4,288 		"/>
		<polygon class="st0" points="164.9,93.3 167.4,89.1 172.3,89.1 174.7,93.3 172.3,97.6 167.4,97.6 		"/>
		<polygon class="st0" points="164.9,105.2 167.4,101 172.3,101 174.7,105.2 172.3,109.5 167.4,109.5 		"/>
		<polygon class="st0" points="164.9,117.1 167.4,112.9 172.3,112.9 174.7,117.1 172.3,121.4 167.4,121.4 		"/>
		<polygon class="st0" points="164.9,129 167.4,124.8 172.3,124.8 174.7,129 172.3,133.3 167.4,133.3 		"/>
		<polygon class="st0" points="164.9,57.6 167.4,53.3 172.3,53.3 174.7,57.6 172.3,61.9 167.4,61.9 		"/>
		<polygon class="st0" points="164.9,69.5 167.4,65.3 172.3,65.3 174.7,69.5 172.3,73.8 167.4,73.8 		"/>
		<polygon class="st0" points="164.9,81.4 167.4,77.2 172.3,77.2 174.7,81.4 172.3,85.7 167.4,85.7 		"/>
		<polygon class="st0" points="175.2,135 177.7,130.7 182.6,130.7 185.1,135 182.6,139.2 177.7,139.2 		"/>
		<polygon class="st0" points="175.2,146.9 177.7,142.6 182.6,142.6 185.1,146.9 182.6,151.1 177.7,151.1 		"/>
		<polygon class="st0" points="175.2,158.8 177.7,154.5 182.6,154.5 185.1,158.8 182.6,163 177.7,163 		"/>
		<polygon class="st0" points="175.2,170.7 177.7,166.4 182.6,166.4 185.1,170.7 182.6,174.9 177.7,174.9 		"/>
		<polygon class="st0" points="175.2,182.6 177.7,178.3 182.6,178.3 185.1,182.6 182.6,186.8 177.7,186.8 		"/>
		<polygon class="st0" points="175.2,194.5 177.7,190.2 182.6,190.2 185.1,194.5 182.6,198.7 177.7,198.7 		"/>
		<polygon class="st0" points="175.2,206.4 177.7,202.1 182.6,202.1 185.1,206.4 182.6,210.6 177.7,210.6 		"/>
		<polygon class="st0" points="175.2,218.3 177.7,214 182.6,214 185.1,218.3 182.6,222.5 177.7,222.5 		"/>
		<polygon class="st0" points="175.2,230.2 177.7,225.9 182.6,225.9 185.1,230.2 182.6,234.5 177.7,234.5 		"/>
		<polygon class="st0" points="175.2,242.1 177.7,237.8 182.6,237.8 185.1,242.1 182.6,246.4 177.7,246.4 		"/>
		<polygon class="st0" points="175.2,254 177.7,249.8 182.6,249.8 185.1,254 182.6,258.3 177.7,258.3 		"/>
		<polygon class="st0" points="175.2,265.9 177.7,261.7 182.6,261.7 185.1,265.9 182.6,270.2 177.7,270.2 		"/>
		<polygon class="st0" points="175.2,277.8 177.7,273.6 182.6,273.6 185.1,277.8 182.6,282.1 177.7,282.1 		"/>
		<polygon class="st0" points="175.2,289.7 177.7,285.5 182.6,285.5 185.1,289.7 182.6,294 177.7,294 		"/>
		<polygon class="st0" points="175.2,87.4 177.7,83.1 182.6,83.1 185.1,87.4 182.6,91.6 177.7,91.6 		"/>
		<polygon class="st0" points="175.2,99.3 177.7,95 182.6,95 185.1,99.3 182.6,103.5 177.7,103.5 		"/>
		<polygon class="st0" points="175.2,111.2 177.7,106.9 182.6,106.9 185.1,111.2 182.6,115.4 177.7,115.4 		"/>
		<polygon class="st0" points="175.2,123.1 177.7,118.8 182.6,118.8 185.1,123.1 182.6,127.3 177.7,127.3 		"/>
		<polygon class="st0" points="175.2,63.6 177.7,59.3 182.6,59.3 185.1,63.6 182.6,67.8 177.7,67.8 		"/>
		<polygon class="st0" points="175.2,75.5 177.7,71.2 182.6,71.2 185.1,75.5 182.6,79.7 177.7,79.7 		"/>
		<polygon class="st0" points="185.5,140.9 188,136.7 192.9,136.7 195.4,140.9 192.9,145.2 188,145.2 		"/>
		<polygon class="st0" points="185.5,152.8 188,148.6 192.9,148.6 195.4,152.8 192.9,157.1 188,157.1 		"/>
		<polygon class="st0" points="185.5,164.7 188,160.5 192.9,160.5 195.4,164.7 192.9,169 188,169 		"/>
		<polygon class="st0" points="185.5,176.6 188,172.4 192.9,172.4 195.4,176.6 192.9,180.9 188,180.9 		"/>
		<polygon class="st0" points="185.5,188.5 188,184.3 192.9,184.3 195.4,188.5 192.9,192.8 188,192.8 		"/>
		<polygon class="st0" points="185.5,200.4 188,196.2 192.9,196.2 195.4,200.4 192.9,204.7 188,204.7 		"/>
		<polygon class="st0" points="185.5,212.3 188,208.1 192.9,208.1 195.4,212.3 192.9,216.6 188,216.6 		"/>
		<polygon class="st0" points="185.5,224.2 188,220 192.9,220 195.4,224.2 192.9,228.5 188,228.5 		"/>
		<polygon class="st0" points="185.5,236.1 188,231.9 192.9,231.9 195.4,236.1 192.9,240.4 188,240.4 		"/>
		<polygon class="st0" points="185.5,248.1 188,243.8 192.9,243.8 195.4,248.1 192.9,252.3 188,252.3 		"/>
		<polygon class="st0" points="185.5,260 188,255.7 192.9,255.7 195.4,260 192.9,264.2 188,264.2 		"/>
		<polygon class="st0" points="185.5,271.9 188,267.6 192.9,267.6 195.4,271.9 192.9,276.1 188,276.1 		"/>
		<polygon class="st0" points="185.5,283.8 188,279.5 192.9,279.5 195.4,283.8 192.9,288 188,288 		"/>
		<polygon class="st0" points="185.5,295.7 188,291.4 192.9,291.4 195.4,295.7 192.9,299.9 188,299.9 		"/>
		<polygon class="st0" points="185.5,93.3 188,89.1 192.9,89.1 195.4,93.3 192.9,97.6 188,97.6 		"/>
		<polygon class="st0" points="185.5,105.2 188,101 192.9,101 195.4,105.2 192.9,109.5 188,109.5 		"/>
		<polygon class="st0" points="185.5,117.1 188,112.9 192.9,112.9 195.4,117.1 192.9,121.4 188,121.4 		"/>
		<polygon class="st0" points="185.5,129 188,124.8 192.9,124.8 195.4,129 192.9,133.3 188,133.3 		"/>
		<polygon class="st0" points="185.5,69.5 188,65.3 192.9,65.3 195.4,69.5 192.9,73.8 188,73.8 		"/>
		<polygon class="st0" points="185.5,81.4 188,77.2 192.9,77.2 195.4,81.4 192.9,85.7 188,85.7 		"/>
		<polygon class="st0" points="195.9,135 198.3,130.7 203.2,130.7 205.7,135 203.2,139.2 198.3,139.2 		"/>
		<polygon class="st0" points="195.9,146.9 198.3,142.6 203.2,142.6 205.7,146.9 203.2,151.1 198.3,151.1 		"/>
		<polygon class="st0" points="195.9,158.8 198.3,154.5 203.2,154.5 205.7,158.8 203.2,163 198.3,163 		"/>
		<polygon class="st0" points="195.9,170.7 198.3,166.4 203.2,166.4 205.7,170.7 203.2,174.9 198.3,174.9 		"/>
		<polygon class="st0" points="195.9,182.6 198.3,178.3 203.2,178.3 205.7,182.6 203.2,186.8 198.3,186.8 		"/>
		<polygon class="st0" points="195.9,194.5 198.3,190.2 203.2,190.2 205.7,194.5 203.2,198.7 198.3,198.7 		"/>
		<polygon class="st0" points="195.9,206.4 198.3,202.1 203.2,202.1 205.7,206.4 203.2,210.6 198.3,210.6 		"/>
		<polygon class="st0" points="195.9,218.3 198.3,214 203.2,214 205.7,218.3 203.2,222.5 198.3,222.5 		"/>
		<polygon class="st0" points="195.9,230.2 198.3,225.9 203.2,225.9 205.7,230.2 203.2,234.5 198.3,234.5 		"/>
		<polygon class="st0" points="195.9,242.1 198.3,237.8 203.2,237.8 205.7,242.1 203.2,246.4 198.3,246.4 		"/>
		<polygon class="st0" points="195.9,254 198.3,249.8 203.2,249.8 205.7,254 203.2,258.3 198.3,258.3 		"/>
		<polygon class="st0" points="195.9,265.9 198.3,261.7 203.2,261.7 205.7,265.9 203.2,270.2 198.3,270.2 		"/>
		<polygon class="st0" points="195.9,277.8 198.3,273.6 203.2,273.6 205.7,277.8 203.2,282.1 198.3,282.1 		"/>
		<polygon class="st0" points="195.9,289.7 198.3,285.5 203.2,285.5 205.7,289.7 203.2,294 198.3,294 		"/>
		<polygon class="st0" points="195.9,87.4 198.3,83.1 203.2,83.1 205.7,87.4 203.2,91.6 198.3,91.6 		"/>
		<polygon class="st0" points="195.9,99.3 198.3,95 203.2,95 205.7,99.3 203.2,103.5 198.3,103.5 		"/>
		<polygon class="st0" points="195.9,111.2 198.3,106.9 203.2,106.9 205.7,111.2 203.2,115.4 198.3,115.4 		"/>
		<polygon class="st0" points="195.9,123.1 198.3,118.8 203.2,118.8 205.7,123.1 203.2,127.3 198.3,127.3 		"/>
		<polygon class="st0" points="195.9,63.6 198.3,59.3 203.2,59.3 205.7,63.6 203.2,67.8 198.3,67.8 		"/>
		<polygon class="st0" points="195.9,75.5 198.3,71.2 203.2,71.2 205.7,75.5 203.2,79.7 198.3,79.7 		"/>
		<polygon class="st0" points="206.2,140.9 208.6,136.7 213.5,136.7 216,140.9 213.5,145.2 208.6,145.2 		"/>
		<polygon class="st0" points="206.2,152.8 208.6,148.6 213.5,148.6 216,152.8 213.5,157.1 208.6,157.1 		"/>
		<polygon class="st0" points="206.2,164.7 208.6,160.5 213.5,160.5 216,164.7 213.5,169 208.6,169 		"/>
		<polygon class="st0" points="206.2,176.6 208.6,172.4 213.5,172.4 216,176.6 213.5,180.9 208.6,180.9 		"/>
		<polygon class="st0" points="206.2,188.5 208.6,184.3 213.5,184.3 216,188.5 213.5,192.8 208.6,192.8 		"/>
		<polygon class="st0" points="206.2,200.4 208.6,196.2 213.5,196.2 216,200.4 213.5,204.7 208.6,204.7 		"/>
		<polygon class="st0" points="206.2,212.3 208.6,208.1 213.5,208.1 216,212.3 213.5,216.6 208.6,216.6 		"/>
		<polygon class="st0" points="206.2,224.2 208.6,220 213.5,220 216,224.2 213.5,228.5 208.6,228.5 		"/>
		<polygon class="st0" points="206.2,236.1 208.6,231.9 213.5,231.9 216,236.1 213.5,240.4 208.6,240.4 		"/>
		<polygon class="st0" points="206.2,248.1 208.6,243.8 213.5,243.8 216,248.1 213.5,252.3 208.6,252.3 		"/>
		<polygon class="st0" points="206.2,260 208.6,255.7 213.5,255.7 216,260 213.5,264.2 208.6,264.2 		"/>
		<polygon class="st0" points="206.2,271.9 208.6,267.6 213.5,267.6 216,271.9 213.5,276.1 208.6,276.1 		"/>
		<polygon class="st0" points="206.2,283.8 208.6,279.5 213.5,279.5 216,283.8 213.5,288 208.6,288 		"/>
		<polygon class="st0" points="206.2,93.3 208.6,89.1 213.5,89.1 216,93.3 213.5,97.6 208.6,97.6 		"/>
		<polygon class="st0" points="206.2,105.2 208.6,101 213.5,101 216,105.2 213.5,109.5 208.6,109.5 		"/>
		<polygon class="st0" points="206.2,117.1 208.6,112.9 213.5,112.9 216,117.1 213.5,121.4 208.6,121.4 		"/>
		<polygon class="st0" points="206.2,129 208.6,124.8 213.5,124.8 216,129 213.5,133.3 208.6,133.3 		"/>
		<polygon class="st0" points="206.2,69.5 208.6,65.3 213.5,65.3 216,69.5 213.5,73.8 208.6,73.8 		"/>
		<polygon class="st0" points="206.2,81.4 208.6,77.2 213.5,77.2 216,81.4 213.5,85.7 208.6,85.7 		"/>
		<polygon class="st0" points="216.5,135 218.9,130.7 223.8,130.7 226.3,135 223.8,139.2 218.9,139.2 		"/>
		<polygon class="st0" points="216.5,146.9 218.9,142.6 223.8,142.6 226.3,146.9 223.8,151.1 218.9,151.1 		"/>
		<polygon class="st0" points="216.5,158.8 218.9,154.5 223.8,154.5 226.3,158.8 223.8,163 218.9,163 		"/>
		<polygon class="st0" points="216.5,170.7 218.9,166.4 223.8,166.4 226.3,170.7 223.8,174.9 218.9,174.9 		"/>
		<polygon class="st0" points="216.5,182.6 218.9,178.3 223.8,178.3 226.3,182.6 223.8,186.8 218.9,186.8 		"/>
		<polygon class="st0" points="216.5,194.5 218.9,190.2 223.8,190.2 226.3,194.5 223.8,198.7 218.9,198.7 		"/>
		<polygon class="st0" points="216.5,206.4 218.9,202.1 223.8,202.1 226.3,206.4 223.8,210.6 218.9,210.6 		"/>
		<polygon class="st0" points="216.5,218.3 218.9,214 223.8,214 226.3,218.3 223.8,222.5 218.9,222.5 		"/>
		<polygon class="st0" points="216.5,230.2 218.9,225.9 223.8,225.9 226.3,230.2 223.8,234.5 218.9,234.5 		"/>
		<polygon class="st0" points="216.5,242.1 218.9,237.8 223.8,237.8 226.3,242.1 223.8,246.4 218.9,246.4 		"/>
		<polygon class="st0" points="216.5,254 218.9,249.8 223.8,249.8 226.3,254 223.8,258.3 218.9,258.3 		"/>
		<polygon class="st0" points="216.5,265.9 218.9,261.7 223.8,261.7 226.3,265.9 223.8,270.2 218.9,270.2 		"/>
		<polygon class="st0" points="216.5,277.8 218.9,273.6 223.8,273.6 226.3,277.8 223.8,282.1 218.9,282.1 		"/>
		<polygon class="st0" points="216.5,289.7 218.9,285.5 223.8,285.5 226.3,289.7 223.8,294 218.9,294 		"/>
		<polygon class="st0" points="216.5,301.6 218.9,297.4 223.8,297.4 226.3,301.6 223.8,305.9 218.9,305.9 		"/>
		<polygon class="st0" points="216.5,87.4 218.9,83.1 223.8,83.1 226.3,87.4 223.8,91.6 218.9,91.6 		"/>
		<polygon class="st0" points="216.5,99.3 218.9,95 223.8,95 226.3,99.3 223.8,103.5 218.9,103.5 		"/>
		<polygon class="st0" points="216.5,111.2 218.9,106.9 223.8,106.9 226.3,111.2 223.8,115.4 218.9,115.4 		"/>
		<polygon class="st0" points="216.5,123.1 218.9,118.8 223.8,118.8 226.3,123.1 223.8,127.3 218.9,127.3 		"/>
		<polygon class="st0" points="216.5,75.5 218.9,71.2 223.8,71.2 226.3,75.5 223.8,79.7 218.9,79.7 		"/>
		<polygon class="st0" points="226.8,140.9 229.2,136.7 234.2,136.7 236.6,140.9 234.2,145.2 229.2,145.2 		"/>
		<polygon class="st0" points="226.8,152.8 229.2,148.6 234.2,148.6 236.6,152.8 234.2,157.1 229.2,157.1 		"/>
		<polygon class="st0" points="226.8,164.7 229.2,160.5 234.2,160.5 236.6,164.7 234.2,169 229.2,169 		"/>
		<polygon class="st0" points="226.8,176.6 229.2,172.4 234.2,172.4 236.6,176.6 234.2,180.9 229.2,180.9 		"/>
		<polygon class="st0" points="226.8,188.5 229.2,184.3 234.2,184.3 236.6,188.5 234.2,192.8 229.2,192.8 		"/>
		<polygon class="st0" points="226.8,200.4 229.2,196.2 234.2,196.2 236.6,200.4 234.2,204.7 229.2,204.7 		"/>
		<polygon class="st0" points="226.8,212.3 229.2,208.1 234.2,208.1 236.6,212.3 234.2,216.6 229.2,216.6 		"/>
		<polygon class="st0" points="226.8,224.2 229.2,220 234.2,220 236.6,224.2 234.2,228.5 229.2,228.5 		"/>
		<polygon class="st0" points="226.8,236.1 229.2,231.9 234.2,231.9 236.6,236.1 234.2,240.4 229.2,240.4 		"/>
		<polygon class="st0" points="226.8,248.1 229.2,243.8 234.2,243.8 236.6,248.1 234.2,252.3 229.2,252.3 		"/>
		<polygon class="st0" points="226.8,260 229.2,255.7 234.2,255.7 236.6,260 234.2,264.2 229.2,264.2 		"/>
		<polygon class="st0" points="226.8,271.9 229.2,267.6 234.2,267.6 236.6,271.9 234.2,276.1 229.2,276.1 		"/>
		<polygon class="st0" points="226.8,283.8 229.2,279.5 234.2,279.5 236.6,283.8 234.2,288 229.2,288 		"/>
		<polygon class="st0" points="226.8,295.7 229.2,291.4 234.2,291.4 236.6,295.7 234.2,299.9 229.2,299.9 		"/>
		<polygon class="st0" points="226.8,307.6 229.2,303.3 234.2,303.3 236.6,307.6 234.2,311.8 229.2,311.8 		"/>
		<polygon class="st0" points="226.8,93.3 229.2,89.1 234.2,89.1 236.6,93.3 234.2,97.6 229.2,97.6 		"/>
		<polygon class="st0" points="226.8,105.2 229.2,101 234.2,101 236.6,105.2 234.2,109.5 229.2,109.5 		"/>
		<polygon class="st0" points="226.8,117.1 229.2,112.9 234.2,112.9 236.6,117.1 234.2,121.4 229.2,121.4 		"/>
		<polygon class="st0" points="226.8,129 229.2,124.8 234.2,124.8 236.6,129 234.2,133.3 229.2,133.3 		"/>
		<polygon class="st0" points="226.8,69.5 229.2,65.3 234.2,65.3 236.6,69.5 234.2,73.8 229.2,73.8 		"/>
		<polygon class="st0" points="226.8,81.4 229.2,77.2 234.2,77.2 236.6,81.4 234.2,85.7 229.2,85.7 		"/>
		<polygon class="st0" points="237.1,135 239.6,130.7 244.5,130.7 246.9,135 244.5,139.2 239.6,139.2 		"/>
		<polygon class="st0" points="237.1,146.9 239.6,142.6 244.5,142.6 246.9,146.9 244.5,151.1 239.6,151.1 		"/>
		<polygon class="st0" points="237.1,158.8 239.6,154.5 244.5,154.5 246.9,158.8 244.5,163 239.6,163 		"/>
		<polygon class="st0" points="237.1,170.7 239.6,166.4 244.5,166.4 246.9,170.7 244.5,174.9 239.6,174.9 		"/>
		<polygon class="st0" points="237.1,182.6 239.6,178.3 244.5,178.3 246.9,182.6 244.5,186.8 239.6,186.8 		"/>
		<polygon class="st0" points="237.1,194.5 239.6,190.2 244.5,190.2 246.9,194.5 244.5,198.7 239.6,198.7 		"/>
		<polygon class="st0" points="237.1,206.4 239.6,202.1 244.5,202.1 246.9,206.4 244.5,210.6 239.6,210.6 		"/>
		<polygon class="st0" points="237.1,218.3 239.6,214 244.5,214 246.9,218.3 244.5,222.5 239.6,222.5 		"/>
		<polygon class="st0" points="237.1,230.2 239.6,225.9 244.5,225.9 246.9,230.2 244.5,234.5 239.6,234.5 		"/>
		<polygon class="st0" points="237.1,242.1 239.6,237.8 244.5,237.8 246.9,242.1 244.5,246.4 239.6,246.4 		"/>
		<polygon class="st0" points="237.1,254 239.6,249.8 244.5,249.8 246.9,254 244.5,258.3 239.6,258.3 		"/>
		<polygon class="st0" points="237.1,265.9 239.6,261.7 244.5,261.7 246.9,265.9 244.5,270.2 239.6,270.2 		"/>
		<polygon class="st0" points="237.1,277.8 239.6,273.6 244.5,273.6 246.9,277.8 244.5,282.1 239.6,282.1 		"/>
		<polygon class="st0" points="237.1,289.7 239.6,285.5 244.5,285.5 246.9,289.7 244.5,294 239.6,294 		"/>
		<polygon class="st0" points="237.1,301.6 239.6,297.4 244.5,297.4 246.9,301.6 244.5,305.9 239.6,305.9 		"/>
		<polygon class="st0" points="237.1,313.5 239.6,309.3 244.5,309.3 246.9,313.5 244.5,317.8 239.6,317.8 		"/>
		<polygon class="st0" points="237.1,325.4 239.6,321.2 244.5,321.2 246.9,325.4 244.5,329.7 239.6,329.7 		"/>
		<polygon class="st0" points="237.1,87.4 239.6,83.1 244.5,83.1 246.9,87.4 244.5,91.6 239.6,91.6 		"/>
		<polygon class="st0" points="237.1,99.3 239.6,95 244.5,95 246.9,99.3 244.5,103.5 239.6,103.5 		"/>
		<polygon class="st0" points="237.1,111.2 239.6,106.9 244.5,106.9 246.9,111.2 244.5,115.4 239.6,115.4 		"/>
		<polygon class="st0" points="237.1,123.1 239.6,118.8 244.5,118.8 246.9,123.1 244.5,127.3 239.6,127.3 		"/>
		<polygon class="st0" points="237.1,75.5 239.6,71.2 244.5,71.2 246.9,75.5 244.5,79.7 239.6,79.7 		"/>
		<polygon class="st0" points="268,140.9 270.5,136.7 275.4,136.7 277.9,140.9 275.4,145.2 270.5,145.2 		"/>
		<polygon class="st0" points="268,152.8 270.5,148.6 275.4,148.6 277.9,152.8 275.4,157.1 270.5,157.1 		"/>
		<polygon class="st0" points="268,164.7 270.5,160.5 275.4,160.5 277.9,164.7 275.4,169 270.5,169 		"/>
		<polygon class="st0" points="268,176.6 270.5,172.4 275.4,172.4 277.9,176.6 275.4,180.9 270.5,180.9 		"/>
		<polygon class="st0" points="268,188.5 270.5,184.3 275.4,184.3 277.9,188.5 275.4,192.8 270.5,192.8 		"/>
		<polygon class="st0" points="268,200.4 270.5,196.2 275.4,196.2 277.9,200.4 275.4,204.7 270.5,204.7 		"/>
		<polygon class="st0" points="268,212.3 270.5,208.1 275.4,208.1 277.9,212.3 275.4,216.6 270.5,216.6 		"/>
		<polygon class="st0" points="268,224.2 270.5,220 275.4,220 277.9,224.2 275.4,228.5 270.5,228.5 		"/>
		<polygon class="st0" points="268,236.1 270.5,231.9 275.4,231.9 277.9,236.1 275.4,240.4 270.5,240.4 		"/>
		<polygon class="st0" points="268,248.1 270.5,243.8 275.4,243.8 277.9,248.1 275.4,252.3 270.5,252.3 		"/>
		<polygon class="st0" points="268,260 270.5,255.7 275.4,255.7 277.9,260 275.4,264.2 270.5,264.2 		"/>
		<polygon class="st0" points="268,271.9 270.5,267.6 275.4,267.6 277.9,271.9 275.4,276.1 270.5,276.1 		"/>
		<polygon class="st0" points="268,283.8 270.5,279.5 275.4,279.5 277.9,283.8 275.4,288 270.5,288 		"/>
		<polygon class="st0" points="268,295.7 270.5,291.4 275.4,291.4 277.9,295.7 275.4,299.9 270.5,299.9 		"/>
		<polygon class="st0" points="268,307.6 270.5,303.3 275.4,303.3 277.9,307.6 275.4,311.8 270.5,311.8 		"/>
		<polygon class="st0" points="268,319.5 270.5,315.2 275.4,315.2 277.9,319.5 275.4,323.7 270.5,323.7 		"/>
		<polygon class="st0" points="268,93.3 270.5,89.1 275.4,89.1 277.9,93.3 275.4,97.6 270.5,97.6 		"/>
		<polygon class="st0" points="268,105.2 270.5,101 275.4,101 277.9,105.2 275.4,109.5 270.5,109.5 		"/>
		<polygon class="st0" points="268,117.1 270.5,112.9 275.4,112.9 277.9,117.1 275.4,121.4 270.5,121.4 		"/>
		<polygon class="st0" points="268,129 270.5,124.8 275.4,124.8 277.9,129 275.4,133.3 270.5,133.3 		"/>
		<polygon class="st0" points="268,81.4 270.5,77.2 275.4,77.2 277.9,81.4 275.4,85.7 270.5,85.7 		"/>
		<polygon class="st0" points="278.4,135 280.8,130.7 285.7,130.7 288.2,135 285.7,139.2 280.8,139.2 		"/>
		<polygon class="st0" points="278.4,146.9 280.8,142.6 285.7,142.6 288.2,146.9 285.7,151.1 280.8,151.1 		"/>
		<polygon class="st0" points="278.4,158.8 280.8,154.5 285.7,154.5 288.2,158.8 285.7,163 280.8,163 		"/>
		<polygon class="st0" points="278.4,170.7 280.8,166.4 285.7,166.4 288.2,170.7 285.7,174.9 280.8,174.9 		"/>
		<polygon class="st0" points="278.4,182.6 280.8,178.3 285.7,178.3 288.2,182.6 285.7,186.8 280.8,186.8 		"/>
		<polygon class="st0" points="278.4,194.5 280.8,190.2 285.7,190.2 288.2,194.5 285.7,198.7 280.8,198.7 		"/>
		<polygon class="st0" points="278.4,206.4 280.8,202.1 285.7,202.1 288.2,206.4 285.7,210.6 280.8,210.6 		"/>
		<polygon class="st0" points="278.4,218.3 280.8,214 285.7,214 288.2,218.3 285.7,222.5 280.8,222.5 		"/>
		<polygon class="st0" points="278.4,230.2 280.8,225.9 285.7,225.9 288.2,230.2 285.7,234.5 280.8,234.5 		"/>
		<polygon class="st0" points="278.4,242.1 280.8,237.8 285.7,237.8 288.2,242.1 285.7,246.4 280.8,246.4 		"/>
		<polygon class="st0" points="278.4,254 280.8,249.8 285.7,249.8 288.2,254 285.7,258.3 280.8,258.3 		"/>
		<polygon class="st0" points="278.4,265.9 280.8,261.7 285.7,261.7 288.2,265.9 285.7,270.2 280.8,270.2 		"/>
		<polygon class="st0" points="278.4,277.8 280.8,273.6 285.7,273.6 288.2,277.8 285.7,282.1 280.8,282.1 		"/>
		<polygon class="st0" points="278.4,289.7 280.8,285.5 285.7,285.5 288.2,289.7 285.7,294 280.8,294 		"/>
		<polygon class="st0" points="278.4,301.6 280.8,297.4 285.7,297.4 288.2,301.6 285.7,305.9 280.8,305.9 		"/>
		<polygon class="st0" points="278.4,313.5 280.8,309.3 285.7,309.3 288.2,313.5 285.7,317.8 280.8,317.8 		"/>
		<polygon class="st0" points="278.4,325.4 280.8,321.2 285.7,321.2 288.2,325.4 285.7,329.7 280.8,329.7 		"/>
		<polygon class="st0" points="278.4,337.3 280.8,333.1 285.7,333.1 288.2,337.3 285.7,341.6 280.8,341.6 		"/>
		<polygon class="st0" points="278.4,349.2 280.8,345 285.7,345 288.2,349.2 285.7,353.5 280.8,353.5 		"/>
		<polygon class="st0" points="278.4,87.4 280.8,83.1 285.7,83.1 288.2,87.4 285.7,91.6 280.8,91.6 		"/>
		<polygon class="st0" points="278.4,99.3 280.8,95 285.7,95 288.2,99.3 285.7,103.5 280.8,103.5 		"/>
		<polygon class="st0" points="278.4,111.2 280.8,106.9 285.7,106.9 288.2,111.2 285.7,115.4 280.8,115.4 		"/>
		<polygon class="st0" points="278.4,123.1 280.8,118.8 285.7,118.8 288.2,123.1 285.7,127.3 280.8,127.3 		"/>
		<polygon class="st0" points="278.4,75.5 280.8,71.2 285.7,71.2 288.2,75.5 285.7,79.7 280.8,79.7 		"/>
		<polygon class="st0" points="309.3,140.9 311.7,136.7 316.7,136.7 319.1,140.9 316.7,145.2 311.7,145.2 		"/>
		<polygon class="st0" points="309.3,152.8 311.7,148.6 316.7,148.6 319.1,152.8 316.7,157.1 311.7,157.1 		"/>
		<polygon class="st0" points="309.3,164.7 311.7,160.5 316.7,160.5 319.1,164.7 316.7,169 311.7,169 		"/>
		<polygon class="st0" points="309.3,176.6 311.7,172.4 316.7,172.4 319.1,176.6 316.7,180.9 311.7,180.9 		"/>
		<polygon class="st0" points="309.3,188.5 311.7,184.3 316.7,184.3 319.1,188.5 316.7,192.8 311.7,192.8 		"/>
		<polygon class="st0" points="309.3,200.4 311.7,196.2 316.7,196.2 319.1,200.4 316.7,204.7 311.7,204.7 		"/>
		<polygon class="st0" points="309.3,212.3 311.7,208.1 316.7,208.1 319.1,212.3 316.7,216.6 311.7,216.6 		"/>
		<polygon class="st0" points="309.3,224.2 311.7,220 316.7,220 319.1,224.2 316.7,228.5 311.7,228.5 		"/>
		<polygon class="st0" points="309.3,236.1 311.7,231.9 316.7,231.9 319.1,236.1 316.7,240.4 311.7,240.4 		"/>
		<polygon class="st0" points="309.3,248.1 311.7,243.8 316.7,243.8 319.1,248.1 316.7,252.3 311.7,252.3 		"/>
		<polygon class="st0" points="309.3,260 311.7,255.7 316.7,255.7 319.1,260 316.7,264.2 311.7,264.2 		"/>
		<polygon class="st0" points="309.3,271.9 311.7,267.6 316.7,267.6 319.1,271.9 316.7,276.1 311.7,276.1 		"/>
		<polygon class="st0" points="309.3,283.8 311.7,279.5 316.7,279.5 319.1,283.8 316.7,288 311.7,288 		"/>
		<polygon class="st0" points="309.3,295.7 311.7,291.4 316.7,291.4 319.1,295.7 316.7,299.9 311.7,299.9 		"/>
		<polygon class="st0" points="309.3,307.6 311.7,303.3 316.7,303.3 319.1,307.6 316.7,311.8 311.7,311.8 		"/>
		<polygon class="st0" points="309.3,319.5 311.7,315.2 316.7,315.2 319.1,319.5 316.7,323.7 311.7,323.7 		"/>
		<polygon class="st0" points="309.3,331.4 311.7,327.1 316.7,327.1 319.1,331.4 316.7,335.6 311.7,335.6 		"/>
		<polygon class="st0" points="309.3,343.3 311.7,339 316.7,339 319.1,343.3 316.7,347.5 311.7,347.5 		"/>
		<polygon class="st0" points="309.3,355.2 311.7,350.9 316.7,350.9 319.1,355.2 316.7,359.4 311.7,359.4 		"/>
		<polygon class="st0" points="309.3,367.1 311.7,362.8 316.7,362.8 319.1,367.1 316.7,371.3 311.7,371.3 		"/>
		<polygon class="st0" points="309.3,93.3 311.7,89.1 316.7,89.1 319.1,93.3 316.7,97.6 311.7,97.6 		"/>
		<polygon class="st0" points="309.3,105.2 311.7,101 316.7,101 319.1,105.2 316.7,109.5 311.7,109.5 		"/>
		<polygon class="st0" points="309.3,117.1 311.7,112.9 316.7,112.9 319.1,117.1 316.7,121.4 311.7,121.4 		"/>
		<polygon class="st0" points="309.3,129 311.7,124.8 316.7,124.8 319.1,129 316.7,133.3 311.7,133.3 		"/>
		<polygon class="st0" points="309.3,81.4 311.7,77.2 316.7,77.2 319.1,81.4 316.7,85.7 311.7,85.7 		"/>
		<polygon class="st0" points="319.6,135 322.1,130.7 327,130.7 329.4,135 327,139.2 322.1,139.2 		"/>
		<polygon class="st0" points="319.6,146.9 322.1,142.6 327,142.6 329.4,146.9 327,151.1 322.1,151.1 		"/>
		<polygon class="st0" points="319.6,158.8 322.1,154.5 327,154.5 329.4,158.8 327,163 322.1,163 		"/>
		<polygon class="st0" points="319.6,170.7 322.1,166.4 327,166.4 329.4,170.7 327,174.9 322.1,174.9 		"/>
		<polygon class="st0" points="319.6,182.6 322.1,178.3 327,178.3 329.4,182.6 327,186.8 322.1,186.8 		"/>
		<polygon class="st0" points="319.6,194.5 322.1,190.2 327,190.2 329.4,194.5 327,198.7 322.1,198.7 		"/>
		<polygon class="st0" points="319.6,206.4 322.1,202.1 327,202.1 329.4,206.4 327,210.6 322.1,210.6 		"/>
		<polygon class="st0" points="319.6,218.3 322.1,214 327,214 329.4,218.3 327,222.5 322.1,222.5 		"/>
		<polygon class="st0" points="319.6,230.2 322.1,225.9 327,225.9 329.4,230.2 327,234.5 322.1,234.5 		"/>
		<polygon class="st0" points="319.6,242.1 322.1,237.8 327,237.8 329.4,242.1 327,246.4 322.1,246.4 		"/>
		<polygon class="st0" points="319.6,254 322.1,249.8 327,249.8 329.4,254 327,258.3 322.1,258.3 		"/>
		<polygon class="st0" points="319.6,265.9 322.1,261.7 327,261.7 329.4,265.9 327,270.2 322.1,270.2 		"/>
		<polygon class="st0" points="319.6,277.8 322.1,273.6 327,273.6 329.4,277.8 327,282.1 322.1,282.1 		"/>
		<polygon class="st0" points="319.6,289.7 322.1,285.5 327,285.5 329.4,289.7 327,294 322.1,294 		"/>
		<polygon class="st0" points="319.6,301.6 322.1,297.4 327,297.4 329.4,301.6 327,305.9 322.1,305.9 		"/>
		<polygon class="st0" points="319.6,313.5 322.1,309.3 327,309.3 329.4,313.5 327,317.8 322.1,317.8 		"/>
		<polygon class="st0" points="319.6,325.4 322.1,321.2 327,321.2 329.4,325.4 327,329.7 322.1,329.7 		"/>
		<polygon class="st0" points="319.6,337.3 322.1,333.1 327,333.1 329.4,337.3 327,341.6 322.1,341.6 		"/>
		<polygon class="st0" points="319.6,87.4 322.1,83.1 327,83.1 329.4,87.4 327,91.6 322.1,91.6 		"/>
		<polygon class="st0" points="319.6,99.3 322.1,95 327,95 329.4,99.3 327,103.5 322.1,103.5 		"/>
		<polygon class="st0" points="319.6,111.2 322.1,106.9 327,106.9 329.4,111.2 327,115.4 322.1,115.4 		"/>
		<polygon class="st0" points="319.6,123.1 322.1,118.8 327,118.8 329.4,123.1 327,127.3 322.1,127.3 		"/>
		<polygon class="st0" points="319.6,75.5 322.1,71.2 327,71.2 329.4,75.5 327,79.7 322.1,79.7 		"/>
		<polygon class="st0" points="350.5,140.9 353,136.7 357.9,136.7 360.4,140.9 357.9,145.2 353,145.2 		"/>
		<polygon class="st0" points="350.5,152.8 353,148.6 357.9,148.6 360.4,152.8 357.9,157.1 353,157.1 		"/>
		<polygon class="st0" points="350.5,164.7 353,160.5 357.9,160.5 360.4,164.7 357.9,169 353,169 		"/>
		<polygon class="st0" points="350.5,176.6 353,172.4 357.9,172.4 360.4,176.6 357.9,180.9 353,180.9 		"/>
		<polygon class="st0" points="350.5,188.5 353,184.3 357.9,184.3 360.4,188.5 357.9,192.8 353,192.8 		"/>
		<polygon class="st0" points="350.5,200.4 353,196.2 357.9,196.2 360.4,200.4 357.9,204.7 353,204.7 		"/>
		<polygon class="st0" points="350.5,212.3 353,208.1 357.9,208.1 360.4,212.3 357.9,216.6 353,216.6 		"/>
		<polygon class="st0" points="350.5,224.2 353,220 357.9,220 360.4,224.2 357.9,228.5 353,228.5 		"/>
		<polygon class="st0" points="350.5,236.1 353,231.9 357.9,231.9 360.4,236.1 357.9,240.4 353,240.4 		"/>
		<polygon class="st0" points="350.5,248.1 353,243.8 357.9,243.8 360.4,248.1 357.9,252.3 353,252.3 		"/>
		<polygon class="st0" points="350.5,260 353,255.7 357.9,255.7 360.4,260 357.9,264.2 353,264.2 		"/>
		<polygon class="st0" points="350.5,271.9 353,267.6 357.9,267.6 360.4,271.9 357.9,276.1 353,276.1 		"/>
		<polygon class="st0" points="350.5,283.8 353,279.5 357.9,279.5 360.4,283.8 357.9,288 353,288 		"/>
		<polygon class="st0" points="350.5,295.7 353,291.4 357.9,291.4 360.4,295.7 357.9,299.9 353,299.9 		"/>
		<polygon class="st0" points="350.5,307.6 353,303.3 357.9,303.3 360.4,307.6 357.9,311.8 353,311.8 		"/>
		<polygon class="st0" points="350.5,319.5 353,315.2 357.9,315.2 360.4,319.5 357.9,323.7 353,323.7 		"/>
		<polygon class="st0" points="350.5,93.3 353,89.1 357.9,89.1 360.4,93.3 357.9,97.6 353,97.6 		"/>
		<polygon class="st0" points="350.5,105.2 353,101 357.9,101 360.4,105.2 357.9,109.5 353,109.5 		"/>
		<polygon class="st0" points="350.5,117.1 353,112.9 357.9,112.9 360.4,117.1 357.9,121.4 353,121.4 		"/>
		<polygon class="st0" points="350.5,129 353,124.8 357.9,124.8 360.4,129 357.9,133.3 353,133.3 		"/>
		<polygon class="st0" points="350.5,81.4 353,77.2 357.9,77.2 360.4,81.4 357.9,85.7 353,85.7 		"/>
		<polygon class="st0" points="360.8,135 363.3,130.7 368.2,130.7 370.7,135 368.2,139.2 363.3,139.2 		"/>
		<polygon class="st0" points="360.8,146.9 363.3,142.6 368.2,142.6 370.7,146.9 368.2,151.1 363.3,151.1 		"/>
		<polygon class="st0" points="360.8,158.8 363.3,154.5 368.2,154.5 370.7,158.8 368.2,163 363.3,163 		"/>
		<polygon class="st0" points="360.8,170.7 363.3,166.4 368.2,166.4 370.7,170.7 368.2,174.9 363.3,174.9 		"/>
		<polygon class="st0" points="360.8,182.6 363.3,178.3 368.2,178.3 370.7,182.6 368.2,186.8 363.3,186.8 		"/>
		<polygon class="st0" points="360.8,194.5 363.3,190.2 368.2,190.2 370.7,194.5 368.2,198.7 363.3,198.7 		"/>
		<polygon class="st0" points="360.8,206.4 363.3,202.1 368.2,202.1 370.7,206.4 368.2,210.6 363.3,210.6 		"/>
		<polygon class="st0" points="360.8,218.3 363.3,214 368.2,214 370.7,218.3 368.2,222.5 363.3,222.5 		"/>
		<polygon class="st0" points="360.8,230.2 363.3,225.9 368.2,225.9 370.7,230.2 368.2,234.5 363.3,234.5 		"/>
		<polygon class="st0" points="360.8,242.1 363.3,237.8 368.2,237.8 370.7,242.1 368.2,246.4 363.3,246.4 		"/>
		<polygon class="st0" points="360.8,254 363.3,249.8 368.2,249.8 370.7,254 368.2,258.3 363.3,258.3 		"/>
		<polygon class="st0" points="360.8,265.9 363.3,261.7 368.2,261.7 370.7,265.9 368.2,270.2 363.3,270.2 		"/>
		<polygon class="st0" points="360.8,277.8 363.3,273.6 368.2,273.6 370.7,277.8 368.2,282.1 363.3,282.1 		"/>
		<polygon class="st0" points="360.8,289.7 363.3,285.5 368.2,285.5 370.7,289.7 368.2,294 363.3,294 		"/>
		<polygon class="st0" points="360.8,301.6 363.3,297.4 368.2,297.4 370.7,301.6 368.2,305.9 363.3,305.9 		"/>
		<polygon class="st0" points="360.8,313.5 363.3,309.3 368.2,309.3 370.7,313.5 368.2,317.8 363.3,317.8 		"/>
		<polygon class="st0" points="360.8,325.4 363.3,321.2 368.2,321.2 370.7,325.4 368.2,329.7 363.3,329.7 		"/>
		<polygon class="st0" points="360.8,87.4 363.3,83.1 368.2,83.1 370.7,87.4 368.2,91.6 363.3,91.6 		"/>
		<polygon class="st0" points="360.8,99.3 363.3,95 368.2,95 370.7,99.3 368.2,103.5 363.3,103.5 		"/>
		<polygon class="st0" points="360.8,111.2 363.3,106.9 368.2,106.9 370.7,111.2 368.2,115.4 363.3,115.4 		"/>
		<polygon class="st0" points="360.8,123.1 363.3,118.8 368.2,118.8 370.7,123.1 368.2,127.3 363.3,127.3 		"/>
		<polygon class="st0" points="391.8,140.9 394.2,136.7 399.2,136.7 401.6,140.9 399.2,145.2 394.2,145.2 		"/>
		<polygon class="st0" points="391.8,152.8 394.2,148.6 399.2,148.6 401.6,152.8 399.2,157.1 394.2,157.1 		"/>
		<polygon class="st0" points="391.8,164.7 394.2,160.5 399.2,160.5 401.6,164.7 399.2,169 394.2,169 		"/>
		<polygon class="st0" points="391.8,176.6 394.2,172.4 399.2,172.4 401.6,176.6 399.2,180.9 394.2,180.9 		"/>
		<polygon class="st0" points="391.8,188.5 394.2,184.3 399.2,184.3 401.6,188.5 399.2,192.8 394.2,192.8 		"/>
		<polygon class="st0" points="391.8,200.4 394.2,196.2 399.2,196.2 401.6,200.4 399.2,204.7 394.2,204.7 		"/>
		<polygon class="st0" points="391.8,212.3 394.2,208.1 399.2,208.1 401.6,212.3 399.2,216.6 394.2,216.6 		"/>
		<polygon class="st0" points="391.8,224.2 394.2,220 399.2,220 401.6,224.2 399.2,228.5 394.2,228.5 		"/>
		<polygon class="st0" points="391.8,236.1 394.2,231.9 399.2,231.9 401.6,236.1 399.2,240.4 394.2,240.4 		"/>
		<polygon class="st0" points="391.8,248.1 394.2,243.8 399.2,243.8 401.6,248.1 399.2,252.3 394.2,252.3 		"/>
		<polygon class="st0" points="391.8,260 394.2,255.7 399.2,255.7 401.6,260 399.2,264.2 394.2,264.2 		"/>
		<polygon class="st0" points="391.8,271.9 394.2,267.6 399.2,267.6 401.6,271.9 399.2,276.1 394.2,276.1 		"/>
		<polygon class="st0" points="391.8,283.8 394.2,279.5 399.2,279.5 401.6,283.8 399.2,288 394.2,288 		"/>
		<polygon class="st0" points="391.8,295.7 394.2,291.4 399.2,291.4 401.6,295.7 399.2,299.9 394.2,299.9 		"/>
		<polygon class="st0" points="391.8,307.6 394.2,303.3 399.2,303.3 401.6,307.6 399.2,311.8 394.2,311.8 		"/>
		<polygon class="st0" points="391.8,319.5 394.2,315.2 399.2,315.2 401.6,319.5 399.2,323.7 394.2,323.7 		"/>
		<polygon class="st0" points="391.8,331.4 394.2,327.1 399.2,327.1 401.6,331.4 399.2,335.6 394.2,335.6 		"/>
		<polygon class="st0" points="391.8,105.2 394.2,101 399.2,101 401.6,105.2 399.2,109.5 394.2,109.5 		"/>
		<polygon class="st0" points="391.8,117.1 394.2,112.9 399.2,112.9 401.6,117.1 399.2,121.4 394.2,121.4 		"/>
		<polygon class="st0" points="391.8,129 394.2,124.8 399.2,124.8 401.6,129 399.2,133.3 394.2,133.3 		"/>
		<polygon class="st0" points="391.8,81.4 394.2,77.2 399.2,77.2 401.6,81.4 399.2,85.7 394.2,85.7 		"/>
		<polygon class="st0" points="402.1,135 404.6,130.7 409.5,130.7 411.9,135 409.5,139.2 404.6,139.2 		"/>
		<polygon class="st0" points="402.1,146.9 404.6,142.6 409.5,142.6 411.9,146.9 409.5,151.1 404.6,151.1 		"/>
		<polygon class="st0" points="402.1,158.8 404.6,154.5 409.5,154.5 411.9,158.8 409.5,163 404.6,163 		"/>
		<polygon class="st0" points="402.1,170.7 404.6,166.4 409.5,166.4 411.9,170.7 409.5,174.9 404.6,174.9 		"/>
		<polygon class="st0" points="402.1,182.6 404.6,178.3 409.5,178.3 411.9,182.6 409.5,186.8 404.6,186.8 		"/>
		<polygon class="st0" points="402.1,194.5 404.6,190.2 409.5,190.2 411.9,194.5 409.5,198.7 404.6,198.7 		"/>
		<polygon class="st0" points="402.1,206.4 404.6,202.1 409.5,202.1 411.9,206.4 409.5,210.6 404.6,210.6 		"/>
		<polygon class="st0" points="402.1,218.3 404.6,214 409.5,214 411.9,218.3 409.5,222.5 404.6,222.5 		"/>
		<polygon class="st0" points="402.1,230.2 404.6,225.9 409.5,225.9 411.9,230.2 409.5,234.5 404.6,234.5 		"/>
		<polygon class="st0" points="402.1,242.1 404.6,237.8 409.5,237.8 411.9,242.1 409.5,246.4 404.6,246.4 		"/>
		<polygon class="st0" points="402.1,254 404.6,249.8 409.5,249.8 411.9,254 409.5,258.3 404.6,258.3 		"/>
		<polygon class="st0" points="402.1,265.9 404.6,261.7 409.5,261.7 411.9,265.9 409.5,270.2 404.6,270.2 		"/>
		<polygon class="st0" points="402.1,277.8 404.6,273.6 409.5,273.6 411.9,277.8 409.5,282.1 404.6,282.1 		"/>
		<polygon class="st0" points="402.1,289.7 404.6,285.5 409.5,285.5 411.9,289.7 409.5,294 404.6,294 		"/>
		<polygon class="st0" points="402.1,301.6 404.6,297.4 409.5,297.4 411.9,301.6 409.5,305.9 404.6,305.9 		"/>
		<polygon class="st0" points="402.1,313.5 404.6,309.3 409.5,309.3 411.9,313.5 409.5,317.8 404.6,317.8 		"/>
		<polygon class="st0" points="402.1,325.4 404.6,321.2 409.5,321.2 411.9,325.4 409.5,329.7 404.6,329.7 		"/>
		<polygon class="st0" points="402.1,99.3 404.6,95 409.5,95 411.9,99.3 409.5,103.5 404.6,103.5 		"/>
		<polygon class="st0" points="402.1,111.2 404.6,106.9 409.5,106.9 411.9,111.2 409.5,115.4 404.6,115.4 		"/>
		<polygon class="st0" points="402.1,123.1 404.6,118.8 409.5,118.8 411.9,123.1 409.5,127.3 404.6,127.3 		"/>
		<polygon class="st0" points="247.4,140.9 249.9,136.7 254.8,136.7 257.2,140.9 254.8,145.2 249.9,145.2 		"/>
		<polygon class="st0" points="247.4,152.8 249.9,148.6 254.8,148.6 257.2,152.8 254.8,157.1 249.9,157.1 		"/>
		<polygon class="st0" points="247.4,164.7 249.9,160.5 254.8,160.5 257.2,164.7 254.8,169 249.9,169 		"/>
		<polygon class="st0" points="247.4,176.6 249.9,172.4 254.8,172.4 257.2,176.6 254.8,180.9 249.9,180.9 		"/>
		<polygon class="st0" points="247.4,188.5 249.9,184.3 254.8,184.3 257.2,188.5 254.8,192.8 249.9,192.8 		"/>
		<polygon class="st0" points="247.4,200.4 249.9,196.2 254.8,196.2 257.2,200.4 254.8,204.7 249.9,204.7 		"/>
		<polygon class="st0" points="247.4,212.3 249.9,208.1 254.8,208.1 257.2,212.3 254.8,216.6 249.9,216.6 		"/>
		<polygon class="st0" points="247.4,224.2 249.9,220 254.8,220 257.2,224.2 254.8,228.5 249.9,228.5 		"/>
		<polygon class="st0" points="247.4,236.1 249.9,231.9 254.8,231.9 257.2,236.1 254.8,240.4 249.9,240.4 		"/>
		<polygon class="st0" points="247.4,248.1 249.9,243.8 254.8,243.8 257.2,248.1 254.8,252.3 249.9,252.3 		"/>
		<polygon class="st0" points="247.4,260 249.9,255.7 254.8,255.7 257.2,260 254.8,264.2 249.9,264.2 		"/>
		<polygon class="st0" points="247.4,271.9 249.9,267.6 254.8,267.6 257.2,271.9 254.8,276.1 249.9,276.1 		"/>
		<polygon class="st0" points="247.4,283.8 249.9,279.5 254.8,279.5 257.2,283.8 254.8,288 249.9,288 		"/>
		<polygon class="st0" points="247.4,295.7 249.9,291.4 254.8,291.4 257.2,295.7 254.8,299.9 249.9,299.9 		"/>
		<polygon class="st0" points="247.4,307.6 249.9,303.3 254.8,303.3 257.2,307.6 254.8,311.8 249.9,311.8 		"/>
		<polygon class="st0" points="247.4,319.5 249.9,315.2 254.8,315.2 257.2,319.5 254.8,323.7 249.9,323.7 		"/>
		<polygon class="st0" points="247.4,331.4 249.9,327.1 254.8,327.1 257.2,331.4 254.8,335.6 249.9,335.6 		"/>
		<polygon class="st0" points="247.4,93.3 249.9,89.1 254.8,89.1 257.2,93.3 254.8,97.6 249.9,97.6 		"/>
		<polygon class="st0" points="247.4,105.2 249.9,101 254.8,101 257.2,105.2 254.8,109.5 249.9,109.5 		"/>
		<polygon class="st0" points="247.4,117.1 249.9,112.9 254.8,112.9 257.2,117.1 254.8,121.4 249.9,121.4 		"/>
		<polygon class="st0" points="247.4,129 249.9,124.8 254.8,124.8 257.2,129 254.8,133.3 249.9,133.3 		"/>
		<polygon class="st0" points="247.4,69.5 249.9,65.3 254.8,65.3 257.2,69.5 254.8,73.8 249.9,73.8 		"/>
		<polygon class="st0" points="247.4,81.4 249.9,77.2 254.8,77.2 257.2,81.4 254.8,85.7 249.9,85.7 		"/>
		<polygon class="st0" points="257.7,135 260.2,130.7 265.1,130.7 267.5,135 265.1,139.2 260.2,139.2 		"/>
		<polygon class="st0" points="257.7,146.9 260.2,142.6 265.1,142.6 267.5,146.9 265.1,151.1 260.2,151.1 		"/>
		<polygon class="st0" points="257.7,158.8 260.2,154.5 265.1,154.5 267.5,158.8 265.1,163 260.2,163 		"/>
		<polygon class="st0" points="257.7,170.7 260.2,166.4 265.1,166.4 267.5,170.7 265.1,174.9 260.2,174.9 		"/>
		<polygon class="st0" points="257.7,182.6 260.2,178.3 265.1,178.3 267.5,182.6 265.1,186.8 260.2,186.8 		"/>
		<polygon class="st0" points="257.7,194.5 260.2,190.2 265.1,190.2 267.5,194.5 265.1,198.7 260.2,198.7 		"/>
		<polygon class="st0" points="257.7,206.4 260.2,202.1 265.1,202.1 267.5,206.4 265.1,210.6 260.2,210.6 		"/>
		<polygon class="st0" points="257.7,218.3 260.2,214 265.1,214 267.5,218.3 265.1,222.5 260.2,222.5 		"/>
		<polygon class="st0" points="257.7,230.2 260.2,225.9 265.1,225.9 267.5,230.2 265.1,234.5 260.2,234.5 		"/>
		<polygon class="st0" points="257.7,242.1 260.2,237.8 265.1,237.8 267.5,242.1 265.1,246.4 260.2,246.4 		"/>
		<polygon class="st0" points="257.7,254 260.2,249.8 265.1,249.8 267.5,254 265.1,258.3 260.2,258.3 		"/>
		<polygon class="st0" points="257.7,265.9 260.2,261.7 265.1,261.7 267.5,265.9 265.1,270.2 260.2,270.2 		"/>
		<polygon class="st0" points="257.7,277.8 260.2,273.6 265.1,273.6 267.5,277.8 265.1,282.1 260.2,282.1 		"/>
		<polygon class="st0" points="257.7,289.7 260.2,285.5 265.1,285.5 267.5,289.7 265.1,294 260.2,294 		"/>
		<polygon class="st0" points="257.7,301.6 260.2,297.4 265.1,297.4 267.5,301.6 265.1,305.9 260.2,305.9 		"/>
		<polygon class="st0" points="257.7,313.5 260.2,309.3 265.1,309.3 267.5,313.5 265.1,317.8 260.2,317.8 		"/>
		<polygon class="st0" points="257.7,87.4 260.2,83.1 265.1,83.1 267.5,87.4 265.1,91.6 260.2,91.6 		"/>
		<polygon class="st0" points="257.7,99.3 260.2,95 265.1,95 267.5,99.3 265.1,103.5 260.2,103.5 		"/>
		<polygon class="st0" points="257.7,111.2 260.2,106.9 265.1,106.9 267.5,111.2 265.1,115.4 260.2,115.4 		"/>
		<polygon class="st0" points="257.7,123.1 260.2,118.8 265.1,118.8 267.5,123.1 265.1,127.3 260.2,127.3 		"/>
		<polygon class="st0" points="257.7,75.5 260.2,71.2 265.1,71.2 267.5,75.5 265.1,79.7 260.2,79.7 		"/>
		<polygon class="st0" points="288.7,140.9 291.1,136.7 296,136.7 298.5,140.9 296,145.2 291.1,145.2 		"/>
		<polygon class="st0" points="288.7,152.8 291.1,148.6 296,148.6 298.5,152.8 296,157.1 291.1,157.1 		"/>
		<polygon class="st0" points="288.7,164.7 291.1,160.5 296,160.5 298.5,164.7 296,169 291.1,169 		"/>
		<polygon class="st0" points="288.7,176.6 291.1,172.4 296,172.4 298.5,176.6 296,180.9 291.1,180.9 		"/>
		<polygon class="st0" points="288.7,188.5 291.1,184.3 296,184.3 298.5,188.5 296,192.8 291.1,192.8 		"/>
		<polygon class="st0" points="288.7,200.4 291.1,196.2 296,196.2 298.5,200.4 296,204.7 291.1,204.7 		"/>
		<polygon class="st0" points="288.7,212.3 291.1,208.1 296,208.1 298.5,212.3 296,216.6 291.1,216.6 		"/>
		<polygon class="st0" points="288.7,224.2 291.1,220 296,220 298.5,224.2 296,228.5 291.1,228.5 		"/>
		<polygon class="st0" points="288.7,236.1 291.1,231.9 296,231.9 298.5,236.1 296,240.4 291.1,240.4 		"/>
		<polygon class="st0" points="288.7,248.1 291.1,243.8 296,243.8 298.5,248.1 296,252.3 291.1,252.3 		"/>
		<polygon class="st0" points="288.7,260 291.1,255.7 296,255.7 298.5,260 296,264.2 291.1,264.2 		"/>
		<polygon class="st0" points="288.7,271.9 291.1,267.6 296,267.6 298.5,271.9 296,276.1 291.1,276.1 		"/>
		<polygon class="st0" points="288.7,283.8 291.1,279.5 296,279.5 298.5,283.8 296,288 291.1,288 		"/>
		<polygon class="st0" points="288.7,295.7 291.1,291.4 296,291.4 298.5,295.7 296,299.9 291.1,299.9 		"/>
		<polygon class="st0" points="288.7,307.6 291.1,303.3 296,303.3 298.5,307.6 296,311.8 291.1,311.8 		"/>
		<polygon class="st0" points="288.7,319.5 291.1,315.2 296,315.2 298.5,319.5 296,323.7 291.1,323.7 		"/>
		<polygon class="st0" points="288.7,331.4 291.1,327.1 296,327.1 298.5,331.4 296,335.6 291.1,335.6 		"/>
		<polygon class="st0" points="288.7,343.3 291.1,339 296,339 298.5,343.3 296,347.5 291.1,347.5 		"/>
		<polygon class="st0" points="288.7,355.2 291.1,350.9 296,350.9 298.5,355.2 296,359.4 291.1,359.4 		"/>
		<polygon class="st0" points="288.7,367.1 291.1,362.8 296,362.8 298.5,367.1 296,371.3 291.1,371.3 		"/>
		<polygon class="st0" points="288.7,93.3 291.1,89.1 296,89.1 298.5,93.3 296,97.6 291.1,97.6 		"/>
		<polygon class="st0" points="288.7,105.2 291.1,101 296,101 298.5,105.2 296,109.5 291.1,109.5 		"/>
		<polygon class="st0" points="288.7,117.1 291.1,112.9 296,112.9 298.5,117.1 296,121.4 291.1,121.4 		"/>
		<polygon class="st0" points="288.7,129 291.1,124.8 296,124.8 298.5,129 296,133.3 291.1,133.3 		"/>
		<polygon class="st0" points="288.7,81.4 291.1,77.2 296,77.2 298.5,81.4 296,85.7 291.1,85.7 		"/>
		<polygon class="st0" points="299,135 301.4,130.7 306.3,130.7 308.8,135 306.3,139.2 301.4,139.2 		"/>
		<polygon class="st0" points="299,146.9 301.4,142.6 306.3,142.6 308.8,146.9 306.3,151.1 301.4,151.1 		"/>
		<polygon class="st0" points="299,158.8 301.4,154.5 306.3,154.5 308.8,158.8 306.3,163 301.4,163 		"/>
		<polygon class="st0" points="299,170.7 301.4,166.4 306.3,166.4 308.8,170.7 306.3,174.9 301.4,174.9 		"/>
		<polygon class="st0" points="299,182.6 301.4,178.3 306.3,178.3 308.8,182.6 306.3,186.8 301.4,186.8 		"/>
		<polygon class="st0" points="299,194.5 301.4,190.2 306.3,190.2 308.8,194.5 306.3,198.7 301.4,198.7 		"/>
		<polygon class="st0" points="299,206.4 301.4,202.1 306.3,202.1 308.8,206.4 306.3,210.6 301.4,210.6 		"/>
		<polygon class="st0" points="299,218.3 301.4,214 306.3,214 308.8,218.3 306.3,222.5 301.4,222.5 		"/>
		<polygon class="st0" points="299,230.2 301.4,225.9 306.3,225.9 308.8,230.2 306.3,234.5 301.4,234.5 		"/>
		<polygon class="st0" points="299,242.1 301.4,237.8 306.3,237.8 308.8,242.1 306.3,246.4 301.4,246.4 		"/>
		<polygon class="st0" points="299,254 301.4,249.8 306.3,249.8 308.8,254 306.3,258.3 301.4,258.3 		"/>
		<polygon class="st0" points="299,265.9 301.4,261.7 306.3,261.7 308.8,265.9 306.3,270.2 301.4,270.2 		"/>
		<polygon class="st0" points="299,277.8 301.4,273.6 306.3,273.6 308.8,277.8 306.3,282.1 301.4,282.1 		"/>
		<polygon class="st0" points="299,289.7 301.4,285.5 306.3,285.5 308.8,289.7 306.3,294 301.4,294 		"/>
		<polygon class="st0" points="299,301.6 301.4,297.4 306.3,297.4 308.8,301.6 306.3,305.9 301.4,305.9 		"/>
		<polygon class="st0" points="299,313.5 301.4,309.3 306.3,309.3 308.8,313.5 306.3,317.8 301.4,317.8 		"/>
		<polygon class="st0" points="299,325.4 301.4,321.2 306.3,321.2 308.8,325.4 306.3,329.7 301.4,329.7 		"/>
		<polygon class="st0" points="299,337.3 301.4,333.1 306.3,333.1 308.8,337.3 306.3,341.6 301.4,341.6 		"/>
		<polygon class="st0" points="299,349.2 301.4,345 306.3,345 308.8,349.2 306.3,353.5 301.4,353.5 		"/>
		<polygon class="st0" points="299,361.1 301.4,356.9 306.3,356.9 308.8,361.1 306.3,365.4 301.4,365.4 		"/>
		<polygon class="st0" points="299,373 301.4,368.8 306.3,368.8 308.8,373 306.3,377.3 301.4,377.3 		"/>
		<polygon class="st0" points="299,87.4 301.4,83.1 306.3,83.1 308.8,87.4 306.3,91.6 301.4,91.6 		"/>
		<polygon class="st0" points="299,99.3 301.4,95 306.3,95 308.8,99.3 306.3,103.5 301.4,103.5 		"/>
		<polygon class="st0" points="299,111.2 301.4,106.9 306.3,106.9 308.8,111.2 306.3,115.4 301.4,115.4 		"/>
		<polygon class="st0" points="299,123.1 301.4,118.8 306.3,118.8 308.8,123.1 306.3,127.3 301.4,127.3 		"/>
		<polygon class="st0" points="299,75.5 301.4,71.2 306.3,71.2 308.8,75.5 306.3,79.7 301.4,79.7 		"/>
		<polygon class="st0" points="329.9,140.9 332.4,136.7 337.3,136.7 339.7,140.9 337.3,145.2 332.4,145.2 		"/>
		<polygon class="st0" points="329.9,152.8 332.4,148.6 337.3,148.6 339.7,152.8 337.3,157.1 332.4,157.1 		"/>
		<polygon class="st0" points="329.9,164.7 332.4,160.5 337.3,160.5 339.7,164.7 337.3,169 332.4,169 		"/>
		<polygon class="st0" points="329.9,176.6 332.4,172.4 337.3,172.4 339.7,176.6 337.3,180.9 332.4,180.9 		"/>
		<polygon class="st0" points="329.9,188.5 332.4,184.3 337.3,184.3 339.7,188.5 337.3,192.8 332.4,192.8 		"/>
		<polygon class="st0" points="329.9,200.4 332.4,196.2 337.3,196.2 339.7,200.4 337.3,204.7 332.4,204.7 		"/>
		<polygon class="st0" points="329.9,212.3 332.4,208.1 337.3,208.1 339.7,212.3 337.3,216.6 332.4,216.6 		"/>
		<polygon class="st0" points="329.9,224.2 332.4,220 337.3,220 339.7,224.2 337.3,228.5 332.4,228.5 		"/>
		<polygon class="st0" points="329.9,236.1 332.4,231.9 337.3,231.9 339.7,236.1 337.3,240.4 332.4,240.4 		"/>
		<polygon class="st0" points="329.9,248.1 332.4,243.8 337.3,243.8 339.7,248.1 337.3,252.3 332.4,252.3 		"/>
		<polygon class="st0" points="329.9,260 332.4,255.7 337.3,255.7 339.7,260 337.3,264.2 332.4,264.2 		"/>
		<polygon class="st0" points="329.9,271.9 332.4,267.6 337.3,267.6 339.7,271.9 337.3,276.1 332.4,276.1 		"/>
		<polygon class="st0" points="329.9,283.8 332.4,279.5 337.3,279.5 339.7,283.8 337.3,288 332.4,288 		"/>
		<polygon class="st0" points="329.9,295.7 332.4,291.4 337.3,291.4 339.7,295.7 337.3,299.9 332.4,299.9 		"/>
		<polygon class="st0" points="329.9,307.6 332.4,303.3 337.3,303.3 339.7,307.6 337.3,311.8 332.4,311.8 		"/>
		<polygon class="st0" points="329.9,319.5 332.4,315.2 337.3,315.2 339.7,319.5 337.3,323.7 332.4,323.7 		"/>
		<polygon class="st0" points="329.9,331.4 332.4,327.1 337.3,327.1 339.7,331.4 337.3,335.6 332.4,335.6 		"/>
		<polygon class="st0" points="329.9,93.3 332.4,89.1 337.3,89.1 339.7,93.3 337.3,97.6 332.4,97.6 		"/>
		<polygon class="st0" points="329.9,105.2 332.4,101 337.3,101 339.7,105.2 337.3,109.5 332.4,109.5 		"/>
		<polygon class="st0" points="329.9,117.1 332.4,112.9 337.3,112.9 339.7,117.1 337.3,121.4 332.4,121.4 		"/>
		<polygon class="st0" points="329.9,129 332.4,124.8 337.3,124.8 339.7,129 337.3,133.3 332.4,133.3 		"/>
		<polygon class="st0" points="329.9,69.5 332.4,65.3 337.3,65.3 339.7,69.5 337.3,73.8 332.4,73.8 		"/>
		<polygon class="st0" points="329.9,81.4 332.4,77.2 337.3,77.2 339.7,81.4 337.3,85.7 332.4,85.7 		"/>
		<polygon class="st0" points="340.2,135 342.7,130.7 347.6,130.7 350,135 347.6,139.2 342.7,139.2 		"/>
		<polygon class="st0" points="340.2,146.9 342.7,142.6 347.6,142.6 350,146.9 347.6,151.1 342.7,151.1 		"/>
		<polygon class="st0" points="340.2,158.8 342.7,154.5 347.6,154.5 350,158.8 347.6,163 342.7,163 		"/>
		<polygon class="st0" points="340.2,170.7 342.7,166.4 347.6,166.4 350,170.7 347.6,174.9 342.7,174.9 		"/>
		<polygon class="st0" points="340.2,182.6 342.7,178.3 347.6,178.3 350,182.6 347.6,186.8 342.7,186.8 		"/>
		<polygon class="st0" points="340.2,194.5 342.7,190.2 347.6,190.2 350,194.5 347.6,198.7 342.7,198.7 		"/>
		<polygon class="st0" points="340.2,206.4 342.7,202.1 347.6,202.1 350,206.4 347.6,210.6 342.7,210.6 		"/>
		<polygon class="st0" points="340.2,218.3 342.7,214 347.6,214 350,218.3 347.6,222.5 342.7,222.5 		"/>
		<polygon class="st0" points="340.2,230.2 342.7,225.9 347.6,225.9 350,230.2 347.6,234.5 342.7,234.5 		"/>
		<polygon class="st0" points="340.2,242.1 342.7,237.8 347.6,237.8 350,242.1 347.6,246.4 342.7,246.4 		"/>
		<polygon class="st0" points="340.2,254 342.7,249.8 347.6,249.8 350,254 347.6,258.3 342.7,258.3 		"/>
		<polygon class="st0" points="340.2,265.9 342.7,261.7 347.6,261.7 350,265.9 347.6,270.2 342.7,270.2 		"/>
		<polygon class="st0" points="340.2,277.8 342.7,273.6 347.6,273.6 350,277.8 347.6,282.1 342.7,282.1 		"/>
		<polygon class="st0" points="340.2,289.7 342.7,285.5 347.6,285.5 350,289.7 347.6,294 342.7,294 		"/>
		<polygon class="st0" points="340.2,301.6 342.7,297.4 347.6,297.4 350,301.6 347.6,305.9 342.7,305.9 		"/>
		<polygon class="st0" points="340.2,313.5 342.7,309.3 347.6,309.3 350,313.5 347.6,317.8 342.7,317.8 		"/>
		<polygon class="st0" points="340.2,325.4 342.7,321.2 347.6,321.2 350,325.4 347.6,329.7 342.7,329.7 		"/>
		<polygon class="st0" points="340.2,87.4 342.7,83.1 347.6,83.1 350,87.4 347.6,91.6 342.7,91.6 		"/>
		<polygon class="st0" points="340.2,99.3 342.7,95 347.6,95 350,99.3 347.6,103.5 342.7,103.5 		"/>
		<polygon class="st0" points="340.2,111.2 342.7,106.9 347.6,106.9 350,111.2 347.6,115.4 342.7,115.4 		"/>
		<polygon class="st0" points="340.2,123.1 342.7,118.8 347.6,118.8 350,123.1 347.6,127.3 342.7,127.3 		"/>
		<polygon class="st0" points="340.2,75.5 342.7,71.2 347.6,71.2 350,75.5 347.6,79.7 342.7,79.7 		"/>
		<polygon class="st0" points="371.2,140.9 373.6,136.7 378.5,136.7 381,140.9 378.5,145.2 373.6,145.2 		"/>
		<polygon class="st0" points="371.2,152.8 373.6,148.6 378.5,148.6 381,152.8 378.5,157.1 373.6,157.1 		"/>
		<polygon class="st0" points="371.2,164.7 373.6,160.5 378.5,160.5 381,164.7 378.5,169 373.6,169 		"/>
		<polygon class="st0" points="371.2,176.6 373.6,172.4 378.5,172.4 381,176.6 378.5,180.9 373.6,180.9 		"/>
		<polygon class="st0" points="371.2,188.5 373.6,184.3 378.5,184.3 381,188.5 378.5,192.8 373.6,192.8 		"/>
		<polygon class="st0" points="371.2,200.4 373.6,196.2 378.5,196.2 381,200.4 378.5,204.7 373.6,204.7 		"/>
		<polygon class="st0" points="371.2,212.3 373.6,208.1 378.5,208.1 381,212.3 378.5,216.6 373.6,216.6 		"/>
		<polygon class="st0" points="371.2,224.2 373.6,220 378.5,220 381,224.2 378.5,228.5 373.6,228.5 		"/>
		<polygon class="st0" points="371.2,236.1 373.6,231.9 378.5,231.9 381,236.1 378.5,240.4 373.6,240.4 		"/>
		<polygon class="st0" points="371.2,248.1 373.6,243.8 378.5,243.8 381,248.1 378.5,252.3 373.6,252.3 		"/>
		<polygon class="st0" points="371.2,260 373.6,255.7 378.5,255.7 381,260 378.5,264.2 373.6,264.2 		"/>
		<polygon class="st0" points="371.2,271.9 373.6,267.6 378.5,267.6 381,271.9 378.5,276.1 373.6,276.1 		"/>
		<polygon class="st0" points="371.2,283.8 373.6,279.5 378.5,279.5 381,283.8 378.5,288 373.6,288 		"/>
		<polygon class="st0" points="371.2,295.7 373.6,291.4 378.5,291.4 381,295.7 378.5,299.9 373.6,299.9 		"/>
		<polygon class="st0" points="371.2,307.6 373.6,303.3 378.5,303.3 381,307.6 378.5,311.8 373.6,311.8 		"/>
		<polygon class="st0" points="371.2,319.5 373.6,315.2 378.5,315.2 381,319.5 378.5,323.7 373.6,323.7 		"/>
		<polygon class="st0" points="371.2,105.2 373.6,101 378.5,101 381,105.2 378.5,109.5 373.6,109.5 		"/>
		<polygon class="st0" points="371.2,117.1 373.6,112.9 378.5,112.9 381,117.1 378.5,121.4 373.6,121.4 		"/>
		<polygon class="st0" points="371.2,129 373.6,124.8 378.5,124.8 381,129 378.5,133.3 373.6,133.3 		"/>
		<polygon class="st0" points="371.2,81.4 373.6,77.2 378.5,77.2 381,81.4 378.5,85.7 373.6,85.7 		"/>
		<polygon class="st0" points="381.5,135 383.9,130.7 388.8,130.7 391.3,135 388.8,139.2 383.9,139.2 		"/>
		<polygon class="st0" points="381.5,146.9 383.9,142.6 388.8,142.6 391.3,146.9 388.8,151.1 383.9,151.1 		"/>
		<polygon class="st0" points="381.5,158.8 383.9,154.5 388.8,154.5 391.3,158.8 388.8,163 383.9,163 		"/>
		<polygon class="st0" points="381.5,170.7 383.9,166.4 388.8,166.4 391.3,170.7 388.8,174.9 383.9,174.9 		"/>
		<polygon class="st0" points="381.5,182.6 383.9,178.3 388.8,178.3 391.3,182.6 388.8,186.8 383.9,186.8 		"/>
		<polygon class="st0" points="381.5,194.5 383.9,190.2 388.8,190.2 391.3,194.5 388.8,198.7 383.9,198.7 		"/>
		<polygon class="st0" points="381.5,206.4 383.9,202.1 388.8,202.1 391.3,206.4 388.8,210.6 383.9,210.6 		"/>
		<polygon class="st0" points="381.5,218.3 383.9,214 388.8,214 391.3,218.3 388.8,222.5 383.9,222.5 		"/>
		<polygon class="st0" points="381.5,230.2 383.9,225.9 388.8,225.9 391.3,230.2 388.8,234.5 383.9,234.5 		"/>
		<polygon class="st0" points="381.5,242.1 383.9,237.8 388.8,237.8 391.3,242.1 388.8,246.4 383.9,246.4 		"/>
		<polygon class="st0" points="381.5,254 383.9,249.8 388.8,249.8 391.3,254 388.8,258.3 383.9,258.3 		"/>
		<polygon class="st0" points="381.5,265.9 383.9,261.7 388.8,261.7 391.3,265.9 388.8,270.2 383.9,270.2 		"/>
		<polygon class="st0" points="381.5,277.8 383.9,273.6 388.8,273.6 391.3,277.8 388.8,282.1 383.9,282.1 		"/>
		<polygon class="st0" points="381.5,289.7 383.9,285.5 388.8,285.5 391.3,289.7 388.8,294 383.9,294 		"/>
		<polygon class="st0" points="381.5,301.6 383.9,297.4 388.8,297.4 391.3,301.6 388.8,305.9 383.9,305.9 		"/>
		<polygon class="st0" points="381.5,313.5 383.9,309.3 388.8,309.3 391.3,313.5 388.8,317.8 383.9,317.8 		"/>
		<polygon class="st0" points="381.5,325.4 383.9,321.2 388.8,321.2 391.3,325.4 388.8,329.7 383.9,329.7 		"/>
		<polygon class="st0" points="381.5,87.4 383.9,83.1 388.8,83.1 391.3,87.4 388.8,91.6 383.9,91.6 		"/>
		<polygon class="st0" points="381.5,111.2 383.9,106.9 388.8,106.9 391.3,111.2 388.8,115.4 383.9,115.4 		"/>
		<polygon class="st0" points="381.5,123.1 383.9,118.8 388.8,118.8 391.3,123.1 388.8,127.3 383.9,127.3 		"/>
		<polygon class="st0" points="412.4,164.7 414.9,160.5 419.8,160.5 422.2,164.7 419.8,169 414.9,169 		"/>
		<polygon class="st0" points="412.4,176.6 414.9,172.4 419.8,172.4 422.2,176.6 419.8,180.9 414.9,180.9 		"/>
		<polygon class="st0" points="412.4,188.5 414.9,184.3 419.8,184.3 422.2,188.5 419.8,192.8 414.9,192.8 		"/>
		<polygon class="st0" points="412.4,200.4 414.9,196.2 419.8,196.2 422.2,200.4 419.8,204.7 414.9,204.7 		"/>
		<polygon class="st0" points="412.4,212.3 414.9,208.1 419.8,208.1 422.2,212.3 419.8,216.6 414.9,216.6 		"/>
		<polygon class="st0" points="412.4,224.2 414.9,220 419.8,220 422.2,224.2 419.8,228.5 414.9,228.5 		"/>
		<polygon class="st0" points="412.4,236.1 414.9,231.9 419.8,231.9 422.2,236.1 419.8,240.4 414.9,240.4 		"/>
		<polygon class="st0" points="412.4,248.1 414.9,243.8 419.8,243.8 422.2,248.1 419.8,252.3 414.9,252.3 		"/>
		<polygon class="st0" points="412.4,260 414.9,255.7 419.8,255.7 422.2,260 419.8,264.2 414.9,264.2 		"/>
		<polygon class="st0" points="412.4,271.9 414.9,267.6 419.8,267.6 422.2,271.9 419.8,276.1 414.9,276.1 		"/>
		<polygon class="st0" points="412.4,283.8 414.9,279.5 419.8,279.5 422.2,283.8 419.8,288 414.9,288 		"/>
		<polygon class="st0" points="412.4,295.7 414.9,291.4 419.8,291.4 422.2,295.7 419.8,299.9 414.9,299.9 		"/>
		<polygon class="st0" points="412.4,307.6 414.9,303.3 419.8,303.3 422.2,307.6 419.8,311.8 414.9,311.8 		"/>
		<polygon class="st0" points="412.4,105.2 414.9,101 419.8,101 422.2,105.2 419.8,109.5 414.9,109.5 		"/>
		<polygon class="st0" points="422.7,135 425.2,130.7 430.1,130.7 432.5,135 430.1,139.2 425.2,139.2 		"/>
		<polygon class="st0" points="422.7,146.9 425.2,142.6 430.1,142.6 432.5,146.9 430.1,151.1 425.2,151.1 		"/>
		<polygon class="st0" points="422.7,158.8 425.2,154.5 430.1,154.5 432.5,158.8 430.1,163 425.2,163 		"/>
		<polygon class="st0" points="422.7,170.7 425.2,166.4 430.1,166.4 432.5,170.7 430.1,174.9 425.2,174.9 		"/>
		<polygon class="st0" points="422.7,182.6 425.2,178.3 430.1,178.3 432.5,182.6 430.1,186.8 425.2,186.8 		"/>
		<polygon class="st0" points="422.7,194.5 425.2,190.2 430.1,190.2 432.5,194.5 430.1,198.7 425.2,198.7 		"/>
		<polygon class="st0" points="422.7,206.4 425.2,202.1 430.1,202.1 432.5,206.4 430.1,210.6 425.2,210.6 		"/>
		<polygon class="st0" points="422.7,218.3 425.2,214 430.1,214 432.5,218.3 430.1,222.5 425.2,222.5 		"/>
		<polygon class="st0" points="422.7,230.2 425.2,225.9 430.1,225.9 432.5,230.2 430.1,234.5 425.2,234.5 		"/>
		<polygon class="st0" points="422.7,242.1 425.2,237.8 430.1,237.8 432.5,242.1 430.1,246.4 425.2,246.4 		"/>
		<polygon class="st0" points="422.7,254 425.2,249.8 430.1,249.8 432.5,254 430.1,258.3 425.2,258.3 		"/>
		<polygon class="st0" points="422.7,265.9 425.2,261.7 430.1,261.7 432.5,265.9 430.1,270.2 425.2,270.2 		"/>
		<polygon class="st0" points="422.7,277.8 425.2,273.6 430.1,273.6 432.5,277.8 430.1,282.1 425.2,282.1 		"/>
		<polygon class="st0" points="422.7,289.7 425.2,285.5 430.1,285.5 432.5,289.7 430.1,294 425.2,294 		"/>
		<polygon class="st0" points="422.7,301.6 425.2,297.4 430.1,297.4 432.5,301.6 430.1,305.9 425.2,305.9 		"/>
		<polygon class="st0" points="422.7,313.5 425.2,309.3 430.1,309.3 432.5,313.5 430.1,317.8 425.2,317.8 		"/>
		<polygon class="st0" points="422.7,99.3 425.2,95 430.1,95 432.5,99.3 430.1,103.5 425.2,103.5 		"/>
		<polygon class="st0" points="422.7,123.1 425.2,118.8 430.1,118.8 432.5,123.1 430.1,127.3 425.2,127.3 		"/>
		<polygon class="st0" points="433,140.9 435.5,136.7 440.4,136.7 442.9,140.9 440.4,145.2 435.5,145.2 		"/>
		<polygon class="st0" points="433,152.8 435.5,148.6 440.4,148.6 442.9,152.8 440.4,157.1 435.5,157.1 		"/>
		<polygon class="st0" points="433,164.7 435.5,160.5 440.4,160.5 442.9,164.7 440.4,169 435.5,169 		"/>
		<polygon class="st0" points="433,176.6 435.5,172.4 440.4,172.4 442.9,176.6 440.4,180.9 435.5,180.9 		"/>
		<polygon class="st0" points="433,188.5 435.5,184.3 440.4,184.3 442.9,188.5 440.4,192.8 435.5,192.8 		"/>
		<polygon class="st0" points="433,200.4 435.5,196.2 440.4,196.2 442.9,200.4 440.4,204.7 435.5,204.7 		"/>
		<polygon class="st0" points="433,212.3 435.5,208.1 440.4,208.1 442.9,212.3 440.4,216.6 435.5,216.6 		"/>
		<polygon class="st0" points="433,224.2 435.5,220 440.4,220 442.9,224.2 440.4,228.5 435.5,228.5 		"/>
		<polygon class="st0" points="433,236.1 435.5,231.9 440.4,231.9 442.9,236.1 440.4,240.4 435.5,240.4 		"/>
		<polygon class="st0" points="433,248.1 435.5,243.8 440.4,243.8 442.9,248.1 440.4,252.3 435.5,252.3 		"/>
		<polygon class="st0" points="433,260 435.5,255.7 440.4,255.7 442.9,260 440.4,264.2 435.5,264.2 		"/>
		<polygon class="st0" points="433,271.9 435.5,267.6 440.4,267.6 442.9,271.9 440.4,276.1 435.5,276.1 		"/>
		<polygon class="st0" points="433,283.8 435.5,279.5 440.4,279.5 442.9,283.8 440.4,288 435.5,288 		"/>
		<polygon class="st0" points="433,295.7 435.5,291.4 440.4,291.4 442.9,295.7 440.4,299.9 435.5,299.9 		"/>
		<polygon class="st0" points="433,307.6 435.5,303.3 440.4,303.3 442.9,307.6 440.4,311.8 435.5,311.8 		"/>
		<polygon class="st0" points="433,93.3 435.5,89.1 440.4,89.1 442.9,93.3 440.4,97.6 435.5,97.6 		"/>
		<polygon class="st0" points="433,117.1 435.5,112.9 440.4,112.9 442.9,117.1 440.4,121.4 435.5,121.4 		"/>
		<polygon class="st0" points="433,129 435.5,124.8 440.4,124.8 442.9,129 440.4,133.3 435.5,133.3 		"/>
		<polygon class="st0" points="443.3,146.9 445.8,142.6 450.7,142.6 453.2,146.9 450.7,151.1 445.8,151.1 		"/>
		<polygon class="st0" points="443.3,158.8 445.8,154.5 450.7,154.5 453.2,158.8 450.7,163 445.8,163 		"/>
		<polygon class="st0" points="443.3,170.7 445.8,166.4 450.7,166.4 453.2,170.7 450.7,174.9 445.8,174.9 		"/>
		<polygon class="st0" points="443.3,182.6 445.8,178.3 450.7,178.3 453.2,182.6 450.7,186.8 445.8,186.8 		"/>
		<polygon class="st0" points="443.3,194.5 445.8,190.2 450.7,190.2 453.2,194.5 450.7,198.7 445.8,198.7 		"/>
		<polygon class="st0" points="443.3,206.4 445.8,202.1 450.7,202.1 453.2,206.4 450.7,210.6 445.8,210.6 		"/>
		<polygon class="st0" points="443.3,218.3 445.8,214 450.7,214 453.2,218.3 450.7,222.5 445.8,222.5 		"/>
		<polygon class="st0" points="443.3,230.2 445.8,225.9 450.7,225.9 453.2,230.2 450.7,234.5 445.8,234.5 		"/>
		<polygon class="st0" points="443.3,242.1 445.8,237.8 450.7,237.8 453.2,242.1 450.7,246.4 445.8,246.4 		"/>
		<polygon class="st0" points="443.3,254 445.8,249.8 450.7,249.8 453.2,254 450.7,258.3 445.8,258.3 		"/>
		<polygon class="st0" points="443.3,265.9 445.8,261.7 450.7,261.7 453.2,265.9 450.7,270.2 445.8,270.2 		"/>
		<polygon class="st0" points="443.3,277.8 445.8,273.6 450.7,273.6 453.2,277.8 450.7,282.1 445.8,282.1 		"/>
		<polygon class="st0" points="443.3,289.7 445.8,285.5 450.7,285.5 453.2,289.7 450.7,294 445.8,294 		"/>
		<polygon class="st0" points="443.3,301.6 445.8,297.4 450.7,297.4 453.2,301.6 450.7,305.9 445.8,305.9 		"/>
		<polygon class="st0" points="443.3,313.5 445.8,309.3 450.7,309.3 453.2,313.5 450.7,317.8 445.8,317.8 		"/>
		<polygon class="st0" points="443.3,123.1 445.8,118.8 450.7,118.8 453.2,123.1 450.7,127.3 445.8,127.3 		"/>
		<polygon class="st0" points="494.9,140.9 497.4,136.7 502.3,136.7 504.7,140.9 502.3,145.2 497.4,145.2 		"/>
		<polygon class="st0" points="494.9,152.8 497.4,148.6 502.3,148.6 504.7,152.8 502.3,157.1 497.4,157.1 		"/>
		<polygon class="st0" points="494.9,164.7 497.4,160.5 502.3,160.5 504.7,164.7 502.3,169 497.4,169 		"/>
		<polygon class="st0" points="494.9,176.6 497.4,172.4 502.3,172.4 504.7,176.6 502.3,180.9 497.4,180.9 		"/>
		<polygon class="st0" points="494.9,188.5 497.4,184.3 502.3,184.3 504.7,188.5 502.3,192.8 497.4,192.8 		"/>
		<polygon class="st0" points="494.9,200.4 497.4,196.2 502.3,196.2 504.7,200.4 502.3,204.7 497.4,204.7 		"/>
		<polygon class="st0" points="494.9,212.3 497.4,208.1 502.3,208.1 504.7,212.3 502.3,216.6 497.4,216.6 		"/>
		<polygon class="st0" points="494.9,224.2 497.4,220 502.3,220 504.7,224.2 502.3,228.5 497.4,228.5 		"/>
		<polygon class="st0" points="494.9,236.1 497.4,231.9 502.3,231.9 504.7,236.1 502.3,240.4 497.4,240.4 		"/>
		<polygon class="st0" points="494.9,248.1 497.4,243.8 502.3,243.8 504.7,248.1 502.3,252.3 497.4,252.3 		"/>
		<polygon class="st0" points="494.9,260 497.4,255.7 502.3,255.7 504.7,260 502.3,264.2 497.4,264.2 		"/>
		<polygon class="st0" points="494.9,271.9 497.4,267.6 502.3,267.6 504.7,271.9 502.3,276.1 497.4,276.1 		"/>
		<polygon class="st0" points="494.9,283.8 497.4,279.5 502.3,279.5 504.7,283.8 502.3,288 497.4,288 		"/>
		<polygon class="st0" points="494.9,319.5 497.4,315.2 502.3,315.2 504.7,319.5 502.3,323.7 497.4,323.7 		"/>
		<polygon class="st0" points="494.9,331.4 497.4,327.1 502.3,327.1 504.7,331.4 502.3,335.6 497.4,335.6 		"/>
		<polygon class="st0" points="494.9,343.3 497.4,339 502.3,339 504.7,343.3 502.3,347.5 497.4,347.5 		"/>
		<polygon class="st0" points="494.9,355.2 497.4,350.9 502.3,350.9 504.7,355.2 502.3,359.4 497.4,359.4 		"/>
		<polygon class="st0" points="494.9,129 497.4,124.8 502.3,124.8 504.7,129 502.3,133.3 497.4,133.3 		"/>
		<polygon class="st0" points="505.2,135 507.7,130.7 512.6,130.7 515,135 512.6,139.2 507.7,139.2 		"/>
		<polygon class="st0" points="505.2,146.9 507.7,142.6 512.6,142.6 515,146.9 512.6,151.1 507.7,151.1 		"/>
		<polygon class="st0" points="505.2,158.8 507.7,154.5 512.6,154.5 515,158.8 512.6,163 507.7,163 		"/>
		<polygon class="st0" points="505.2,170.7 507.7,166.4 512.6,166.4 515,170.7 512.6,174.9 507.7,174.9 		"/>
		<polygon class="st0" points="505.2,182.6 507.7,178.3 512.6,178.3 515,182.6 512.6,186.8 507.7,186.8 		"/>
		<polygon class="st0" points="505.2,194.5 507.7,190.2 512.6,190.2 515,194.5 512.6,198.7 507.7,198.7 		"/>
		<polygon class="st0" points="505.2,206.4 507.7,202.1 512.6,202.1 515,206.4 512.6,210.6 507.7,210.6 		"/>
		<polygon class="st0" points="505.2,218.3 507.7,214 512.6,214 515,218.3 512.6,222.5 507.7,222.5 		"/>
		<polygon class="st0" points="505.2,230.2 507.7,225.9 512.6,225.9 515,230.2 512.6,234.5 507.7,234.5 		"/>
		<polygon class="st0" points="505.2,242.1 507.7,237.8 512.6,237.8 515,242.1 512.6,246.4 507.7,246.4 		"/>
		<polygon class="st0" points="505.2,254 507.7,249.8 512.6,249.8 515,254 512.6,258.3 507.7,258.3 		"/>
		<polygon class="st0" points="505.2,265.9 507.7,261.7 512.6,261.7 515,265.9 512.6,270.2 507.7,270.2 		"/>
		<polygon class="st0" points="505.2,325.4 507.7,321.2 512.6,321.2 515,325.4 512.6,329.7 507.7,329.7 		"/>
		<polygon class="st0" points="505.2,337.3 507.7,333.1 512.6,333.1 515,337.3 512.6,341.6 507.7,341.6 		"/>
		<polygon class="st0" points="505.2,349.2 507.7,345 512.6,345 515,349.2 512.6,353.5 507.7,353.5 		"/>
		<polygon class="st0" points="505.2,361.1 507.7,356.9 512.6,356.9 515,361.1 512.6,365.4 507.7,365.4 		"/>
		<polygon class="st0" points="505.2,373 507.7,368.8 512.6,368.8 515,373 512.6,377.3 507.7,377.3 		"/>
		<polygon class="st0" points="515.5,140.9 518,136.7 522.9,136.7 525.4,140.9 522.9,145.2 518,145.2 		"/>
		<polygon class="st0" points="515.5,152.8 518,148.6 522.9,148.6 525.4,152.8 522.9,157.1 518,157.1 		"/>
		<polygon class="st0" points="515.5,164.7 518,160.5 522.9,160.5 525.4,164.7 522.9,169 518,169 		"/>
		<polygon class="st0" points="515.5,176.6 518,172.4 522.9,172.4 525.4,176.6 522.9,180.9 518,180.9 		"/>
		<polygon class="st0" points="515.5,188.5 518,184.3 522.9,184.3 525.4,188.5 522.9,192.8 518,192.8 		"/>
		<polygon class="st0" points="515.5,200.4 518,196.2 522.9,196.2 525.4,200.4 522.9,204.7 518,204.7 		"/>
		<polygon class="st0" points="515.5,212.3 518,208.1 522.9,208.1 525.4,212.3 522.9,216.6 518,216.6 		"/>
		<polygon class="st0" points="515.5,224.2 518,220 522.9,220 525.4,224.2 522.9,228.5 518,228.5 		"/>
		<polygon class="st0" points="515.5,236.1 518,231.9 522.9,231.9 525.4,236.1 522.9,240.4 518,240.4 		"/>
		<polygon class="st0" points="515.5,248.1 518,243.8 522.9,243.8 525.4,248.1 522.9,252.3 518,252.3 		"/>
		<polygon class="st0" points="515.5,355.2 518,350.9 522.9,350.9 525.4,355.2 522.9,359.4 518,359.4 		"/>
		<polygon class="st0" points="515.5,367.1 518,362.8 522.9,362.8 525.4,367.1 522.9,371.3 518,371.3 		"/>
		<polygon class="st0" points="515.5,105.2 518,101 522.9,101 525.4,105.2 522.9,109.5 518,109.5 		"/>
		<polygon class="st0" points="515.5,117.1 518,112.9 522.9,112.9 525.4,117.1 522.9,121.4 518,121.4 		"/>
		<polygon class="st0" points="515.5,129 518,124.8 522.9,124.8 525.4,129 522.9,133.3 518,133.3 		"/>
		<polygon class="st0" points="525.8,135 528.3,130.7 533.2,130.7 535.7,135 533.2,139.2 528.3,139.2 		"/>
		<polygon class="st0" points="525.8,146.9 528.3,142.6 533.2,142.6 535.7,146.9 533.2,151.1 528.3,151.1 		"/>
		<polygon class="st0" points="525.8,158.8 528.3,154.5 533.2,154.5 535.7,158.8 533.2,163 528.3,163 		"/>
		<polygon class="st0" points="525.8,170.7 528.3,166.4 533.2,166.4 535.7,170.7 533.2,174.9 528.3,174.9 		"/>
		<polygon class="st0" points="525.8,182.6 528.3,178.3 533.2,178.3 535.7,182.6 533.2,186.8 528.3,186.8 		"/>
		<polygon class="st0" points="525.8,218.3 528.3,214 533.2,214 535.7,218.3 533.2,222.5 528.3,222.5 		"/>
		<polygon class="st0" points="525.8,230.2 528.3,225.9 533.2,225.9 535.7,230.2 533.2,234.5 528.3,234.5 		"/>
		<polygon class="st0" points="525.8,242.1 528.3,237.8 533.2,237.8 535.7,242.1 533.2,246.4 528.3,246.4 		"/>
		<polygon class="st0" points="525.8,111.2 528.3,106.9 533.2,106.9 535.7,111.2 533.2,115.4 528.3,115.4 		"/>
		<polygon class="st0" points="525.8,123.1 528.3,118.8 533.2,118.8 535.7,123.1 533.2,127.3 528.3,127.3 		"/>
		<polygon class="st0" points="453.7,140.9 456.1,136.7 461,136.7 463.5,140.9 461,145.2 456.1,145.2 		"/>
		<polygon class="st0" points="453.7,164.7 456.1,160.5 461,160.5 463.5,164.7 461,169 456.1,169 		"/>
		<polygon class="st0" points="453.7,176.6 456.1,172.4 461,172.4 463.5,176.6 461,180.9 456.1,180.9 		"/>
		<polygon class="st0" points="453.7,188.5 456.1,184.3 461,184.3 463.5,188.5 461,192.8 456.1,192.8 		"/>
		<polygon class="st0" points="453.7,200.4 456.1,196.2 461,196.2 463.5,200.4 461,204.7 456.1,204.7 		"/>
		<polygon class="st0" points="453.7,212.3 456.1,208.1 461,208.1 463.5,212.3 461,216.6 456.1,216.6 		"/>
		<polygon class="st0" points="453.7,224.2 456.1,220 461,220 463.5,224.2 461,228.5 456.1,228.5 		"/>
		<polygon class="st0" points="453.7,236.1 456.1,231.9 461,231.9 463.5,236.1 461,240.4 456.1,240.4 		"/>
		<polygon class="st0" points="453.7,248.1 456.1,243.8 461,243.8 463.5,248.1 461,252.3 456.1,252.3 		"/>
		<polygon class="st0" points="453.7,260 456.1,255.7 461,255.7 463.5,260 461,264.2 456.1,264.2 		"/>
		<polygon class="st0" points="453.7,271.9 456.1,267.6 461,267.6 463.5,271.9 461,276.1 456.1,276.1 		"/>
		<polygon class="st0" points="453.7,283.8 456.1,279.5 461,279.5 463.5,283.8 461,288 456.1,288 		"/>
		<polygon class="st0" points="453.7,295.7 456.1,291.4 461,291.4 463.5,295.7 461,299.9 456.1,299.9 		"/>
		<polygon class="st0" points="453.7,307.6 456.1,303.3 461,303.3 463.5,307.6 461,311.8 456.1,311.8 		"/>
		<polygon class="st0" points="453.7,319.5 456.1,315.2 461,315.2 463.5,319.5 461,323.7 456.1,323.7 		"/>
		<polygon class="st0" points="464,158.8 466.4,154.5 471.3,154.5 473.8,158.8 471.3,163 466.4,163 		"/>
		<polygon class="st0" points="464,170.7 466.4,166.4 471.3,166.4 473.8,170.7 471.3,174.9 466.4,174.9 		"/>
		<polygon class="st0" points="464,182.6 466.4,178.3 471.3,178.3 473.8,182.6 471.3,186.8 466.4,186.8 		"/>
		<polygon class="st0" points="464,194.5 466.4,190.2 471.3,190.2 473.8,194.5 471.3,198.7 466.4,198.7 		"/>
		<polygon class="st0" points="464,206.4 466.4,202.1 471.3,202.1 473.8,206.4 471.3,210.6 466.4,210.6 		"/>
		<polygon class="st0" points="464,218.3 466.4,214 471.3,214 473.8,218.3 471.3,222.5 466.4,222.5 		"/>
		<polygon class="st0" points="464,230.2 466.4,225.9 471.3,225.9 473.8,230.2 471.3,234.5 466.4,234.5 		"/>
		<polygon class="st0" points="464,242.1 466.4,237.8 471.3,237.8 473.8,242.1 471.3,246.4 466.4,246.4 		"/>
		<polygon class="st0" points="464,254 466.4,249.8 471.3,249.8 473.8,254 471.3,258.3 466.4,258.3 		"/>
		<polygon class="st0" points="464,265.9 466.4,261.7 471.3,261.7 473.8,265.9 471.3,270.2 466.4,270.2 		"/>
		<polygon class="st0" points="464,277.8 466.4,273.6 471.3,273.6 473.8,277.8 471.3,282.1 466.4,282.1 		"/>
		<polygon class="st0" points="464,289.7 466.4,285.5 471.3,285.5 473.8,289.7 471.3,294 466.4,294 		"/>
		<polygon class="st0" points="464,301.6 466.4,297.4 471.3,297.4 473.8,301.6 471.3,305.9 466.4,305.9 		"/>
		<polygon class="st0" points="464,313.5 466.4,309.3 471.3,309.3 473.8,313.5 471.3,317.8 466.4,317.8 		"/>
		<polygon class="st0" points="474.3,152.8 476.7,148.6 481.6,148.6 484.1,152.8 481.6,157.1 476.7,157.1 		"/>
		<polygon class="st0" points="474.3,164.7 476.7,160.5 481.6,160.5 484.1,164.7 481.6,169 476.7,169 		"/>
		<polygon class="st0" points="474.3,176.6 476.7,172.4 481.6,172.4 484.1,176.6 481.6,180.9 476.7,180.9 		"/>
		<polygon class="st0" points="474.3,188.5 476.7,184.3 481.6,184.3 484.1,188.5 481.6,192.8 476.7,192.8 		"/>
		<polygon class="st0" points="474.3,200.4 476.7,196.2 481.6,196.2 484.1,200.4 481.6,204.7 476.7,204.7 		"/>
		<polygon class="st0" points="474.3,212.3 476.7,208.1 481.6,208.1 484.1,212.3 481.6,216.6 476.7,216.6 		"/>
		<polygon class="st0" points="474.3,224.2 476.7,220 481.6,220 484.1,224.2 481.6,228.5 476.7,228.5 		"/>
		<polygon class="st0" points="474.3,236.1 476.7,231.9 481.6,231.9 484.1,236.1 481.6,240.4 476.7,240.4 		"/>
		<polygon class="st0" points="474.3,248.1 476.7,243.8 481.6,243.8 484.1,248.1 481.6,252.3 476.7,252.3 		"/>
		<polygon class="st0" points="474.3,260 476.7,255.7 481.6,255.7 484.1,260 481.6,264.2 476.7,264.2 		"/>
		<polygon class="st0" points="474.3,271.9 476.7,267.6 481.6,267.6 484.1,271.9 481.6,276.1 476.7,276.1 		"/>
		<polygon class="st0" points="474.3,283.8 476.7,279.5 481.6,279.5 484.1,283.8 481.6,288 476.7,288 		"/>
		<polygon class="st0" points="474.3,295.7 476.7,291.4 481.6,291.4 484.1,295.7 481.6,299.9 476.7,299.9 		"/>
		<polygon class="st0" points="474.3,307.6 476.7,303.3 481.6,303.3 484.1,307.6 481.6,311.8 476.7,311.8 		"/>
		<polygon class="st0" points="474.3,319.5 476.7,315.2 481.6,315.2 484.1,319.5 481.6,323.7 476.7,323.7 		"/>
		<polygon class="st0" points="484.6,135 487,130.7 492,130.7 494.4,135 492,139.2 487,139.2 		"/>
		<polygon class="st0" points="484.6,146.9 487,142.6 492,142.6 494.4,146.9 492,151.1 487,151.1 		"/>
		<polygon class="st0" points="484.6,158.8 487,154.5 492,154.5 494.4,158.8 492,163 487,163 		"/>
		<polygon class="st0" points="484.6,170.7 487,166.4 492,166.4 494.4,170.7 492,174.9 487,174.9 		"/>
		<polygon class="st0" points="484.6,182.6 487,178.3 492,178.3 494.4,182.6 492,186.8 487,186.8 		"/>
		<polygon class="st0" points="484.6,194.5 487,190.2 492,190.2 494.4,194.5 492,198.7 487,198.7 		"/>
		<polygon class="st0" points="484.6,206.4 487,202.1 492,202.1 494.4,206.4 492,210.6 487,210.6 		"/>
		<polygon class="st0" points="484.6,218.3 487,214 492,214 494.4,218.3 492,222.5 487,222.5 		"/>
		<polygon class="st0" points="484.6,230.2 487,225.9 492,225.9 494.4,230.2 492,234.5 487,234.5 		"/>
		<polygon class="st0" points="484.6,242.1 487,237.8 492,237.8 494.4,242.1 492,246.4 487,246.4 		"/>
		<polygon class="st0" points="484.6,254 487,249.8 492,249.8 494.4,254 492,258.3 487,258.3 		"/>
		<polygon class="st0" points="484.6,265.9 487,261.7 492,261.7 494.4,265.9 492,270.2 487,270.2 		"/>
		<polygon class="st0" points="484.6,277.8 487,273.6 492,273.6 494.4,277.8 492,282.1 487,282.1 		"/>
		<polygon class="st0" points="484.6,289.7 487,285.5 492,285.5 494.4,289.7 492,294 487,294 		"/>
		<polygon class="st0" points="484.6,301.6 487,297.4 492,297.4 494.4,301.6 492,305.9 487,305.9 		"/>
		<polygon class="st0" points="484.6,313.5 487,309.3 492,309.3 494.4,313.5 492,317.8 487,317.8 		"/>
		<polygon class="st0" points="484.6,325.4 487,321.2 492,321.2 494.4,325.4 492,329.7 487,329.7 		"/>
		<polygon class="st0" points="484.6,337.3 487,333.1 492,333.1 494.4,337.3 492,341.6 487,341.6 		"/>
		<polygon class="st0" points="484.6,349.2 487,345 492,345 494.4,349.2 492,353.5 487,353.5 		"/>
		<polygon class="st0" points="536.2,140.9 538.6,136.7 543.5,136.7 546,140.9 543.5,145.2 538.6,145.2 		"/>
		<polygon class="st0" points="536.2,152.8 538.6,148.6 543.5,148.6 546,152.8 543.5,157.1 538.6,157.1 		"/>
		<polygon class="st0" points="536.2,164.7 538.6,160.5 543.5,160.5 546,164.7 543.5,169 538.6,169 		"/>
		<polygon class="st0" points="536.2,176.6 538.6,172.4 543.5,172.4 546,176.6 543.5,180.9 538.6,180.9 		"/>
		<polygon class="st0" points="536.2,188.5 538.6,184.3 543.5,184.3 546,188.5 543.5,192.8 538.6,192.8 		"/>
		<polygon class="st0" points="536.2,200.4 538.6,196.2 543.5,196.2 546,200.4 543.5,204.7 538.6,204.7 		"/>
		<polygon class="st0" points="536.2,224.2 538.6,220 543.5,220 546,224.2 543.5,228.5 538.6,228.5 		"/>
		<polygon class="st0" points="536.2,236.1 538.6,231.9 543.5,231.9 546,236.1 543.5,240.4 538.6,240.4 		"/>
		<polygon class="st0" points="536.2,105.2 538.6,101 543.5,101 546,105.2 543.5,109.5 538.6,109.5 		"/>
		<polygon class="st0" points="536.2,117.1 538.6,112.9 543.5,112.9 546,117.1 543.5,121.4 538.6,121.4 		"/>
		<polygon class="st0" points="536.2,129 538.6,124.8 543.5,124.8 546,129 543.5,133.3 538.6,133.3 		"/>
		<polygon class="st0" points="577.5,93.3 580,89.1 584.9,89.1 587.3,93.3 584.9,97.6 580,97.6 		"/>
		<polygon class="st0" points="577.5,129 580,124.8 584.9,124.8 587.3,129 584.9,133.3 580,133.3 		"/>
		<polygon class="st0" points="577.5,69.5 580,65.3 584.9,65.3 587.3,69.5 584.9,73.8 580,73.8 		"/>
		<polygon class="st0" points="577.5,81.4 580,77.2 584.9,77.2 587.3,81.4 584.9,85.7 580,85.7 		"/>
		<polygon class="st0" points="587.8,87.4 590.3,83.1 595.2,83.1 597.6,87.4 595.2,91.6 590.3,91.6 		"/>
		<polygon class="st0" points="546.6,135 549,130.7 553.9,130.7 556.4,135 553.9,139.2 549,139.2 		"/>
		<polygon class="st0" points="546.6,146.9 549,142.6 553.9,142.6 556.4,146.9 553.9,151.1 549,151.1 		"/>
		<polygon class="st0" points="546.6,99.3 549,95 553.9,95 556.4,99.3 553.9,103.5 549,103.5 		"/>
		<polygon class="st0" points="546.6,111.2 549,106.9 553.9,106.9 556.4,111.2 553.9,115.4 549,115.4 		"/>
		<polygon class="st0" points="546.6,123.1 549,118.8 553.9,118.8 556.4,123.1 553.9,127.3 549,127.3 		"/>
		<polygon class="st0" points="556.9,140.9 559.3,136.7 564.3,136.7 566.7,140.9 564.3,145.2 559.3,145.2 		"/>
		<polygon class="st0" points="556.9,93.3 559.3,89.1 564.3,89.1 566.7,93.3 564.3,97.6 559.3,97.6 		"/>
		<polygon class="st0" points="556.9,105.2 559.3,101 564.3,101 566.7,105.2 564.3,109.5 559.3,109.5 		"/>
		<polygon class="st0" points="556.9,117.1 559.3,112.9 564.3,112.9 566.7,117.1 564.3,121.4 559.3,121.4 		"/>
		<polygon class="st0" points="556.9,129 559.3,124.8 564.3,124.8 566.7,129 564.3,133.3 559.3,133.3 		"/>
		<polygon class="st0" points="556.9,69.5 559.3,65.3 564.3,65.3 566.7,69.5 564.3,73.8 559.3,73.8 		"/>
		<polygon class="st0" points="556.9,81.4 559.3,77.2 564.3,77.2 566.7,81.4 564.3,85.7 559.3,85.7 		"/>
		<polygon class="st0" points="567.2,135 569.7,130.7 574.6,130.7 577,135 574.6,139.2 569.7,139.2 		"/>
		<polygon class="st0" points="567.2,87.4 569.7,83.1 574.6,83.1 577,87.4 574.6,91.6 569.7,91.6 		"/>
		<polygon class="st0" points="567.2,99.3 569.7,95 574.6,95 577,99.3 574.6,103.5 569.7,103.5 		"/>
		<polygon class="st0" points="567.2,63.6 569.7,59.3 574.6,59.3 577,63.6 574.6,67.8 569.7,67.8 		"/>
		<polygon class="st0" points="567.2,75.5 569.7,71.2 574.6,71.2 577,75.5 574.6,79.7 569.7,79.7 		"/>
	</g>
</g>
<g id="Layer_2">
</g>
</svg>
